<?xml version="1.0" encoding="utf-8" standalone="no"?>
<!DOCTYPE svg PUBLIC "-//W3C//DTD SVG 1.1//EN"
  "http://www.w3.org/Graphics/SVG/1.1/DTD/svg11.dtd">
<svg height="728.391588pt" version="1.1" viewBox="0 0 981.71976 728.391588" width="981.71976pt" xmlns="http://www.w3.org/2000/svg" xmlns:xlink="http://www.w3.org/1999/xlink">
 <metadata>
  <rdf:RDF xmlns:cc="http://creativecommons.org/ns#" xmlns:dc="http://purl.org/dc/elements/1.1/" xmlns:rdf="http://www.w3.org/1999/02/22-rdf-syntax-ns#">
   <cc:Work>
    <dc:type rdf:resource="http://purl.org/dc/dcmitype/StillImage"/>
    <dc:date>2022-02-03T19:35:47.652017</dc:date>
    <dc:format>image/svg+xml</dc:format>
    <dc:creator>
     <cc:Agent>
      <dc:title>Matplotlib v3.4.0rc1, https://matplotlib.org/</dc:title>
     </cc:Agent>
    </dc:creator>
   </cc:Work>
  </rdf:RDF>
 </metadata>
 <defs>
  <style type="text/css">*{stroke-linecap:butt;stroke-linejoin:round;}</style>
 </defs>
 <g id="figure_1">
  <g id="patch_1">
   <path d="M 0 728.391588 
L 981.71976 728.391588 
L 981.71976 -0 
L 0 -0 
z
" style="fill:none;"/>
  </g>
  <g id="axes_1">
   <g id="patch_2">
    <path d="M 79.4375 340.149932 
L 422.337885 340.149932 
L 422.337885 7.348277 
L 79.4375 7.348277 
z
" style="fill:#ffffff;"/>
   </g>
   <g id="matplotlib.axis_1">
    <g id="xtick_1">
     <g id="line2d_1">
      <defs>
       <path d="M 0 0 
L 0 3.5 
" id="mccfc7b0c43" style="stroke:#000000;stroke-width:0.8;"/>
      </defs>
      <g>
       <use style="stroke:#000000;stroke-width:0.8;" x="95.023881" xlink:href="#mccfc7b0c43" y="340.149932"/>
      </g>
     </g>
    </g>
    <g id="xtick_2">
     <g id="line2d_2">
      <g>
       <use style="stroke:#000000;stroke-width:0.8;" x="126.196643" xlink:href="#mccfc7b0c43" y="340.149932"/>
      </g>
     </g>
    </g>
    <g id="xtick_3">
     <g id="line2d_3">
      <g>
       <use style="stroke:#000000;stroke-width:0.8;" x="157.369406" xlink:href="#mccfc7b0c43" y="340.149932"/>
      </g>
     </g>
    </g>
    <g id="xtick_4">
     <g id="line2d_4">
      <g>
       <use style="stroke:#000000;stroke-width:0.8;" x="188.542168" xlink:href="#mccfc7b0c43" y="340.149932"/>
      </g>
     </g>
    </g>
    <g id="xtick_5">
     <g id="line2d_5">
      <g>
       <use style="stroke:#000000;stroke-width:0.8;" x="219.71493" xlink:href="#mccfc7b0c43" y="340.149932"/>
      </g>
     </g>
    </g>
    <g id="xtick_6">
     <g id="line2d_6">
      <g>
       <use style="stroke:#000000;stroke-width:0.8;" x="250.887692" xlink:href="#mccfc7b0c43" y="340.149932"/>
      </g>
     </g>
    </g>
    <g id="xtick_7">
     <g id="line2d_7">
      <g>
       <use style="stroke:#000000;stroke-width:0.8;" x="282.060455" xlink:href="#mccfc7b0c43" y="340.149932"/>
      </g>
     </g>
    </g>
    <g id="xtick_8">
     <g id="line2d_8">
      <g>
       <use style="stroke:#000000;stroke-width:0.8;" x="313.233217" xlink:href="#mccfc7b0c43" y="340.149932"/>
      </g>
     </g>
    </g>
    <g id="xtick_9">
     <g id="line2d_9">
      <g>
       <use style="stroke:#000000;stroke-width:0.8;" x="344.405979" xlink:href="#mccfc7b0c43" y="340.149932"/>
      </g>
     </g>
    </g>
    <g id="xtick_10">
     <g id="line2d_10">
      <g>
       <use style="stroke:#000000;stroke-width:0.8;" x="375.578742" xlink:href="#mccfc7b0c43" y="340.149932"/>
      </g>
     </g>
    </g>
    <g id="xtick_11">
     <g id="line2d_11">
      <g>
       <use style="stroke:#000000;stroke-width:0.8;" x="406.751504" xlink:href="#mccfc7b0c43" y="340.149932"/>
      </g>
     </g>
    </g>
   </g>
   <g id="matplotlib.axis_2">
    <g id="ytick_1">
     <g id="line2d_12">
      <defs>
       <path d="M 0 0 
L -3.5 0 
" id="m5da0034584" style="stroke:#000000;stroke-width:0.8;"/>
      </defs>
      <g>
       <use style="stroke:#000000;stroke-width:0.8;" x="79.4375" xlink:href="#m5da0034584" y="328.012444"/>
      </g>
     </g>
     <g id="text_1">
      <!-- 30,000 -->
      <g transform="translate(30.44875 332.571506)scale(0.12 -0.12)">
       <defs>
        <path d="M 2597 2516 
Q 3050 2419 3304 2112 
Q 3559 1806 3559 1356 
Q 3559 666 3084 287 
Q 2609 -91 1734 -91 
Q 1441 -91 1130 -33 
Q 819 25 488 141 
L 488 750 
Q 750 597 1062 519 
Q 1375 441 1716 441 
Q 2309 441 2620 675 
Q 2931 909 2931 1356 
Q 2931 1769 2642 2001 
Q 2353 2234 1838 2234 
L 1294 2234 
L 1294 2753 
L 1863 2753 
Q 2328 2753 2575 2939 
Q 2822 3125 2822 3475 
Q 2822 3834 2567 4026 
Q 2313 4219 1838 4219 
Q 1578 4219 1281 4162 
Q 984 4106 628 3988 
L 628 4550 
Q 988 4650 1302 4700 
Q 1616 4750 1894 4750 
Q 2613 4750 3031 4423 
Q 3450 4097 3450 3541 
Q 3450 3153 3228 2886 
Q 3006 2619 2597 2516 
z
" id="DejaVuSans-33" transform="scale(0.015625)"/>
        <path d="M 2034 4250 
Q 1547 4250 1301 3770 
Q 1056 3291 1056 2328 
Q 1056 1369 1301 889 
Q 1547 409 2034 409 
Q 2525 409 2770 889 
Q 3016 1369 3016 2328 
Q 3016 3291 2770 3770 
Q 2525 4250 2034 4250 
z
M 2034 4750 
Q 2819 4750 3233 4129 
Q 3647 3509 3647 2328 
Q 3647 1150 3233 529 
Q 2819 -91 2034 -91 
Q 1250 -91 836 529 
Q 422 1150 422 2328 
Q 422 3509 836 4129 
Q 1250 4750 2034 4750 
z
" id="DejaVuSans-30" transform="scale(0.015625)"/>
        <path d="M 750 794 
L 1409 794 
L 1409 256 
L 897 -744 
L 494 -744 
L 750 256 
L 750 794 
z
" id="DejaVuSans-2c" transform="scale(0.015625)"/>
       </defs>
       <use xlink:href="#DejaVuSans-33"/>
       <use x="63.623047" xlink:href="#DejaVuSans-30"/>
       <use x="127.246094" xlink:href="#DejaVuSans-2c"/>
       <use x="159.033203" xlink:href="#DejaVuSans-30"/>
       <use x="222.65625" xlink:href="#DejaVuSans-30"/>
       <use x="286.279297" xlink:href="#DejaVuSans-30"/>
      </g>
     </g>
    </g>
    <g id="ytick_2">
     <g id="line2d_13">
      <g>
       <use style="stroke:#000000;stroke-width:0.8;" x="79.4375" xlink:href="#m5da0034584" y="264.761767"/>
      </g>
     </g>
     <g id="text_2">
      <!-- 40,000 -->
      <g transform="translate(30.44875 269.32083)scale(0.12 -0.12)">
       <defs>
        <path d="M 2419 4116 
L 825 1625 
L 2419 1625 
L 2419 4116 
z
M 2253 4666 
L 3047 4666 
L 3047 1625 
L 3713 1625 
L 3713 1100 
L 3047 1100 
L 3047 0 
L 2419 0 
L 2419 1100 
L 313 1100 
L 313 1709 
L 2253 4666 
z
" id="DejaVuSans-34" transform="scale(0.015625)"/>
       </defs>
       <use xlink:href="#DejaVuSans-34"/>
       <use x="63.623047" xlink:href="#DejaVuSans-30"/>
       <use x="127.246094" xlink:href="#DejaVuSans-2c"/>
       <use x="159.033203" xlink:href="#DejaVuSans-30"/>
       <use x="222.65625" xlink:href="#DejaVuSans-30"/>
       <use x="286.279297" xlink:href="#DejaVuSans-30"/>
      </g>
     </g>
    </g>
    <g id="ytick_3">
     <g id="line2d_14">
      <g>
       <use style="stroke:#000000;stroke-width:0.8;" x="79.4375" xlink:href="#m5da0034584" y="201.511091"/>
      </g>
     </g>
     <g id="text_3">
      <!-- 50,000 -->
      <g transform="translate(30.44875 206.070154)scale(0.12 -0.12)">
       <defs>
        <path d="M 691 4666 
L 3169 4666 
L 3169 4134 
L 1269 4134 
L 1269 2991 
Q 1406 3038 1543 3061 
Q 1681 3084 1819 3084 
Q 2600 3084 3056 2656 
Q 3513 2228 3513 1497 
Q 3513 744 3044 326 
Q 2575 -91 1722 -91 
Q 1428 -91 1123 -41 
Q 819 9 494 109 
L 494 744 
Q 775 591 1075 516 
Q 1375 441 1709 441 
Q 2250 441 2565 725 
Q 2881 1009 2881 1497 
Q 2881 1984 2565 2268 
Q 2250 2553 1709 2553 
Q 1456 2553 1204 2497 
Q 953 2441 691 2322 
L 691 4666 
z
" id="DejaVuSans-35" transform="scale(0.015625)"/>
       </defs>
       <use xlink:href="#DejaVuSans-35"/>
       <use x="63.623047" xlink:href="#DejaVuSans-30"/>
       <use x="127.246094" xlink:href="#DejaVuSans-2c"/>
       <use x="159.033203" xlink:href="#DejaVuSans-30"/>
       <use x="222.65625" xlink:href="#DejaVuSans-30"/>
       <use x="286.279297" xlink:href="#DejaVuSans-30"/>
      </g>
     </g>
    </g>
    <g id="ytick_4">
     <g id="line2d_15">
      <g>
       <use style="stroke:#000000;stroke-width:0.8;" x="79.4375" xlink:href="#m5da0034584" y="138.260415"/>
      </g>
     </g>
     <g id="text_4">
      <!-- 60,000 -->
      <g transform="translate(30.44875 142.819477)scale(0.12 -0.12)">
       <defs>
        <path d="M 2113 2584 
Q 1688 2584 1439 2293 
Q 1191 2003 1191 1497 
Q 1191 994 1439 701 
Q 1688 409 2113 409 
Q 2538 409 2786 701 
Q 3034 994 3034 1497 
Q 3034 2003 2786 2293 
Q 2538 2584 2113 2584 
z
M 3366 4563 
L 3366 3988 
Q 3128 4100 2886 4159 
Q 2644 4219 2406 4219 
Q 1781 4219 1451 3797 
Q 1122 3375 1075 2522 
Q 1259 2794 1537 2939 
Q 1816 3084 2150 3084 
Q 2853 3084 3261 2657 
Q 3669 2231 3669 1497 
Q 3669 778 3244 343 
Q 2819 -91 2113 -91 
Q 1303 -91 875 529 
Q 447 1150 447 2328 
Q 447 3434 972 4092 
Q 1497 4750 2381 4750 
Q 2619 4750 2861 4703 
Q 3103 4656 3366 4563 
z
" id="DejaVuSans-36" transform="scale(0.015625)"/>
       </defs>
       <use xlink:href="#DejaVuSans-36"/>
       <use x="63.623047" xlink:href="#DejaVuSans-30"/>
       <use x="127.246094" xlink:href="#DejaVuSans-2c"/>
       <use x="159.033203" xlink:href="#DejaVuSans-30"/>
       <use x="222.65625" xlink:href="#DejaVuSans-30"/>
       <use x="286.279297" xlink:href="#DejaVuSans-30"/>
      </g>
     </g>
    </g>
    <g id="ytick_5">
     <g id="line2d_16">
      <g>
       <use style="stroke:#000000;stroke-width:0.8;" x="79.4375" xlink:href="#m5da0034584" y="75.009739"/>
      </g>
     </g>
     <g id="text_5">
      <!-- 70,000 -->
      <g transform="translate(30.44875 79.568801)scale(0.12 -0.12)">
       <defs>
        <path d="M 525 4666 
L 3525 4666 
L 3525 4397 
L 1831 0 
L 1172 0 
L 2766 4134 
L 525 4134 
L 525 4666 
z
" id="DejaVuSans-37" transform="scale(0.015625)"/>
       </defs>
       <use xlink:href="#DejaVuSans-37"/>
       <use x="63.623047" xlink:href="#DejaVuSans-30"/>
       <use x="127.246094" xlink:href="#DejaVuSans-2c"/>
       <use x="159.033203" xlink:href="#DejaVuSans-30"/>
       <use x="222.65625" xlink:href="#DejaVuSans-30"/>
       <use x="286.279297" xlink:href="#DejaVuSans-30"/>
      </g>
     </g>
    </g>
    <g id="ytick_6">
     <g id="line2d_17">
      <g>
       <use style="stroke:#000000;stroke-width:0.8;" x="79.4375" xlink:href="#m5da0034584" y="11.759062"/>
      </g>
     </g>
     <g id="text_6">
      <!-- 80,000 -->
      <g transform="translate(30.44875 16.318125)scale(0.12 -0.12)">
       <defs>
        <path d="M 2034 2216 
Q 1584 2216 1326 1975 
Q 1069 1734 1069 1313 
Q 1069 891 1326 650 
Q 1584 409 2034 409 
Q 2484 409 2743 651 
Q 3003 894 3003 1313 
Q 3003 1734 2745 1975 
Q 2488 2216 2034 2216 
z
M 1403 2484 
Q 997 2584 770 2862 
Q 544 3141 544 3541 
Q 544 4100 942 4425 
Q 1341 4750 2034 4750 
Q 2731 4750 3128 4425 
Q 3525 4100 3525 3541 
Q 3525 3141 3298 2862 
Q 3072 2584 2669 2484 
Q 3125 2378 3379 2068 
Q 3634 1759 3634 1313 
Q 3634 634 3220 271 
Q 2806 -91 2034 -91 
Q 1263 -91 848 271 
Q 434 634 434 1313 
Q 434 1759 690 2068 
Q 947 2378 1403 2484 
z
M 1172 3481 
Q 1172 3119 1398 2916 
Q 1625 2713 2034 2713 
Q 2441 2713 2670 2916 
Q 2900 3119 2900 3481 
Q 2900 3844 2670 4047 
Q 2441 4250 2034 4250 
Q 1625 4250 1398 4047 
Q 1172 3844 1172 3481 
z
" id="DejaVuSans-38" transform="scale(0.015625)"/>
       </defs>
       <use xlink:href="#DejaVuSans-38"/>
       <use x="63.623047" xlink:href="#DejaVuSans-30"/>
       <use x="127.246094" xlink:href="#DejaVuSans-2c"/>
       <use x="159.033203" xlink:href="#DejaVuSans-30"/>
       <use x="222.65625" xlink:href="#DejaVuSans-30"/>
       <use x="286.279297" xlink:href="#DejaVuSans-30"/>
      </g>
     </g>
    </g>
    <g id="text_7">
     <!-- Annual opioid overdose deaths -->
     <g transform="translate(23.953125 266.651604)rotate(-90)scale(0.12 -0.12)">
      <defs>
       <path d="M 2188 4044 
L 1331 1722 
L 3047 1722 
L 2188 4044 
z
M 1831 4666 
L 2547 4666 
L 4325 0 
L 3669 0 
L 3244 1197 
L 1141 1197 
L 716 0 
L 50 0 
L 1831 4666 
z
" id="DejaVuSans-41" transform="scale(0.015625)"/>
       <path d="M 3513 2113 
L 3513 0 
L 2938 0 
L 2938 2094 
Q 2938 2591 2744 2837 
Q 2550 3084 2163 3084 
Q 1697 3084 1428 2787 
Q 1159 2491 1159 1978 
L 1159 0 
L 581 0 
L 581 3500 
L 1159 3500 
L 1159 2956 
Q 1366 3272 1645 3428 
Q 1925 3584 2291 3584 
Q 2894 3584 3203 3211 
Q 3513 2838 3513 2113 
z
" id="DejaVuSans-6e" transform="scale(0.015625)"/>
       <path d="M 544 1381 
L 544 3500 
L 1119 3500 
L 1119 1403 
Q 1119 906 1312 657 
Q 1506 409 1894 409 
Q 2359 409 2629 706 
Q 2900 1003 2900 1516 
L 2900 3500 
L 3475 3500 
L 3475 0 
L 2900 0 
L 2900 538 
Q 2691 219 2414 64 
Q 2138 -91 1772 -91 
Q 1169 -91 856 284 
Q 544 659 544 1381 
z
M 1991 3584 
L 1991 3584 
z
" id="DejaVuSans-75" transform="scale(0.015625)"/>
       <path d="M 2194 1759 
Q 1497 1759 1228 1600 
Q 959 1441 959 1056 
Q 959 750 1161 570 
Q 1363 391 1709 391 
Q 2188 391 2477 730 
Q 2766 1069 2766 1631 
L 2766 1759 
L 2194 1759 
z
M 3341 1997 
L 3341 0 
L 2766 0 
L 2766 531 
Q 2569 213 2275 61 
Q 1981 -91 1556 -91 
Q 1019 -91 701 211 
Q 384 513 384 1019 
Q 384 1609 779 1909 
Q 1175 2209 1959 2209 
L 2766 2209 
L 2766 2266 
Q 2766 2663 2505 2880 
Q 2244 3097 1772 3097 
Q 1472 3097 1187 3025 
Q 903 2953 641 2809 
L 641 3341 
Q 956 3463 1253 3523 
Q 1550 3584 1831 3584 
Q 2591 3584 2966 3190 
Q 3341 2797 3341 1997 
z
" id="DejaVuSans-61" transform="scale(0.015625)"/>
       <path d="M 603 4863 
L 1178 4863 
L 1178 0 
L 603 0 
L 603 4863 
z
" id="DejaVuSans-6c" transform="scale(0.015625)"/>
       <path id="DejaVuSans-20" transform="scale(0.015625)"/>
       <path d="M 1959 3097 
Q 1497 3097 1228 2736 
Q 959 2375 959 1747 
Q 959 1119 1226 758 
Q 1494 397 1959 397 
Q 2419 397 2687 759 
Q 2956 1122 2956 1747 
Q 2956 2369 2687 2733 
Q 2419 3097 1959 3097 
z
M 1959 3584 
Q 2709 3584 3137 3096 
Q 3566 2609 3566 1747 
Q 3566 888 3137 398 
Q 2709 -91 1959 -91 
Q 1206 -91 779 398 
Q 353 888 353 1747 
Q 353 2609 779 3096 
Q 1206 3584 1959 3584 
z
" id="DejaVuSans-6f" transform="scale(0.015625)"/>
       <path d="M 1159 525 
L 1159 -1331 
L 581 -1331 
L 581 3500 
L 1159 3500 
L 1159 2969 
Q 1341 3281 1617 3432 
Q 1894 3584 2278 3584 
Q 2916 3584 3314 3078 
Q 3713 2572 3713 1747 
Q 3713 922 3314 415 
Q 2916 -91 2278 -91 
Q 1894 -91 1617 61 
Q 1341 213 1159 525 
z
M 3116 1747 
Q 3116 2381 2855 2742 
Q 2594 3103 2138 3103 
Q 1681 3103 1420 2742 
Q 1159 2381 1159 1747 
Q 1159 1113 1420 752 
Q 1681 391 2138 391 
Q 2594 391 2855 752 
Q 3116 1113 3116 1747 
z
" id="DejaVuSans-70" transform="scale(0.015625)"/>
       <path d="M 603 3500 
L 1178 3500 
L 1178 0 
L 603 0 
L 603 3500 
z
M 603 4863 
L 1178 4863 
L 1178 4134 
L 603 4134 
L 603 4863 
z
" id="DejaVuSans-69" transform="scale(0.015625)"/>
       <path d="M 2906 2969 
L 2906 4863 
L 3481 4863 
L 3481 0 
L 2906 0 
L 2906 525 
Q 2725 213 2448 61 
Q 2172 -91 1784 -91 
Q 1150 -91 751 415 
Q 353 922 353 1747 
Q 353 2572 751 3078 
Q 1150 3584 1784 3584 
Q 2172 3584 2448 3432 
Q 2725 3281 2906 2969 
z
M 947 1747 
Q 947 1113 1208 752 
Q 1469 391 1925 391 
Q 2381 391 2643 752 
Q 2906 1113 2906 1747 
Q 2906 2381 2643 2742 
Q 2381 3103 1925 3103 
Q 1469 3103 1208 2742 
Q 947 2381 947 1747 
z
" id="DejaVuSans-64" transform="scale(0.015625)"/>
       <path d="M 191 3500 
L 800 3500 
L 1894 563 
L 2988 3500 
L 3597 3500 
L 2284 0 
L 1503 0 
L 191 3500 
z
" id="DejaVuSans-76" transform="scale(0.015625)"/>
       <path d="M 3597 1894 
L 3597 1613 
L 953 1613 
Q 991 1019 1311 708 
Q 1631 397 2203 397 
Q 2534 397 2845 478 
Q 3156 559 3463 722 
L 3463 178 
Q 3153 47 2828 -22 
Q 2503 -91 2169 -91 
Q 1331 -91 842 396 
Q 353 884 353 1716 
Q 353 2575 817 3079 
Q 1281 3584 2069 3584 
Q 2775 3584 3186 3129 
Q 3597 2675 3597 1894 
z
M 3022 2063 
Q 3016 2534 2758 2815 
Q 2500 3097 2075 3097 
Q 1594 3097 1305 2825 
Q 1016 2553 972 2059 
L 3022 2063 
z
" id="DejaVuSans-65" transform="scale(0.015625)"/>
       <path d="M 2631 2963 
Q 2534 3019 2420 3045 
Q 2306 3072 2169 3072 
Q 1681 3072 1420 2755 
Q 1159 2438 1159 1844 
L 1159 0 
L 581 0 
L 581 3500 
L 1159 3500 
L 1159 2956 
Q 1341 3275 1631 3429 
Q 1922 3584 2338 3584 
Q 2397 3584 2469 3576 
Q 2541 3569 2628 3553 
L 2631 2963 
z
" id="DejaVuSans-72" transform="scale(0.015625)"/>
       <path d="M 2834 3397 
L 2834 2853 
Q 2591 2978 2328 3040 
Q 2066 3103 1784 3103 
Q 1356 3103 1142 2972 
Q 928 2841 928 2578 
Q 928 2378 1081 2264 
Q 1234 2150 1697 2047 
L 1894 2003 
Q 2506 1872 2764 1633 
Q 3022 1394 3022 966 
Q 3022 478 2636 193 
Q 2250 -91 1575 -91 
Q 1294 -91 989 -36 
Q 684 19 347 128 
L 347 722 
Q 666 556 975 473 
Q 1284 391 1588 391 
Q 1994 391 2212 530 
Q 2431 669 2431 922 
Q 2431 1156 2273 1281 
Q 2116 1406 1581 1522 
L 1381 1569 
Q 847 1681 609 1914 
Q 372 2147 372 2553 
Q 372 3047 722 3315 
Q 1072 3584 1716 3584 
Q 2034 3584 2315 3537 
Q 2597 3491 2834 3397 
z
" id="DejaVuSans-73" transform="scale(0.015625)"/>
       <path d="M 1172 4494 
L 1172 3500 
L 2356 3500 
L 2356 3053 
L 1172 3053 
L 1172 1153 
Q 1172 725 1289 603 
Q 1406 481 1766 481 
L 2356 481 
L 2356 0 
L 1766 0 
Q 1100 0 847 248 
Q 594 497 594 1153 
L 594 3053 
L 172 3053 
L 172 3500 
L 594 3500 
L 594 4494 
L 1172 4494 
z
" id="DejaVuSans-74" transform="scale(0.015625)"/>
       <path d="M 3513 2113 
L 3513 0 
L 2938 0 
L 2938 2094 
Q 2938 2591 2744 2837 
Q 2550 3084 2163 3084 
Q 1697 3084 1428 2787 
Q 1159 2491 1159 1978 
L 1159 0 
L 581 0 
L 581 4863 
L 1159 4863 
L 1159 2956 
Q 1366 3272 1645 3428 
Q 1925 3584 2291 3584 
Q 2894 3584 3203 3211 
Q 3513 2838 3513 2113 
z
" id="DejaVuSans-68" transform="scale(0.015625)"/>
      </defs>
      <use xlink:href="#DejaVuSans-41"/>
      <use x="68.408203" xlink:href="#DejaVuSans-6e"/>
      <use x="131.787109" xlink:href="#DejaVuSans-6e"/>
      <use x="195.166016" xlink:href="#DejaVuSans-75"/>
      <use x="258.544922" xlink:href="#DejaVuSans-61"/>
      <use x="319.824219" xlink:href="#DejaVuSans-6c"/>
      <use x="347.607422" xlink:href="#DejaVuSans-20"/>
      <use x="379.394531" xlink:href="#DejaVuSans-6f"/>
      <use x="440.576172" xlink:href="#DejaVuSans-70"/>
      <use x="504.052734" xlink:href="#DejaVuSans-69"/>
      <use x="531.835938" xlink:href="#DejaVuSans-6f"/>
      <use x="593.017578" xlink:href="#DejaVuSans-69"/>
      <use x="620.800781" xlink:href="#DejaVuSans-64"/>
      <use x="684.277344" xlink:href="#DejaVuSans-20"/>
      <use x="716.064453" xlink:href="#DejaVuSans-6f"/>
      <use x="777.246094" xlink:href="#DejaVuSans-76"/>
      <use x="836.425781" xlink:href="#DejaVuSans-65"/>
      <use x="897.949219" xlink:href="#DejaVuSans-72"/>
      <use x="937.3125" xlink:href="#DejaVuSans-64"/>
      <use x="1000.789062" xlink:href="#DejaVuSans-6f"/>
      <use x="1061.970703" xlink:href="#DejaVuSans-73"/>
      <use x="1114.070312" xlink:href="#DejaVuSans-65"/>
      <use x="1175.59375" xlink:href="#DejaVuSans-20"/>
      <use x="1207.380859" xlink:href="#DejaVuSans-64"/>
      <use x="1270.857422" xlink:href="#DejaVuSans-65"/>
      <use x="1332.380859" xlink:href="#DejaVuSans-61"/>
      <use x="1393.660156" xlink:href="#DejaVuSans-74"/>
      <use x="1432.869141" xlink:href="#DejaVuSans-68"/>
      <use x="1496.248047" xlink:href="#DejaVuSans-73"/>
     </g>
    </g>
   </g>
   <g id="line2d_18">
    <path clip-path="url(#p53a28b702a)" d="M 95.023881 170.810478 
L 102.817072 176.829412 
L 110.610262 182.743351 
L 118.403453 188.545335 
L 126.196643 194.230938 
L 133.989834 199.796998 
L 141.783025 205.242249 
L 149.576215 210.565425 
L 157.369406 215.767794 
L 165.162596 220.851883 
L 172.955787 225.818959 
L 180.748977 230.67155 
L 188.542168 235.413454 
L 196.335359 240.047198 
L 204.128549 244.576579 
L 211.92174 249.006656 
L 219.71493 253.33996 
L 227.508121 257.582183 
L 235.301311 261.735855 
L 243.094502 265.803506 
L 250.887692 269.790196 
L 258.680883 273.699088 
L 266.474074 277.532711 
L 274.267264 281.292964 
L 282.060455 284.984274 
L 289.853645 288.608537 
L 297.646836 292.167653 
L 305.440026 295.66415 
L 313.233217 299.099294 
L 321.026408 302.372517 
L 328.819598 305.098621 
L 336.612789 307.494557 
L 344.405979 309.709595 
L 352.19917 311.81521 
L 359.99236 313.84366 
L 367.785551 315.812653 
L 375.578742 317.732944 
L 383.371932 319.611489 
L 391.165123 321.450186 
L 398.958313 323.253463 
L 406.751504 325.022584 
" style="fill:none;stroke:#1f77b4;stroke-linecap:square;stroke-width:1.5;"/>
   </g>
   <g id="line2d_19">
    <path clip-path="url(#p53a28b702a)" d="M 95.023881 30.4781 
L 102.817072 26.161874 
L 110.610262 23.526218 
L 118.403453 22.475625 
L 126.196643 22.888651 
L 133.989834 24.62425 
L 141.783025 27.531884 
L 149.576215 31.459751 
L 157.369406 36.259844 
L 165.162596 41.794279 
L 172.955787 47.933389 
L 180.748977 54.56206 
L 188.542168 61.577825 
L 196.335359 68.892133 
L 204.128549 76.429716 
L 211.92174 84.124794 
L 219.71493 91.92297 
L 227.508121 99.778704 
L 235.301311 107.650883 
L 243.094502 115.509147 
L 250.887692 123.325033 
L 258.680883 131.080831 
L 266.474074 138.7563 
L 274.267264 145.692369 
L 282.060455 151.477909 
L 289.853645 156.695457 
L 297.646836 161.603709 
L 305.440026 166.321577 
L 313.233217 170.905354 
L 321.026408 175.384134 
L 328.819598 179.770569 
L 336.612789 184.073512 
L 344.405979 188.29676 
L 352.19917 192.447269 
L 359.99236 196.52504 
L 367.785551 200.531971 
L 375.578742 204.47059 
L 383.371932 208.344694 
L 391.165123 212.15365 
L 398.958313 215.898722 
L 406.751504 219.581177 
" style="fill:none;stroke:#ff7f0e;stroke-linecap:square;stroke-width:1.5;"/>
   </g>
   <g id="line2d_20">
    <path clip-path="url(#p53a28b702a)" d="M 95.023881 117.415522 
L 102.817072 118.746316 
L 110.610262 120.451555 
L 118.403453 122.514792 
L 126.196643 124.91895 
L 133.989834 127.643156 
L 141.783025 130.665274 
L 149.576215 133.960634 
L 157.369406 137.507099 
L 165.162596 141.283165 
L 172.955787 145.264162 
L 180.748977 149.427954 
L 188.542168 153.752403 
L 196.335359 158.216636 
L 204.128549 162.801677 
L 211.92174 167.488552 
L 219.71493 172.260183 
L 227.508121 177.10139 
L 235.301311 181.99636 
L 243.094502 186.930545 
L 250.887692 191.891928 
L 258.680883 196.870389 
L 266.474074 201.85391 
L 274.267264 206.833003 
L 282.060455 211.800079 
L 289.853645 216.748179 
L 297.646836 221.342076 
L 305.440026 225.127629 
L 313.233217 228.502685 
L 321.026408 231.669646 
L 328.819598 234.718329 
L 336.612789 237.693008 
L 344.405979 240.612659 
L 352.19917 243.491197 
L 359.99236 246.33052 
L 367.785551 249.13379 
L 375.578742 251.903537 
L 383.371932 254.641027 
L 391.165123 257.346258 
L 398.958313 260.017967 
L 406.751504 262.65805 
" style="fill:none;stroke:#000000;stroke-dasharray:5.55,2.4;stroke-dashoffset:0;stroke-width:1.5;"/>
   </g>
   <g id="patch_3">
    <path d="M 79.4375 340.149932 
L 79.4375 7.348277 
" style="fill:none;stroke:#000000;stroke-linecap:square;stroke-linejoin:miter;stroke-width:0.8;"/>
   </g>
   <g id="patch_4">
    <path d="M 422.337885 340.149932 
L 422.337885 7.348277 
" style="fill:none;stroke:#000000;stroke-linecap:square;stroke-linejoin:miter;stroke-width:0.8;"/>
   </g>
   <g id="patch_5">
    <path d="M 79.4375 340.149932 
L 422.337885 340.149932 
" style="fill:none;stroke:#000000;stroke-linecap:square;stroke-linejoin:miter;stroke-width:0.8;"/>
   </g>
   <g id="patch_6">
    <path d="M 79.4375 7.348277 
L 422.337885 7.348277 
" style="fill:none;stroke:#000000;stroke-linecap:square;stroke-linejoin:miter;stroke-width:0.8;"/>
   </g>
  </g>
  <g id="axes_2">
   <g id="patch_7">
    <path d="M 522.299135 340.149932 
L 865.19952 340.149932 
L 865.19952 7.348277 
L 522.299135 7.348277 
z
" style="fill:#ffffff;"/>
   </g>
   <g id="matplotlib.axis_3">
    <g id="xtick_12">
     <g id="line2d_21">
      <g>
       <use style="stroke:#000000;stroke-width:0.8;" x="537.885516" xlink:href="#mccfc7b0c43" y="340.149932"/>
      </g>
     </g>
    </g>
    <g id="xtick_13">
     <g id="line2d_22">
      <g>
       <use style="stroke:#000000;stroke-width:0.8;" x="569.058278" xlink:href="#mccfc7b0c43" y="340.149932"/>
      </g>
     </g>
    </g>
    <g id="xtick_14">
     <g id="line2d_23">
      <g>
       <use style="stroke:#000000;stroke-width:0.8;" x="600.231041" xlink:href="#mccfc7b0c43" y="340.149932"/>
      </g>
     </g>
    </g>
    <g id="xtick_15">
     <g id="line2d_24">
      <g>
       <use style="stroke:#000000;stroke-width:0.8;" x="631.403803" xlink:href="#mccfc7b0c43" y="340.149932"/>
      </g>
     </g>
    </g>
    <g id="xtick_16">
     <g id="line2d_25">
      <g>
       <use style="stroke:#000000;stroke-width:0.8;" x="662.576565" xlink:href="#mccfc7b0c43" y="340.149932"/>
      </g>
     </g>
    </g>
    <g id="xtick_17">
     <g id="line2d_26">
      <g>
       <use style="stroke:#000000;stroke-width:0.8;" x="693.749327" xlink:href="#mccfc7b0c43" y="340.149932"/>
      </g>
     </g>
    </g>
    <g id="xtick_18">
     <g id="line2d_27">
      <g>
       <use style="stroke:#000000;stroke-width:0.8;" x="724.92209" xlink:href="#mccfc7b0c43" y="340.149932"/>
      </g>
     </g>
    </g>
    <g id="xtick_19">
     <g id="line2d_28">
      <g>
       <use style="stroke:#000000;stroke-width:0.8;" x="756.094852" xlink:href="#mccfc7b0c43" y="340.149932"/>
      </g>
     </g>
    </g>
    <g id="xtick_20">
     <g id="line2d_29">
      <g>
       <use style="stroke:#000000;stroke-width:0.8;" x="787.267614" xlink:href="#mccfc7b0c43" y="340.149932"/>
      </g>
     </g>
    </g>
    <g id="xtick_21">
     <g id="line2d_30">
      <g>
       <use style="stroke:#000000;stroke-width:0.8;" x="818.440377" xlink:href="#mccfc7b0c43" y="340.149932"/>
      </g>
     </g>
    </g>
    <g id="xtick_22">
     <g id="line2d_31">
      <g>
       <use style="stroke:#000000;stroke-width:0.8;" x="849.613139" xlink:href="#mccfc7b0c43" y="340.149932"/>
      </g>
     </g>
    </g>
   </g>
   <g id="matplotlib.axis_4">
    <g id="ytick_7">
     <g id="line2d_32">
      <g>
       <use style="stroke:#000000;stroke-width:0.8;" x="522.299135" xlink:href="#m5da0034584" y="318.223964"/>
      </g>
     </g>
     <g id="text_8">
      <!-- 2,200,000 -->
      <g transform="translate(454.226635 322.783027)scale(0.12 -0.12)">
       <defs>
        <path d="M 1228 531 
L 3431 531 
L 3431 0 
L 469 0 
L 469 531 
Q 828 903 1448 1529 
Q 2069 2156 2228 2338 
Q 2531 2678 2651 2914 
Q 2772 3150 2772 3378 
Q 2772 3750 2511 3984 
Q 2250 4219 1831 4219 
Q 1534 4219 1204 4116 
Q 875 4013 500 3803 
L 500 4441 
Q 881 4594 1212 4672 
Q 1544 4750 1819 4750 
Q 2544 4750 2975 4387 
Q 3406 4025 3406 3419 
Q 3406 3131 3298 2873 
Q 3191 2616 2906 2266 
Q 2828 2175 2409 1742 
Q 1991 1309 1228 531 
z
" id="DejaVuSans-32" transform="scale(0.015625)"/>
       </defs>
       <use xlink:href="#DejaVuSans-32"/>
       <use x="63.623047" xlink:href="#DejaVuSans-2c"/>
       <use x="95.410156" xlink:href="#DejaVuSans-32"/>
       <use x="159.033203" xlink:href="#DejaVuSans-30"/>
       <use x="222.65625" xlink:href="#DejaVuSans-30"/>
       <use x="286.279297" xlink:href="#DejaVuSans-2c"/>
       <use x="318.066406" xlink:href="#DejaVuSans-30"/>
       <use x="381.689453" xlink:href="#DejaVuSans-30"/>
       <use x="445.3125" xlink:href="#DejaVuSans-30"/>
      </g>
     </g>
    </g>
    <g id="ytick_8">
     <g id="line2d_33">
      <g>
       <use style="stroke:#000000;stroke-width:0.8;" x="522.299135" xlink:href="#m5da0034584" y="276.360541"/>
      </g>
     </g>
     <g id="text_9">
      <!-- 2,400,000 -->
      <g transform="translate(454.226635 280.919603)scale(0.12 -0.12)">
       <use xlink:href="#DejaVuSans-32"/>
       <use x="63.623047" xlink:href="#DejaVuSans-2c"/>
       <use x="95.410156" xlink:href="#DejaVuSans-34"/>
       <use x="159.033203" xlink:href="#DejaVuSans-30"/>
       <use x="222.65625" xlink:href="#DejaVuSans-30"/>
       <use x="286.279297" xlink:href="#DejaVuSans-2c"/>
       <use x="318.066406" xlink:href="#DejaVuSans-30"/>
       <use x="381.689453" xlink:href="#DejaVuSans-30"/>
       <use x="445.3125" xlink:href="#DejaVuSans-30"/>
      </g>
     </g>
    </g>
    <g id="ytick_9">
     <g id="line2d_34">
      <g>
       <use style="stroke:#000000;stroke-width:0.8;" x="522.299135" xlink:href="#m5da0034584" y="234.497118"/>
      </g>
     </g>
     <g id="text_10">
      <!-- 2,600,000 -->
      <g transform="translate(454.226635 239.05618)scale(0.12 -0.12)">
       <use xlink:href="#DejaVuSans-32"/>
       <use x="63.623047" xlink:href="#DejaVuSans-2c"/>
       <use x="95.410156" xlink:href="#DejaVuSans-36"/>
       <use x="159.033203" xlink:href="#DejaVuSans-30"/>
       <use x="222.65625" xlink:href="#DejaVuSans-30"/>
       <use x="286.279297" xlink:href="#DejaVuSans-2c"/>
       <use x="318.066406" xlink:href="#DejaVuSans-30"/>
       <use x="381.689453" xlink:href="#DejaVuSans-30"/>
       <use x="445.3125" xlink:href="#DejaVuSans-30"/>
      </g>
     </g>
    </g>
    <g id="ytick_10">
     <g id="line2d_35">
      <g>
       <use style="stroke:#000000;stroke-width:0.8;" x="522.299135" xlink:href="#m5da0034584" y="192.633695"/>
      </g>
     </g>
     <g id="text_11">
      <!-- 2,800,000 -->
      <g transform="translate(454.226635 197.192757)scale(0.12 -0.12)">
       <use xlink:href="#DejaVuSans-32"/>
       <use x="63.623047" xlink:href="#DejaVuSans-2c"/>
       <use x="95.410156" xlink:href="#DejaVuSans-38"/>
       <use x="159.033203" xlink:href="#DejaVuSans-30"/>
       <use x="222.65625" xlink:href="#DejaVuSans-30"/>
       <use x="286.279297" xlink:href="#DejaVuSans-2c"/>
       <use x="318.066406" xlink:href="#DejaVuSans-30"/>
       <use x="381.689453" xlink:href="#DejaVuSans-30"/>
       <use x="445.3125" xlink:href="#DejaVuSans-30"/>
      </g>
     </g>
    </g>
    <g id="ytick_11">
     <g id="line2d_36">
      <g>
       <use style="stroke:#000000;stroke-width:0.8;" x="522.299135" xlink:href="#m5da0034584" y="150.770271"/>
      </g>
     </g>
     <g id="text_12">
      <!-- 3,000,000 -->
      <g transform="translate(454.226635 155.329334)scale(0.12 -0.12)">
       <use xlink:href="#DejaVuSans-33"/>
       <use x="63.623047" xlink:href="#DejaVuSans-2c"/>
       <use x="95.410156" xlink:href="#DejaVuSans-30"/>
       <use x="159.033203" xlink:href="#DejaVuSans-30"/>
       <use x="222.65625" xlink:href="#DejaVuSans-30"/>
       <use x="286.279297" xlink:href="#DejaVuSans-2c"/>
       <use x="318.066406" xlink:href="#DejaVuSans-30"/>
       <use x="381.689453" xlink:href="#DejaVuSans-30"/>
       <use x="445.3125" xlink:href="#DejaVuSans-30"/>
      </g>
     </g>
    </g>
    <g id="ytick_12">
     <g id="line2d_37">
      <g>
       <use style="stroke:#000000;stroke-width:0.8;" x="522.299135" xlink:href="#m5da0034584" y="108.906848"/>
      </g>
     </g>
     <g id="text_13">
      <!-- 3,200,000 -->
      <g transform="translate(454.226635 113.465911)scale(0.12 -0.12)">
       <use xlink:href="#DejaVuSans-33"/>
       <use x="63.623047" xlink:href="#DejaVuSans-2c"/>
       <use x="95.410156" xlink:href="#DejaVuSans-32"/>
       <use x="159.033203" xlink:href="#DejaVuSans-30"/>
       <use x="222.65625" xlink:href="#DejaVuSans-30"/>
       <use x="286.279297" xlink:href="#DejaVuSans-2c"/>
       <use x="318.066406" xlink:href="#DejaVuSans-30"/>
       <use x="381.689453" xlink:href="#DejaVuSans-30"/>
       <use x="445.3125" xlink:href="#DejaVuSans-30"/>
      </g>
     </g>
    </g>
    <g id="ytick_13">
     <g id="line2d_38">
      <g>
       <use style="stroke:#000000;stroke-width:0.8;" x="522.299135" xlink:href="#m5da0034584" y="67.043425"/>
      </g>
     </g>
     <g id="text_14">
      <!-- 3,400,000 -->
      <g transform="translate(454.226635 71.602487)scale(0.12 -0.12)">
       <use xlink:href="#DejaVuSans-33"/>
       <use x="63.623047" xlink:href="#DejaVuSans-2c"/>
       <use x="95.410156" xlink:href="#DejaVuSans-34"/>
       <use x="159.033203" xlink:href="#DejaVuSans-30"/>
       <use x="222.65625" xlink:href="#DejaVuSans-30"/>
       <use x="286.279297" xlink:href="#DejaVuSans-2c"/>
       <use x="318.066406" xlink:href="#DejaVuSans-30"/>
       <use x="381.689453" xlink:href="#DejaVuSans-30"/>
       <use x="445.3125" xlink:href="#DejaVuSans-30"/>
      </g>
     </g>
    </g>
    <g id="ytick_14">
     <g id="line2d_39">
      <g>
       <use style="stroke:#000000;stroke-width:0.8;" x="522.299135" xlink:href="#m5da0034584" y="25.180002"/>
      </g>
     </g>
     <g id="text_15">
      <!-- 3,600,000 -->
      <g transform="translate(454.226635 29.739064)scale(0.12 -0.12)">
       <use xlink:href="#DejaVuSans-33"/>
       <use x="63.623047" xlink:href="#DejaVuSans-2c"/>
       <use x="95.410156" xlink:href="#DejaVuSans-36"/>
       <use x="159.033203" xlink:href="#DejaVuSans-30"/>
       <use x="222.65625" xlink:href="#DejaVuSans-30"/>
       <use x="286.279297" xlink:href="#DejaVuSans-2c"/>
       <use x="318.066406" xlink:href="#DejaVuSans-30"/>
       <use x="381.689453" xlink:href="#DejaVuSans-30"/>
       <use x="445.3125" xlink:href="#DejaVuSans-30"/>
      </g>
     </g>
    </g>
    <g id="text_16">
     <!-- Annual prevalence of OUD -->
     <g transform="translate(447.73101 253.055979)rotate(-90)scale(0.12 -0.12)">
      <defs>
       <path d="M 3122 3366 
L 3122 2828 
Q 2878 2963 2633 3030 
Q 2388 3097 2138 3097 
Q 1578 3097 1268 2742 
Q 959 2388 959 1747 
Q 959 1106 1268 751 
Q 1578 397 2138 397 
Q 2388 397 2633 464 
Q 2878 531 3122 666 
L 3122 134 
Q 2881 22 2623 -34 
Q 2366 -91 2075 -91 
Q 1284 -91 818 406 
Q 353 903 353 1747 
Q 353 2603 823 3093 
Q 1294 3584 2113 3584 
Q 2378 3584 2631 3529 
Q 2884 3475 3122 3366 
z
" id="DejaVuSans-63" transform="scale(0.015625)"/>
       <path d="M 2375 4863 
L 2375 4384 
L 1825 4384 
Q 1516 4384 1395 4259 
Q 1275 4134 1275 3809 
L 1275 3500 
L 2222 3500 
L 2222 3053 
L 1275 3053 
L 1275 0 
L 697 0 
L 697 3053 
L 147 3053 
L 147 3500 
L 697 3500 
L 697 3744 
Q 697 4328 969 4595 
Q 1241 4863 1831 4863 
L 2375 4863 
z
" id="DejaVuSans-66" transform="scale(0.015625)"/>
       <path d="M 2522 4238 
Q 1834 4238 1429 3725 
Q 1025 3213 1025 2328 
Q 1025 1447 1429 934 
Q 1834 422 2522 422 
Q 3209 422 3611 934 
Q 4013 1447 4013 2328 
Q 4013 3213 3611 3725 
Q 3209 4238 2522 4238 
z
M 2522 4750 
Q 3503 4750 4090 4092 
Q 4678 3434 4678 2328 
Q 4678 1225 4090 567 
Q 3503 -91 2522 -91 
Q 1538 -91 948 565 
Q 359 1222 359 2328 
Q 359 3434 948 4092 
Q 1538 4750 2522 4750 
z
" id="DejaVuSans-4f" transform="scale(0.015625)"/>
       <path d="M 556 4666 
L 1191 4666 
L 1191 1831 
Q 1191 1081 1462 751 
Q 1734 422 2344 422 
Q 2950 422 3222 751 
Q 3494 1081 3494 1831 
L 3494 4666 
L 4128 4666 
L 4128 1753 
Q 4128 841 3676 375 
Q 3225 -91 2344 -91 
Q 1459 -91 1007 375 
Q 556 841 556 1753 
L 556 4666 
z
" id="DejaVuSans-55" transform="scale(0.015625)"/>
       <path d="M 1259 4147 
L 1259 519 
L 2022 519 
Q 2988 519 3436 956 
Q 3884 1394 3884 2338 
Q 3884 3275 3436 3711 
Q 2988 4147 2022 4147 
L 1259 4147 
z
M 628 4666 
L 1925 4666 
Q 3281 4666 3915 4102 
Q 4550 3538 4550 2338 
Q 4550 1131 3912 565 
Q 3275 0 1925 0 
L 628 0 
L 628 4666 
z
" id="DejaVuSans-44" transform="scale(0.015625)"/>
      </defs>
      <use xlink:href="#DejaVuSans-41"/>
      <use x="68.408203" xlink:href="#DejaVuSans-6e"/>
      <use x="131.787109" xlink:href="#DejaVuSans-6e"/>
      <use x="195.166016" xlink:href="#DejaVuSans-75"/>
      <use x="258.544922" xlink:href="#DejaVuSans-61"/>
      <use x="319.824219" xlink:href="#DejaVuSans-6c"/>
      <use x="347.607422" xlink:href="#DejaVuSans-20"/>
      <use x="379.394531" xlink:href="#DejaVuSans-70"/>
      <use x="442.871094" xlink:href="#DejaVuSans-72"/>
      <use x="481.734375" xlink:href="#DejaVuSans-65"/>
      <use x="543.257812" xlink:href="#DejaVuSans-76"/>
      <use x="602.4375" xlink:href="#DejaVuSans-61"/>
      <use x="663.716797" xlink:href="#DejaVuSans-6c"/>
      <use x="691.5" xlink:href="#DejaVuSans-65"/>
      <use x="753.023438" xlink:href="#DejaVuSans-6e"/>
      <use x="816.402344" xlink:href="#DejaVuSans-63"/>
      <use x="871.382812" xlink:href="#DejaVuSans-65"/>
      <use x="932.90625" xlink:href="#DejaVuSans-20"/>
      <use x="964.693359" xlink:href="#DejaVuSans-6f"/>
      <use x="1025.875" xlink:href="#DejaVuSans-66"/>
      <use x="1061.080078" xlink:href="#DejaVuSans-20"/>
      <use x="1092.867188" xlink:href="#DejaVuSans-4f"/>
      <use x="1171.578125" xlink:href="#DejaVuSans-55"/>
      <use x="1244.771484" xlink:href="#DejaVuSans-44"/>
     </g>
    </g>
   </g>
   <g id="line2d_40">
    <path clip-path="url(#pa682560c8b)" d="M 537.885516 22.475625 
L 545.678707 30.461073 
L 553.471897 38.475825 
L 561.265088 46.503136 
L 569.058278 54.532541 
L 576.851469 62.55148 
L 584.64466 70.549487 
L 592.43785 78.516096 
L 600.231041 86.442935 
L 608.024231 94.323725 
L 615.817422 102.147998 
L 623.610612 109.913663 
L 631.403803 117.612347 
L 639.196994 125.239863 
L 646.990184 132.792024 
L 654.783375 140.266738 
L 662.576565 147.659819 
L 670.369756 154.96708 
L 678.162946 162.190613 
L 685.956137 169.324141 
L 693.749327 176.367661 
L 701.542518 183.321176 
L 709.335709 190.180498 
L 717.128899 196.94772 
L 724.92209 203.62075 
L 732.71528 210.199587 
L 740.508471 216.684231 
L 748.301661 223.07259 
L 756.094852 229.366755 
L 763.888043 235.529051 
L 771.681233 241.417142 
L 779.474424 247.070797 
L 787.267614 252.533974 
L 795.060805 257.829697 
L 802.853995 262.976805 
L 810.647186 267.985763 
L 818.440377 272.867038 
L 826.233567 277.629003 
L 834.026758 282.275843 
L 841.819948 286.811745 
L 849.613139 291.242988 
" style="fill:none;stroke:#1f77b4;stroke-linecap:square;stroke-width:1.5;"/>
   </g>
   <g id="line2d_41">
    <path clip-path="url(#pa682560c8b)" d="M 537.885516 26.869191 
L 545.678707 35.886572 
L 553.471897 44.996053 
L 561.265088 54.170422 
L 569.058278 63.382469 
L 576.851469 72.613353 
L 584.64466 81.840052 
L 592.43785 91.045819 
L 600.231041 100.213908 
L 608.024231 109.329669 
L 615.817422 118.380541 
L 623.610612 127.356059 
L 631.403803 136.249943 
L 639.196994 145.049635 
L 646.990184 153.750947 
L 654.783375 162.347601 
L 662.576565 170.837503 
L 670.369756 179.214374 
L 678.162946 187.476121 
L 685.956137 195.618557 
L 693.749327 203.641682 
L 701.542518 211.543403 
L 709.335709 219.321627 
L 717.128899 226.859136 
L 724.92209 234.044993 
L 732.71528 240.958737 
L 740.508471 247.646419 
L 748.301661 254.133156 
L 756.094852 260.437788 
L 763.888043 266.577059 
L 771.681233 272.557249 
L 779.474424 278.390917 
L 787.267614 284.080156 
L 795.060805 289.633339 
L 802.853995 295.056746 
L 810.647186 300.350376 
L 818.440377 305.520508 
L 826.233567 310.57133 
L 834.026758 315.502842 
L 841.819948 320.319229 
L 849.613139 325.022584 
" style="fill:none;stroke:#ff7f0e;stroke-linecap:square;stroke-width:1.5;"/>
   </g>
   <g id="line2d_42">
    <path clip-path="url(#pa682560c8b)" d="M 537.885516 24.112484 
L 545.678707 32.493542 
L 553.471897 40.933208 
L 561.265088 49.414737 
L 569.058278 57.919292 
L 576.851469 66.436405 
L 584.64466 74.947239 
L 592.43785 83.441328 
L 600.231041 91.906112 
L 608.024231 100.333219 
L 615.817422 108.712183 
L 623.610612 117.034632 
L 631.403803 125.292192 
L 639.196994 133.480678 
L 646.990184 141.591716 
L 654.783375 149.62112 
L 662.576565 157.564705 
L 670.369756 165.41619 
L 678.162946 173.177669 
L 685.956137 180.840768 
L 693.749327 188.405489 
L 701.542518 195.869737 
L 709.335709 203.233513 
L 717.128899 210.490538 
L 724.92209 217.642904 
L 732.71528 224.690611 
L 740.508471 231.554119 
L 748.301661 238.103652 
L 756.094852 244.402004 
L 763.888043 250.493132 
L 771.681233 256.402154 
L 779.474424 262.147909 
L 787.267614 267.742955 
L 795.060805 273.195666 
L 802.853995 278.514414 
L 810.647186 283.705479 
L 818.440377 288.775139 
L 826.233567 293.725489 
L 834.026758 298.560714 
L 841.819948 303.287095 
L 849.613139 307.90463 
" style="fill:none;stroke:#000000;stroke-dasharray:5.55,2.4;stroke-dashoffset:0;stroke-width:1.5;"/>
   </g>
   <g id="patch_8">
    <path d="M 522.299135 340.149932 
L 522.299135 7.348277 
" style="fill:none;stroke:#000000;stroke-linecap:square;stroke-linejoin:miter;stroke-width:0.8;"/>
   </g>
   <g id="patch_9">
    <path d="M 865.19952 340.149932 
L 865.19952 7.348277 
" style="fill:none;stroke:#000000;stroke-linecap:square;stroke-linejoin:miter;stroke-width:0.8;"/>
   </g>
   <g id="patch_10">
    <path d="M 522.299135 340.149932 
L 865.19952 340.149932 
" style="fill:none;stroke:#000000;stroke-linecap:square;stroke-linejoin:miter;stroke-width:0.8;"/>
   </g>
   <g id="patch_11">
    <path d="M 522.299135 7.348277 
L 865.19952 7.348277 
" style="fill:none;stroke:#000000;stroke-linecap:square;stroke-linejoin:miter;stroke-width:0.8;"/>
   </g>
  </g>
  <g id="axes_3">
   <g id="patch_12">
    <path d="M 79.4375 683.651588 
L 422.337885 683.651588 
L 422.337885 350.849932 
L 79.4375 350.849932 
z
" style="fill:#ffffff;"/>
   </g>
   <g id="matplotlib.axis_5">
    <g id="xtick_23">
     <g id="line2d_43">
      <g>
       <use style="stroke:#000000;stroke-width:0.8;" x="95.023881" xlink:href="#mccfc7b0c43" y="683.651588"/>
      </g>
     </g>
     <g id="text_17">
      <!-- 2022 -->
      <g transform="translate(98.335131 721.191588)rotate(-90)scale(0.12 -0.12)">
       <use xlink:href="#DejaVuSans-32"/>
       <use x="63.623047" xlink:href="#DejaVuSans-30"/>
       <use x="127.246094" xlink:href="#DejaVuSans-32"/>
       <use x="190.869141" xlink:href="#DejaVuSans-32"/>
      </g>
     </g>
    </g>
    <g id="xtick_24">
     <g id="line2d_44">
      <g>
       <use style="stroke:#000000;stroke-width:0.8;" x="126.196643" xlink:href="#mccfc7b0c43" y="683.651588"/>
      </g>
     </g>
     <g id="text_18">
      <!-- 2023 -->
      <g transform="translate(129.507893 721.191588)rotate(-90)scale(0.12 -0.12)">
       <use xlink:href="#DejaVuSans-32"/>
       <use x="63.623047" xlink:href="#DejaVuSans-30"/>
       <use x="127.246094" xlink:href="#DejaVuSans-32"/>
       <use x="190.869141" xlink:href="#DejaVuSans-33"/>
      </g>
     </g>
    </g>
    <g id="xtick_25">
     <g id="line2d_45">
      <g>
       <use style="stroke:#000000;stroke-width:0.8;" x="157.369406" xlink:href="#mccfc7b0c43" y="683.651588"/>
      </g>
     </g>
     <g id="text_19">
      <!-- 2024 -->
      <g transform="translate(160.680656 721.191588)rotate(-90)scale(0.12 -0.12)">
       <use xlink:href="#DejaVuSans-32"/>
       <use x="63.623047" xlink:href="#DejaVuSans-30"/>
       <use x="127.246094" xlink:href="#DejaVuSans-32"/>
       <use x="190.869141" xlink:href="#DejaVuSans-34"/>
      </g>
     </g>
    </g>
    <g id="xtick_26">
     <g id="line2d_46">
      <g>
       <use style="stroke:#000000;stroke-width:0.8;" x="188.542168" xlink:href="#mccfc7b0c43" y="683.651588"/>
      </g>
     </g>
     <g id="text_20">
      <!-- 2025 -->
      <g transform="translate(191.853418 721.191588)rotate(-90)scale(0.12 -0.12)">
       <use xlink:href="#DejaVuSans-32"/>
       <use x="63.623047" xlink:href="#DejaVuSans-30"/>
       <use x="127.246094" xlink:href="#DejaVuSans-32"/>
       <use x="190.869141" xlink:href="#DejaVuSans-35"/>
      </g>
     </g>
    </g>
    <g id="xtick_27">
     <g id="line2d_47">
      <g>
       <use style="stroke:#000000;stroke-width:0.8;" x="219.71493" xlink:href="#mccfc7b0c43" y="683.651588"/>
      </g>
     </g>
     <g id="text_21">
      <!-- 2026 -->
      <g transform="translate(223.02618 721.191588)rotate(-90)scale(0.12 -0.12)">
       <use xlink:href="#DejaVuSans-32"/>
       <use x="63.623047" xlink:href="#DejaVuSans-30"/>
       <use x="127.246094" xlink:href="#DejaVuSans-32"/>
       <use x="190.869141" xlink:href="#DejaVuSans-36"/>
      </g>
     </g>
    </g>
    <g id="xtick_28">
     <g id="line2d_48">
      <g>
       <use style="stroke:#000000;stroke-width:0.8;" x="250.887692" xlink:href="#mccfc7b0c43" y="683.651588"/>
      </g>
     </g>
     <g id="text_22">
      <!-- 2027 -->
      <g transform="translate(254.198942 721.191588)rotate(-90)scale(0.12 -0.12)">
       <use xlink:href="#DejaVuSans-32"/>
       <use x="63.623047" xlink:href="#DejaVuSans-30"/>
       <use x="127.246094" xlink:href="#DejaVuSans-32"/>
       <use x="190.869141" xlink:href="#DejaVuSans-37"/>
      </g>
     </g>
    </g>
    <g id="xtick_29">
     <g id="line2d_49">
      <g>
       <use style="stroke:#000000;stroke-width:0.8;" x="282.060455" xlink:href="#mccfc7b0c43" y="683.651588"/>
      </g>
     </g>
     <g id="text_23">
      <!-- 2028 -->
      <g transform="translate(285.371705 721.191588)rotate(-90)scale(0.12 -0.12)">
       <use xlink:href="#DejaVuSans-32"/>
       <use x="63.623047" xlink:href="#DejaVuSans-30"/>
       <use x="127.246094" xlink:href="#DejaVuSans-32"/>
       <use x="190.869141" xlink:href="#DejaVuSans-38"/>
      </g>
     </g>
    </g>
    <g id="xtick_30">
     <g id="line2d_50">
      <g>
       <use style="stroke:#000000;stroke-width:0.8;" x="313.233217" xlink:href="#mccfc7b0c43" y="683.651588"/>
      </g>
     </g>
     <g id="text_24">
      <!-- 2029 -->
      <g transform="translate(316.544467 721.191588)rotate(-90)scale(0.12 -0.12)">
       <defs>
        <path d="M 703 97 
L 703 672 
Q 941 559 1184 500 
Q 1428 441 1663 441 
Q 2288 441 2617 861 
Q 2947 1281 2994 2138 
Q 2813 1869 2534 1725 
Q 2256 1581 1919 1581 
Q 1219 1581 811 2004 
Q 403 2428 403 3163 
Q 403 3881 828 4315 
Q 1253 4750 1959 4750 
Q 2769 4750 3195 4129 
Q 3622 3509 3622 2328 
Q 3622 1225 3098 567 
Q 2575 -91 1691 -91 
Q 1453 -91 1209 -44 
Q 966 3 703 97 
z
M 1959 2075 
Q 2384 2075 2632 2365 
Q 2881 2656 2881 3163 
Q 2881 3666 2632 3958 
Q 2384 4250 1959 4250 
Q 1534 4250 1286 3958 
Q 1038 3666 1038 3163 
Q 1038 2656 1286 2365 
Q 1534 2075 1959 2075 
z
" id="DejaVuSans-39" transform="scale(0.015625)"/>
       </defs>
       <use xlink:href="#DejaVuSans-32"/>
       <use x="63.623047" xlink:href="#DejaVuSans-30"/>
       <use x="127.246094" xlink:href="#DejaVuSans-32"/>
       <use x="190.869141" xlink:href="#DejaVuSans-39"/>
      </g>
     </g>
    </g>
    <g id="xtick_31">
     <g id="line2d_51">
      <g>
       <use style="stroke:#000000;stroke-width:0.8;" x="344.405979" xlink:href="#mccfc7b0c43" y="683.651588"/>
      </g>
     </g>
     <g id="text_25">
      <!-- 2030 -->
      <g transform="translate(347.717229 721.191588)rotate(-90)scale(0.12 -0.12)">
       <use xlink:href="#DejaVuSans-32"/>
       <use x="63.623047" xlink:href="#DejaVuSans-30"/>
       <use x="127.246094" xlink:href="#DejaVuSans-33"/>
       <use x="190.869141" xlink:href="#DejaVuSans-30"/>
      </g>
     </g>
    </g>
    <g id="xtick_32">
     <g id="line2d_52">
      <g>
       <use style="stroke:#000000;stroke-width:0.8;" x="375.578742" xlink:href="#mccfc7b0c43" y="683.651588"/>
      </g>
     </g>
     <g id="text_26">
      <!-- 2031 -->
      <g transform="translate(378.889992 721.191588)rotate(-90)scale(0.12 -0.12)">
       <defs>
        <path d="M 794 531 
L 1825 531 
L 1825 4091 
L 703 3866 
L 703 4441 
L 1819 4666 
L 2450 4666 
L 2450 531 
L 3481 531 
L 3481 0 
L 794 0 
L 794 531 
z
" id="DejaVuSans-31" transform="scale(0.015625)"/>
       </defs>
       <use xlink:href="#DejaVuSans-32"/>
       <use x="63.623047" xlink:href="#DejaVuSans-30"/>
       <use x="127.246094" xlink:href="#DejaVuSans-33"/>
       <use x="190.869141" xlink:href="#DejaVuSans-31"/>
      </g>
     </g>
    </g>
    <g id="xtick_33">
     <g id="line2d_53">
      <g>
       <use style="stroke:#000000;stroke-width:0.8;" x="406.751504" xlink:href="#mccfc7b0c43" y="683.651588"/>
      </g>
     </g>
     <g id="text_27">
      <!-- 2032 -->
      <g transform="translate(410.062754 721.191588)rotate(-90)scale(0.12 -0.12)">
       <use xlink:href="#DejaVuSans-32"/>
       <use x="63.623047" xlink:href="#DejaVuSans-30"/>
       <use x="127.246094" xlink:href="#DejaVuSans-33"/>
       <use x="190.869141" xlink:href="#DejaVuSans-32"/>
      </g>
     </g>
    </g>
   </g>
   <g id="matplotlib.axis_6">
    <g id="ytick_15">
     <g id="line2d_54">
      <g>
       <use style="stroke:#000000;stroke-width:0.8;" x="79.4375" xlink:href="#m5da0034584" y="668.52424"/>
      </g>
     </g>
     <g id="text_28">
      <!-- 0 -->
      <g transform="translate(64.8025 673.083302)scale(0.12 -0.12)">
       <use xlink:href="#DejaVuSans-30"/>
      </g>
     </g>
    </g>
    <g id="ytick_16">
     <g id="line2d_55">
      <g>
       <use style="stroke:#000000;stroke-width:0.8;" x="79.4375" xlink:href="#m5da0034584" y="620.805781"/>
      </g>
     </g>
     <g id="text_29">
      <!-- 100,000 -->
      <g transform="translate(22.81375 625.364843)scale(0.12 -0.12)">
       <use xlink:href="#DejaVuSans-31"/>
       <use x="63.623047" xlink:href="#DejaVuSans-30"/>
       <use x="127.246094" xlink:href="#DejaVuSans-30"/>
       <use x="190.869141" xlink:href="#DejaVuSans-2c"/>
       <use x="222.65625" xlink:href="#DejaVuSans-30"/>
       <use x="286.279297" xlink:href="#DejaVuSans-30"/>
       <use x="349.902344" xlink:href="#DejaVuSans-30"/>
      </g>
     </g>
    </g>
    <g id="ytick_17">
     <g id="line2d_56">
      <g>
       <use style="stroke:#000000;stroke-width:0.8;" x="79.4375" xlink:href="#m5da0034584" y="573.087322"/>
      </g>
     </g>
     <g id="text_30">
      <!-- 200,000 -->
      <g transform="translate(22.81375 577.646384)scale(0.12 -0.12)">
       <use xlink:href="#DejaVuSans-32"/>
       <use x="63.623047" xlink:href="#DejaVuSans-30"/>
       <use x="127.246094" xlink:href="#DejaVuSans-30"/>
       <use x="190.869141" xlink:href="#DejaVuSans-2c"/>
       <use x="222.65625" xlink:href="#DejaVuSans-30"/>
       <use x="286.279297" xlink:href="#DejaVuSans-30"/>
       <use x="349.902344" xlink:href="#DejaVuSans-30"/>
      </g>
     </g>
    </g>
    <g id="ytick_18">
     <g id="line2d_57">
      <g>
       <use style="stroke:#000000;stroke-width:0.8;" x="79.4375" xlink:href="#m5da0034584" y="525.368863"/>
      </g>
     </g>
     <g id="text_31">
      <!-- 300,000 -->
      <g transform="translate(22.81375 529.927925)scale(0.12 -0.12)">
       <use xlink:href="#DejaVuSans-33"/>
       <use x="63.623047" xlink:href="#DejaVuSans-30"/>
       <use x="127.246094" xlink:href="#DejaVuSans-30"/>
       <use x="190.869141" xlink:href="#DejaVuSans-2c"/>
       <use x="222.65625" xlink:href="#DejaVuSans-30"/>
       <use x="286.279297" xlink:href="#DejaVuSans-30"/>
       <use x="349.902344" xlink:href="#DejaVuSans-30"/>
      </g>
     </g>
    </g>
    <g id="ytick_19">
     <g id="line2d_58">
      <g>
       <use style="stroke:#000000;stroke-width:0.8;" x="79.4375" xlink:href="#m5da0034584" y="477.650404"/>
      </g>
     </g>
     <g id="text_32">
      <!-- 400,000 -->
      <g transform="translate(22.81375 482.209466)scale(0.12 -0.12)">
       <use xlink:href="#DejaVuSans-34"/>
       <use x="63.623047" xlink:href="#DejaVuSans-30"/>
       <use x="127.246094" xlink:href="#DejaVuSans-30"/>
       <use x="190.869141" xlink:href="#DejaVuSans-2c"/>
       <use x="222.65625" xlink:href="#DejaVuSans-30"/>
       <use x="286.279297" xlink:href="#DejaVuSans-30"/>
       <use x="349.902344" xlink:href="#DejaVuSans-30"/>
      </g>
     </g>
    </g>
    <g id="ytick_20">
     <g id="line2d_59">
      <g>
       <use style="stroke:#000000;stroke-width:0.8;" x="79.4375" xlink:href="#m5da0034584" y="429.931945"/>
      </g>
     </g>
     <g id="text_33">
      <!-- 500,000 -->
      <g transform="translate(22.81375 434.491007)scale(0.12 -0.12)">
       <use xlink:href="#DejaVuSans-35"/>
       <use x="63.623047" xlink:href="#DejaVuSans-30"/>
       <use x="127.246094" xlink:href="#DejaVuSans-30"/>
       <use x="190.869141" xlink:href="#DejaVuSans-2c"/>
       <use x="222.65625" xlink:href="#DejaVuSans-30"/>
       <use x="286.279297" xlink:href="#DejaVuSans-30"/>
       <use x="349.902344" xlink:href="#DejaVuSans-30"/>
      </g>
     </g>
    </g>
    <g id="ytick_21">
     <g id="line2d_60">
      <g>
       <use style="stroke:#000000;stroke-width:0.8;" x="79.4375" xlink:href="#m5da0034584" y="382.213486"/>
      </g>
     </g>
     <g id="text_34">
      <!-- 600,000 -->
      <g transform="translate(22.81375 386.772548)scale(0.12 -0.12)">
       <use xlink:href="#DejaVuSans-36"/>
       <use x="63.623047" xlink:href="#DejaVuSans-30"/>
       <use x="127.246094" xlink:href="#DejaVuSans-30"/>
       <use x="190.869141" xlink:href="#DejaVuSans-2c"/>
       <use x="222.65625" xlink:href="#DejaVuSans-30"/>
       <use x="286.279297" xlink:href="#DejaVuSans-30"/>
       <use x="349.902344" xlink:href="#DejaVuSans-30"/>
      </g>
     </g>
    </g>
    <g id="text_35">
     <!-- Cumulative opioid overdose deaths -->
     <g transform="translate(16.318125 623.542635)rotate(-90)scale(0.12 -0.12)">
      <defs>
       <path d="M 4122 4306 
L 4122 3641 
Q 3803 3938 3442 4084 
Q 3081 4231 2675 4231 
Q 1875 4231 1450 3742 
Q 1025 3253 1025 2328 
Q 1025 1406 1450 917 
Q 1875 428 2675 428 
Q 3081 428 3442 575 
Q 3803 722 4122 1019 
L 4122 359 
Q 3791 134 3420 21 
Q 3050 -91 2638 -91 
Q 1578 -91 968 557 
Q 359 1206 359 2328 
Q 359 3453 968 4101 
Q 1578 4750 2638 4750 
Q 3056 4750 3426 4639 
Q 3797 4528 4122 4306 
z
" id="DejaVuSans-43" transform="scale(0.015625)"/>
       <path d="M 3328 2828 
Q 3544 3216 3844 3400 
Q 4144 3584 4550 3584 
Q 5097 3584 5394 3201 
Q 5691 2819 5691 2113 
L 5691 0 
L 5113 0 
L 5113 2094 
Q 5113 2597 4934 2840 
Q 4756 3084 4391 3084 
Q 3944 3084 3684 2787 
Q 3425 2491 3425 1978 
L 3425 0 
L 2847 0 
L 2847 2094 
Q 2847 2600 2669 2842 
Q 2491 3084 2119 3084 
Q 1678 3084 1418 2786 
Q 1159 2488 1159 1978 
L 1159 0 
L 581 0 
L 581 3500 
L 1159 3500 
L 1159 2956 
Q 1356 3278 1631 3431 
Q 1906 3584 2284 3584 
Q 2666 3584 2933 3390 
Q 3200 3197 3328 2828 
z
" id="DejaVuSans-6d" transform="scale(0.015625)"/>
      </defs>
      <use xlink:href="#DejaVuSans-43"/>
      <use x="69.824219" xlink:href="#DejaVuSans-75"/>
      <use x="133.203125" xlink:href="#DejaVuSans-6d"/>
      <use x="230.615234" xlink:href="#DejaVuSans-75"/>
      <use x="293.994141" xlink:href="#DejaVuSans-6c"/>
      <use x="321.777344" xlink:href="#DejaVuSans-61"/>
      <use x="383.056641" xlink:href="#DejaVuSans-74"/>
      <use x="422.265625" xlink:href="#DejaVuSans-69"/>
      <use x="450.048828" xlink:href="#DejaVuSans-76"/>
      <use x="509.228516" xlink:href="#DejaVuSans-65"/>
      <use x="570.751953" xlink:href="#DejaVuSans-20"/>
      <use x="602.539062" xlink:href="#DejaVuSans-6f"/>
      <use x="663.720703" xlink:href="#DejaVuSans-70"/>
      <use x="727.197266" xlink:href="#DejaVuSans-69"/>
      <use x="754.980469" xlink:href="#DejaVuSans-6f"/>
      <use x="816.162109" xlink:href="#DejaVuSans-69"/>
      <use x="843.945312" xlink:href="#DejaVuSans-64"/>
      <use x="907.421875" xlink:href="#DejaVuSans-20"/>
      <use x="939.208984" xlink:href="#DejaVuSans-6f"/>
      <use x="1000.390625" xlink:href="#DejaVuSans-76"/>
      <use x="1059.570312" xlink:href="#DejaVuSans-65"/>
      <use x="1121.09375" xlink:href="#DejaVuSans-72"/>
      <use x="1160.457031" xlink:href="#DejaVuSans-64"/>
      <use x="1223.933594" xlink:href="#DejaVuSans-6f"/>
      <use x="1285.115234" xlink:href="#DejaVuSans-73"/>
      <use x="1337.214844" xlink:href="#DejaVuSans-65"/>
      <use x="1398.738281" xlink:href="#DejaVuSans-20"/>
      <use x="1430.525391" xlink:href="#DejaVuSans-64"/>
      <use x="1494.001953" xlink:href="#DejaVuSans-65"/>
      <use x="1555.525391" xlink:href="#DejaVuSans-61"/>
      <use x="1616.804688" xlink:href="#DejaVuSans-74"/>
      <use x="1656.013672" xlink:href="#DejaVuSans-68"/>
      <use x="1719.392578" xlink:href="#DejaVuSans-73"/>
     </g>
    </g>
   </g>
   <g id="line2d_61">
    <path clip-path="url(#p8c7ddf5412)" d="M 95.023881 668.52424 
L 102.817072 662.023077 
L 110.610262 655.635007 
L 118.403453 649.357166 
L 126.196643 643.188124 
L 133.989834 637.125494 
L 141.783025 631.167367 
L 149.576215 625.310403 
L 157.369406 619.553648 
L 165.162596 613.893762 
L 172.955787 608.328835 
L 180.748977 602.856959 
L 188.542168 597.476226 
L 196.335359 592.183772 
L 204.128549 586.977688 
L 211.92174 581.856543 
L 219.71493 576.818428 
L 227.508121 571.861434 
L 235.301311 566.983654 
L 243.094502 562.183654 
L 250.887692 557.459526 
L 258.680883 552.810317 
L 266.474074 548.234594 
L 274.267264 543.729971 
L 282.060455 539.296449 
L 289.853645 534.931642 
L 297.646836 530.634595 
L 305.440026 526.40483 
L 313.233217 522.239963 
L 321.026408 518.139516 
L 328.819598 514.097285 
L 336.612789 510.10325 
L 344.405979 506.153594 
L 352.19917 502.244497 
L 359.99236 498.37453 
L 367.785551 494.542261 
L 375.578742 490.746735 
L 383.371932 486.987475 
L 391.165123 483.263049 
L 398.958313 479.573458 
L 406.751504 475.917269 
" style="fill:none;stroke:#1f77b4;stroke-linecap:square;stroke-width:1.5;"/>
   </g>
   <g id="line2d_62">
    <path clip-path="url(#p8c7ddf5412)" d="M 95.023881 668.52424 
L 102.817072 659.300739 
L 110.610262 650.007569 
L 118.403453 640.676224 
L 126.196643 631.335336 
L 133.989834 622.012103 
L 141.783025 612.729909 
L 149.576215 603.510225 
L 157.369406 594.370709 
L 165.162596 585.327106 
L 172.955787 576.392779 
L 180.748977 567.577748 
L 188.542168 558.890126 
L 196.335359 550.337546 
L 204.128549 541.924305 
L 211.92174 533.654696 
L 219.71493 525.531105 
L 227.508121 517.554965 
L 235.301311 509.726752 
L 243.094502 502.04742 
L 250.887692 494.516016 
L 258.680883 487.131584 
L 266.474074 479.892694 
L 274.267264 472.795528 
L 282.060455 465.820043 
L 289.853645 458.949062 
L 297.646836 452.173996 
L 305.440026 445.490071 
L 313.233217 438.894426 
L 321.026408 432.384196 
L 328.819598 425.957474 
L 336.612789 419.613305 
L 344.405979 413.34978 
L 352.19917 407.164991 
L 359.99236 401.05846 
L 367.785551 395.027801 
L 375.578742 389.072537 
L 383.371932 383.19076 
L 391.165123 377.381992 
L 398.958313 371.644801 
L 406.751504 365.97728 
" style="fill:none;stroke:#ff7f0e;stroke-linecap:square;stroke-width:1.5;"/>
   </g>
   <g id="line2d_63">
    <path clip-path="url(#p8c7ddf5412)" d="M 95.023881 668.52424 
L 102.817072 660.982337 
L 110.610262 653.468111 
L 118.403453 645.988243 
L 126.196643 638.54989 
L 133.989834 631.159732 
L 141.783025 623.822542 
L 149.576215 616.544522 
L 157.369406 609.329968 
L 165.162596 602.184606 
L 172.955787 595.111776 
L 180.748977 588.115296 
L 188.542168 581.198505 
L 196.335359 574.364268 
L 204.128549 567.614969 
L 211.92174 560.953472 
L 219.71493 554.380254 
L 227.508121 547.898179 
L 235.301311 541.507246 
L 243.094502 535.209363 
L 250.887692 529.004532 
L 258.680883 522.893706 
L 266.474074 516.876409 
L 274.267264 510.953593 
L 282.060455 505.124306 
L 289.853645 499.388548 
L 297.646836 493.744886 
L 305.440026 488.181868 
L 313.233217 482.68661 
L 321.026408 477.253386 
L 328.819598 471.879333 
L 336.612789 466.562065 
L 344.405979 461.300151 
L 352.19917 456.09359 
L 359.99236 450.940473 
L 367.785551 445.840802 
L 375.578742 440.794098 
L 383.371932 435.798929 
L 391.165123 430.855297 
L 398.958313 425.962723 
L 406.751504 421.119777 
" style="fill:none;stroke:#000000;stroke-dasharray:5.55,2.4;stroke-dashoffset:0;stroke-width:1.5;"/>
   </g>
   <g id="patch_13">
    <path d="M 79.4375 683.651588 
L 79.4375 350.849932 
" style="fill:none;stroke:#000000;stroke-linecap:square;stroke-linejoin:miter;stroke-width:0.8;"/>
   </g>
   <g id="patch_14">
    <path d="M 422.337885 683.651588 
L 422.337885 350.849932 
" style="fill:none;stroke:#000000;stroke-linecap:square;stroke-linejoin:miter;stroke-width:0.8;"/>
   </g>
   <g id="patch_15">
    <path d="M 79.4375 683.651588 
L 422.337885 683.651588 
" style="fill:none;stroke:#000000;stroke-linecap:square;stroke-linejoin:miter;stroke-width:0.8;"/>
   </g>
   <g id="patch_16">
    <path d="M 79.4375 350.849932 
L 422.337885 350.849932 
" style="fill:none;stroke:#000000;stroke-linecap:square;stroke-linejoin:miter;stroke-width:0.8;"/>
   </g>
  </g>
  <g id="axes_4">
   <g id="patch_17">
    <path d="M 522.299135 683.651588 
L 865.19952 683.651588 
L 865.19952 350.849932 
L 522.299135 350.849932 
z
" style="fill:#ffffff;"/>
   </g>
   <g id="matplotlib.axis_7">
    <g id="xtick_34">
     <g id="line2d_64">
      <g>
       <use style="stroke:#000000;stroke-width:0.8;" x="537.885516" xlink:href="#mccfc7b0c43" y="683.651588"/>
      </g>
     </g>
     <g id="text_36">
      <!-- 2022 -->
      <g transform="translate(541.196766 721.191588)rotate(-90)scale(0.12 -0.12)">
       <use xlink:href="#DejaVuSans-32"/>
       <use x="63.623047" xlink:href="#DejaVuSans-30"/>
       <use x="127.246094" xlink:href="#DejaVuSans-32"/>
       <use x="190.869141" xlink:href="#DejaVuSans-32"/>
      </g>
     </g>
    </g>
    <g id="xtick_35">
     <g id="line2d_65">
      <g>
       <use style="stroke:#000000;stroke-width:0.8;" x="569.058278" xlink:href="#mccfc7b0c43" y="683.651588"/>
      </g>
     </g>
     <g id="text_37">
      <!-- 2023 -->
      <g transform="translate(572.369528 721.191588)rotate(-90)scale(0.12 -0.12)">
       <use xlink:href="#DejaVuSans-32"/>
       <use x="63.623047" xlink:href="#DejaVuSans-30"/>
       <use x="127.246094" xlink:href="#DejaVuSans-32"/>
       <use x="190.869141" xlink:href="#DejaVuSans-33"/>
      </g>
     </g>
    </g>
    <g id="xtick_36">
     <g id="line2d_66">
      <g>
       <use style="stroke:#000000;stroke-width:0.8;" x="600.231041" xlink:href="#mccfc7b0c43" y="683.651588"/>
      </g>
     </g>
     <g id="text_38">
      <!-- 2024 -->
      <g transform="translate(603.542291 721.191588)rotate(-90)scale(0.12 -0.12)">
       <use xlink:href="#DejaVuSans-32"/>
       <use x="63.623047" xlink:href="#DejaVuSans-30"/>
       <use x="127.246094" xlink:href="#DejaVuSans-32"/>
       <use x="190.869141" xlink:href="#DejaVuSans-34"/>
      </g>
     </g>
    </g>
    <g id="xtick_37">
     <g id="line2d_67">
      <g>
       <use style="stroke:#000000;stroke-width:0.8;" x="631.403803" xlink:href="#mccfc7b0c43" y="683.651588"/>
      </g>
     </g>
     <g id="text_39">
      <!-- 2025 -->
      <g transform="translate(634.715053 721.191588)rotate(-90)scale(0.12 -0.12)">
       <use xlink:href="#DejaVuSans-32"/>
       <use x="63.623047" xlink:href="#DejaVuSans-30"/>
       <use x="127.246094" xlink:href="#DejaVuSans-32"/>
       <use x="190.869141" xlink:href="#DejaVuSans-35"/>
      </g>
     </g>
    </g>
    <g id="xtick_38">
     <g id="line2d_68">
      <g>
       <use style="stroke:#000000;stroke-width:0.8;" x="662.576565" xlink:href="#mccfc7b0c43" y="683.651588"/>
      </g>
     </g>
     <g id="text_40">
      <!-- 2026 -->
      <g transform="translate(665.887815 721.191588)rotate(-90)scale(0.12 -0.12)">
       <use xlink:href="#DejaVuSans-32"/>
       <use x="63.623047" xlink:href="#DejaVuSans-30"/>
       <use x="127.246094" xlink:href="#DejaVuSans-32"/>
       <use x="190.869141" xlink:href="#DejaVuSans-36"/>
      </g>
     </g>
    </g>
    <g id="xtick_39">
     <g id="line2d_69">
      <g>
       <use style="stroke:#000000;stroke-width:0.8;" x="693.749327" xlink:href="#mccfc7b0c43" y="683.651588"/>
      </g>
     </g>
     <g id="text_41">
      <!-- 2027 -->
      <g transform="translate(697.060577 721.191588)rotate(-90)scale(0.12 -0.12)">
       <use xlink:href="#DejaVuSans-32"/>
       <use x="63.623047" xlink:href="#DejaVuSans-30"/>
       <use x="127.246094" xlink:href="#DejaVuSans-32"/>
       <use x="190.869141" xlink:href="#DejaVuSans-37"/>
      </g>
     </g>
    </g>
    <g id="xtick_40">
     <g id="line2d_70">
      <g>
       <use style="stroke:#000000;stroke-width:0.8;" x="724.92209" xlink:href="#mccfc7b0c43" y="683.651588"/>
      </g>
     </g>
     <g id="text_42">
      <!-- 2028 -->
      <g transform="translate(728.23334 721.191588)rotate(-90)scale(0.12 -0.12)">
       <use xlink:href="#DejaVuSans-32"/>
       <use x="63.623047" xlink:href="#DejaVuSans-30"/>
       <use x="127.246094" xlink:href="#DejaVuSans-32"/>
       <use x="190.869141" xlink:href="#DejaVuSans-38"/>
      </g>
     </g>
    </g>
    <g id="xtick_41">
     <g id="line2d_71">
      <g>
       <use style="stroke:#000000;stroke-width:0.8;" x="756.094852" xlink:href="#mccfc7b0c43" y="683.651588"/>
      </g>
     </g>
     <g id="text_43">
      <!-- 2029 -->
      <g transform="translate(759.406102 721.191588)rotate(-90)scale(0.12 -0.12)">
       <use xlink:href="#DejaVuSans-32"/>
       <use x="63.623047" xlink:href="#DejaVuSans-30"/>
       <use x="127.246094" xlink:href="#DejaVuSans-32"/>
       <use x="190.869141" xlink:href="#DejaVuSans-39"/>
      </g>
     </g>
    </g>
    <g id="xtick_42">
     <g id="line2d_72">
      <g>
       <use style="stroke:#000000;stroke-width:0.8;" x="787.267614" xlink:href="#mccfc7b0c43" y="683.651588"/>
      </g>
     </g>
     <g id="text_44">
      <!-- 2030 -->
      <g transform="translate(790.578864 721.191588)rotate(-90)scale(0.12 -0.12)">
       <use xlink:href="#DejaVuSans-32"/>
       <use x="63.623047" xlink:href="#DejaVuSans-30"/>
       <use x="127.246094" xlink:href="#DejaVuSans-33"/>
       <use x="190.869141" xlink:href="#DejaVuSans-30"/>
      </g>
     </g>
    </g>
    <g id="xtick_43">
     <g id="line2d_73">
      <g>
       <use style="stroke:#000000;stroke-width:0.8;" x="818.440377" xlink:href="#mccfc7b0c43" y="683.651588"/>
      </g>
     </g>
     <g id="text_45">
      <!-- 2031 -->
      <g transform="translate(821.751627 721.191588)rotate(-90)scale(0.12 -0.12)">
       <use xlink:href="#DejaVuSans-32"/>
       <use x="63.623047" xlink:href="#DejaVuSans-30"/>
       <use x="127.246094" xlink:href="#DejaVuSans-33"/>
       <use x="190.869141" xlink:href="#DejaVuSans-31"/>
      </g>
     </g>
    </g>
    <g id="xtick_44">
     <g id="line2d_74">
      <g>
       <use style="stroke:#000000;stroke-width:0.8;" x="849.613139" xlink:href="#mccfc7b0c43" y="683.651588"/>
      </g>
     </g>
     <g id="text_46">
      <!-- 2032 -->
      <g transform="translate(852.924389 721.191588)rotate(-90)scale(0.12 -0.12)">
       <use xlink:href="#DejaVuSans-32"/>
       <use x="63.623047" xlink:href="#DejaVuSans-30"/>
       <use x="127.246094" xlink:href="#DejaVuSans-33"/>
       <use x="190.869141" xlink:href="#DejaVuSans-32"/>
      </g>
     </g>
    </g>
   </g>
   <g id="matplotlib.axis_8">
    <g id="ytick_22">
     <g id="line2d_75">
      <g>
       <use style="stroke:#000000;stroke-width:0.8;" x="522.299135" xlink:href="#m5da0034584" y="668.52424"/>
      </g>
     </g>
     <g id="text_47">
      <!-- 0 -->
      <g transform="translate(507.664135 673.083302)scale(0.12 -0.12)">
       <use xlink:href="#DejaVuSans-30"/>
      </g>
     </g>
    </g>
    <g id="ytick_23">
     <g id="line2d_76">
      <g>
       <use style="stroke:#000000;stroke-width:0.8;" x="522.299135" xlink:href="#m5da0034584" y="616.586452"/>
      </g>
     </g>
     <g id="text_48">
      <!-- 5,000,000 -->
      <g transform="translate(454.226635 621.145515)scale(0.12 -0.12)">
       <use xlink:href="#DejaVuSans-35"/>
       <use x="63.623047" xlink:href="#DejaVuSans-2c"/>
       <use x="95.410156" xlink:href="#DejaVuSans-30"/>
       <use x="159.033203" xlink:href="#DejaVuSans-30"/>
       <use x="222.65625" xlink:href="#DejaVuSans-30"/>
       <use x="286.279297" xlink:href="#DejaVuSans-2c"/>
       <use x="318.066406" xlink:href="#DejaVuSans-30"/>
       <use x="381.689453" xlink:href="#DejaVuSans-30"/>
       <use x="445.3125" xlink:href="#DejaVuSans-30"/>
      </g>
     </g>
    </g>
    <g id="ytick_24">
     <g id="line2d_77">
      <g>
       <use style="stroke:#000000;stroke-width:0.8;" x="522.299135" xlink:href="#m5da0034584" y="564.648665"/>
      </g>
     </g>
     <g id="text_49">
      <!-- 10,000,000 -->
      <g transform="translate(446.591635 569.207728)scale(0.12 -0.12)">
       <use xlink:href="#DejaVuSans-31"/>
       <use x="63.623047" xlink:href="#DejaVuSans-30"/>
       <use x="127.246094" xlink:href="#DejaVuSans-2c"/>
       <use x="159.033203" xlink:href="#DejaVuSans-30"/>
       <use x="222.65625" xlink:href="#DejaVuSans-30"/>
       <use x="286.279297" xlink:href="#DejaVuSans-30"/>
       <use x="349.902344" xlink:href="#DejaVuSans-2c"/>
       <use x="381.689453" xlink:href="#DejaVuSans-30"/>
       <use x="445.3125" xlink:href="#DejaVuSans-30"/>
       <use x="508.935547" xlink:href="#DejaVuSans-30"/>
      </g>
     </g>
    </g>
    <g id="ytick_25">
     <g id="line2d_78">
      <g>
       <use style="stroke:#000000;stroke-width:0.8;" x="522.299135" xlink:href="#m5da0034584" y="512.710878"/>
      </g>
     </g>
     <g id="text_50">
      <!-- 15,000,000 -->
      <g transform="translate(446.591635 517.26994)scale(0.12 -0.12)">
       <use xlink:href="#DejaVuSans-31"/>
       <use x="63.623047" xlink:href="#DejaVuSans-35"/>
       <use x="127.246094" xlink:href="#DejaVuSans-2c"/>
       <use x="159.033203" xlink:href="#DejaVuSans-30"/>
       <use x="222.65625" xlink:href="#DejaVuSans-30"/>
       <use x="286.279297" xlink:href="#DejaVuSans-30"/>
       <use x="349.902344" xlink:href="#DejaVuSans-2c"/>
       <use x="381.689453" xlink:href="#DejaVuSans-30"/>
       <use x="445.3125" xlink:href="#DejaVuSans-30"/>
       <use x="508.935547" xlink:href="#DejaVuSans-30"/>
      </g>
     </g>
    </g>
    <g id="ytick_26">
     <g id="line2d_79">
      <g>
       <use style="stroke:#000000;stroke-width:0.8;" x="522.299135" xlink:href="#m5da0034584" y="460.773091"/>
      </g>
     </g>
     <g id="text_51">
      <!-- 20,000,000 -->
      <g transform="translate(446.591635 465.332153)scale(0.12 -0.12)">
       <use xlink:href="#DejaVuSans-32"/>
       <use x="63.623047" xlink:href="#DejaVuSans-30"/>
       <use x="127.246094" xlink:href="#DejaVuSans-2c"/>
       <use x="159.033203" xlink:href="#DejaVuSans-30"/>
       <use x="222.65625" xlink:href="#DejaVuSans-30"/>
       <use x="286.279297" xlink:href="#DejaVuSans-30"/>
       <use x="349.902344" xlink:href="#DejaVuSans-2c"/>
       <use x="381.689453" xlink:href="#DejaVuSans-30"/>
       <use x="445.3125" xlink:href="#DejaVuSans-30"/>
       <use x="508.935547" xlink:href="#DejaVuSans-30"/>
      </g>
     </g>
    </g>
    <g id="ytick_27">
     <g id="line2d_80">
      <g>
       <use style="stroke:#000000;stroke-width:0.8;" x="522.299135" xlink:href="#m5da0034584" y="408.835303"/>
      </g>
     </g>
     <g id="text_52">
      <!-- 25,000,000 -->
      <g transform="translate(446.591635 413.394366)scale(0.12 -0.12)">
       <use xlink:href="#DejaVuSans-32"/>
       <use x="63.623047" xlink:href="#DejaVuSans-35"/>
       <use x="127.246094" xlink:href="#DejaVuSans-2c"/>
       <use x="159.033203" xlink:href="#DejaVuSans-30"/>
       <use x="222.65625" xlink:href="#DejaVuSans-30"/>
       <use x="286.279297" xlink:href="#DejaVuSans-30"/>
       <use x="349.902344" xlink:href="#DejaVuSans-2c"/>
       <use x="381.689453" xlink:href="#DejaVuSans-30"/>
       <use x="445.3125" xlink:href="#DejaVuSans-30"/>
       <use x="508.935547" xlink:href="#DejaVuSans-30"/>
      </g>
     </g>
    </g>
    <g id="ytick_28">
     <g id="line2d_81">
      <g>
       <use style="stroke:#000000;stroke-width:0.8;" x="522.299135" xlink:href="#m5da0034584" y="356.897516"/>
      </g>
     </g>
     <g id="text_53">
      <!-- 30,000,000 -->
      <g transform="translate(446.591635 361.456579)scale(0.12 -0.12)">
       <use xlink:href="#DejaVuSans-33"/>
       <use x="63.623047" xlink:href="#DejaVuSans-30"/>
       <use x="127.246094" xlink:href="#DejaVuSans-2c"/>
       <use x="159.033203" xlink:href="#DejaVuSans-30"/>
       <use x="222.65625" xlink:href="#DejaVuSans-30"/>
       <use x="286.279297" xlink:href="#DejaVuSans-30"/>
       <use x="349.902344" xlink:href="#DejaVuSans-2c"/>
       <use x="381.689453" xlink:href="#DejaVuSans-30"/>
       <use x="445.3125" xlink:href="#DejaVuSans-30"/>
       <use x="508.935547" xlink:href="#DejaVuSans-30"/>
      </g>
     </g>
    </g>
    <g id="text_54">
     <!-- Cumulative OUD Person-Years -->
     <g transform="translate(440.09601 606.484822)rotate(-90)scale(0.12 -0.12)">
      <defs>
       <path d="M 1259 4147 
L 1259 2394 
L 2053 2394 
Q 2494 2394 2734 2622 
Q 2975 2850 2975 3272 
Q 2975 3691 2734 3919 
Q 2494 4147 2053 4147 
L 1259 4147 
z
M 628 4666 
L 2053 4666 
Q 2838 4666 3239 4311 
Q 3641 3956 3641 3272 
Q 3641 2581 3239 2228 
Q 2838 1875 2053 1875 
L 1259 1875 
L 1259 0 
L 628 0 
L 628 4666 
z
" id="DejaVuSans-50" transform="scale(0.015625)"/>
       <path d="M 313 2009 
L 1997 2009 
L 1997 1497 
L 313 1497 
L 313 2009 
z
" id="DejaVuSans-2d" transform="scale(0.015625)"/>
       <path d="M -13 4666 
L 666 4666 
L 1959 2747 
L 3244 4666 
L 3922 4666 
L 2272 2222 
L 2272 0 
L 1638 0 
L 1638 2222 
L -13 4666 
z
" id="DejaVuSans-59" transform="scale(0.015625)"/>
      </defs>
      <use xlink:href="#DejaVuSans-43"/>
      <use x="69.824219" xlink:href="#DejaVuSans-75"/>
      <use x="133.203125" xlink:href="#DejaVuSans-6d"/>
      <use x="230.615234" xlink:href="#DejaVuSans-75"/>
      <use x="293.994141" xlink:href="#DejaVuSans-6c"/>
      <use x="321.777344" xlink:href="#DejaVuSans-61"/>
      <use x="383.056641" xlink:href="#DejaVuSans-74"/>
      <use x="422.265625" xlink:href="#DejaVuSans-69"/>
      <use x="450.048828" xlink:href="#DejaVuSans-76"/>
      <use x="509.228516" xlink:href="#DejaVuSans-65"/>
      <use x="570.751953" xlink:href="#DejaVuSans-20"/>
      <use x="602.539062" xlink:href="#DejaVuSans-4f"/>
      <use x="681.25" xlink:href="#DejaVuSans-55"/>
      <use x="754.443359" xlink:href="#DejaVuSans-44"/>
      <use x="831.445312" xlink:href="#DejaVuSans-20"/>
      <use x="863.232422" xlink:href="#DejaVuSans-50"/>
      <use x="919.910156" xlink:href="#DejaVuSans-65"/>
      <use x="981.433594" xlink:href="#DejaVuSans-72"/>
      <use x="1022.546875" xlink:href="#DejaVuSans-73"/>
      <use x="1074.646484" xlink:href="#DejaVuSans-6f"/>
      <use x="1135.828125" xlink:href="#DejaVuSans-6e"/>
      <use x="1199.207031" xlink:href="#DejaVuSans-2d"/>
      <use x="1223.416016" xlink:href="#DejaVuSans-59"/>
      <use x="1271.25" xlink:href="#DejaVuSans-65"/>
      <use x="1332.773438" xlink:href="#DejaVuSans-61"/>
      <use x="1394.052734" xlink:href="#DejaVuSans-72"/>
      <use x="1435.166016" xlink:href="#DejaVuSans-73"/>
     </g>
    </g>
   </g>
   <g id="line2d_82">
    <path clip-path="url(#p056b707881)" d="M 537.885516 668.52424 
L 545.678707 659.17897 
L 553.471897 649.932901 
L 561.265088 640.786345 
L 569.058278 631.739821 
L 576.851469 622.791979 
L 584.64466 613.943858 
L 592.43785 605.195457 
L 600.231041 596.545738 
L 608.024231 587.993662 
L 615.817422 579.539229 
L 623.610612 571.1814 
L 631.403803 562.919137 
L 639.196994 554.752439 
L 646.990184 546.680268 
L 654.783375 538.701585 
L 662.576565 530.815352 
L 670.369756 523.020529 
L 678.162946 515.315039 
L 685.956137 507.69992 
L 693.749327 500.172057 
L 701.542518 492.73145 
L 709.335709 485.37602 
L 717.128899 478.105769 
L 724.92209 470.919657 
L 732.71528 463.815606 
L 740.508471 456.792579 
L 748.301661 449.849535 
L 756.094852 442.984398 
L 763.888043 436.198207 
L 771.681233 429.486806 
L 779.474424 422.84708 
L 787.267614 416.27695 
L 795.060805 409.7733 
L 802.853995 403.335092 
L 810.647186 396.960248 
L 818.440377 390.64669 
L 826.233567 384.392342 
L 834.026758 378.198241 
L 841.819948 372.060234 
L 849.613139 365.97728 
" style="fill:none;stroke:#1f77b4;stroke-linecap:square;stroke-width:1.5;"/>
   </g>
   <g id="line2d_83">
    <path clip-path="url(#p056b707881)" d="M 537.885516 668.52424 
L 545.678707 659.238179 
L 553.471897 650.064511 
L 561.265088 641.004484 
L 569.058278 632.05768 
L 576.851469 623.226179 
L 584.64466 614.508941 
L 592.43785 605.905966 
L 600.231041 597.416215 
L 608.024231 589.040728 
L 615.817422 580.778464 
L 623.610612 572.628387 
L 631.403803 564.588417 
L 639.196994 556.658556 
L 646.990184 548.837764 
L 654.783375 541.123964 
L 662.576565 533.516117 
L 670.369756 526.014223 
L 678.162946 518.614127 
L 685.956137 511.316868 
L 693.749327 504.120368 
L 701.542518 497.02255 
L 709.335709 490.022375 
L 717.128899 483.117765 
L 724.92209 476.304567 
L 732.71528 469.579662 
L 740.508471 462.938896 
L 748.301661 456.380193 
L 756.094852 449.901473 
L 763.888043 443.50066 
L 771.681233 437.174638 
L 779.474424 430.922367 
L 787.267614 424.74177 
L 795.060805 418.63077 
L 802.853995 412.588328 
L 810.647186 406.612366 
L 818.440377 400.701846 
L 826.233567 394.85469 
L 834.026758 389.06882 
L 841.819948 383.345276 
L 849.613139 377.679902 
" style="fill:none;stroke:#ff7f0e;stroke-linecap:square;stroke-width:1.5;"/>
   </g>
   <g id="line2d_84">
    <path clip-path="url(#p056b707881)" d="M 537.885516 668.52424 
L 545.678707 659.201095 
L 553.471897 649.982242 
L 561.265088 640.868303 
L 569.058278 631.860213 
L 576.851469 622.957037 
L 584.64466 614.159815 
L 592.43785 605.467507 
L 600.231041 596.881152 
L 608.024231 588.399711 
L 615.817422 580.022146 
L 623.610612 571.748457 
L 631.403803 563.577604 
L 639.196994 555.508549 
L 646.990184 547.541293 
L 654.783375 539.674796 
L 662.576565 531.90698 
L 670.369756 524.236808 
L 678.162946 516.664278 
L 685.956137 509.187315 
L 693.749327 501.804877 
L 701.542518 494.515928 
L 709.335709 487.319429 
L 717.128899 480.213301 
L 724.92209 473.196505 
L 732.71528 466.269043 
L 740.508471 459.427798 
L 748.301661 452.669653 
L 756.094852 445.992531 
L 763.888043 439.391238 
L 771.681233 432.865775 
L 779.474424 426.411985 
L 787.267614 420.02987 
L 795.060805 413.716313 
L 802.853995 407.469236 
L 810.647186 401.2876 
L 818.440377 395.169329 
L 826.233567 389.114422 
L 834.026758 383.119762 
L 841.819948 377.184312 
L 849.613139 371.308071 
" style="fill:none;stroke:#000000;stroke-dasharray:5.55,2.4;stroke-dashoffset:0;stroke-width:1.5;"/>
   </g>
   <g id="patch_18">
    <path d="M 522.299135 683.651588 
L 522.299135 350.849932 
" style="fill:none;stroke:#000000;stroke-linecap:square;stroke-linejoin:miter;stroke-width:0.8;"/>
   </g>
   <g id="patch_19">
    <path d="M 865.19952 683.651588 
L 865.19952 350.849932 
" style="fill:none;stroke:#000000;stroke-linecap:square;stroke-linejoin:miter;stroke-width:0.8;"/>
   </g>
   <g id="patch_20">
    <path d="M 522.299135 683.651588 
L 865.19952 683.651588 
" style="fill:none;stroke:#000000;stroke-linecap:square;stroke-linejoin:miter;stroke-width:0.8;"/>
   </g>
   <g id="patch_21">
    <path d="M 522.299135 350.849932 
L 865.19952 350.849932 
" style="fill:none;stroke:#000000;stroke-linecap:square;stroke-linejoin:miter;stroke-width:0.8;"/>
   </g>
  </g>
  <g id="legend_1">
   <g id="patch_22">
    <path d="M 877.381635 378.012453 
L 972.11976 378.012453 
Q 974.51976 378.012453 974.51976 375.612453 
L 974.51976 323.971203 
Q 974.51976 321.571203 972.11976 321.571203 
L 877.381635 321.571203 
Q 874.981635 321.571203 874.981635 323.971203 
L 874.981635 375.612453 
Q 874.981635 378.012453 877.381635 378.012453 
z
" style="fill:#ffffff;opacity:0.8;stroke:#cccccc;stroke-linejoin:miter;"/>
   </g>
   <g id="line2d_85">
    <path d="M 879.781635 331.289328 
L 903.781635 331.289328 
" style="fill:none;stroke:#1f77b4;stroke-linecap:square;stroke-width:1.5;"/>
   </g>
   <g id="line2d_86"/>
   <g id="text_55">
    <!-- low fent -->
    <g transform="translate(913.381635 335.489328)scale(0.12 -0.12)">
     <defs>
      <path d="M 269 3500 
L 844 3500 
L 1563 769 
L 2278 3500 
L 2956 3500 
L 3675 769 
L 4391 3500 
L 4966 3500 
L 4050 0 
L 3372 0 
L 2619 2869 
L 1863 0 
L 1184 0 
L 269 3500 
z
" id="DejaVuSans-77" transform="scale(0.015625)"/>
     </defs>
     <use xlink:href="#DejaVuSans-6c"/>
     <use x="27.783203" xlink:href="#DejaVuSans-6f"/>
     <use x="88.964844" xlink:href="#DejaVuSans-77"/>
     <use x="170.751953" xlink:href="#DejaVuSans-20"/>
     <use x="202.539062" xlink:href="#DejaVuSans-66"/>
     <use x="237.744141" xlink:href="#DejaVuSans-65"/>
     <use x="299.267578" xlink:href="#DejaVuSans-6e"/>
     <use x="362.646484" xlink:href="#DejaVuSans-74"/>
    </g>
   </g>
   <g id="line2d_87">
    <path d="M 879.781635 348.903078 
L 903.781635 348.903078 
" style="fill:none;stroke:#ff7f0e;stroke-linecap:square;stroke-width:1.5;"/>
   </g>
   <g id="line2d_88"/>
   <g id="text_56">
    <!-- high fent -->
    <g transform="translate(913.381635 353.103078)scale(0.12 -0.12)">
     <defs>
      <path d="M 2906 1791 
Q 2906 2416 2648 2759 
Q 2391 3103 1925 3103 
Q 1463 3103 1205 2759 
Q 947 2416 947 1791 
Q 947 1169 1205 825 
Q 1463 481 1925 481 
Q 2391 481 2648 825 
Q 2906 1169 2906 1791 
z
M 3481 434 
Q 3481 -459 3084 -895 
Q 2688 -1331 1869 -1331 
Q 1566 -1331 1297 -1286 
Q 1028 -1241 775 -1147 
L 775 -588 
Q 1028 -725 1275 -790 
Q 1522 -856 1778 -856 
Q 2344 -856 2625 -561 
Q 2906 -266 2906 331 
L 2906 616 
Q 2728 306 2450 153 
Q 2172 0 1784 0 
Q 1141 0 747 490 
Q 353 981 353 1791 
Q 353 2603 747 3093 
Q 1141 3584 1784 3584 
Q 2172 3584 2450 3431 
Q 2728 3278 2906 2969 
L 2906 3500 
L 3481 3500 
L 3481 434 
z
" id="DejaVuSans-67" transform="scale(0.015625)"/>
     </defs>
     <use xlink:href="#DejaVuSans-68"/>
     <use x="63.378906" xlink:href="#DejaVuSans-69"/>
     <use x="91.162109" xlink:href="#DejaVuSans-67"/>
     <use x="154.638672" xlink:href="#DejaVuSans-68"/>
     <use x="218.017578" xlink:href="#DejaVuSans-20"/>
     <use x="249.804688" xlink:href="#DejaVuSans-66"/>
     <use x="285.009766" xlink:href="#DejaVuSans-65"/>
     <use x="346.533203" xlink:href="#DejaVuSans-6e"/>
     <use x="409.912109" xlink:href="#DejaVuSans-74"/>
    </g>
   </g>
   <g id="line2d_89">
    <path d="M 879.781635 366.516828 
L 903.781635 366.516828 
" style="fill:none;stroke:#000000;stroke-dasharray:5.55,2.4;stroke-dashoffset:0;stroke-width:1.5;"/>
   </g>
   <g id="line2d_90"/>
   <g id="text_57">
    <!-- base fent -->
    <g transform="translate(913.381635 370.716828)scale(0.12 -0.12)">
     <defs>
      <path d="M 3116 1747 
Q 3116 2381 2855 2742 
Q 2594 3103 2138 3103 
Q 1681 3103 1420 2742 
Q 1159 2381 1159 1747 
Q 1159 1113 1420 752 
Q 1681 391 2138 391 
Q 2594 391 2855 752 
Q 3116 1113 3116 1747 
z
M 1159 2969 
Q 1341 3281 1617 3432 
Q 1894 3584 2278 3584 
Q 2916 3584 3314 3078 
Q 3713 2572 3713 1747 
Q 3713 922 3314 415 
Q 2916 -91 2278 -91 
Q 1894 -91 1617 61 
Q 1341 213 1159 525 
L 1159 0 
L 581 0 
L 581 4863 
L 1159 4863 
L 1159 2969 
z
" id="DejaVuSans-62" transform="scale(0.015625)"/>
     </defs>
     <use xlink:href="#DejaVuSans-62"/>
     <use x="63.476562" xlink:href="#DejaVuSans-61"/>
     <use x="124.755859" xlink:href="#DejaVuSans-73"/>
     <use x="176.855469" xlink:href="#DejaVuSans-65"/>
     <use x="238.378906" xlink:href="#DejaVuSans-20"/>
     <use x="270.166016" xlink:href="#DejaVuSans-66"/>
     <use x="305.371094" xlink:href="#DejaVuSans-65"/>
     <use x="366.894531" xlink:href="#DejaVuSans-6e"/>
     <use x="430.273438" xlink:href="#DejaVuSans-74"/>
    </g>
   </g>
  </g>
 </g>
 <defs>
  <clipPath id="p53a28b702a">
   <rect height="332.801656" width="342.900385" x="79.4375" y="7.348277"/>
  </clipPath>
  <clipPath id="pa682560c8b">
   <rect height="332.801656" width="342.900385" x="522.299135" y="7.348277"/>
  </clipPath>
  <clipPath id="p8c7ddf5412">
   <rect height="332.801656" width="342.900385" x="79.4375" y="350.849932"/>
  </clipPath>
  <clipPath id="p056b707881">
   <rect height="332.801656" width="342.900385" x="522.299135" y="350.849932"/>
  </clipPath>
 </defs>
</svg>
