<?xml version="1.0" encoding="utf-8" standalone="no"?>
<!DOCTYPE svg PUBLIC "-//W3C//DTD SVG 1.1//EN"
  "http://www.w3.org/Graphics/SVG/1.1/DTD/svg11.dtd">
<svg height="368.39952pt" version="1.1" viewBox="0 0 512.39952 368.39952" width="512.39952pt" xmlns="http://www.w3.org/2000/svg" xmlns:xlink="http://www.w3.org/1999/xlink">
 <metadata>
  <rdf:RDF xmlns:cc="http://creativecommons.org/ns#" xmlns:dc="http://purl.org/dc/elements/1.1/" xmlns:rdf="http://www.w3.org/1999/02/22-rdf-syntax-ns#">
   <cc:Work>
    <dc:type rdf:resource="http://purl.org/dc/dcmitype/StillImage"/>
    <dc:date>2022-02-15T13:14:07.747690</dc:date>
    <dc:format>image/svg+xml</dc:format>
    <dc:creator>
     <cc:Agent>
      <dc:title>Matplotlib v3.4.0rc1, https://matplotlib.org/</dc:title>
     </cc:Agent>
    </dc:creator>
   </cc:Work>
  </rdf:RDF>
 </metadata>
 <defs>
  <style type="text/css">*{stroke-linecap:butt;stroke-linejoin:round;}</style>
 </defs>
 <g id="figure_1">
  <g id="patch_1">
   <path d="M 0 368.39952 
L 512.39952 368.39952 
L 512.39952 0 
L 0 0 
z
" style="fill:none;"/>
  </g>
  <g id="axes_1">
   <g id="patch_2">
    <path d="M 55.50125 330.321395 
L 505.19952 330.321395 
L 505.19952 23.84 
L 55.50125 23.84 
z
" style="fill:#ffffff;"/>
   </g>
   <g id="PolyCollection_1">
    <path clip-path="url(#p3e500461db)" d="M 75.94208 316.390422 
L 75.94208 316.390422 
L 80.071541 310.12244 
L 84.201002 303.983571 
L 88.330463 297.971156 
L 92.459923 292.082589 
L 96.589384 286.31532 
L 100.718845 280.666849 
L 104.848305 275.134731 
L 108.977766 269.716568 
L 113.107227 264.410012 
L 117.236687 259.212765 
L 121.366148 254.122576 
L 125.495609 249.137238 
L 129.62507 244.254593 
L 133.75453 239.472524 
L 137.883991 234.78896 
L 142.013452 230.201872 
L 146.142912 225.709273 
L 150.272373 221.309216 
L 154.401834 216.999795 
L 158.531294 212.779143 
L 162.660755 208.645431 
L 166.790216 204.596869 
L 170.919677 200.631703 
L 175.049137 196.748215 
L 179.178598 192.944721 
L 183.308059 189.219576 
L 187.437519 185.571164 
L 191.56698 181.997904 
L 195.696441 178.49825 
L 199.825901 175.070685 
L 203.955362 171.713723 
L 208.084823 168.425911 
L 212.214283 165.205824 
L 216.343744 162.052067 
L 220.473205 158.963273 
L 224.602666 155.938106 
L 228.732126 152.975253 
L 232.861587 150.073431 
L 236.991048 147.231383 
L 241.120508 144.447879 
L 245.249969 141.721711 
L 249.37943 139.051699 
L 253.50889 136.436686 
L 257.638351 133.875539 
L 261.767812 131.367149 
L 265.897273 128.910429 
L 270.026733 126.504315 
L 274.156194 124.147763 
L 278.285655 121.839754 
L 282.415115 119.579287 
L 286.544576 117.365383 
L 290.674037 115.197082 
L 294.803497 113.073447 
L 298.932958 110.993555 
L 303.062419 108.956507 
L 307.19188 106.96142 
L 311.32134 105.007429 
L 315.450801 103.093688 
L 319.580262 101.219368 
L 323.709722 99.383657 
L 327.839183 97.585759 
L 331.968644 95.824896 
L 336.098104 94.100304 
L 340.227565 92.411237 
L 344.357026 90.756963 
L 348.486487 89.136765 
L 352.615947 87.549941 
L 356.745408 85.995804 
L 360.874869 84.47368 
L 365.004329 82.98291 
L 369.13379 81.522849 
L 373.263251 80.092862 
L 377.392711 78.692332 
L 381.522172 77.320651 
L 385.651633 75.977226 
L 389.781093 74.661473 
L 393.910554 73.372823 
L 398.040015 72.110718 
L 402.169476 70.87461 
L 406.298936 69.663965 
L 410.428397 68.478258 
L 414.557858 67.316975 
L 418.687318 66.179613 
L 422.816779 65.06568 
L 426.94624 63.974692 
L 431.0757 62.906177 
L 435.205161 61.859673 
L 439.334622 60.834725 
L 443.464083 59.83089 
L 447.593543 58.847732 
L 451.723004 57.884827 
L 455.852465 56.941756 
L 459.981925 56.018112 
L 464.111386 55.113493 
L 468.240847 54.227509 
L 472.370307 53.359774 
L 476.499768 52.509914 
L 480.629229 51.677561 
L 484.75869 50.862352 
L 484.75869 70.630461 
L 484.75869 70.630461 
L 480.629229 71.613185 
L 476.499768 72.61241 
L 472.370307 73.628412 
L 468.240847 74.661473 
L 464.111386 75.71188 
L 459.981925 76.779923 
L 455.852465 77.8659 
L 451.723004 78.970111 
L 447.593543 80.092862 
L 443.464083 81.234465 
L 439.334622 82.395236 
L 435.205161 83.575497 
L 431.0757 84.775576 
L 426.94624 85.995804 
L 422.816779 87.23652 
L 418.687318 88.498069 
L 414.557858 89.7808 
L 410.428397 91.085069 
L 406.298936 92.411237 
L 402.169476 93.759672 
L 398.040015 95.130749 
L 393.910554 96.524846 
L 389.781093 97.942351 
L 385.651633 99.383657 
L 381.522172 100.849163 
L 377.392711 102.339275 
L 373.263251 103.854408 
L 369.13379 105.39498 
L 365.004329 106.96142 
L 360.874869 108.554161 
L 356.745408 110.173645 
L 352.615947 111.820321 
L 348.486487 113.494645 
L 344.357026 115.197082 
L 340.227565 116.928105 
L 336.098104 118.688192 
L 331.968644 120.477832 
L 327.839183 122.297521 
L 323.709722 124.147763 
L 319.580262 126.029072 
L 315.450801 127.941969 
L 311.32134 129.886985 
L 307.19188 131.864659 
L 303.062419 133.875539 
L 298.932958 135.920183 
L 294.803497 137.999158 
L 290.674037 140.113039 
L 286.544576 142.262414 
L 282.415115 144.447879 
L 278.285655 146.670038 
L 274.156194 148.929509 
L 270.026733 151.226917 
L 265.897273 153.5629 
L 261.767812 155.938106 
L 257.638351 158.353192 
L 253.50889 160.808829 
L 249.37943 163.305698 
L 245.249969 165.844491 
L 241.120508 168.425911 
L 236.991048 171.050675 
L 232.861587 173.71951 
L 228.732126 176.433156 
L 224.602666 179.192366 
L 220.473205 181.997904 
L 216.343744 184.850549 
L 212.214283 187.751092 
L 208.084823 190.700336 
L 203.955362 193.6991 
L 199.825901 196.748215 
L 195.696441 199.848526 
L 191.56698 203.000892 
L 187.437519 206.206189 
L 183.308059 209.465305 
L 179.178598 212.779143 
L 175.049137 216.148622 
L 170.919677 219.574677 
L 166.790216 223.058257 
L 162.660755 226.600328 
L 158.531294 230.201872 
L 154.401834 233.863889 
L 150.272373 237.587392 
L 146.142912 241.373416 
L 142.013452 245.223009 
L 137.883991 249.137238 
L 133.75453 253.11719 
L 129.62507 257.163967 
L 125.495609 261.278692 
L 121.366148 265.462506 
L 117.236687 269.716568 
L 113.107227 274.042058 
L 108.977766 278.440175 
L 104.848305 282.912139 
L 100.718845 287.45919 
L 96.589384 292.082589 
L 92.459923 296.783617 
L 88.330463 301.563578 
L 84.201002 306.423797 
L 80.071541 311.365622 
L 75.94208 316.390422 
z
" style="fill:#1f77b4;fill-opacity:0.2;"/>
   </g>
   <g id="PolyCollection_2">
    <path clip-path="url(#p3e500461db)" d="M 75.94208 316.390422 
L 75.94208 316.390422 
L 80.071541 310.12244 
L 84.201002 303.983571 
L 88.330463 297.971156 
L 92.459923 292.082589 
L 96.589384 286.31532 
L 100.718845 280.666849 
L 104.848305 275.134731 
L 108.977766 269.716568 
L 113.107227 264.410012 
L 117.236687 259.212765 
L 121.366148 254.122576 
L 125.495609 249.137238 
L 129.62507 244.254593 
L 133.75453 239.472524 
L 137.883991 234.78896 
L 142.013452 230.201872 
L 146.142912 225.709273 
L 150.272373 221.309216 
L 154.401834 216.999795 
L 158.531294 212.779143 
L 162.660755 208.645431 
L 166.790216 204.596869 
L 170.919677 200.631703 
L 175.049137 196.748215 
L 179.178598 192.944721 
L 183.308059 189.219576 
L 187.437519 185.571164 
L 191.56698 181.997904 
L 195.696441 178.49825 
L 199.825901 175.070685 
L 203.955362 171.713723 
L 208.084823 168.425911 
L 212.214283 165.205824 
L 216.343744 162.052067 
L 220.473205 158.963273 
L 224.602666 155.938106 
L 228.732126 152.975253 
L 232.861587 150.073431 
L 236.991048 147.231383 
L 241.120508 144.447879 
L 245.249969 141.721711 
L 249.37943 139.051699 
L 253.50889 136.436686 
L 257.638351 133.875539 
L 261.767812 131.367149 
L 265.897273 128.910429 
L 270.026733 126.504315 
L 274.156194 124.147763 
L 278.285655 121.839754 
L 282.415115 119.579287 
L 286.544576 117.365383 
L 290.674037 115.197082 
L 294.803497 113.073447 
L 298.932958 110.993555 
L 303.062419 108.956507 
L 307.19188 106.96142 
L 311.32134 105.007429 
L 315.450801 103.093688 
L 319.580262 101.219368 
L 323.709722 99.383657 
L 327.839183 97.585759 
L 331.968644 95.824896 
L 336.098104 94.100304 
L 340.227565 92.411237 
L 344.357026 90.756963 
L 348.486487 89.136765 
L 352.615947 87.549941 
L 356.745408 85.995804 
L 360.874869 84.47368 
L 365.004329 82.98291 
L 369.13379 81.522849 
L 373.263251 80.092862 
L 377.392711 78.692332 
L 381.522172 77.320651 
L 385.651633 75.977226 
L 389.781093 74.661473 
L 393.910554 73.372823 
L 398.040015 72.110718 
L 402.169476 70.87461 
L 406.298936 69.663965 
L 410.428397 68.478258 
L 414.557858 67.316975 
L 418.687318 66.179613 
L 422.816779 65.06568 
L 426.94624 63.974692 
L 431.0757 62.906177 
L 435.205161 61.859673 
L 439.334622 60.834725 
L 443.464083 59.83089 
L 447.593543 58.847732 
L 451.723004 57.884827 
L 455.852465 56.941756 
L 459.981925 56.018112 
L 464.111386 55.113493 
L 468.240847 54.227509 
L 472.370307 53.359774 
L 476.499768 52.509914 
L 480.629229 51.677561 
L 484.75869 50.862352 
L 484.75869 37.770972 
L 484.75869 37.770972 
L 480.629229 38.420171 
L 476.499768 39.085789 
L 472.370307 39.768241 
L 468.240847 40.467952 
L 464.111386 41.185361 
L 459.981925 41.920914 
L 455.852465 42.675069 
L 451.723004 43.448299 
L 447.593543 44.241084 
L 443.464083 45.05392 
L 439.334622 45.887313 
L 435.205161 46.741784 
L 431.0757 47.617866 
L 426.94624 48.516105 
L 422.816779 49.437061 
L 418.687318 50.38131 
L 414.557858 51.34944 
L 410.428397 52.342055 
L 406.298936 53.359774 
L 402.169476 54.403233 
L 398.040015 55.473083 
L 393.910554 56.56999 
L 389.781093 57.694639 
L 385.651633 58.847732 
L 381.522172 60.029989 
L 377.392711 61.242146 
L 373.263251 62.48496 
L 369.13379 63.759206 
L 365.004329 65.06568 
L 360.874869 66.405196 
L 356.745408 67.77859 
L 352.615947 69.186719 
L 348.486487 70.630461 
L 344.357026 72.110718 
L 340.227565 73.628412 
L 336.098104 75.18449 
L 331.968644 76.779923 
L 327.839183 78.415707 
L 323.709722 80.092862 
L 319.580262 81.812435 
L 315.450801 83.575497 
L 311.32134 85.38315 
L 307.19188 87.23652 
L 303.062419 89.136765 
L 298.932958 91.085069 
L 294.803497 93.082648 
L 290.674037 95.130749 
L 286.544576 97.230648 
L 282.415115 99.383657 
L 278.285655 101.591118 
L 274.156194 103.854408 
L 270.026733 106.17494 
L 265.897273 108.554161 
L 261.767812 110.993555 
L 257.638351 113.494645 
L 253.50889 116.058991 
L 249.37943 118.688192 
L 245.249969 121.383889 
L 241.120508 124.147763 
L 236.991048 126.981539 
L 232.861587 129.886985 
L 228.732126 132.865914 
L 224.602666 135.920183 
L 220.473205 139.051699 
L 216.343744 142.262414 
L 212.214283 145.554333 
L 208.084823 148.929509 
L 203.955362 152.390046 
L 199.825901 155.938106 
L 195.696441 159.5759 
L 191.56698 163.305698 
L 187.437519 167.129828 
L 183.308059 171.050675 
L 179.178598 175.070685 
L 175.049137 179.192366 
L 170.919677 183.418289 
L 166.790216 187.751092 
L 162.660755 192.193477 
L 158.531294 196.748215 
L 154.401834 201.418148 
L 150.272373 206.206189 
L 146.142912 211.115327 
L 142.013452 216.148622 
L 137.883991 221.309216 
L 133.75453 226.600328 
L 129.62507 232.025258 
L 125.495609 237.587392 
L 121.366148 243.2902 
L 117.236687 249.137238 
L 113.107227 255.132156 
L 108.977766 261.278692 
L 104.848305 267.580682 
L 100.718845 274.042058 
L 96.589384 280.666849 
L 92.459923 287.45919 
L 88.330463 294.423318 
L 84.201002 301.563578 
L 80.071541 308.884423 
L 75.94208 316.390422 
z
" style="fill:#ff7f0e;fill-opacity:0.2;"/>
   </g>
   <g id="matplotlib.axis_1">
    <g id="xtick_1">
     <g id="line2d_1">
      <defs>
       <path d="M 0 0 
L 0 3.5 
" id="m74e556b427" style="stroke:#000000;stroke-width:0.8;"/>
      </defs>
      <g>
       <use style="stroke:#000000;stroke-width:0.8;" x="75.94208" xlink:href="#m74e556b427" y="330.321395"/>
      </g>
     </g>
     <g id="text_1">
      <!-- 0 -->
      <g transform="translate(72.76083 344.919832)scale(0.1 -0.1)">
       <defs>
        <path d="M 2034 4250 
Q 1547 4250 1301 3770 
Q 1056 3291 1056 2328 
Q 1056 1369 1301 889 
Q 1547 409 2034 409 
Q 2525 409 2770 889 
Q 3016 1369 3016 2328 
Q 3016 3291 2770 3770 
Q 2525 4250 2034 4250 
z
M 2034 4750 
Q 2819 4750 3233 4129 
Q 3647 3509 3647 2328 
Q 3647 1150 3233 529 
Q 2819 -91 2034 -91 
Q 1250 -91 836 529 
Q 422 1150 422 2328 
Q 422 3509 836 4129 
Q 1250 4750 2034 4750 
z
" id="DejaVuSans-30" transform="scale(0.015625)"/>
       </defs>
       <use xlink:href="#DejaVuSans-30"/>
      </g>
     </g>
    </g>
    <g id="xtick_2">
     <g id="line2d_2">
      <g>
       <use style="stroke:#000000;stroke-width:0.8;" x="144.078182" xlink:href="#m74e556b427" y="330.321395"/>
      </g>
     </g>
     <g id="text_2">
      <!-- 1000 -->
      <g transform="translate(131.353182 344.919832)scale(0.1 -0.1)">
       <defs>
        <path d="M 794 531 
L 1825 531 
L 1825 4091 
L 703 3866 
L 703 4441 
L 1819 4666 
L 2450 4666 
L 2450 531 
L 3481 531 
L 3481 0 
L 794 0 
L 794 531 
z
" id="DejaVuSans-31" transform="scale(0.015625)"/>
       </defs>
       <use xlink:href="#DejaVuSans-31"/>
       <use x="63.623047" xlink:href="#DejaVuSans-30"/>
       <use x="127.246094" xlink:href="#DejaVuSans-30"/>
       <use x="190.869141" xlink:href="#DejaVuSans-30"/>
      </g>
     </g>
    </g>
    <g id="xtick_3">
     <g id="line2d_3">
      <g>
       <use style="stroke:#000000;stroke-width:0.8;" x="212.214283" xlink:href="#m74e556b427" y="330.321395"/>
      </g>
     </g>
     <g id="text_3">
      <!-- 2000 -->
      <g transform="translate(199.489283 344.919832)scale(0.1 -0.1)">
       <defs>
        <path d="M 1228 531 
L 3431 531 
L 3431 0 
L 469 0 
L 469 531 
Q 828 903 1448 1529 
Q 2069 2156 2228 2338 
Q 2531 2678 2651 2914 
Q 2772 3150 2772 3378 
Q 2772 3750 2511 3984 
Q 2250 4219 1831 4219 
Q 1534 4219 1204 4116 
Q 875 4013 500 3803 
L 500 4441 
Q 881 4594 1212 4672 
Q 1544 4750 1819 4750 
Q 2544 4750 2975 4387 
Q 3406 4025 3406 3419 
Q 3406 3131 3298 2873 
Q 3191 2616 2906 2266 
Q 2828 2175 2409 1742 
Q 1991 1309 1228 531 
z
" id="DejaVuSans-32" transform="scale(0.015625)"/>
       </defs>
       <use xlink:href="#DejaVuSans-32"/>
       <use x="63.623047" xlink:href="#DejaVuSans-30"/>
       <use x="127.246094" xlink:href="#DejaVuSans-30"/>
       <use x="190.869141" xlink:href="#DejaVuSans-30"/>
      </g>
     </g>
    </g>
    <g id="xtick_4">
     <g id="line2d_4">
      <g>
       <use style="stroke:#000000;stroke-width:0.8;" x="280.350385" xlink:href="#m74e556b427" y="330.321395"/>
      </g>
     </g>
     <g id="text_4">
      <!-- 3000 -->
      <g transform="translate(267.625385 344.919832)scale(0.1 -0.1)">
       <defs>
        <path d="M 2597 2516 
Q 3050 2419 3304 2112 
Q 3559 1806 3559 1356 
Q 3559 666 3084 287 
Q 2609 -91 1734 -91 
Q 1441 -91 1130 -33 
Q 819 25 488 141 
L 488 750 
Q 750 597 1062 519 
Q 1375 441 1716 441 
Q 2309 441 2620 675 
Q 2931 909 2931 1356 
Q 2931 1769 2642 2001 
Q 2353 2234 1838 2234 
L 1294 2234 
L 1294 2753 
L 1863 2753 
Q 2328 2753 2575 2939 
Q 2822 3125 2822 3475 
Q 2822 3834 2567 4026 
Q 2313 4219 1838 4219 
Q 1578 4219 1281 4162 
Q 984 4106 628 3988 
L 628 4550 
Q 988 4650 1302 4700 
Q 1616 4750 1894 4750 
Q 2613 4750 3031 4423 
Q 3450 4097 3450 3541 
Q 3450 3153 3228 2886 
Q 3006 2619 2597 2516 
z
" id="DejaVuSans-33" transform="scale(0.015625)"/>
       </defs>
       <use xlink:href="#DejaVuSans-33"/>
       <use x="63.623047" xlink:href="#DejaVuSans-30"/>
       <use x="127.246094" xlink:href="#DejaVuSans-30"/>
       <use x="190.869141" xlink:href="#DejaVuSans-30"/>
      </g>
     </g>
    </g>
    <g id="xtick_5">
     <g id="line2d_5">
      <g>
       <use style="stroke:#000000;stroke-width:0.8;" x="348.486487" xlink:href="#m74e556b427" y="330.321395"/>
      </g>
     </g>
     <g id="text_5">
      <!-- 4000 -->
      <g transform="translate(335.761487 344.919832)scale(0.1 -0.1)">
       <defs>
        <path d="M 2419 4116 
L 825 1625 
L 2419 1625 
L 2419 4116 
z
M 2253 4666 
L 3047 4666 
L 3047 1625 
L 3713 1625 
L 3713 1100 
L 3047 1100 
L 3047 0 
L 2419 0 
L 2419 1100 
L 313 1100 
L 313 1709 
L 2253 4666 
z
" id="DejaVuSans-34" transform="scale(0.015625)"/>
       </defs>
       <use xlink:href="#DejaVuSans-34"/>
       <use x="63.623047" xlink:href="#DejaVuSans-30"/>
       <use x="127.246094" xlink:href="#DejaVuSans-30"/>
       <use x="190.869141" xlink:href="#DejaVuSans-30"/>
      </g>
     </g>
    </g>
    <g id="xtick_6">
     <g id="line2d_6">
      <g>
       <use style="stroke:#000000;stroke-width:0.8;" x="416.622588" xlink:href="#m74e556b427" y="330.321395"/>
      </g>
     </g>
     <g id="text_6">
      <!-- 5000 -->
      <g transform="translate(403.897588 344.919832)scale(0.1 -0.1)">
       <defs>
        <path d="M 691 4666 
L 3169 4666 
L 3169 4134 
L 1269 4134 
L 1269 2991 
Q 1406 3038 1543 3061 
Q 1681 3084 1819 3084 
Q 2600 3084 3056 2656 
Q 3513 2228 3513 1497 
Q 3513 744 3044 326 
Q 2575 -91 1722 -91 
Q 1428 -91 1123 -41 
Q 819 9 494 109 
L 494 744 
Q 775 591 1075 516 
Q 1375 441 1709 441 
Q 2250 441 2565 725 
Q 2881 1009 2881 1497 
Q 2881 1984 2565 2268 
Q 2250 2553 1709 2553 
Q 1456 2553 1204 2497 
Q 953 2441 691 2322 
L 691 4666 
z
" id="DejaVuSans-35" transform="scale(0.015625)"/>
       </defs>
       <use xlink:href="#DejaVuSans-35"/>
       <use x="63.623047" xlink:href="#DejaVuSans-30"/>
       <use x="127.246094" xlink:href="#DejaVuSans-30"/>
       <use x="190.869141" xlink:href="#DejaVuSans-30"/>
      </g>
     </g>
    </g>
    <g id="xtick_7">
     <g id="line2d_7">
      <g>
       <use style="stroke:#000000;stroke-width:0.8;" x="484.75869" xlink:href="#m74e556b427" y="330.321395"/>
      </g>
     </g>
     <g id="text_7">
      <!-- 6000 -->
      <g transform="translate(472.03369 344.919832)scale(0.1 -0.1)">
       <defs>
        <path d="M 2113 2584 
Q 1688 2584 1439 2293 
Q 1191 2003 1191 1497 
Q 1191 994 1439 701 
Q 1688 409 2113 409 
Q 2538 409 2786 701 
Q 3034 994 3034 1497 
Q 3034 2003 2786 2293 
Q 2538 2584 2113 2584 
z
M 3366 4563 
L 3366 3988 
Q 3128 4100 2886 4159 
Q 2644 4219 2406 4219 
Q 1781 4219 1451 3797 
Q 1122 3375 1075 2522 
Q 1259 2794 1537 2939 
Q 1816 3084 2150 3084 
Q 2853 3084 3261 2657 
Q 3669 2231 3669 1497 
Q 3669 778 3244 343 
Q 2819 -91 2113 -91 
Q 1303 -91 875 529 
Q 447 1150 447 2328 
Q 447 3434 972 4092 
Q 1497 4750 2381 4750 
Q 2619 4750 2861 4703 
Q 3103 4656 3366 4563 
z
" id="DejaVuSans-36" transform="scale(0.015625)"/>
       </defs>
       <use xlink:href="#DejaVuSans-36"/>
       <use x="63.623047" xlink:href="#DejaVuSans-30"/>
       <use x="127.246094" xlink:href="#DejaVuSans-30"/>
       <use x="190.869141" xlink:href="#DejaVuSans-30"/>
      </g>
     </g>
    </g>
    <g id="text_8">
     <!-- Layperson naloxone kits distributed per 100K population, $\nu_{(.)}$ -->
     <g transform="translate(127.550385 358.59952)scale(0.1 -0.1)">
      <defs>
       <path d="M 628 4666 
L 1259 4666 
L 1259 531 
L 3531 531 
L 3531 0 
L 628 0 
L 628 4666 
z
" id="DejaVuSans-4c" transform="scale(0.015625)"/>
       <path d="M 2194 1759 
Q 1497 1759 1228 1600 
Q 959 1441 959 1056 
Q 959 750 1161 570 
Q 1363 391 1709 391 
Q 2188 391 2477 730 
Q 2766 1069 2766 1631 
L 2766 1759 
L 2194 1759 
z
M 3341 1997 
L 3341 0 
L 2766 0 
L 2766 531 
Q 2569 213 2275 61 
Q 1981 -91 1556 -91 
Q 1019 -91 701 211 
Q 384 513 384 1019 
Q 384 1609 779 1909 
Q 1175 2209 1959 2209 
L 2766 2209 
L 2766 2266 
Q 2766 2663 2505 2880 
Q 2244 3097 1772 3097 
Q 1472 3097 1187 3025 
Q 903 2953 641 2809 
L 641 3341 
Q 956 3463 1253 3523 
Q 1550 3584 1831 3584 
Q 2591 3584 2966 3190 
Q 3341 2797 3341 1997 
z
" id="DejaVuSans-61" transform="scale(0.015625)"/>
       <path d="M 2059 -325 
Q 1816 -950 1584 -1140 
Q 1353 -1331 966 -1331 
L 506 -1331 
L 506 -850 
L 844 -850 
Q 1081 -850 1212 -737 
Q 1344 -625 1503 -206 
L 1606 56 
L 191 3500 
L 800 3500 
L 1894 763 
L 2988 3500 
L 3597 3500 
L 2059 -325 
z
" id="DejaVuSans-79" transform="scale(0.015625)"/>
       <path d="M 1159 525 
L 1159 -1331 
L 581 -1331 
L 581 3500 
L 1159 3500 
L 1159 2969 
Q 1341 3281 1617 3432 
Q 1894 3584 2278 3584 
Q 2916 3584 3314 3078 
Q 3713 2572 3713 1747 
Q 3713 922 3314 415 
Q 2916 -91 2278 -91 
Q 1894 -91 1617 61 
Q 1341 213 1159 525 
z
M 3116 1747 
Q 3116 2381 2855 2742 
Q 2594 3103 2138 3103 
Q 1681 3103 1420 2742 
Q 1159 2381 1159 1747 
Q 1159 1113 1420 752 
Q 1681 391 2138 391 
Q 2594 391 2855 752 
Q 3116 1113 3116 1747 
z
" id="DejaVuSans-70" transform="scale(0.015625)"/>
       <path d="M 3597 1894 
L 3597 1613 
L 953 1613 
Q 991 1019 1311 708 
Q 1631 397 2203 397 
Q 2534 397 2845 478 
Q 3156 559 3463 722 
L 3463 178 
Q 3153 47 2828 -22 
Q 2503 -91 2169 -91 
Q 1331 -91 842 396 
Q 353 884 353 1716 
Q 353 2575 817 3079 
Q 1281 3584 2069 3584 
Q 2775 3584 3186 3129 
Q 3597 2675 3597 1894 
z
M 3022 2063 
Q 3016 2534 2758 2815 
Q 2500 3097 2075 3097 
Q 1594 3097 1305 2825 
Q 1016 2553 972 2059 
L 3022 2063 
z
" id="DejaVuSans-65" transform="scale(0.015625)"/>
       <path d="M 2631 2963 
Q 2534 3019 2420 3045 
Q 2306 3072 2169 3072 
Q 1681 3072 1420 2755 
Q 1159 2438 1159 1844 
L 1159 0 
L 581 0 
L 581 3500 
L 1159 3500 
L 1159 2956 
Q 1341 3275 1631 3429 
Q 1922 3584 2338 3584 
Q 2397 3584 2469 3576 
Q 2541 3569 2628 3553 
L 2631 2963 
z
" id="DejaVuSans-72" transform="scale(0.015625)"/>
       <path d="M 2834 3397 
L 2834 2853 
Q 2591 2978 2328 3040 
Q 2066 3103 1784 3103 
Q 1356 3103 1142 2972 
Q 928 2841 928 2578 
Q 928 2378 1081 2264 
Q 1234 2150 1697 2047 
L 1894 2003 
Q 2506 1872 2764 1633 
Q 3022 1394 3022 966 
Q 3022 478 2636 193 
Q 2250 -91 1575 -91 
Q 1294 -91 989 -36 
Q 684 19 347 128 
L 347 722 
Q 666 556 975 473 
Q 1284 391 1588 391 
Q 1994 391 2212 530 
Q 2431 669 2431 922 
Q 2431 1156 2273 1281 
Q 2116 1406 1581 1522 
L 1381 1569 
Q 847 1681 609 1914 
Q 372 2147 372 2553 
Q 372 3047 722 3315 
Q 1072 3584 1716 3584 
Q 2034 3584 2315 3537 
Q 2597 3491 2834 3397 
z
" id="DejaVuSans-73" transform="scale(0.015625)"/>
       <path d="M 1959 3097 
Q 1497 3097 1228 2736 
Q 959 2375 959 1747 
Q 959 1119 1226 758 
Q 1494 397 1959 397 
Q 2419 397 2687 759 
Q 2956 1122 2956 1747 
Q 2956 2369 2687 2733 
Q 2419 3097 1959 3097 
z
M 1959 3584 
Q 2709 3584 3137 3096 
Q 3566 2609 3566 1747 
Q 3566 888 3137 398 
Q 2709 -91 1959 -91 
Q 1206 -91 779 398 
Q 353 888 353 1747 
Q 353 2609 779 3096 
Q 1206 3584 1959 3584 
z
" id="DejaVuSans-6f" transform="scale(0.015625)"/>
       <path d="M 3513 2113 
L 3513 0 
L 2938 0 
L 2938 2094 
Q 2938 2591 2744 2837 
Q 2550 3084 2163 3084 
Q 1697 3084 1428 2787 
Q 1159 2491 1159 1978 
L 1159 0 
L 581 0 
L 581 3500 
L 1159 3500 
L 1159 2956 
Q 1366 3272 1645 3428 
Q 1925 3584 2291 3584 
Q 2894 3584 3203 3211 
Q 3513 2838 3513 2113 
z
" id="DejaVuSans-6e" transform="scale(0.015625)"/>
       <path id="DejaVuSans-20" transform="scale(0.015625)"/>
       <path d="M 603 4863 
L 1178 4863 
L 1178 0 
L 603 0 
L 603 4863 
z
" id="DejaVuSans-6c" transform="scale(0.015625)"/>
       <path d="M 3513 3500 
L 2247 1797 
L 3578 0 
L 2900 0 
L 1881 1375 
L 863 0 
L 184 0 
L 1544 1831 
L 300 3500 
L 978 3500 
L 1906 2253 
L 2834 3500 
L 3513 3500 
z
" id="DejaVuSans-78" transform="scale(0.015625)"/>
       <path d="M 581 4863 
L 1159 4863 
L 1159 1991 
L 2875 3500 
L 3609 3500 
L 1753 1863 
L 3688 0 
L 2938 0 
L 1159 1709 
L 1159 0 
L 581 0 
L 581 4863 
z
" id="DejaVuSans-6b" transform="scale(0.015625)"/>
       <path d="M 603 3500 
L 1178 3500 
L 1178 0 
L 603 0 
L 603 3500 
z
M 603 4863 
L 1178 4863 
L 1178 4134 
L 603 4134 
L 603 4863 
z
" id="DejaVuSans-69" transform="scale(0.015625)"/>
       <path d="M 1172 4494 
L 1172 3500 
L 2356 3500 
L 2356 3053 
L 1172 3053 
L 1172 1153 
Q 1172 725 1289 603 
Q 1406 481 1766 481 
L 2356 481 
L 2356 0 
L 1766 0 
Q 1100 0 847 248 
Q 594 497 594 1153 
L 594 3053 
L 172 3053 
L 172 3500 
L 594 3500 
L 594 4494 
L 1172 4494 
z
" id="DejaVuSans-74" transform="scale(0.015625)"/>
       <path d="M 2906 2969 
L 2906 4863 
L 3481 4863 
L 3481 0 
L 2906 0 
L 2906 525 
Q 2725 213 2448 61 
Q 2172 -91 1784 -91 
Q 1150 -91 751 415 
Q 353 922 353 1747 
Q 353 2572 751 3078 
Q 1150 3584 1784 3584 
Q 2172 3584 2448 3432 
Q 2725 3281 2906 2969 
z
M 947 1747 
Q 947 1113 1208 752 
Q 1469 391 1925 391 
Q 2381 391 2643 752 
Q 2906 1113 2906 1747 
Q 2906 2381 2643 2742 
Q 2381 3103 1925 3103 
Q 1469 3103 1208 2742 
Q 947 2381 947 1747 
z
" id="DejaVuSans-64" transform="scale(0.015625)"/>
       <path d="M 3116 1747 
Q 3116 2381 2855 2742 
Q 2594 3103 2138 3103 
Q 1681 3103 1420 2742 
Q 1159 2381 1159 1747 
Q 1159 1113 1420 752 
Q 1681 391 2138 391 
Q 2594 391 2855 752 
Q 3116 1113 3116 1747 
z
M 1159 2969 
Q 1341 3281 1617 3432 
Q 1894 3584 2278 3584 
Q 2916 3584 3314 3078 
Q 3713 2572 3713 1747 
Q 3713 922 3314 415 
Q 2916 -91 2278 -91 
Q 1894 -91 1617 61 
Q 1341 213 1159 525 
L 1159 0 
L 581 0 
L 581 4863 
L 1159 4863 
L 1159 2969 
z
" id="DejaVuSans-62" transform="scale(0.015625)"/>
       <path d="M 544 1381 
L 544 3500 
L 1119 3500 
L 1119 1403 
Q 1119 906 1312 657 
Q 1506 409 1894 409 
Q 2359 409 2629 706 
Q 2900 1003 2900 1516 
L 2900 3500 
L 3475 3500 
L 3475 0 
L 2900 0 
L 2900 538 
Q 2691 219 2414 64 
Q 2138 -91 1772 -91 
Q 1169 -91 856 284 
Q 544 659 544 1381 
z
M 1991 3584 
L 1991 3584 
z
" id="DejaVuSans-75" transform="scale(0.015625)"/>
       <path d="M 628 4666 
L 1259 4666 
L 1259 2694 
L 3353 4666 
L 4166 4666 
L 1850 2491 
L 4331 0 
L 3500 0 
L 1259 2247 
L 1259 0 
L 628 0 
L 628 4666 
z
" id="DejaVuSans-4b" transform="scale(0.015625)"/>
       <path d="M 750 794 
L 1409 794 
L 1409 256 
L 897 -744 
L 494 -744 
L 750 256 
L 750 794 
z
" id="DejaVuSans-2c" transform="scale(0.015625)"/>
       <path d="M 959 0 
L 572 3500 
L 1191 3500 
L 1522 563 
Q 1972 950 2391 1488 
Q 2706 1891 2788 2241 
Q 2825 2406 2809 2719 
Q 2794 3091 2544 3500 
L 3125 3500 
L 3125 3500 
Q 3288 3222 3353 2834 
Q 3416 2478 3369 2234 
Q 3250 1622 2719 1075 
Q 2025 363 1572 0 
L 959 0 
z
" id="DejaVuSans-Oblique-3bd" transform="scale(0.015625)"/>
       <path d="M 1984 4856 
Q 1566 4138 1362 3434 
Q 1159 2731 1159 2009 
Q 1159 1288 1364 580 
Q 1569 -128 1984 -844 
L 1484 -844 
Q 1016 -109 783 600 
Q 550 1309 550 2009 
Q 550 2706 781 3412 
Q 1013 4119 1484 4856 
L 1984 4856 
z
" id="DejaVuSans-28" transform="scale(0.015625)"/>
       <path d="M 684 794 
L 1344 794 
L 1344 0 
L 684 0 
L 684 794 
z
" id="DejaVuSans-2e" transform="scale(0.015625)"/>
       <path d="M 513 4856 
L 1013 4856 
Q 1481 4119 1714 3412 
Q 1947 2706 1947 2009 
Q 1947 1309 1714 600 
Q 1481 -109 1013 -844 
L 513 -844 
Q 928 -128 1133 580 
Q 1338 1288 1338 2009 
Q 1338 2731 1133 3434 
Q 928 4138 513 4856 
z
" id="DejaVuSans-29" transform="scale(0.015625)"/>
      </defs>
      <use transform="translate(0 0.015625)" xlink:href="#DejaVuSans-4c"/>
      <use transform="translate(55.712891 0.015625)" xlink:href="#DejaVuSans-61"/>
      <use transform="translate(116.992188 0.015625)" xlink:href="#DejaVuSans-79"/>
      <use transform="translate(176.171875 0.015625)" xlink:href="#DejaVuSans-70"/>
      <use transform="translate(239.648438 0.015625)" xlink:href="#DejaVuSans-65"/>
      <use transform="translate(301.171875 0.015625)" xlink:href="#DejaVuSans-72"/>
      <use transform="translate(342.285156 0.015625)" xlink:href="#DejaVuSans-73"/>
      <use transform="translate(394.384766 0.015625)" xlink:href="#DejaVuSans-6f"/>
      <use transform="translate(455.566406 0.015625)" xlink:href="#DejaVuSans-6e"/>
      <use transform="translate(518.945312 0.015625)" xlink:href="#DejaVuSans-20"/>
      <use transform="translate(550.732422 0.015625)" xlink:href="#DejaVuSans-6e"/>
      <use transform="translate(614.111328 0.015625)" xlink:href="#DejaVuSans-61"/>
      <use transform="translate(675.390625 0.015625)" xlink:href="#DejaVuSans-6c"/>
      <use transform="translate(703.173828 0.015625)" xlink:href="#DejaVuSans-6f"/>
      <use transform="translate(764.355469 0.015625)" xlink:href="#DejaVuSans-78"/>
      <use transform="translate(823.535156 0.015625)" xlink:href="#DejaVuSans-6f"/>
      <use transform="translate(884.716797 0.015625)" xlink:href="#DejaVuSans-6e"/>
      <use transform="translate(948.095703 0.015625)" xlink:href="#DejaVuSans-65"/>
      <use transform="translate(1009.619141 0.015625)" xlink:href="#DejaVuSans-20"/>
      <use transform="translate(1041.40625 0.015625)" xlink:href="#DejaVuSans-6b"/>
      <use transform="translate(1099.316406 0.015625)" xlink:href="#DejaVuSans-69"/>
      <use transform="translate(1127.099609 0.015625)" xlink:href="#DejaVuSans-74"/>
      <use transform="translate(1166.308594 0.015625)" xlink:href="#DejaVuSans-73"/>
      <use transform="translate(1218.408203 0.015625)" xlink:href="#DejaVuSans-20"/>
      <use transform="translate(1250.195312 0.015625)" xlink:href="#DejaVuSans-64"/>
      <use transform="translate(1313.671875 0.015625)" xlink:href="#DejaVuSans-69"/>
      <use transform="translate(1341.455078 0.015625)" xlink:href="#DejaVuSans-73"/>
      <use transform="translate(1393.554688 0.015625)" xlink:href="#DejaVuSans-74"/>
      <use transform="translate(1432.763672 0.015625)" xlink:href="#DejaVuSans-72"/>
      <use transform="translate(1473.876953 0.015625)" xlink:href="#DejaVuSans-69"/>
      <use transform="translate(1501.660156 0.015625)" xlink:href="#DejaVuSans-62"/>
      <use transform="translate(1565.136719 0.015625)" xlink:href="#DejaVuSans-75"/>
      <use transform="translate(1628.515625 0.015625)" xlink:href="#DejaVuSans-74"/>
      <use transform="translate(1667.724609 0.015625)" xlink:href="#DejaVuSans-65"/>
      <use transform="translate(1729.248047 0.015625)" xlink:href="#DejaVuSans-64"/>
      <use transform="translate(1792.724609 0.015625)" xlink:href="#DejaVuSans-20"/>
      <use transform="translate(1824.511719 0.015625)" xlink:href="#DejaVuSans-70"/>
      <use transform="translate(1887.988281 0.015625)" xlink:href="#DejaVuSans-65"/>
      <use transform="translate(1949.511719 0.015625)" xlink:href="#DejaVuSans-72"/>
      <use transform="translate(1990.625 0.015625)" xlink:href="#DejaVuSans-20"/>
      <use transform="translate(2022.412109 0.015625)" xlink:href="#DejaVuSans-31"/>
      <use transform="translate(2086.035156 0.015625)" xlink:href="#DejaVuSans-30"/>
      <use transform="translate(2149.658203 0.015625)" xlink:href="#DejaVuSans-30"/>
      <use transform="translate(2213.28125 0.015625)" xlink:href="#DejaVuSans-4b"/>
      <use transform="translate(2278.857422 0.015625)" xlink:href="#DejaVuSans-20"/>
      <use transform="translate(2310.644531 0.015625)" xlink:href="#DejaVuSans-70"/>
      <use transform="translate(2374.121094 0.015625)" xlink:href="#DejaVuSans-6f"/>
      <use transform="translate(2435.302734 0.015625)" xlink:href="#DejaVuSans-70"/>
      <use transform="translate(2498.779297 0.015625)" xlink:href="#DejaVuSans-75"/>
      <use transform="translate(2562.158203 0.015625)" xlink:href="#DejaVuSans-6c"/>
      <use transform="translate(2589.941406 0.015625)" xlink:href="#DejaVuSans-61"/>
      <use transform="translate(2651.220703 0.015625)" xlink:href="#DejaVuSans-74"/>
      <use transform="translate(2690.429688 0.015625)" xlink:href="#DejaVuSans-69"/>
      <use transform="translate(2718.212891 0.015625)" xlink:href="#DejaVuSans-6f"/>
      <use transform="translate(2779.394531 0.015625)" xlink:href="#DejaVuSans-6e"/>
      <use transform="translate(2842.773438 0.015625)" xlink:href="#DejaVuSans-2c"/>
      <use transform="translate(2874.560547 0.015625)" xlink:href="#DejaVuSans-20"/>
      <use transform="translate(2906.347656 0.015625)" xlink:href="#DejaVuSans-Oblique-3bd"/>
      <use transform="translate(2962.207031 -16.390625)scale(0.7)" xlink:href="#DejaVuSans-28"/>
      <use transform="translate(2989.516602 -16.390625)scale(0.7)" xlink:href="#DejaVuSans-2e"/>
      <use transform="translate(3025.405273 -16.390625)scale(0.7)" xlink:href="#DejaVuSans-29"/>
     </g>
    </g>
   </g>
   <g id="matplotlib.axis_2">
    <g id="ytick_1">
     <g id="line2d_8">
      <defs>
       <path d="M 0 0 
L -3.5 0 
" id="m677dc08746" style="stroke:#000000;stroke-width:0.8;"/>
      </defs>
      <g>
       <use style="stroke:#000000;stroke-width:0.8;" x="55.50125" xlink:href="#m677dc08746" y="316.390422"/>
      </g>
     </g>
     <g id="text_9">
      <!-- 0.0 -->
      <g transform="translate(32.598125 320.189641)scale(0.1 -0.1)">
       <use xlink:href="#DejaVuSans-30"/>
       <use x="63.623047" xlink:href="#DejaVuSans-2e"/>
       <use x="95.410156" xlink:href="#DejaVuSans-30"/>
      </g>
     </g>
    </g>
    <g id="ytick_2">
     <g id="line2d_9">
      <g>
       <use style="stroke:#000000;stroke-width:0.8;" x="55.50125" xlink:href="#m677dc08746" y="255.532755"/>
      </g>
     </g>
     <g id="text_10">
      <!-- 0.2 -->
      <g transform="translate(32.598125 259.331973)scale(0.1 -0.1)">
       <use xlink:href="#DejaVuSans-30"/>
       <use x="63.623047" xlink:href="#DejaVuSans-2e"/>
       <use x="95.410156" xlink:href="#DejaVuSans-32"/>
      </g>
     </g>
    </g>
    <g id="ytick_3">
     <g id="line2d_10">
      <g>
       <use style="stroke:#000000;stroke-width:0.8;" x="55.50125" xlink:href="#m677dc08746" y="194.675087"/>
      </g>
     </g>
     <g id="text_11">
      <!-- 0.4 -->
      <g transform="translate(32.598125 198.474305)scale(0.1 -0.1)">
       <use xlink:href="#DejaVuSans-30"/>
       <use x="63.623047" xlink:href="#DejaVuSans-2e"/>
       <use x="95.410156" xlink:href="#DejaVuSans-34"/>
      </g>
     </g>
    </g>
    <g id="ytick_4">
     <g id="line2d_11">
      <g>
       <use style="stroke:#000000;stroke-width:0.8;" x="55.50125" xlink:href="#m677dc08746" y="133.817419"/>
      </g>
     </g>
     <g id="text_12">
      <!-- 0.6 -->
      <g transform="translate(32.598125 137.616637)scale(0.1 -0.1)">
       <use xlink:href="#DejaVuSans-30"/>
       <use x="63.623047" xlink:href="#DejaVuSans-2e"/>
       <use x="95.410156" xlink:href="#DejaVuSans-36"/>
      </g>
     </g>
    </g>
    <g id="ytick_5">
     <g id="line2d_12">
      <g>
       <use style="stroke:#000000;stroke-width:0.8;" x="55.50125" xlink:href="#m677dc08746" y="72.959751"/>
      </g>
     </g>
     <g id="text_13">
      <!-- 0.8 -->
      <g transform="translate(32.598125 76.75897)scale(0.1 -0.1)">
       <defs>
        <path d="M 2034 2216 
Q 1584 2216 1326 1975 
Q 1069 1734 1069 1313 
Q 1069 891 1326 650 
Q 1584 409 2034 409 
Q 2484 409 2743 651 
Q 3003 894 3003 1313 
Q 3003 1734 2745 1975 
Q 2488 2216 2034 2216 
z
M 1403 2484 
Q 997 2584 770 2862 
Q 544 3141 544 3541 
Q 544 4100 942 4425 
Q 1341 4750 2034 4750 
Q 2731 4750 3128 4425 
Q 3525 4100 3525 3541 
Q 3525 3141 3298 2862 
Q 3072 2584 2669 2484 
Q 3125 2378 3379 2068 
Q 3634 1759 3634 1313 
Q 3634 634 3220 271 
Q 2806 -91 2034 -91 
Q 1263 -91 848 271 
Q 434 634 434 1313 
Q 434 1759 690 2068 
Q 947 2378 1403 2484 
z
M 1172 3481 
Q 1172 3119 1398 2916 
Q 1625 2713 2034 2713 
Q 2441 2713 2670 2916 
Q 2900 3119 2900 3481 
Q 2900 3844 2670 4047 
Q 2441 4250 2034 4250 
Q 1625 4250 1398 4047 
Q 1172 3844 1172 3481 
z
" id="DejaVuSans-38" transform="scale(0.015625)"/>
       </defs>
       <use xlink:href="#DejaVuSans-30"/>
       <use x="63.623047" xlink:href="#DejaVuSans-2e"/>
       <use x="95.410156" xlink:href="#DejaVuSans-38"/>
      </g>
     </g>
    </g>
    <g id="text_14">
     <!-- Probability of bystander naloxone administration  -->
     <g transform="translate(14.798438 300.461947)rotate(-90)scale(0.1 -0.1)">
      <defs>
       <path d="M 1259 4147 
L 1259 2394 
L 2053 2394 
Q 2494 2394 2734 2622 
Q 2975 2850 2975 3272 
Q 2975 3691 2734 3919 
Q 2494 4147 2053 4147 
L 1259 4147 
z
M 628 4666 
L 2053 4666 
Q 2838 4666 3239 4311 
Q 3641 3956 3641 3272 
Q 3641 2581 3239 2228 
Q 2838 1875 2053 1875 
L 1259 1875 
L 1259 0 
L 628 0 
L 628 4666 
z
" id="DejaVuSans-50" transform="scale(0.015625)"/>
       <path d="M 2375 4863 
L 2375 4384 
L 1825 4384 
Q 1516 4384 1395 4259 
Q 1275 4134 1275 3809 
L 1275 3500 
L 2222 3500 
L 2222 3053 
L 1275 3053 
L 1275 0 
L 697 0 
L 697 3053 
L 147 3053 
L 147 3500 
L 697 3500 
L 697 3744 
Q 697 4328 969 4595 
Q 1241 4863 1831 4863 
L 2375 4863 
z
" id="DejaVuSans-66" transform="scale(0.015625)"/>
       <path d="M 3328 2828 
Q 3544 3216 3844 3400 
Q 4144 3584 4550 3584 
Q 5097 3584 5394 3201 
Q 5691 2819 5691 2113 
L 5691 0 
L 5113 0 
L 5113 2094 
Q 5113 2597 4934 2840 
Q 4756 3084 4391 3084 
Q 3944 3084 3684 2787 
Q 3425 2491 3425 1978 
L 3425 0 
L 2847 0 
L 2847 2094 
Q 2847 2600 2669 2842 
Q 2491 3084 2119 3084 
Q 1678 3084 1418 2786 
Q 1159 2488 1159 1978 
L 1159 0 
L 581 0 
L 581 3500 
L 1159 3500 
L 1159 2956 
Q 1356 3278 1631 3431 
Q 1906 3584 2284 3584 
Q 2666 3584 2933 3390 
Q 3200 3197 3328 2828 
z
" id="DejaVuSans-6d" transform="scale(0.015625)"/>
      </defs>
      <use xlink:href="#DejaVuSans-50"/>
      <use x="58.552734" xlink:href="#DejaVuSans-72"/>
      <use x="97.416016" xlink:href="#DejaVuSans-6f"/>
      <use x="158.597656" xlink:href="#DejaVuSans-62"/>
      <use x="222.074219" xlink:href="#DejaVuSans-61"/>
      <use x="283.353516" xlink:href="#DejaVuSans-62"/>
      <use x="346.830078" xlink:href="#DejaVuSans-69"/>
      <use x="374.613281" xlink:href="#DejaVuSans-6c"/>
      <use x="402.396484" xlink:href="#DejaVuSans-69"/>
      <use x="430.179688" xlink:href="#DejaVuSans-74"/>
      <use x="469.388672" xlink:href="#DejaVuSans-79"/>
      <use x="528.568359" xlink:href="#DejaVuSans-20"/>
      <use x="560.355469" xlink:href="#DejaVuSans-6f"/>
      <use x="621.537109" xlink:href="#DejaVuSans-66"/>
      <use x="656.742188" xlink:href="#DejaVuSans-20"/>
      <use x="688.529297" xlink:href="#DejaVuSans-62"/>
      <use x="752.005859" xlink:href="#DejaVuSans-79"/>
      <use x="811.185547" xlink:href="#DejaVuSans-73"/>
      <use x="863.285156" xlink:href="#DejaVuSans-74"/>
      <use x="902.494141" xlink:href="#DejaVuSans-61"/>
      <use x="963.773438" xlink:href="#DejaVuSans-6e"/>
      <use x="1027.152344" xlink:href="#DejaVuSans-64"/>
      <use x="1090.628906" xlink:href="#DejaVuSans-65"/>
      <use x="1152.152344" xlink:href="#DejaVuSans-72"/>
      <use x="1193.265625" xlink:href="#DejaVuSans-20"/>
      <use x="1225.052734" xlink:href="#DejaVuSans-6e"/>
      <use x="1288.431641" xlink:href="#DejaVuSans-61"/>
      <use x="1349.710938" xlink:href="#DejaVuSans-6c"/>
      <use x="1377.494141" xlink:href="#DejaVuSans-6f"/>
      <use x="1435.550781" xlink:href="#DejaVuSans-78"/>
      <use x="1491.605469" xlink:href="#DejaVuSans-6f"/>
      <use x="1552.787109" xlink:href="#DejaVuSans-6e"/>
      <use x="1616.166016" xlink:href="#DejaVuSans-65"/>
      <use x="1677.689453" xlink:href="#DejaVuSans-20"/>
      <use x="1709.476562" xlink:href="#DejaVuSans-61"/>
      <use x="1770.755859" xlink:href="#DejaVuSans-64"/>
      <use x="1834.232422" xlink:href="#DejaVuSans-6d"/>
      <use x="1931.644531" xlink:href="#DejaVuSans-69"/>
      <use x="1959.427734" xlink:href="#DejaVuSans-6e"/>
      <use x="2022.806641" xlink:href="#DejaVuSans-69"/>
      <use x="2050.589844" xlink:href="#DejaVuSans-73"/>
      <use x="2102.689453" xlink:href="#DejaVuSans-74"/>
      <use x="2141.898438" xlink:href="#DejaVuSans-72"/>
      <use x="2183.011719" xlink:href="#DejaVuSans-61"/>
      <use x="2244.291016" xlink:href="#DejaVuSans-74"/>
      <use x="2283.5" xlink:href="#DejaVuSans-69"/>
      <use x="2311.283203" xlink:href="#DejaVuSans-6f"/>
      <use x="2372.464844" xlink:href="#DejaVuSans-6e"/>
      <use x="2435.84375" xlink:href="#DejaVuSans-20"/>
     </g>
     <!-- for witnessed overdose, $p_{IB(.)}$ -->
     <g transform="translate(25.998125 249.830697)rotate(-90)scale(0.1 -0.1)">
      <defs>
       <path d="M 269 3500 
L 844 3500 
L 1563 769 
L 2278 3500 
L 2956 3500 
L 3675 769 
L 4391 3500 
L 4966 3500 
L 4050 0 
L 3372 0 
L 2619 2869 
L 1863 0 
L 1184 0 
L 269 3500 
z
" id="DejaVuSans-77" transform="scale(0.015625)"/>
       <path d="M 191 3500 
L 800 3500 
L 1894 563 
L 2988 3500 
L 3597 3500 
L 2284 0 
L 1503 0 
L 191 3500 
z
" id="DejaVuSans-76" transform="scale(0.015625)"/>
       <path d="M 3175 2156 
Q 3175 2616 2975 2859 
Q 2775 3103 2400 3103 
Q 2144 3103 1911 2972 
Q 1678 2841 1497 2591 
Q 1319 2344 1212 1994 
Q 1106 1644 1106 1300 
Q 1106 863 1306 627 
Q 1506 391 1875 391 
Q 2147 391 2380 519 
Q 2613 647 2778 891 
Q 2956 1147 3065 1494 
Q 3175 1841 3175 2156 
z
M 1394 2969 
Q 1625 3272 1939 3428 
Q 2253 3584 2638 3584 
Q 3175 3584 3472 3232 
Q 3769 2881 3769 2247 
Q 3769 1728 3584 1258 
Q 3400 788 3053 416 
Q 2822 169 2531 39 
Q 2241 -91 1919 -91 
Q 1547 -91 1294 64 
Q 1041 219 916 525 
L 556 -1331 
L -19 -1331 
L 922 3500 
L 1497 3500 
L 1394 2969 
z
" id="DejaVuSans-Oblique-70" transform="scale(0.015625)"/>
       <path d="M 1081 4666 
L 1716 4666 
L 806 0 
L 172 0 
L 1081 4666 
z
" id="DejaVuSans-Oblique-49" transform="scale(0.015625)"/>
       <path d="M 1081 4666 
L 2694 4666 
Q 3350 4666 3675 4422 
Q 4000 4178 4000 3688 
Q 4000 3238 3720 2911 
Q 3441 2584 2988 2516 
Q 3375 2428 3569 2181 
Q 3763 1934 3763 1522 
Q 3763 819 3242 409 
Q 2722 0 1819 0 
L 172 0 
L 1081 4666 
z
M 1234 2228 
L 903 519 
L 1919 519 
Q 2491 519 2800 781 
Q 3109 1044 3109 1522 
Q 3109 1891 2904 2059 
Q 2700 2228 2247 2228 
L 1234 2228 
z
M 1606 4147 
L 1331 2741 
L 2272 2741 
Q 2775 2741 3058 2959 
Q 3341 3178 3341 3566 
Q 3341 3869 3150 4008 
Q 2959 4147 2541 4147 
L 1606 4147 
z
" id="DejaVuSans-Oblique-42" transform="scale(0.015625)"/>
      </defs>
      <use transform="translate(0 0.015625)" xlink:href="#DejaVuSans-66"/>
      <use transform="translate(35.205078 0.015625)" xlink:href="#DejaVuSans-6f"/>
      <use transform="translate(96.386719 0.015625)" xlink:href="#DejaVuSans-72"/>
      <use transform="translate(137.5 0.015625)" xlink:href="#DejaVuSans-20"/>
      <use transform="translate(169.287109 0.015625)" xlink:href="#DejaVuSans-77"/>
      <use transform="translate(251.074219 0.015625)" xlink:href="#DejaVuSans-69"/>
      <use transform="translate(278.857422 0.015625)" xlink:href="#DejaVuSans-74"/>
      <use transform="translate(318.066406 0.015625)" xlink:href="#DejaVuSans-6e"/>
      <use transform="translate(381.445312 0.015625)" xlink:href="#DejaVuSans-65"/>
      <use transform="translate(442.96875 0.015625)" xlink:href="#DejaVuSans-73"/>
      <use transform="translate(495.068359 0.015625)" xlink:href="#DejaVuSans-73"/>
      <use transform="translate(547.167969 0.015625)" xlink:href="#DejaVuSans-65"/>
      <use transform="translate(608.691406 0.015625)" xlink:href="#DejaVuSans-64"/>
      <use transform="translate(672.167969 0.015625)" xlink:href="#DejaVuSans-20"/>
      <use transform="translate(703.955078 0.015625)" xlink:href="#DejaVuSans-6f"/>
      <use transform="translate(765.136719 0.015625)" xlink:href="#DejaVuSans-76"/>
      <use transform="translate(824.316406 0.015625)" xlink:href="#DejaVuSans-65"/>
      <use transform="translate(885.839844 0.015625)" xlink:href="#DejaVuSans-72"/>
      <use transform="translate(926.953125 0.015625)" xlink:href="#DejaVuSans-64"/>
      <use transform="translate(990.429688 0.015625)" xlink:href="#DejaVuSans-6f"/>
      <use transform="translate(1051.611328 0.015625)" xlink:href="#DejaVuSans-73"/>
      <use transform="translate(1103.710938 0.015625)" xlink:href="#DejaVuSans-65"/>
      <use transform="translate(1165.234375 0.015625)" xlink:href="#DejaVuSans-2c"/>
      <use transform="translate(1197.021484 0.015625)" xlink:href="#DejaVuSans-20"/>
      <use transform="translate(1228.808594 0.015625)" xlink:href="#DejaVuSans-Oblique-70"/>
      <use transform="translate(1292.285156 -16.390625)scale(0.7)" xlink:href="#DejaVuSans-Oblique-49"/>
      <use transform="translate(1312.929688 -16.390625)scale(0.7)" xlink:href="#DejaVuSans-Oblique-42"/>
      <use transform="translate(1360.952148 -16.390625)scale(0.7)" xlink:href="#DejaVuSans-28"/>
      <use transform="translate(1388.261719 -16.390625)scale(0.7)" xlink:href="#DejaVuSans-2e"/>
      <use transform="translate(1424.150391 -16.390625)scale(0.7)" xlink:href="#DejaVuSans-29"/>
     </g>
    </g>
   </g>
   <g id="line2d_13">
    <path clip-path="url(#p3e500461db)" d="M 75.94208 316.390422 
L 80.071541 311.365622 
L 84.201002 306.423797 
L 88.330463 301.563578 
L 92.459923 296.783617 
L 96.589384 292.082589 
L 100.718845 287.45919 
L 104.848305 282.912139 
L 108.977766 278.440175 
L 113.107227 274.042058 
L 117.236687 269.716568 
L 121.366148 265.462506 
L 125.495609 261.278692 
L 129.62507 257.163967 
L 133.75453 253.11719 
L 137.883991 249.137238 
L 142.013452 245.223009 
L 146.142912 241.373416 
L 150.272373 237.587392 
L 154.401834 233.863889 
L 158.531294 230.201872 
L 162.660755 226.600328 
L 166.790216 223.058257 
L 170.919677 219.574677 
L 175.049137 216.148622 
L 179.178598 212.779143 
L 183.308059 209.465305 
L 187.437519 206.206189 
L 191.56698 203.000892 
L 195.696441 199.848526 
L 199.825901 196.748215 
L 203.955362 193.6991 
L 208.084823 190.700336 
L 212.214283 187.751092 
L 216.343744 184.850549 
L 220.473205 181.997904 
L 224.602666 179.192366 
L 228.732126 176.433156 
L 232.861587 173.71951 
L 236.991048 171.050675 
L 241.120508 168.425911 
L 245.249969 165.844491 
L 249.37943 163.305698 
L 253.50889 160.808829 
L 257.638351 158.353192 
L 261.767812 155.938106 
L 265.897273 153.5629 
L 270.026733 151.226917 
L 274.156194 148.929509 
L 278.285655 146.670038 
L 282.415115 144.447879 
L 286.544576 142.262414 
L 290.674037 140.113039 
L 294.803497 137.999158 
L 298.932958 135.920183 
L 303.062419 133.875539 
L 307.19188 131.864659 
L 311.32134 129.886985 
L 315.450801 127.941969 
L 319.580262 126.029072 
L 323.709722 124.147763 
L 327.839183 122.297521 
L 331.968644 120.477832 
L 336.098104 118.688192 
L 340.227565 116.928105 
L 344.357026 115.197082 
L 348.486487 113.494645 
L 352.615947 111.820321 
L 356.745408 110.173645 
L 360.874869 108.554161 
L 365.004329 106.96142 
L 369.13379 105.39498 
L 373.263251 103.854408 
L 377.392711 102.339275 
L 381.522172 100.849163 
L 385.651633 99.383657 
L 389.781093 97.942351 
L 393.910554 96.524846 
L 398.040015 95.130749 
L 402.169476 93.759672 
L 406.298936 92.411237 
L 410.428397 91.085069 
L 414.557858 89.7808 
L 418.687318 88.498069 
L 422.816779 87.23652 
L 426.94624 85.995804 
L 431.0757 84.775576 
L 435.205161 83.575497 
L 439.334622 82.395236 
L 443.464083 81.234465 
L 447.593543 80.092862 
L 451.723004 78.970111 
L 455.852465 77.8659 
L 459.981925 76.779923 
L 464.111386 75.71188 
L 468.240847 74.661473 
L 472.370307 73.628412 
L 476.499768 72.61241 
L 480.629229 71.613185 
L 484.75869 70.630461 
" style="fill:none;stroke:#1f77b4;stroke-linecap:square;stroke-width:1.5;"/>
   </g>
   <g id="line2d_14">
    <path clip-path="url(#p3e500461db)" d="M 75.94208 316.390422 
L 80.071541 308.884423 
L 84.201002 301.563578 
L 88.330463 294.423318 
L 92.459923 287.45919 
L 96.589384 280.666849 
L 100.718845 274.042058 
L 104.848305 267.580682 
L 108.977766 261.278692 
L 113.107227 255.132156 
L 117.236687 249.137238 
L 121.366148 243.2902 
L 125.495609 237.587392 
L 129.62507 232.025258 
L 133.75453 226.600328 
L 137.883991 221.309216 
L 142.013452 216.148622 
L 146.142912 211.115327 
L 150.272373 206.206189 
L 154.401834 201.418148 
L 158.531294 196.748215 
L 162.660755 192.193477 
L 166.790216 187.751092 
L 170.919677 183.418289 
L 175.049137 179.192366 
L 179.178598 175.070685 
L 183.308059 171.050675 
L 187.437519 167.129828 
L 191.56698 163.305698 
L 195.696441 159.5759 
L 199.825901 155.938106 
L 203.955362 152.390046 
L 208.084823 148.929509 
L 212.214283 145.554333 
L 216.343744 142.262414 
L 220.473205 139.051699 
L 224.602666 135.920183 
L 228.732126 132.865914 
L 232.861587 129.886985 
L 236.991048 126.981539 
L 241.120508 124.147763 
L 245.249969 121.383889 
L 249.37943 118.688192 
L 253.50889 116.058991 
L 257.638351 113.494645 
L 261.767812 110.993555 
L 265.897273 108.554161 
L 270.026733 106.17494 
L 274.156194 103.854408 
L 278.285655 101.591118 
L 282.415115 99.383657 
L 286.544576 97.230648 
L 290.674037 95.130749 
L 294.803497 93.082648 
L 298.932958 91.085069 
L 303.062419 89.136765 
L 307.19188 87.23652 
L 311.32134 85.38315 
L 315.450801 83.575497 
L 319.580262 81.812435 
L 323.709722 80.092862 
L 327.839183 78.415707 
L 331.968644 76.779923 
L 336.098104 75.18449 
L 340.227565 73.628412 
L 344.357026 72.110718 
L 348.486487 70.630461 
L 352.615947 69.186719 
L 356.745408 67.77859 
L 360.874869 66.405196 
L 365.004329 65.06568 
L 369.13379 63.759206 
L 373.263251 62.48496 
L 377.392711 61.242146 
L 381.522172 60.029989 
L 385.651633 58.847732 
L 389.781093 57.694639 
L 393.910554 56.56999 
L 398.040015 55.473083 
L 402.169476 54.403233 
L 406.298936 53.359774 
L 410.428397 52.342055 
L 414.557858 51.34944 
L 418.687318 50.38131 
L 422.816779 49.437061 
L 426.94624 48.516105 
L 431.0757 47.617866 
L 435.205161 46.741784 
L 439.334622 45.887313 
L 443.464083 45.05392 
L 447.593543 44.241084 
L 451.723004 43.448299 
L 455.852465 42.675069 
L 459.981925 41.920914 
L 464.111386 41.185361 
L 468.240847 40.467952 
L 472.370307 39.768241 
L 476.499768 39.085789 
L 480.629229 38.420171 
L 484.75869 37.770972 
" style="fill:none;stroke:#ff7f0e;stroke-linecap:square;stroke-width:1.5;"/>
   </g>
   <g id="patch_3">
    <path d="M 55.50125 330.321395 
L 55.50125 23.84 
" style="fill:none;stroke:#000000;stroke-linecap:square;stroke-linejoin:miter;stroke-width:0.8;"/>
   </g>
   <g id="patch_4">
    <path d="M 505.19952 330.321395 
L 505.19952 23.84 
" style="fill:none;stroke:#000000;stroke-linecap:square;stroke-linejoin:miter;stroke-width:0.8;"/>
   </g>
   <g id="patch_5">
    <path d="M 55.50125 330.321395 
L 505.19952 330.321395 
" style="fill:none;stroke:#000000;stroke-linecap:square;stroke-linejoin:miter;stroke-width:0.8;"/>
   </g>
   <g id="patch_6">
    <path d="M 55.50125 23.84 
L 505.19952 23.84 
" style="fill:none;stroke:#000000;stroke-linecap:square;stroke-linejoin:miter;stroke-width:0.8;"/>
   </g>
   <g id="text_15">
    <!-- Effect of naloxone kit distribution efficiency, $\lambda_N$ -->
    <g transform="translate(115.290385 17.84)scale(0.14 -0.14)">
     <defs>
      <path d="M 628 4666 
L 3578 4666 
L 3578 4134 
L 1259 4134 
L 1259 2753 
L 3481 2753 
L 3481 2222 
L 1259 2222 
L 1259 531 
L 3634 531 
L 3634 0 
L 628 0 
L 628 4666 
z
" id="DejaVuSans-45" transform="scale(0.015625)"/>
      <path d="M 3122 3366 
L 3122 2828 
Q 2878 2963 2633 3030 
Q 2388 3097 2138 3097 
Q 1578 3097 1268 2742 
Q 959 2388 959 1747 
Q 959 1106 1268 751 
Q 1578 397 2138 397 
Q 2388 397 2633 464 
Q 2878 531 3122 666 
L 3122 134 
Q 2881 22 2623 -34 
Q 2366 -91 2075 -91 
Q 1284 -91 818 406 
Q 353 903 353 1747 
Q 353 2603 823 3093 
Q 1294 3584 2113 3584 
Q 2378 3584 2631 3529 
Q 2884 3475 3122 3366 
z
" id="DejaVuSans-63" transform="scale(0.015625)"/>
      <path d="M 2350 4316 
L 3125 0 
L 2516 0 
L 2038 2588 
L 328 0 
L -281 0 
L 1903 3356 
L 1794 3975 
Q 1725 4369 1391 4369 
L 1091 4369 
L 1184 4863 
L 1550 4856 
Q 2253 4847 2350 4316 
z
" id="DejaVuSans-Oblique-3bb" transform="scale(0.015625)"/>
      <path d="M 1081 4666 
L 1931 4666 
L 3219 666 
L 4000 4666 
L 4616 4666 
L 3706 0 
L 2853 0 
L 1569 4025 
L 788 0 
L 172 0 
L 1081 4666 
z
" id="DejaVuSans-Oblique-4e" transform="scale(0.015625)"/>
     </defs>
     <use transform="translate(0 0.015625)" xlink:href="#DejaVuSans-45"/>
     <use transform="translate(63.183594 0.015625)" xlink:href="#DejaVuSans-66"/>
     <use transform="translate(98.388672 0.015625)" xlink:href="#DejaVuSans-66"/>
     <use transform="translate(133.59375 0.015625)" xlink:href="#DejaVuSans-65"/>
     <use transform="translate(195.117188 0.015625)" xlink:href="#DejaVuSans-63"/>
     <use transform="translate(250.097656 0.015625)" xlink:href="#DejaVuSans-74"/>
     <use transform="translate(289.306641 0.015625)" xlink:href="#DejaVuSans-20"/>
     <use transform="translate(321.09375 0.015625)" xlink:href="#DejaVuSans-6f"/>
     <use transform="translate(382.275391 0.015625)" xlink:href="#DejaVuSans-66"/>
     <use transform="translate(417.480469 0.015625)" xlink:href="#DejaVuSans-20"/>
     <use transform="translate(449.267578 0.015625)" xlink:href="#DejaVuSans-6e"/>
     <use transform="translate(512.646484 0.015625)" xlink:href="#DejaVuSans-61"/>
     <use transform="translate(573.925781 0.015625)" xlink:href="#DejaVuSans-6c"/>
     <use transform="translate(601.708984 0.015625)" xlink:href="#DejaVuSans-6f"/>
     <use transform="translate(662.890625 0.015625)" xlink:href="#DejaVuSans-78"/>
     <use transform="translate(722.070312 0.015625)" xlink:href="#DejaVuSans-6f"/>
     <use transform="translate(783.251953 0.015625)" xlink:href="#DejaVuSans-6e"/>
     <use transform="translate(846.630859 0.015625)" xlink:href="#DejaVuSans-65"/>
     <use transform="translate(908.154297 0.015625)" xlink:href="#DejaVuSans-20"/>
     <use transform="translate(939.941406 0.015625)" xlink:href="#DejaVuSans-6b"/>
     <use transform="translate(997.851562 0.015625)" xlink:href="#DejaVuSans-69"/>
     <use transform="translate(1025.634766 0.015625)" xlink:href="#DejaVuSans-74"/>
     <use transform="translate(1064.84375 0.015625)" xlink:href="#DejaVuSans-20"/>
     <use transform="translate(1096.630859 0.015625)" xlink:href="#DejaVuSans-64"/>
     <use transform="translate(1160.107422 0.015625)" xlink:href="#DejaVuSans-69"/>
     <use transform="translate(1187.890625 0.015625)" xlink:href="#DejaVuSans-73"/>
     <use transform="translate(1239.990234 0.015625)" xlink:href="#DejaVuSans-74"/>
     <use transform="translate(1279.199219 0.015625)" xlink:href="#DejaVuSans-72"/>
     <use transform="translate(1320.3125 0.015625)" xlink:href="#DejaVuSans-69"/>
     <use transform="translate(1348.095703 0.015625)" xlink:href="#DejaVuSans-62"/>
     <use transform="translate(1411.572266 0.015625)" xlink:href="#DejaVuSans-75"/>
     <use transform="translate(1474.951172 0.015625)" xlink:href="#DejaVuSans-74"/>
     <use transform="translate(1514.160156 0.015625)" xlink:href="#DejaVuSans-69"/>
     <use transform="translate(1541.943359 0.015625)" xlink:href="#DejaVuSans-6f"/>
     <use transform="translate(1603.125 0.015625)" xlink:href="#DejaVuSans-6e"/>
     <use transform="translate(1666.503906 0.015625)" xlink:href="#DejaVuSans-20"/>
     <use transform="translate(1698.291016 0.015625)" xlink:href="#DejaVuSans-65"/>
     <use transform="translate(1759.814453 0.015625)" xlink:href="#DejaVuSans-66"/>
     <use transform="translate(1795.019531 0.015625)" xlink:href="#DejaVuSans-66"/>
     <use transform="translate(1830.224609 0.015625)" xlink:href="#DejaVuSans-69"/>
     <use transform="translate(1858.007812 0.015625)" xlink:href="#DejaVuSans-63"/>
     <use transform="translate(1912.988281 0.015625)" xlink:href="#DejaVuSans-69"/>
     <use transform="translate(1940.771484 0.015625)" xlink:href="#DejaVuSans-65"/>
     <use transform="translate(2002.294922 0.015625)" xlink:href="#DejaVuSans-6e"/>
     <use transform="translate(2065.673828 0.015625)" xlink:href="#DejaVuSans-63"/>
     <use transform="translate(2120.654297 0.015625)" xlink:href="#DejaVuSans-79"/>
     <use transform="translate(2179.833984 0.015625)" xlink:href="#DejaVuSans-2c"/>
     <use transform="translate(2211.621094 0.015625)" xlink:href="#DejaVuSans-20"/>
     <use transform="translate(2243.408203 0.015625)" xlink:href="#DejaVuSans-Oblique-3bb"/>
     <use transform="translate(2302.587891 -16.390625)scale(0.7)" xlink:href="#DejaVuSans-Oblique-4e"/>
    </g>
   </g>
   <g id="legend_1">
    <g id="patch_7">
     <path d="M 441.847958 325.321395 
L 498.19952 325.321395 
Q 500.19952 325.321395 500.19952 323.321395 
L 500.19952 280.28702 
Q 500.19952 278.28702 498.19952 278.28702 
L 441.847958 278.28702 
Q 439.847958 278.28702 439.847958 280.28702 
L 439.847958 323.321395 
Q 439.847958 325.321395 441.847958 325.321395 
z
" style="fill:#ffffff;opacity:0.8;stroke:#cccccc;stroke-linejoin:miter;"/>
    </g>
    <g id="line2d_15">
     <path d="M 443.847958 286.385457 
L 463.847958 286.385457 
" style="fill:none;stroke:#000000;stroke-linecap:square;stroke-width:3;"/>
    </g>
    <g id="line2d_16"/>
    <g id="text_16">
     <!-- Base -->
     <g transform="translate(471.847958 289.885457)scale(0.1 -0.1)">
      <defs>
       <path d="M 1259 2228 
L 1259 519 
L 2272 519 
Q 2781 519 3026 730 
Q 3272 941 3272 1375 
Q 3272 1813 3026 2020 
Q 2781 2228 2272 2228 
L 1259 2228 
z
M 1259 4147 
L 1259 2741 
L 2194 2741 
Q 2656 2741 2882 2914 
Q 3109 3088 3109 3444 
Q 3109 3797 2882 3972 
Q 2656 4147 2194 4147 
L 1259 4147 
z
M 628 4666 
L 2241 4666 
Q 2963 4666 3353 4366 
Q 3744 4066 3744 3513 
Q 3744 3084 3544 2831 
Q 3344 2578 2956 2516 
Q 3422 2416 3680 2098 
Q 3938 1781 3938 1306 
Q 3938 681 3513 340 
Q 3088 0 2303 0 
L 628 0 
L 628 4666 
z
" id="DejaVuSans-42" transform="scale(0.015625)"/>
      </defs>
      <use xlink:href="#DejaVuSans-42"/>
      <use x="68.603516" xlink:href="#DejaVuSans-61"/>
      <use x="129.882812" xlink:href="#DejaVuSans-73"/>
      <use x="181.982422" xlink:href="#DejaVuSans-65"/>
     </g>
    </g>
    <g id="line2d_17">
     <path d="M 443.847958 301.063582 
L 463.847958 301.063582 
" style="fill:none;stroke:#1f77b4;stroke-linecap:square;stroke-width:1.5;"/>
    </g>
    <g id="line2d_18"/>
    <g id="text_17">
     <!-- Low -->
     <g transform="translate(471.847958 304.563582)scale(0.1 -0.1)">
      <use xlink:href="#DejaVuSans-4c"/>
      <use x="53.962891" xlink:href="#DejaVuSans-6f"/>
      <use x="115.144531" xlink:href="#DejaVuSans-77"/>
     </g>
    </g>
    <g id="line2d_19">
     <path d="M 443.847958 315.741707 
L 463.847958 315.741707 
" style="fill:none;stroke:#ff7f0e;stroke-linecap:square;stroke-width:1.5;"/>
    </g>
    <g id="line2d_20"/>
    <g id="text_18">
     <!-- High -->
     <g transform="translate(471.847958 319.241707)scale(0.1 -0.1)">
      <defs>
       <path d="M 628 4666 
L 1259 4666 
L 1259 2753 
L 3553 2753 
L 3553 4666 
L 4184 4666 
L 4184 0 
L 3553 0 
L 3553 2222 
L 1259 2222 
L 1259 0 
L 628 0 
L 628 4666 
z
" id="DejaVuSans-48" transform="scale(0.015625)"/>
       <path d="M 2906 1791 
Q 2906 2416 2648 2759 
Q 2391 3103 1925 3103 
Q 1463 3103 1205 2759 
Q 947 2416 947 1791 
Q 947 1169 1205 825 
Q 1463 481 1925 481 
Q 2391 481 2648 825 
Q 2906 1169 2906 1791 
z
M 3481 434 
Q 3481 -459 3084 -895 
Q 2688 -1331 1869 -1331 
Q 1566 -1331 1297 -1286 
Q 1028 -1241 775 -1147 
L 775 -588 
Q 1028 -725 1275 -790 
Q 1522 -856 1778 -856 
Q 2344 -856 2625 -561 
Q 2906 -266 2906 331 
L 2906 616 
Q 2728 306 2450 153 
Q 2172 0 1784 0 
Q 1141 0 747 490 
Q 353 981 353 1791 
Q 353 2603 747 3093 
Q 1141 3584 1784 3584 
Q 2172 3584 2450 3431 
Q 2728 3278 2906 2969 
L 2906 3500 
L 3481 3500 
L 3481 434 
z
" id="DejaVuSans-67" transform="scale(0.015625)"/>
       <path d="M 3513 2113 
L 3513 0 
L 2938 0 
L 2938 2094 
Q 2938 2591 2744 2837 
Q 2550 3084 2163 3084 
Q 1697 3084 1428 2787 
Q 1159 2491 1159 1978 
L 1159 0 
L 581 0 
L 581 4863 
L 1159 4863 
L 1159 2956 
Q 1366 3272 1645 3428 
Q 1925 3584 2291 3584 
Q 2894 3584 3203 3211 
Q 3513 2838 3513 2113 
z
" id="DejaVuSans-68" transform="scale(0.015625)"/>
      </defs>
      <use xlink:href="#DejaVuSans-48"/>
      <use x="75.195312" xlink:href="#DejaVuSans-69"/>
      <use x="102.978516" xlink:href="#DejaVuSans-67"/>
      <use x="166.455078" xlink:href="#DejaVuSans-68"/>
     </g>
    </g>
   </g>
   <g id="line2d_21">
    <path clip-path="url(#p3e500461db)" d="M 75.94208 316.390422 
L 80.071541 310.12244 
L 84.201002 303.983571 
L 88.330463 297.971156 
L 92.459923 292.082589 
L 96.589384 286.31532 
L 100.718845 280.666849 
L 104.848305 275.134731 
L 108.977766 269.716568 
L 113.107227 264.410012 
L 117.236687 259.212765 
L 121.366148 254.122576 
L 125.495609 249.137238 
L 129.62507 244.254593 
L 133.75453 239.472524 
L 137.883991 234.78896 
L 142.013452 230.201872 
L 146.142912 225.709273 
L 150.272373 221.309216 
L 154.401834 216.999795 
L 158.531294 212.779143 
L 162.660755 208.645431 
L 166.790216 204.596869 
L 170.919677 200.631703 
L 175.049137 196.748215 
L 179.178598 192.944721 
L 183.308059 189.219576 
L 187.437519 185.571164 
L 191.56698 181.997904 
L 195.696441 178.49825 
L 199.825901 175.070685 
L 203.955362 171.713723 
L 208.084823 168.425911 
L 212.214283 165.205824 
L 216.343744 162.052067 
L 220.473205 158.963273 
L 224.602666 155.938106 
L 228.732126 152.975253 
L 232.861587 150.073431 
L 236.991048 147.231383 
L 241.120508 144.447879 
L 245.249969 141.721711 
L 249.37943 139.051699 
L 253.50889 136.436686 
L 257.638351 133.875539 
L 261.767812 131.367149 
L 265.897273 128.910429 
L 270.026733 126.504315 
L 274.156194 124.147763 
L 278.285655 121.839754 
L 282.415115 119.579287 
L 286.544576 117.365383 
L 290.674037 115.197082 
L 294.803497 113.073447 
L 298.932958 110.993555 
L 303.062419 108.956507 
L 307.19188 106.96142 
L 311.32134 105.007429 
L 315.450801 103.093688 
L 319.580262 101.219368 
L 323.709722 99.383657 
L 327.839183 97.585759 
L 331.968644 95.824896 
L 336.098104 94.100304 
L 340.227565 92.411237 
L 344.357026 90.756963 
L 348.486487 89.136765 
L 352.615947 87.549941 
L 356.745408 85.995804 
L 360.874869 84.47368 
L 365.004329 82.98291 
L 369.13379 81.522849 
L 373.263251 80.092862 
L 377.392711 78.692332 
L 381.522172 77.320651 
L 385.651633 75.977226 
L 389.781093 74.661473 
L 393.910554 73.372823 
L 398.040015 72.110718 
L 402.169476 70.87461 
L 406.298936 69.663965 
L 410.428397 68.478258 
L 414.557858 67.316975 
L 418.687318 66.179613 
L 422.816779 65.06568 
L 426.94624 63.974692 
L 431.0757 62.906177 
L 435.205161 61.859673 
L 439.334622 60.834725 
L 443.464083 59.83089 
L 447.593543 58.847732 
L 451.723004 57.884827 
L 455.852465 56.941756 
L 459.981925 56.018112 
L 464.111386 55.113493 
L 468.240847 54.227509 
L 472.370307 53.359774 
L 476.499768 52.509914 
L 480.629229 51.677561 
L 484.75869 50.862352 
" style="fill:none;stroke:#000000;stroke-linecap:square;stroke-width:3;"/>
   </g>
  </g>
 </g>
 <defs>
  <clipPath id="p3e500461db">
   <rect height="306.481395" width="449.69827" x="55.50125" y="23.84"/>
  </clipPath>
 </defs>
</svg>
