<?xml version="1.0" encoding="utf-8" standalone="no"?>
<!DOCTYPE svg PUBLIC "-//W3C//DTD SVG 1.1//EN"
  "http://www.w3.org/Graphics/SVG/1.1/DTD/svg11.dtd">
<svg height="368.39952pt" version="1.1" viewBox="0 0 728.249742 368.39952" width="728.249742pt" xmlns="http://www.w3.org/2000/svg" xmlns:xlink="http://www.w3.org/1999/xlink">
 <metadata>
  <rdf:RDF xmlns:cc="http://creativecommons.org/ns#" xmlns:dc="http://purl.org/dc/elements/1.1/" xmlns:rdf="http://www.w3.org/1999/02/22-rdf-syntax-ns#">
   <cc:Work>
    <dc:type rdf:resource="http://purl.org/dc/dcmitype/StillImage"/>
    <dc:date>2022-02-03T10:36:12.334185</dc:date>
    <dc:format>image/svg+xml</dc:format>
    <dc:creator>
     <cc:Agent>
      <dc:title>Matplotlib v3.4.0rc1, https://matplotlib.org/</dc:title>
     </cc:Agent>
    </dc:creator>
   </cc:Work>
  </rdf:RDF>
 </metadata>
 <defs>
  <style type="text/css">*{stroke-linecap:butt;stroke-linejoin:round;}</style>
 </defs>
 <g id="figure_1">
  <g id="patch_1">
   <path d="M 0 368.39952 
L 728.249742 368.39952 
L 728.249742 0 
L 0 0 
z
" style="fill:none;"/>
  </g>
  <g id="axes_1">
   <g id="patch_2">
    <path d="M 43.125 326.880915 
L 372.548791 326.880915 
L 372.548791 48.40048 
L 43.125 48.40048 
z
" style="fill:#ffffff;"/>
   </g>
   <g id="PolyCollection_1">
    <path clip-path="url(#p200e8405ef)" d="M 58.098809 103.310724 
L 58.098809 103.310724 
L 61.123821 114.404098 
L 64.148832 124.914953 
L 67.173844 134.873878 
L 70.198856 144.309855 
L 73.223868 153.250345 
L 76.24888 161.721365 
L 79.273892 169.747569 
L 82.298904 177.352312 
L 85.323915 184.557727 
L 88.348927 191.384782 
L 91.373939 197.853345 
L 94.398951 203.982241 
L 97.423963 209.789305 
L 100.448975 215.291438 
L 103.473987 220.504652 
L 106.498998 225.444117 
L 109.52401 230.124208 
L 112.549022 234.558546 
L 115.574034 238.760034 
L 118.599046 242.7409 
L 121.624058 246.512729 
L 124.64907 250.086498 
L 127.674081 253.472606 
L 130.699093 256.680909 
L 133.724105 259.720741 
L 136.749117 262.600951 
L 139.774129 265.329919 
L 142.799141 267.915588 
L 145.824153 270.365483 
L 148.849164 272.686732 
L 151.874176 274.886091 
L 154.899188 276.969961 
L 157.9242 278.944406 
L 160.949212 280.815172 
L 163.974224 282.587704 
L 166.999236 284.267158 
L 170.024247 285.858424 
L 173.049259 287.366132 
L 176.074271 288.794669 
L 179.099283 290.148193 
L 182.124295 291.430643 
L 185.149307 292.64575 
L 188.174319 293.797052 
L 191.19933 294.887899 
L 194.224342 295.921464 
L 197.249354 296.900757 
L 200.274366 297.828627 
L 203.299378 298.707773 
L 206.32439 299.540755 
L 209.349402 300.329997 
L 212.374413 301.077796 
L 215.399425 301.786327 
L 218.424437 302.457653 
L 221.449449 303.093727 
L 224.474461 303.696401 
L 227.499473 304.267428 
L 230.524485 304.80847 
L 233.549496 305.321102 
L 236.574508 305.806815 
L 239.59952 306.267023 
L 242.624532 306.703066 
L 245.649544 307.116211 
L 248.674556 307.507663 
L 251.699568 307.878559 
L 254.724579 308.229978 
L 257.749591 308.562945 
L 260.774603 308.878428 
L 263.799615 309.177344 
L 266.824627 309.460564 
L 269.849639 309.728912 
L 272.87465 309.983169 
L 275.899662 310.224075 
L 278.924674 310.452331 
L 281.949686 310.668601 
L 284.974698 310.873514 
L 287.99971 311.067668 
L 291.024722 311.251626 
L 294.049733 311.425925 
L 297.074745 311.591071 
L 300.099757 311.747545 
L 303.124769 311.895803 
L 306.149781 312.036275 
L 309.174793 312.169372 
L 312.199805 312.295479 
L 315.224816 312.414964 
L 318.249828 312.528176 
L 321.27484 312.635442 
L 324.299852 312.737076 
L 327.324864 312.833373 
L 330.349876 312.924613 
L 333.374888 313.011062 
L 336.399899 313.092972 
L 339.424911 313.170581 
L 342.449923 313.244114 
L 345.474935 313.313786 
L 348.499947 313.3798 
L 351.524959 313.442347 
L 354.549971 313.50161 
L 357.574982 313.557761 
L 357.574982 311.623045 
L 357.574982 311.623045 
L 354.549971 311.493054 
L 351.524959 311.357331 
L 348.499947 311.215624 
L 345.474935 311.067668 
L 342.449923 310.913187 
L 339.424911 310.751895 
L 336.399899 310.58349 
L 333.374888 310.407659 
L 330.349876 310.224075 
L 327.324864 310.032396 
L 324.299852 309.832264 
L 321.27484 309.623307 
L 318.249828 309.405136 
L 315.224816 309.177344 
L 312.199805 308.939508 
L 309.174793 308.691184 
L 306.149781 308.43191 
L 303.124769 308.161203 
L 300.099757 307.878559 
L 297.074745 307.583451 
L 294.049733 307.27533 
L 291.024722 306.953622 
L 287.99971 306.617729 
L 284.974698 306.267023 
L 281.949686 305.900853 
L 278.924674 305.518537 
L 275.899662 305.119361 
L 272.87465 304.702584 
L 269.849639 304.267428 
L 266.824627 303.813084 
L 263.799615 303.338705 
L 260.774603 302.843407 
L 257.749591 302.326269 
L 254.724579 301.786327 
L 251.699568 301.222576 
L 248.674556 300.633966 
L 245.649544 300.0194 
L 242.624532 299.377734 
L 239.59952 298.707773 
L 236.574508 298.00827 
L 233.549496 297.277921 
L 230.524485 296.515367 
L 227.499473 295.719187 
L 224.474461 294.887899 
L 221.449449 294.019954 
L 218.424437 293.113736 
L 215.399425 292.167558 
L 212.374413 291.179657 
L 209.349402 290.148193 
L 206.32439 289.071246 
L 203.299378 287.946809 
L 200.274366 286.772789 
L 197.249354 285.547 
L 194.224342 284.267158 
L 191.19933 282.93088 
L 188.174319 281.535678 
L 185.149307 280.078952 
L 182.124295 278.557991 
L 179.099283 276.969961 
L 176.074271 275.311906 
L 173.049259 273.580736 
L 170.024247 271.773229 
L 166.999236 269.886018 
L 163.974224 267.915588 
L 160.949212 265.858271 
L 157.9242 263.710233 
L 154.899188 261.467475 
L 151.874176 259.125821 
L 148.849164 256.680909 
L 145.824153 254.128185 
L 142.799141 251.462897 
L 139.774129 248.68008 
L 136.749117 245.774551 
L 133.724105 242.7409 
L 130.699093 239.573477 
L 127.674081 236.266383 
L 124.64907 232.81346 
L 121.624058 229.208275 
L 118.599046 225.444117 
L 115.574034 221.513973 
L 112.549022 217.410526 
L 109.52401 213.126133 
L 106.498998 208.652815 
L 103.473987 203.982241 
L 100.448975 199.105713 
L 97.423963 194.014149 
L 94.398951 188.698067 
L 91.373939 183.147567 
L 88.348927 177.352312 
L 85.323915 171.301509 
L 82.298904 164.983888 
L 79.273892 158.387686 
L 76.24888 151.500617 
L 73.223868 144.309855 
L 70.198856 136.802009 
L 67.173844 128.963096 
L 64.148832 120.778518 
L 61.123821 112.233033 
L 58.098809 103.310724 
z
" style="fill:#1f77b4;fill-opacity:0.2;"/>
   </g>
   <g id="PolyCollection_2">
    <path clip-path="url(#p200e8405ef)" d="M 58.098809 103.310724 
L 58.098809 103.310724 
L 61.123821 114.404098 
L 64.148832 124.914953 
L 67.173844 134.873878 
L 70.198856 144.309855 
L 73.223868 153.250345 
L 76.24888 161.721365 
L 79.273892 169.747569 
L 82.298904 177.352312 
L 85.323915 184.557727 
L 88.348927 191.384782 
L 91.373939 197.853345 
L 94.398951 203.982241 
L 97.423963 209.789305 
L 100.448975 215.291438 
L 103.473987 220.504652 
L 106.498998 225.444117 
L 109.52401 230.124208 
L 112.549022 234.558546 
L 115.574034 238.760034 
L 118.599046 242.7409 
L 121.624058 246.512729 
L 124.64907 250.086498 
L 127.674081 253.472606 
L 130.699093 256.680909 
L 133.724105 259.720741 
L 136.749117 262.600951 
L 139.774129 265.329919 
L 142.799141 267.915588 
L 145.824153 270.365483 
L 148.849164 272.686732 
L 151.874176 274.886091 
L 154.899188 276.969961 
L 157.9242 278.944406 
L 160.949212 280.815172 
L 163.974224 282.587704 
L 166.999236 284.267158 
L 170.024247 285.858424 
L 173.049259 287.366132 
L 176.074271 288.794669 
L 179.099283 290.148193 
L 182.124295 291.430643 
L 185.149307 292.64575 
L 188.174319 293.797052 
L 191.19933 294.887899 
L 194.224342 295.921464 
L 197.249354 296.900757 
L 200.274366 297.828627 
L 203.299378 298.707773 
L 206.32439 299.540755 
L 209.349402 300.329997 
L 212.374413 301.077796 
L 215.399425 301.786327 
L 218.424437 302.457653 
L 221.449449 303.093727 
L 224.474461 303.696401 
L 227.499473 304.267428 
L 230.524485 304.80847 
L 233.549496 305.321102 
L 236.574508 305.806815 
L 239.59952 306.267023 
L 242.624532 306.703066 
L 245.649544 307.116211 
L 248.674556 307.507663 
L 251.699568 307.878559 
L 254.724579 308.229978 
L 257.749591 308.562945 
L 260.774603 308.878428 
L 263.799615 309.177344 
L 266.824627 309.460564 
L 269.849639 309.728912 
L 272.87465 309.983169 
L 275.899662 310.224075 
L 278.924674 310.452331 
L 281.949686 310.668601 
L 284.974698 310.873514 
L 287.99971 311.067668 
L 291.024722 311.251626 
L 294.049733 311.425925 
L 297.074745 311.591071 
L 300.099757 311.747545 
L 303.124769 311.895803 
L 306.149781 312.036275 
L 309.174793 312.169372 
L 312.199805 312.295479 
L 315.224816 312.414964 
L 318.249828 312.528176 
L 321.27484 312.635442 
L 324.299852 312.737076 
L 327.324864 312.833373 
L 330.349876 312.924613 
L 333.374888 313.011062 
L 336.399899 313.092972 
L 339.424911 313.170581 
L 342.449923 313.244114 
L 345.474935 313.313786 
L 348.499947 313.3798 
L 351.524959 313.442347 
L 354.549971 313.50161 
L 357.574982 313.557761 
L 357.574982 314.222713 
L 357.574982 314.222713 
L 354.549971 314.199428 
L 351.524959 314.174586 
L 348.499947 314.148083 
L 345.474935 314.119808 
L 342.449923 314.089641 
L 339.424911 314.057458 
L 336.399899 314.023123 
L 333.374888 313.986492 
L 330.349876 313.947411 
L 327.324864 313.905717 
L 324.299852 313.861235 
L 321.27484 313.813778 
L 318.249828 313.763149 
L 315.224816 313.709134 
L 312.199805 313.651506 
L 309.174793 313.590026 
L 306.149781 313.524434 
L 303.124769 313.454457 
L 300.099757 313.3798 
L 297.074745 313.300151 
L 294.049733 313.215176 
L 291.024722 313.124519 
L 287.99971 313.0278 
L 284.974698 312.924613 
L 281.949686 312.814527 
L 278.924674 312.697079 
L 275.899662 312.571778 
L 272.87465 312.438098 
L 269.849639 312.295479 
L 266.824627 312.143324 
L 263.799615 311.980994 
L 260.774603 311.807809 
L 257.749591 311.623045 
L 254.724579 311.425925 
L 251.699568 311.215624 
L 248.674556 310.991261 
L 245.649544 310.751895 
L 242.624532 310.496523 
L 239.59952 310.224075 
L 236.574508 309.933409 
L 233.549496 309.623307 
L 230.524485 309.292469 
L 227.499473 308.939508 
L 224.474461 308.562945 
L 221.449449 308.161203 
L 218.424437 307.732596 
L 215.399425 307.27533 
L 212.374413 306.787487 
L 209.349402 306.267023 
L 206.32439 305.711757 
L 203.299378 305.119361 
L 200.274366 304.487353 
L 197.249354 303.813084 
L 194.224342 303.093727 
L 191.19933 302.326269 
L 188.174319 301.507492 
L 185.149307 300.633966 
L 182.124295 299.702028 
L 179.099283 298.707773 
L 176.074271 297.647035 
L 173.049259 296.515367 
L 170.024247 295.308027 
L 166.999236 294.019954 
L 163.974224 292.64575 
L 160.949212 291.179657 
L 157.9242 289.615528 
L 154.899188 287.946809 
L 151.874176 286.166506 
L 148.849164 284.267158 
L 145.824153 282.240804 
L 142.799141 280.078952 
L 139.774129 277.772542 
L 136.749117 275.311906 
L 133.724105 272.686732 
L 130.699093 269.886018 
L 127.674081 266.898026 
L 124.64907 263.710233 
L 121.624058 260.309278 
L 118.599046 256.680909 
L 115.574034 252.809917 
L 112.549022 248.68008 
L 109.52401 244.274088 
L 106.498998 239.573477 
L 103.473987 234.558546 
L 100.448975 229.208275 
L 97.423963 223.500243 
L 94.398951 217.410526 
L 91.373939 210.913602 
L 88.348927 203.982241 
L 85.323915 196.587393 
L 82.298904 188.698067 
L 79.273892 180.281198 
L 76.24888 171.301509 
L 73.223868 161.721365 
L 70.198856 151.500617 
L 67.173844 140.596428 
L 64.148832 128.963096 
L 61.123821 116.551867 
L 58.098809 103.310724 
z
" style="fill:#ff7f0e;fill-opacity:0.2;"/>
   </g>
   <g id="matplotlib.axis_1">
    <g id="xtick_1">
     <g id="line2d_1">
      <defs>
       <path d="M 0 0 
L 0 3.5 
" id="mb27462cd30" style="stroke:#000000;stroke-width:0.8;"/>
      </defs>
      <g>
       <use style="stroke:#000000;stroke-width:0.8;" x="58.098809" xlink:href="#mb27462cd30" y="326.880915"/>
      </g>
     </g>
     <g id="text_1">
      <!-- 0 -->
      <g transform="translate(54.917559 341.479352)scale(0.1 -0.1)">
       <defs>
        <path d="M 2034 4250 
Q 1547 4250 1301 3770 
Q 1056 3291 1056 2328 
Q 1056 1369 1301 889 
Q 1547 409 2034 409 
Q 2525 409 2770 889 
Q 3016 1369 3016 2328 
Q 3016 3291 2770 3770 
Q 2525 4250 2034 4250 
z
M 2034 4750 
Q 2819 4750 3233 4129 
Q 3647 3509 3647 2328 
Q 3647 1150 3233 529 
Q 2819 -91 2034 -91 
Q 1250 -91 836 529 
Q 422 1150 422 2328 
Q 422 3509 836 4129 
Q 1250 4750 2034 4750 
z
" id="DejaVuSans-30" transform="scale(0.015625)"/>
       </defs>
       <use xlink:href="#DejaVuSans-30"/>
      </g>
     </g>
    </g>
    <g id="xtick_2">
     <g id="line2d_2">
      <g>
       <use style="stroke:#000000;stroke-width:0.8;" x="108.011504" xlink:href="#mb27462cd30" y="326.880915"/>
      </g>
     </g>
     <g id="text_2">
      <!-- 20000 -->
      <g transform="translate(92.105254 341.479352)scale(0.1 -0.1)">
       <defs>
        <path d="M 1228 531 
L 3431 531 
L 3431 0 
L 469 0 
L 469 531 
Q 828 903 1448 1529 
Q 2069 2156 2228 2338 
Q 2531 2678 2651 2914 
Q 2772 3150 2772 3378 
Q 2772 3750 2511 3984 
Q 2250 4219 1831 4219 
Q 1534 4219 1204 4116 
Q 875 4013 500 3803 
L 500 4441 
Q 881 4594 1212 4672 
Q 1544 4750 1819 4750 
Q 2544 4750 2975 4387 
Q 3406 4025 3406 3419 
Q 3406 3131 3298 2873 
Q 3191 2616 2906 2266 
Q 2828 2175 2409 1742 
Q 1991 1309 1228 531 
z
" id="DejaVuSans-32" transform="scale(0.015625)"/>
       </defs>
       <use xlink:href="#DejaVuSans-32"/>
       <use x="63.623047" xlink:href="#DejaVuSans-30"/>
       <use x="127.246094" xlink:href="#DejaVuSans-30"/>
       <use x="190.869141" xlink:href="#DejaVuSans-30"/>
       <use x="254.492188" xlink:href="#DejaVuSans-30"/>
      </g>
     </g>
    </g>
    <g id="xtick_3">
     <g id="line2d_3">
      <g>
       <use style="stroke:#000000;stroke-width:0.8;" x="157.9242" xlink:href="#mb27462cd30" y="326.880915"/>
      </g>
     </g>
     <g id="text_3">
      <!-- 40000 -->
      <g transform="translate(142.01795 341.479352)scale(0.1 -0.1)">
       <defs>
        <path d="M 2419 4116 
L 825 1625 
L 2419 1625 
L 2419 4116 
z
M 2253 4666 
L 3047 4666 
L 3047 1625 
L 3713 1625 
L 3713 1100 
L 3047 1100 
L 3047 0 
L 2419 0 
L 2419 1100 
L 313 1100 
L 313 1709 
L 2253 4666 
z
" id="DejaVuSans-34" transform="scale(0.015625)"/>
       </defs>
       <use xlink:href="#DejaVuSans-34"/>
       <use x="63.623047" xlink:href="#DejaVuSans-30"/>
       <use x="127.246094" xlink:href="#DejaVuSans-30"/>
       <use x="190.869141" xlink:href="#DejaVuSans-30"/>
       <use x="254.492188" xlink:href="#DejaVuSans-30"/>
      </g>
     </g>
    </g>
    <g id="xtick_4">
     <g id="line2d_4">
      <g>
       <use style="stroke:#000000;stroke-width:0.8;" x="207.836896" xlink:href="#mb27462cd30" y="326.880915"/>
      </g>
     </g>
     <g id="text_4">
      <!-- 60000 -->
      <g transform="translate(191.930646 341.479352)scale(0.1 -0.1)">
       <defs>
        <path d="M 2113 2584 
Q 1688 2584 1439 2293 
Q 1191 2003 1191 1497 
Q 1191 994 1439 701 
Q 1688 409 2113 409 
Q 2538 409 2786 701 
Q 3034 994 3034 1497 
Q 3034 2003 2786 2293 
Q 2538 2584 2113 2584 
z
M 3366 4563 
L 3366 3988 
Q 3128 4100 2886 4159 
Q 2644 4219 2406 4219 
Q 1781 4219 1451 3797 
Q 1122 3375 1075 2522 
Q 1259 2794 1537 2939 
Q 1816 3084 2150 3084 
Q 2853 3084 3261 2657 
Q 3669 2231 3669 1497 
Q 3669 778 3244 343 
Q 2819 -91 2113 -91 
Q 1303 -91 875 529 
Q 447 1150 447 2328 
Q 447 3434 972 4092 
Q 1497 4750 2381 4750 
Q 2619 4750 2861 4703 
Q 3103 4656 3366 4563 
z
" id="DejaVuSans-36" transform="scale(0.015625)"/>
       </defs>
       <use xlink:href="#DejaVuSans-36"/>
       <use x="63.623047" xlink:href="#DejaVuSans-30"/>
       <use x="127.246094" xlink:href="#DejaVuSans-30"/>
       <use x="190.869141" xlink:href="#DejaVuSans-30"/>
       <use x="254.492188" xlink:href="#DejaVuSans-30"/>
      </g>
     </g>
    </g>
    <g id="xtick_5">
     <g id="line2d_5">
      <g>
       <use style="stroke:#000000;stroke-width:0.8;" x="257.749591" xlink:href="#mb27462cd30" y="326.880915"/>
      </g>
     </g>
     <g id="text_5">
      <!-- 80000 -->
      <g transform="translate(241.843341 341.479352)scale(0.1 -0.1)">
       <defs>
        <path d="M 2034 2216 
Q 1584 2216 1326 1975 
Q 1069 1734 1069 1313 
Q 1069 891 1326 650 
Q 1584 409 2034 409 
Q 2484 409 2743 651 
Q 3003 894 3003 1313 
Q 3003 1734 2745 1975 
Q 2488 2216 2034 2216 
z
M 1403 2484 
Q 997 2584 770 2862 
Q 544 3141 544 3541 
Q 544 4100 942 4425 
Q 1341 4750 2034 4750 
Q 2731 4750 3128 4425 
Q 3525 4100 3525 3541 
Q 3525 3141 3298 2862 
Q 3072 2584 2669 2484 
Q 3125 2378 3379 2068 
Q 3634 1759 3634 1313 
Q 3634 634 3220 271 
Q 2806 -91 2034 -91 
Q 1263 -91 848 271 
Q 434 634 434 1313 
Q 434 1759 690 2068 
Q 947 2378 1403 2484 
z
M 1172 3481 
Q 1172 3119 1398 2916 
Q 1625 2713 2034 2713 
Q 2441 2713 2670 2916 
Q 2900 3119 2900 3481 
Q 2900 3844 2670 4047 
Q 2441 4250 2034 4250 
Q 1625 4250 1398 4047 
Q 1172 3844 1172 3481 
z
" id="DejaVuSans-38" transform="scale(0.015625)"/>
       </defs>
       <use xlink:href="#DejaVuSans-38"/>
       <use x="63.623047" xlink:href="#DejaVuSans-30"/>
       <use x="127.246094" xlink:href="#DejaVuSans-30"/>
       <use x="190.869141" xlink:href="#DejaVuSans-30"/>
       <use x="254.492188" xlink:href="#DejaVuSans-30"/>
      </g>
     </g>
    </g>
    <g id="xtick_6">
     <g id="line2d_6">
      <g>
       <use style="stroke:#000000;stroke-width:0.8;" x="307.662287" xlink:href="#mb27462cd30" y="326.880915"/>
      </g>
     </g>
     <g id="text_6">
      <!-- 100000 -->
      <g transform="translate(288.574787 341.479352)scale(0.1 -0.1)">
       <defs>
        <path d="M 794 531 
L 1825 531 
L 1825 4091 
L 703 3866 
L 703 4441 
L 1819 4666 
L 2450 4666 
L 2450 531 
L 3481 531 
L 3481 0 
L 794 0 
L 794 531 
z
" id="DejaVuSans-31" transform="scale(0.015625)"/>
       </defs>
       <use xlink:href="#DejaVuSans-31"/>
       <use x="63.623047" xlink:href="#DejaVuSans-30"/>
       <use x="127.246094" xlink:href="#DejaVuSans-30"/>
       <use x="190.869141" xlink:href="#DejaVuSans-30"/>
       <use x="254.492188" xlink:href="#DejaVuSans-30"/>
       <use x="318.115234" xlink:href="#DejaVuSans-30"/>
      </g>
     </g>
    </g>
    <g id="xtick_7">
     <g id="line2d_7">
      <g>
       <use style="stroke:#000000;stroke-width:0.8;" x="357.574982" xlink:href="#mb27462cd30" y="326.880915"/>
      </g>
     </g>
     <g id="text_7">
      <!-- 120000 -->
      <g transform="translate(338.487482 341.479352)scale(0.1 -0.1)">
       <use xlink:href="#DejaVuSans-31"/>
       <use x="63.623047" xlink:href="#DejaVuSans-32"/>
       <use x="127.246094" xlink:href="#DejaVuSans-30"/>
       <use x="190.869141" xlink:href="#DejaVuSans-30"/>
       <use x="254.492188" xlink:href="#DejaVuSans-30"/>
       <use x="318.115234" xlink:href="#DejaVuSans-30"/>
      </g>
     </g>
    </g>
   </g>
   <g id="matplotlib.axis_2">
    <g id="ytick_1">
     <g id="line2d_8">
      <defs>
       <path d="M 0 0 
L -3.5 0 
" id="m3531090b2a" style="stroke:#000000;stroke-width:0.8;"/>
      </defs>
      <g>
       <use style="stroke:#000000;stroke-width:0.8;" x="43.125" xlink:href="#m3531090b2a" y="314.570937"/>
      </g>
     </g>
     <g id="text_8">
      <!-- 0 -->
      <g transform="translate(29.7625 318.370156)scale(0.1 -0.1)">
       <use xlink:href="#DejaVuSans-30"/>
      </g>
     </g>
    </g>
    <g id="ytick_2">
     <g id="line2d_9">
      <g>
       <use style="stroke:#000000;stroke-width:0.8;" x="43.125" xlink:href="#m3531090b2a" y="264.270887"/>
      </g>
     </g>
     <g id="text_9">
      <!-- 10 -->
      <g transform="translate(23.4 268.070105)scale(0.1 -0.1)">
       <use xlink:href="#DejaVuSans-31"/>
       <use x="63.623047" xlink:href="#DejaVuSans-30"/>
      </g>
     </g>
    </g>
    <g id="ytick_3">
     <g id="line2d_10">
      <g>
       <use style="stroke:#000000;stroke-width:0.8;" x="43.125" xlink:href="#m3531090b2a" y="213.970836"/>
      </g>
     </g>
     <g id="text_10">
      <!-- 20 -->
      <g transform="translate(23.4 217.770055)scale(0.1 -0.1)">
       <use xlink:href="#DejaVuSans-32"/>
       <use x="63.623047" xlink:href="#DejaVuSans-30"/>
      </g>
     </g>
    </g>
    <g id="ytick_4">
     <g id="line2d_11">
      <g>
       <use style="stroke:#000000;stroke-width:0.8;" x="43.125" xlink:href="#m3531090b2a" y="163.670785"/>
      </g>
     </g>
     <g id="text_11">
      <!-- 30 -->
      <g transform="translate(23.4 167.470004)scale(0.1 -0.1)">
       <defs>
        <path d="M 2597 2516 
Q 3050 2419 3304 2112 
Q 3559 1806 3559 1356 
Q 3559 666 3084 287 
Q 2609 -91 1734 -91 
Q 1441 -91 1130 -33 
Q 819 25 488 141 
L 488 750 
Q 750 597 1062 519 
Q 1375 441 1716 441 
Q 2309 441 2620 675 
Q 2931 909 2931 1356 
Q 2931 1769 2642 2001 
Q 2353 2234 1838 2234 
L 1294 2234 
L 1294 2753 
L 1863 2753 
Q 2328 2753 2575 2939 
Q 2822 3125 2822 3475 
Q 2822 3834 2567 4026 
Q 2313 4219 1838 4219 
Q 1578 4219 1281 4162 
Q 984 4106 628 3988 
L 628 4550 
Q 988 4650 1302 4700 
Q 1616 4750 1894 4750 
Q 2613 4750 3031 4423 
Q 3450 4097 3450 3541 
Q 3450 3153 3228 2886 
Q 3006 2619 2597 2516 
z
" id="DejaVuSans-33" transform="scale(0.015625)"/>
       </defs>
       <use xlink:href="#DejaVuSans-33"/>
       <use x="63.623047" xlink:href="#DejaVuSans-30"/>
      </g>
     </g>
    </g>
    <g id="ytick_5">
     <g id="line2d_12">
      <g>
       <use style="stroke:#000000;stroke-width:0.8;" x="43.125" xlink:href="#m3531090b2a" y="113.370734"/>
      </g>
     </g>
     <g id="text_12">
      <!-- 40 -->
      <g transform="translate(23.4 117.169953)scale(0.1 -0.1)">
       <use xlink:href="#DejaVuSans-34"/>
       <use x="63.623047" xlink:href="#DejaVuSans-30"/>
      </g>
     </g>
    </g>
    <g id="ytick_6">
     <g id="line2d_13">
      <g>
       <use style="stroke:#000000;stroke-width:0.8;" x="43.125" xlink:href="#m3531090b2a" y="63.070684"/>
      </g>
     </g>
     <g id="text_13">
      <!-- 50 -->
      <g transform="translate(23.4 66.869902)scale(0.1 -0.1)">
       <defs>
        <path d="M 691 4666 
L 3169 4666 
L 3169 4134 
L 1269 4134 
L 1269 2991 
Q 1406 3038 1543 3061 
Q 1681 3084 1819 3084 
Q 2600 3084 3056 2656 
Q 3513 2228 3513 1497 
Q 3513 744 3044 326 
Q 2575 -91 1722 -91 
Q 1428 -91 1123 -41 
Q 819 9 494 109 
L 494 744 
Q 775 591 1075 516 
Q 1375 441 1709 441 
Q 2250 441 2565 725 
Q 2881 1009 2881 1497 
Q 2881 1984 2565 2268 
Q 2250 2553 1709 2553 
Q 1456 2553 1204 2497 
Q 953 2441 691 2322 
L 691 4666 
z
" id="DejaVuSans-35" transform="scale(0.015625)"/>
       </defs>
       <use xlink:href="#DejaVuSans-35"/>
       <use x="63.623047" xlink:href="#DejaVuSans-30"/>
      </g>
     </g>
    </g>
    <g id="text_14">
     <!-- Marginal effective capacity per new Bup provider, $\widehatK$ -->
     <g transform="translate(17.3 317.740697)rotate(-90)scale(0.1 -0.1)">
      <defs>
       <path d="M 628 4666 
L 1569 4666 
L 2759 1491 
L 3956 4666 
L 4897 4666 
L 4897 0 
L 4281 0 
L 4281 4097 
L 3078 897 
L 2444 897 
L 1241 4097 
L 1241 0 
L 628 0 
L 628 4666 
z
" id="DejaVuSans-4d" transform="scale(0.015625)"/>
       <path d="M 2194 1759 
Q 1497 1759 1228 1600 
Q 959 1441 959 1056 
Q 959 750 1161 570 
Q 1363 391 1709 391 
Q 2188 391 2477 730 
Q 2766 1069 2766 1631 
L 2766 1759 
L 2194 1759 
z
M 3341 1997 
L 3341 0 
L 2766 0 
L 2766 531 
Q 2569 213 2275 61 
Q 1981 -91 1556 -91 
Q 1019 -91 701 211 
Q 384 513 384 1019 
Q 384 1609 779 1909 
Q 1175 2209 1959 2209 
L 2766 2209 
L 2766 2266 
Q 2766 2663 2505 2880 
Q 2244 3097 1772 3097 
Q 1472 3097 1187 3025 
Q 903 2953 641 2809 
L 641 3341 
Q 956 3463 1253 3523 
Q 1550 3584 1831 3584 
Q 2591 3584 2966 3190 
Q 3341 2797 3341 1997 
z
" id="DejaVuSans-61" transform="scale(0.015625)"/>
       <path d="M 2631 2963 
Q 2534 3019 2420 3045 
Q 2306 3072 2169 3072 
Q 1681 3072 1420 2755 
Q 1159 2438 1159 1844 
L 1159 0 
L 581 0 
L 581 3500 
L 1159 3500 
L 1159 2956 
Q 1341 3275 1631 3429 
Q 1922 3584 2338 3584 
Q 2397 3584 2469 3576 
Q 2541 3569 2628 3553 
L 2631 2963 
z
" id="DejaVuSans-72" transform="scale(0.015625)"/>
       <path d="M 2906 1791 
Q 2906 2416 2648 2759 
Q 2391 3103 1925 3103 
Q 1463 3103 1205 2759 
Q 947 2416 947 1791 
Q 947 1169 1205 825 
Q 1463 481 1925 481 
Q 2391 481 2648 825 
Q 2906 1169 2906 1791 
z
M 3481 434 
Q 3481 -459 3084 -895 
Q 2688 -1331 1869 -1331 
Q 1566 -1331 1297 -1286 
Q 1028 -1241 775 -1147 
L 775 -588 
Q 1028 -725 1275 -790 
Q 1522 -856 1778 -856 
Q 2344 -856 2625 -561 
Q 2906 -266 2906 331 
L 2906 616 
Q 2728 306 2450 153 
Q 2172 0 1784 0 
Q 1141 0 747 490 
Q 353 981 353 1791 
Q 353 2603 747 3093 
Q 1141 3584 1784 3584 
Q 2172 3584 2450 3431 
Q 2728 3278 2906 2969 
L 2906 3500 
L 3481 3500 
L 3481 434 
z
" id="DejaVuSans-67" transform="scale(0.015625)"/>
       <path d="M 603 3500 
L 1178 3500 
L 1178 0 
L 603 0 
L 603 3500 
z
M 603 4863 
L 1178 4863 
L 1178 4134 
L 603 4134 
L 603 4863 
z
" id="DejaVuSans-69" transform="scale(0.015625)"/>
       <path d="M 3513 2113 
L 3513 0 
L 2938 0 
L 2938 2094 
Q 2938 2591 2744 2837 
Q 2550 3084 2163 3084 
Q 1697 3084 1428 2787 
Q 1159 2491 1159 1978 
L 1159 0 
L 581 0 
L 581 3500 
L 1159 3500 
L 1159 2956 
Q 1366 3272 1645 3428 
Q 1925 3584 2291 3584 
Q 2894 3584 3203 3211 
Q 3513 2838 3513 2113 
z
" id="DejaVuSans-6e" transform="scale(0.015625)"/>
       <path d="M 603 4863 
L 1178 4863 
L 1178 0 
L 603 0 
L 603 4863 
z
" id="DejaVuSans-6c" transform="scale(0.015625)"/>
       <path id="DejaVuSans-20" transform="scale(0.015625)"/>
       <path d="M 3597 1894 
L 3597 1613 
L 953 1613 
Q 991 1019 1311 708 
Q 1631 397 2203 397 
Q 2534 397 2845 478 
Q 3156 559 3463 722 
L 3463 178 
Q 3153 47 2828 -22 
Q 2503 -91 2169 -91 
Q 1331 -91 842 396 
Q 353 884 353 1716 
Q 353 2575 817 3079 
Q 1281 3584 2069 3584 
Q 2775 3584 3186 3129 
Q 3597 2675 3597 1894 
z
M 3022 2063 
Q 3016 2534 2758 2815 
Q 2500 3097 2075 3097 
Q 1594 3097 1305 2825 
Q 1016 2553 972 2059 
L 3022 2063 
z
" id="DejaVuSans-65" transform="scale(0.015625)"/>
       <path d="M 2375 4863 
L 2375 4384 
L 1825 4384 
Q 1516 4384 1395 4259 
Q 1275 4134 1275 3809 
L 1275 3500 
L 2222 3500 
L 2222 3053 
L 1275 3053 
L 1275 0 
L 697 0 
L 697 3053 
L 147 3053 
L 147 3500 
L 697 3500 
L 697 3744 
Q 697 4328 969 4595 
Q 1241 4863 1831 4863 
L 2375 4863 
z
" id="DejaVuSans-66" transform="scale(0.015625)"/>
       <path d="M 3122 3366 
L 3122 2828 
Q 2878 2963 2633 3030 
Q 2388 3097 2138 3097 
Q 1578 3097 1268 2742 
Q 959 2388 959 1747 
Q 959 1106 1268 751 
Q 1578 397 2138 397 
Q 2388 397 2633 464 
Q 2878 531 3122 666 
L 3122 134 
Q 2881 22 2623 -34 
Q 2366 -91 2075 -91 
Q 1284 -91 818 406 
Q 353 903 353 1747 
Q 353 2603 823 3093 
Q 1294 3584 2113 3584 
Q 2378 3584 2631 3529 
Q 2884 3475 3122 3366 
z
" id="DejaVuSans-63" transform="scale(0.015625)"/>
       <path d="M 1172 4494 
L 1172 3500 
L 2356 3500 
L 2356 3053 
L 1172 3053 
L 1172 1153 
Q 1172 725 1289 603 
Q 1406 481 1766 481 
L 2356 481 
L 2356 0 
L 1766 0 
Q 1100 0 847 248 
Q 594 497 594 1153 
L 594 3053 
L 172 3053 
L 172 3500 
L 594 3500 
L 594 4494 
L 1172 4494 
z
" id="DejaVuSans-74" transform="scale(0.015625)"/>
       <path d="M 191 3500 
L 800 3500 
L 1894 563 
L 2988 3500 
L 3597 3500 
L 2284 0 
L 1503 0 
L 191 3500 
z
" id="DejaVuSans-76" transform="scale(0.015625)"/>
       <path d="M 1159 525 
L 1159 -1331 
L 581 -1331 
L 581 3500 
L 1159 3500 
L 1159 2969 
Q 1341 3281 1617 3432 
Q 1894 3584 2278 3584 
Q 2916 3584 3314 3078 
Q 3713 2572 3713 1747 
Q 3713 922 3314 415 
Q 2916 -91 2278 -91 
Q 1894 -91 1617 61 
Q 1341 213 1159 525 
z
M 3116 1747 
Q 3116 2381 2855 2742 
Q 2594 3103 2138 3103 
Q 1681 3103 1420 2742 
Q 1159 2381 1159 1747 
Q 1159 1113 1420 752 
Q 1681 391 2138 391 
Q 2594 391 2855 752 
Q 3116 1113 3116 1747 
z
" id="DejaVuSans-70" transform="scale(0.015625)"/>
       <path d="M 2059 -325 
Q 1816 -950 1584 -1140 
Q 1353 -1331 966 -1331 
L 506 -1331 
L 506 -850 
L 844 -850 
Q 1081 -850 1212 -737 
Q 1344 -625 1503 -206 
L 1606 56 
L 191 3500 
L 800 3500 
L 1894 763 
L 2988 3500 
L 3597 3500 
L 2059 -325 
z
" id="DejaVuSans-79" transform="scale(0.015625)"/>
       <path d="M 269 3500 
L 844 3500 
L 1563 769 
L 2278 3500 
L 2956 3500 
L 3675 769 
L 4391 3500 
L 4966 3500 
L 4050 0 
L 3372 0 
L 2619 2869 
L 1863 0 
L 1184 0 
L 269 3500 
z
" id="DejaVuSans-77" transform="scale(0.015625)"/>
       <path d="M 1259 2228 
L 1259 519 
L 2272 519 
Q 2781 519 3026 730 
Q 3272 941 3272 1375 
Q 3272 1813 3026 2020 
Q 2781 2228 2272 2228 
L 1259 2228 
z
M 1259 4147 
L 1259 2741 
L 2194 2741 
Q 2656 2741 2882 2914 
Q 3109 3088 3109 3444 
Q 3109 3797 2882 3972 
Q 2656 4147 2194 4147 
L 1259 4147 
z
M 628 4666 
L 2241 4666 
Q 2963 4666 3353 4366 
Q 3744 4066 3744 3513 
Q 3744 3084 3544 2831 
Q 3344 2578 2956 2516 
Q 3422 2416 3680 2098 
Q 3938 1781 3938 1306 
Q 3938 681 3513 340 
Q 3088 0 2303 0 
L 628 0 
L 628 4666 
z
" id="DejaVuSans-42" transform="scale(0.015625)"/>
       <path d="M 544 1381 
L 544 3500 
L 1119 3500 
L 1119 1403 
Q 1119 906 1312 657 
Q 1506 409 1894 409 
Q 2359 409 2629 706 
Q 2900 1003 2900 1516 
L 2900 3500 
L 3475 3500 
L 3475 0 
L 2900 0 
L 2900 538 
Q 2691 219 2414 64 
Q 2138 -91 1772 -91 
Q 1169 -91 856 284 
Q 544 659 544 1381 
z
M 1991 3584 
L 1991 3584 
z
" id="DejaVuSans-75" transform="scale(0.015625)"/>
       <path d="M 1959 3097 
Q 1497 3097 1228 2736 
Q 959 2375 959 1747 
Q 959 1119 1226 758 
Q 1494 397 1959 397 
Q 2419 397 2687 759 
Q 2956 1122 2956 1747 
Q 2956 2369 2687 2733 
Q 2419 3097 1959 3097 
z
M 1959 3584 
Q 2709 3584 3137 3096 
Q 3566 2609 3566 1747 
Q 3566 888 3137 398 
Q 2709 -91 1959 -91 
Q 1206 -91 779 398 
Q 353 888 353 1747 
Q 353 2609 779 3096 
Q 1206 3584 1959 3584 
z
" id="DejaVuSans-6f" transform="scale(0.015625)"/>
       <path d="M 2906 2969 
L 2906 4863 
L 3481 4863 
L 3481 0 
L 2906 0 
L 2906 525 
Q 2725 213 2448 61 
Q 2172 -91 1784 -91 
Q 1150 -91 751 415 
Q 353 922 353 1747 
Q 353 2572 751 3078 
Q 1150 3584 1784 3584 
Q 2172 3584 2448 3432 
Q 2725 3281 2906 2969 
z
M 947 1747 
Q 947 1113 1208 752 
Q 1469 391 1925 391 
Q 2381 391 2643 752 
Q 2906 1113 2906 1747 
Q 2906 2381 2643 2742 
Q 2381 3103 1925 3103 
Q 1469 3103 1208 2742 
Q 947 2381 947 1747 
z
" id="DejaVuSans-64" transform="scale(0.015625)"/>
       <path d="M 750 794 
L 1409 794 
L 1409 256 
L 897 -744 
L 494 -744 
L 750 256 
L 750 794 
z
" id="DejaVuSans-2c" transform="scale(0.015625)"/>
       <path d="M -1094 3610 
L -1728 3610 
L -4224 4538 
L -6726 3610 
L -7360 3610 
L -4378 4973 
L -4070 4973 
L -1094 3610 
z
" id="STIXSizeTwoSym-Regular-302" transform="scale(0.015625)"/>
       <path d="M 1081 4666 
L 1716 4666 
L 1331 2700 
L 3781 4666 
L 4622 4666 
L 1850 2438 
L 3878 0 
L 3109 0 
L 1247 2272 
L 806 0 
L 172 0 
L 1081 4666 
z
" id="DejaVuSans-Oblique-4b" transform="scale(0.015625)"/>
      </defs>
      <use transform="translate(0 0.46875)" xlink:href="#DejaVuSans-4d"/>
      <use transform="translate(86.279297 0.46875)" xlink:href="#DejaVuSans-61"/>
      <use transform="translate(147.558594 0.46875)" xlink:href="#DejaVuSans-72"/>
      <use transform="translate(188.671875 0.46875)" xlink:href="#DejaVuSans-67"/>
      <use transform="translate(252.148438 0.46875)" xlink:href="#DejaVuSans-69"/>
      <use transform="translate(279.931641 0.46875)" xlink:href="#DejaVuSans-6e"/>
      <use transform="translate(343.310547 0.46875)" xlink:href="#DejaVuSans-61"/>
      <use transform="translate(404.589844 0.46875)" xlink:href="#DejaVuSans-6c"/>
      <use transform="translate(432.373047 0.46875)" xlink:href="#DejaVuSans-20"/>
      <use transform="translate(464.160156 0.46875)" xlink:href="#DejaVuSans-65"/>
      <use transform="translate(525.683594 0.46875)" xlink:href="#DejaVuSans-66"/>
      <use transform="translate(560.888672 0.46875)" xlink:href="#DejaVuSans-66"/>
      <use transform="translate(596.09375 0.46875)" xlink:href="#DejaVuSans-65"/>
      <use transform="translate(657.617188 0.46875)" xlink:href="#DejaVuSans-63"/>
      <use transform="translate(712.597656 0.46875)" xlink:href="#DejaVuSans-74"/>
      <use transform="translate(751.806641 0.46875)" xlink:href="#DejaVuSans-69"/>
      <use transform="translate(779.589844 0.46875)" xlink:href="#DejaVuSans-76"/>
      <use transform="translate(838.769531 0.46875)" xlink:href="#DejaVuSans-65"/>
      <use transform="translate(900.292969 0.46875)" xlink:href="#DejaVuSans-20"/>
      <use transform="translate(932.080078 0.46875)" xlink:href="#DejaVuSans-63"/>
      <use transform="translate(987.060547 0.46875)" xlink:href="#DejaVuSans-61"/>
      <use transform="translate(1048.339844 0.46875)" xlink:href="#DejaVuSans-70"/>
      <use transform="translate(1111.816406 0.46875)" xlink:href="#DejaVuSans-61"/>
      <use transform="translate(1173.095703 0.46875)" xlink:href="#DejaVuSans-63"/>
      <use transform="translate(1228.076172 0.46875)" xlink:href="#DejaVuSans-69"/>
      <use transform="translate(1255.859375 0.46875)" xlink:href="#DejaVuSans-74"/>
      <use transform="translate(1295.068359 0.46875)" xlink:href="#DejaVuSans-79"/>
      <use transform="translate(1354.248047 0.46875)" xlink:href="#DejaVuSans-20"/>
      <use transform="translate(1386.035156 0.46875)" xlink:href="#DejaVuSans-70"/>
      <use transform="translate(1449.511719 0.46875)" xlink:href="#DejaVuSans-65"/>
      <use transform="translate(1511.035156 0.46875)" xlink:href="#DejaVuSans-72"/>
      <use transform="translate(1552.148438 0.46875)" xlink:href="#DejaVuSans-20"/>
      <use transform="translate(1583.935547 0.46875)" xlink:href="#DejaVuSans-6e"/>
      <use transform="translate(1647.314453 0.46875)" xlink:href="#DejaVuSans-65"/>
      <use transform="translate(1708.837891 0.46875)" xlink:href="#DejaVuSans-77"/>
      <use transform="translate(1790.625 0.46875)" xlink:href="#DejaVuSans-20"/>
      <use transform="translate(1822.412109 0.46875)" xlink:href="#DejaVuSans-42"/>
      <use transform="translate(1891.015625 0.46875)" xlink:href="#DejaVuSans-75"/>
      <use transform="translate(1954.394531 0.46875)" xlink:href="#DejaVuSans-70"/>
      <use transform="translate(2017.871094 0.46875)" xlink:href="#DejaVuSans-20"/>
      <use transform="translate(2049.658203 0.46875)" xlink:href="#DejaVuSans-70"/>
      <use transform="translate(2113.134766 0.46875)" xlink:href="#DejaVuSans-72"/>
      <use transform="translate(2154.248047 0.46875)" xlink:href="#DejaVuSans-6f"/>
      <use transform="translate(2215.429688 0.46875)" xlink:href="#DejaVuSans-76"/>
      <use transform="translate(2274.609375 0.46875)" xlink:href="#DejaVuSans-69"/>
      <use transform="translate(2302.392578 0.46875)" xlink:href="#DejaVuSans-64"/>
      <use transform="translate(2365.869141 0.46875)" xlink:href="#DejaVuSans-65"/>
      <use transform="translate(2427.392578 0.46875)" xlink:href="#DejaVuSans-72"/>
      <use transform="translate(2468.505859 0.46875)" xlink:href="#DejaVuSans-2c"/>
      <use transform="translate(2500.292969 0.46875)" xlink:href="#DejaVuSans-20"/>
      <use transform="translate(2622.119141 45.828125)scale(0.710182)" xlink:href="#STIXSizeTwoSym-Regular-302"/>
      <use transform="translate(2532.080078 0.46875)" xlink:href="#DejaVuSans-Oblique-4b"/>
     </g>
    </g>
   </g>
   <g id="line2d_14">
    <path clip-path="url(#p200e8405ef)" d="M 58.098809 103.310724 
L 61.123821 112.233033 
L 64.148832 120.778518 
L 67.173844 128.963096 
L 70.198856 136.802009 
L 73.223868 144.309855 
L 76.24888 151.500617 
L 79.273892 158.387686 
L 82.298904 164.983888 
L 85.323915 171.301509 
L 88.348927 177.352312 
L 91.373939 183.147567 
L 94.398951 188.698067 
L 97.423963 194.014149 
L 100.448975 199.105713 
L 103.473987 203.982241 
L 106.498998 208.652815 
L 109.52401 213.126133 
L 112.549022 217.410526 
L 115.574034 221.513973 
L 118.599046 225.444117 
L 121.624058 229.208275 
L 124.64907 232.81346 
L 127.674081 236.266383 
L 130.699093 239.573477 
L 133.724105 242.7409 
L 136.749117 245.774551 
L 139.774129 248.68008 
L 142.799141 251.462897 
L 145.824153 254.128185 
L 148.849164 256.680909 
L 151.874176 259.125821 
L 154.899188 261.467475 
L 157.9242 263.710233 
L 160.949212 265.858271 
L 163.974224 267.915588 
L 166.999236 269.886018 
L 170.024247 271.773229 
L 173.049259 273.580736 
L 176.074271 275.311906 
L 179.099283 276.969961 
L 182.124295 278.557991 
L 185.149307 280.078952 
L 188.174319 281.535678 
L 191.19933 282.93088 
L 194.224342 284.267158 
L 197.249354 285.547 
L 200.274366 286.772789 
L 203.299378 287.946809 
L 206.32439 289.071246 
L 209.349402 290.148193 
L 212.374413 291.179657 
L 215.399425 292.167558 
L 218.424437 293.113736 
L 221.449449 294.019954 
L 224.474461 294.887899 
L 227.499473 295.719187 
L 230.524485 296.515367 
L 233.549496 297.277921 
L 236.574508 298.00827 
L 239.59952 298.707773 
L 242.624532 299.377734 
L 245.649544 300.0194 
L 248.674556 300.633966 
L 251.699568 301.222576 
L 254.724579 301.786327 
L 257.749591 302.326269 
L 260.774603 302.843407 
L 263.799615 303.338705 
L 266.824627 303.813084 
L 269.849639 304.267428 
L 272.87465 304.702584 
L 275.899662 305.119361 
L 278.924674 305.518537 
L 281.949686 305.900853 
L 284.974698 306.267023 
L 287.99971 306.617729 
L 291.024722 306.953622 
L 294.049733 307.27533 
L 297.074745 307.583451 
L 300.099757 307.878559 
L 303.124769 308.161203 
L 306.149781 308.43191 
L 309.174793 308.691184 
L 312.199805 308.939508 
L 315.224816 309.177344 
L 318.249828 309.405136 
L 321.27484 309.623307 
L 324.299852 309.832264 
L 327.324864 310.032396 
L 330.349876 310.224075 
L 333.374888 310.407659 
L 336.399899 310.58349 
L 339.424911 310.751895 
L 342.449923 310.913187 
L 345.474935 311.067668 
L 348.499947 311.215624 
L 351.524959 311.357331 
L 354.549971 311.493054 
L 357.574982 311.623045 
" style="fill:none;stroke:#1f77b4;stroke-linecap:square;stroke-width:1.5;"/>
   </g>
   <g id="line2d_15">
    <path clip-path="url(#p200e8405ef)" d="M 58.098809 103.310724 
L 61.123821 116.551867 
L 64.148832 128.963096 
L 67.173844 140.596428 
L 70.198856 151.500617 
L 73.223868 161.721365 
L 76.24888 171.301509 
L 79.273892 180.281198 
L 82.298904 188.698067 
L 85.323915 196.587393 
L 88.348927 203.982241 
L 91.373939 210.913602 
L 94.398951 217.410526 
L 97.423963 223.500243 
L 100.448975 229.208275 
L 103.473987 234.558546 
L 106.498998 239.573477 
L 109.52401 244.274088 
L 112.549022 248.68008 
L 115.574034 252.809917 
L 118.599046 256.680909 
L 121.624058 260.309278 
L 124.64907 263.710233 
L 127.674081 266.898026 
L 130.699093 269.886018 
L 133.724105 272.686732 
L 136.749117 275.311906 
L 139.774129 277.772542 
L 142.799141 280.078952 
L 145.824153 282.240804 
L 148.849164 284.267158 
L 151.874176 286.166506 
L 154.899188 287.946809 
L 157.9242 289.615528 
L 160.949212 291.179657 
L 163.974224 292.64575 
L 166.999236 294.019954 
L 170.024247 295.308027 
L 173.049259 296.515367 
L 176.074271 297.647035 
L 179.099283 298.707773 
L 182.124295 299.702028 
L 185.149307 300.633966 
L 188.174319 301.507492 
L 191.19933 302.326269 
L 194.224342 303.093727 
L 197.249354 303.813084 
L 200.274366 304.487353 
L 203.299378 305.119361 
L 206.32439 305.711757 
L 209.349402 306.267023 
L 212.374413 306.787487 
L 215.399425 307.27533 
L 218.424437 307.732596 
L 221.449449 308.161203 
L 224.474461 308.562945 
L 227.499473 308.939508 
L 230.524485 309.292469 
L 233.549496 309.623307 
L 236.574508 309.933409 
L 239.59952 310.224075 
L 242.624532 310.496523 
L 245.649544 310.751895 
L 248.674556 310.991261 
L 251.699568 311.215624 
L 254.724579 311.425925 
L 257.749591 311.623045 
L 260.774603 311.807809 
L 263.799615 311.980994 
L 266.824627 312.143324 
L 269.849639 312.295479 
L 272.87465 312.438098 
L 275.899662 312.571778 
L 278.924674 312.697079 
L 281.949686 312.814527 
L 284.974698 312.924613 
L 287.99971 313.0278 
L 291.024722 313.124519 
L 294.049733 313.215176 
L 297.074745 313.300151 
L 300.099757 313.3798 
L 303.124769 313.454457 
L 306.149781 313.524434 
L 309.174793 313.590026 
L 312.199805 313.651506 
L 315.224816 313.709134 
L 318.249828 313.763149 
L 321.27484 313.813778 
L 324.299852 313.861235 
L 327.324864 313.905717 
L 330.349876 313.947411 
L 333.374888 313.986492 
L 336.399899 314.023123 
L 339.424911 314.057458 
L 342.449923 314.089641 
L 345.474935 314.119808 
L 348.499947 314.148083 
L 351.524959 314.174586 
L 354.549971 314.199428 
L 357.574982 314.222713 
" style="fill:none;stroke:#ff7f0e;stroke-linecap:square;stroke-width:1.5;"/>
   </g>
   <g id="patch_3">
    <path d="M 43.125 326.880915 
L 43.125 48.40048 
" style="fill:none;stroke:#000000;stroke-linecap:square;stroke-linejoin:miter;stroke-width:0.8;"/>
   </g>
   <g id="patch_4">
    <path d="M 372.548791 326.880915 
L 372.548791 48.40048 
" style="fill:none;stroke:#000000;stroke-linecap:square;stroke-linejoin:miter;stroke-width:0.8;"/>
   </g>
   <g id="patch_5">
    <path d="M 43.125 326.880915 
L 372.548791 326.880915 
" style="fill:none;stroke:#000000;stroke-linecap:square;stroke-linejoin:miter;stroke-width:0.8;"/>
   </g>
   <g id="patch_6">
    <path d="M 43.125 48.40048 
L 372.548791 48.40048 
" style="fill:none;stroke:#000000;stroke-linecap:square;stroke-linejoin:miter;stroke-width:0.8;"/>
   </g>
   <g id="text_15">
    <!-- Bup effective capacity decay constant, $\lambda_B$ -->
    <g transform="translate(82.436896 42.40048)scale(0.12 -0.12)">
     <defs>
      <path d="M 2834 3397 
L 2834 2853 
Q 2591 2978 2328 3040 
Q 2066 3103 1784 3103 
Q 1356 3103 1142 2972 
Q 928 2841 928 2578 
Q 928 2378 1081 2264 
Q 1234 2150 1697 2047 
L 1894 2003 
Q 2506 1872 2764 1633 
Q 3022 1394 3022 966 
Q 3022 478 2636 193 
Q 2250 -91 1575 -91 
Q 1294 -91 989 -36 
Q 684 19 347 128 
L 347 722 
Q 666 556 975 473 
Q 1284 391 1588 391 
Q 1994 391 2212 530 
Q 2431 669 2431 922 
Q 2431 1156 2273 1281 
Q 2116 1406 1581 1522 
L 1381 1569 
Q 847 1681 609 1914 
Q 372 2147 372 2553 
Q 372 3047 722 3315 
Q 1072 3584 1716 3584 
Q 2034 3584 2315 3537 
Q 2597 3491 2834 3397 
z
" id="DejaVuSans-73" transform="scale(0.015625)"/>
      <path d="M 2350 4316 
L 3125 0 
L 2516 0 
L 2038 2588 
L 328 0 
L -281 0 
L 1903 3356 
L 1794 3975 
Q 1725 4369 1391 4369 
L 1091 4369 
L 1184 4863 
L 1550 4856 
Q 2253 4847 2350 4316 
z
" id="DejaVuSans-Oblique-3bb" transform="scale(0.015625)"/>
      <path d="M 1081 4666 
L 2694 4666 
Q 3350 4666 3675 4422 
Q 4000 4178 4000 3688 
Q 4000 3238 3720 2911 
Q 3441 2584 2988 2516 
Q 3375 2428 3569 2181 
Q 3763 1934 3763 1522 
Q 3763 819 3242 409 
Q 2722 0 1819 0 
L 172 0 
L 1081 4666 
z
M 1234 2228 
L 903 519 
L 1919 519 
Q 2491 519 2800 781 
Q 3109 1044 3109 1522 
Q 3109 1891 2904 2059 
Q 2700 2228 2247 2228 
L 1234 2228 
z
M 1606 4147 
L 1331 2741 
L 2272 2741 
Q 2775 2741 3058 2959 
Q 3341 3178 3341 3566 
Q 3341 3869 3150 4008 
Q 2959 4147 2541 4147 
L 1606 4147 
z
" id="DejaVuSans-Oblique-42" transform="scale(0.015625)"/>
     </defs>
     <use transform="translate(0 0.015625)" xlink:href="#DejaVuSans-42"/>
     <use transform="translate(68.603516 0.015625)" xlink:href="#DejaVuSans-75"/>
     <use transform="translate(131.982422 0.015625)" xlink:href="#DejaVuSans-70"/>
     <use transform="translate(195.458984 0.015625)" xlink:href="#DejaVuSans-20"/>
     <use transform="translate(227.246094 0.015625)" xlink:href="#DejaVuSans-65"/>
     <use transform="translate(288.769531 0.015625)" xlink:href="#DejaVuSans-66"/>
     <use transform="translate(323.974609 0.015625)" xlink:href="#DejaVuSans-66"/>
     <use transform="translate(359.179688 0.015625)" xlink:href="#DejaVuSans-65"/>
     <use transform="translate(420.703125 0.015625)" xlink:href="#DejaVuSans-63"/>
     <use transform="translate(475.683594 0.015625)" xlink:href="#DejaVuSans-74"/>
     <use transform="translate(514.892578 0.015625)" xlink:href="#DejaVuSans-69"/>
     <use transform="translate(542.675781 0.015625)" xlink:href="#DejaVuSans-76"/>
     <use transform="translate(601.855469 0.015625)" xlink:href="#DejaVuSans-65"/>
     <use transform="translate(663.378906 0.015625)" xlink:href="#DejaVuSans-20"/>
     <use transform="translate(695.166016 0.015625)" xlink:href="#DejaVuSans-63"/>
     <use transform="translate(750.146484 0.015625)" xlink:href="#DejaVuSans-61"/>
     <use transform="translate(811.425781 0.015625)" xlink:href="#DejaVuSans-70"/>
     <use transform="translate(874.902344 0.015625)" xlink:href="#DejaVuSans-61"/>
     <use transform="translate(936.181641 0.015625)" xlink:href="#DejaVuSans-63"/>
     <use transform="translate(991.162109 0.015625)" xlink:href="#DejaVuSans-69"/>
     <use transform="translate(1018.945312 0.015625)" xlink:href="#DejaVuSans-74"/>
     <use transform="translate(1058.154297 0.015625)" xlink:href="#DejaVuSans-79"/>
     <use transform="translate(1117.333984 0.015625)" xlink:href="#DejaVuSans-20"/>
     <use transform="translate(1149.121094 0.015625)" xlink:href="#DejaVuSans-64"/>
     <use transform="translate(1212.597656 0.015625)" xlink:href="#DejaVuSans-65"/>
     <use transform="translate(1274.121094 0.015625)" xlink:href="#DejaVuSans-63"/>
     <use transform="translate(1329.101562 0.015625)" xlink:href="#DejaVuSans-61"/>
     <use transform="translate(1390.380859 0.015625)" xlink:href="#DejaVuSans-79"/>
     <use transform="translate(1449.560547 0.015625)" xlink:href="#DejaVuSans-20"/>
     <use transform="translate(1481.347656 0.015625)" xlink:href="#DejaVuSans-63"/>
     <use transform="translate(1536.328125 0.015625)" xlink:href="#DejaVuSans-6f"/>
     <use transform="translate(1597.509766 0.015625)" xlink:href="#DejaVuSans-6e"/>
     <use transform="translate(1660.888672 0.015625)" xlink:href="#DejaVuSans-73"/>
     <use transform="translate(1712.988281 0.015625)" xlink:href="#DejaVuSans-74"/>
     <use transform="translate(1752.197266 0.015625)" xlink:href="#DejaVuSans-61"/>
     <use transform="translate(1813.476562 0.015625)" xlink:href="#DejaVuSans-6e"/>
     <use transform="translate(1876.855469 0.015625)" xlink:href="#DejaVuSans-74"/>
     <use transform="translate(1916.064453 0.015625)" xlink:href="#DejaVuSans-2c"/>
     <use transform="translate(1947.851562 0.015625)" xlink:href="#DejaVuSans-20"/>
     <use transform="translate(1979.638672 0.015625)" xlink:href="#DejaVuSans-Oblique-3bb"/>
     <use transform="translate(2038.818359 -16.390625)scale(0.7)" xlink:href="#DejaVuSans-Oblique-42"/>
    </g>
   </g>
   <g id="legend_1">
    <g id="patch_7">
     <path d="M 309.197229 100.434855 
L 365.548791 100.434855 
Q 367.548791 100.434855 367.548791 98.434855 
L 367.548791 55.40048 
Q 367.548791 53.40048 365.548791 53.40048 
L 309.197229 53.40048 
Q 307.197229 53.40048 307.197229 55.40048 
L 307.197229 98.434855 
Q 307.197229 100.434855 309.197229 100.434855 
z
" style="fill:#ffffff;opacity:0.8;stroke:#cccccc;stroke-linejoin:miter;"/>
    </g>
    <g id="line2d_16">
     <path d="M 311.197229 61.498917 
L 331.197229 61.498917 
" style="fill:none;stroke:#000000;stroke-linecap:square;stroke-width:3;"/>
    </g>
    <g id="line2d_17"/>
    <g id="text_16">
     <!-- Base -->
     <g transform="translate(339.197229 64.998917)scale(0.1 -0.1)">
      <use xlink:href="#DejaVuSans-42"/>
      <use x="68.603516" xlink:href="#DejaVuSans-61"/>
      <use x="129.882812" xlink:href="#DejaVuSans-73"/>
      <use x="181.982422" xlink:href="#DejaVuSans-65"/>
     </g>
    </g>
    <g id="line2d_18">
     <path d="M 311.197229 76.177042 
L 331.197229 76.177042 
" style="fill:none;stroke:#1f77b4;stroke-linecap:square;stroke-width:1.5;"/>
    </g>
    <g id="line2d_19"/>
    <g id="text_17">
     <!-- Low -->
     <g transform="translate(339.197229 79.677042)scale(0.1 -0.1)">
      <defs>
       <path d="M 628 4666 
L 1259 4666 
L 1259 531 
L 3531 531 
L 3531 0 
L 628 0 
L 628 4666 
z
" id="DejaVuSans-4c" transform="scale(0.015625)"/>
      </defs>
      <use xlink:href="#DejaVuSans-4c"/>
      <use x="53.962891" xlink:href="#DejaVuSans-6f"/>
      <use x="115.144531" xlink:href="#DejaVuSans-77"/>
     </g>
    </g>
    <g id="line2d_20">
     <path d="M 311.197229 90.855167 
L 331.197229 90.855167 
" style="fill:none;stroke:#ff7f0e;stroke-linecap:square;stroke-width:1.5;"/>
    </g>
    <g id="line2d_21"/>
    <g id="text_18">
     <!-- High -->
     <g transform="translate(339.197229 94.355167)scale(0.1 -0.1)">
      <defs>
       <path d="M 628 4666 
L 1259 4666 
L 1259 2753 
L 3553 2753 
L 3553 4666 
L 4184 4666 
L 4184 0 
L 3553 0 
L 3553 2222 
L 1259 2222 
L 1259 0 
L 628 0 
L 628 4666 
z
" id="DejaVuSans-48" transform="scale(0.015625)"/>
       <path d="M 3513 2113 
L 3513 0 
L 2938 0 
L 2938 2094 
Q 2938 2591 2744 2837 
Q 2550 3084 2163 3084 
Q 1697 3084 1428 2787 
Q 1159 2491 1159 1978 
L 1159 0 
L 581 0 
L 581 4863 
L 1159 4863 
L 1159 2956 
Q 1366 3272 1645 3428 
Q 1925 3584 2291 3584 
Q 2894 3584 3203 3211 
Q 3513 2838 3513 2113 
z
" id="DejaVuSans-68" transform="scale(0.015625)"/>
      </defs>
      <use xlink:href="#DejaVuSans-48"/>
      <use x="75.195312" xlink:href="#DejaVuSans-69"/>
      <use x="102.978516" xlink:href="#DejaVuSans-67"/>
      <use x="166.455078" xlink:href="#DejaVuSans-68"/>
     </g>
    </g>
   </g>
   <g id="line2d_22">
    <path clip-path="url(#p200e8405ef)" d="M 58.098809 103.310724 
L 61.123821 114.404098 
L 64.148832 124.914953 
L 67.173844 134.873878 
L 70.198856 144.309855 
L 73.223868 153.250345 
L 76.24888 161.721365 
L 79.273892 169.747569 
L 82.298904 177.352312 
L 85.323915 184.557727 
L 88.348927 191.384782 
L 91.373939 197.853345 
L 94.398951 203.982241 
L 97.423963 209.789305 
L 100.448975 215.291438 
L 103.473987 220.504652 
L 106.498998 225.444117 
L 109.52401 230.124208 
L 112.549022 234.558546 
L 115.574034 238.760034 
L 118.599046 242.7409 
L 121.624058 246.512729 
L 124.64907 250.086498 
L 127.674081 253.472606 
L 130.699093 256.680909 
L 133.724105 259.720741 
L 136.749117 262.600951 
L 139.774129 265.329919 
L 142.799141 267.915588 
L 145.824153 270.365483 
L 148.849164 272.686732 
L 151.874176 274.886091 
L 154.899188 276.969961 
L 157.9242 278.944406 
L 160.949212 280.815172 
L 163.974224 282.587704 
L 166.999236 284.267158 
L 170.024247 285.858424 
L 173.049259 287.366132 
L 176.074271 288.794669 
L 179.099283 290.148193 
L 182.124295 291.430643 
L 185.149307 292.64575 
L 188.174319 293.797052 
L 191.19933 294.887899 
L 194.224342 295.921464 
L 197.249354 296.900757 
L 200.274366 297.828627 
L 203.299378 298.707773 
L 206.32439 299.540755 
L 209.349402 300.329997 
L 212.374413 301.077796 
L 215.399425 301.786327 
L 218.424437 302.457653 
L 221.449449 303.093727 
L 224.474461 303.696401 
L 227.499473 304.267428 
L 230.524485 304.80847 
L 233.549496 305.321102 
L 236.574508 305.806815 
L 239.59952 306.267023 
L 242.624532 306.703066 
L 245.649544 307.116211 
L 248.674556 307.507663 
L 251.699568 307.878559 
L 254.724579 308.229978 
L 257.749591 308.562945 
L 260.774603 308.878428 
L 263.799615 309.177344 
L 266.824627 309.460564 
L 269.849639 309.728912 
L 272.87465 309.983169 
L 275.899662 310.224075 
L 278.924674 310.452331 
L 281.949686 310.668601 
L 284.974698 310.873514 
L 287.99971 311.067668 
L 291.024722 311.251626 
L 294.049733 311.425925 
L 297.074745 311.591071 
L 300.099757 311.747545 
L 303.124769 311.895803 
L 306.149781 312.036275 
L 309.174793 312.169372 
L 312.199805 312.295479 
L 315.224816 312.414964 
L 318.249828 312.528176 
L 321.27484 312.635442 
L 324.299852 312.737076 
L 327.324864 312.833373 
L 330.349876 312.924613 
L 333.374888 313.011062 
L 336.399899 313.092972 
L 339.424911 313.170581 
L 342.449923 313.244114 
L 345.474935 313.313786 
L 348.499947 313.3798 
L 351.524959 313.442347 
L 354.549971 313.50161 
L 357.574982 313.557761 
" style="fill:none;stroke:#000000;stroke-linecap:square;stroke-width:3;"/>
   </g>
  </g>
  <g id="axes_2">
   <g id="patch_8">
    <path d="M 387.51226 326.880915 
L 716.936051 326.880915 
L 716.936051 48.40048 
L 387.51226 48.40048 
z
" style="fill:#ffffff;"/>
   </g>
   <g id="PolyCollection_3">
    <path clip-path="url(#pc0c3e6f99e)" d="M 402.486069 145.562767 
L 402.486069 103.310724 
L 405.511081 114.404098 
L 408.536092 124.914953 
L 411.561104 134.873878 
L 414.586116 144.309855 
L 417.611128 153.250345 
L 420.63614 161.721365 
L 423.661152 169.747569 
L 426.686164 177.352312 
L 429.711175 184.557727 
L 432.736187 191.384782 
L 435.761199 197.853345 
L 438.786211 203.982241 
L 441.811223 209.789305 
L 444.836235 215.291438 
L 447.861247 220.504652 
L 450.886258 225.444117 
L 453.91127 230.124208 
L 456.936282 234.558546 
L 459.961294 238.760034 
L 462.986306 242.7409 
L 466.011318 246.512729 
L 469.03633 250.086498 
L 472.061341 253.472606 
L 475.086353 256.680909 
L 478.111365 259.720741 
L 481.136377 262.600951 
L 484.161389 265.329919 
L 487.186401 267.915588 
L 490.211413 270.365483 
L 493.236424 272.686732 
L 496.261436 274.886091 
L 499.286448 276.969961 
L 502.31146 278.944406 
L 505.336472 280.815172 
L 508.361484 282.587704 
L 511.386496 284.267158 
L 514.411507 285.858424 
L 517.436519 287.366132 
L 520.461531 288.794669 
L 523.486543 290.148193 
L 526.511555 291.430643 
L 529.536567 292.64575 
L 532.561579 293.797052 
L 535.58659 294.887899 
L 538.611602 295.921464 
L 541.636614 296.900757 
L 544.661626 297.828627 
L 547.686638 298.707773 
L 550.71165 299.540755 
L 553.736662 300.329997 
L 556.761673 301.077796 
L 559.786685 301.786327 
L 562.811697 302.457653 
L 565.836709 303.093727 
L 568.861721 303.696401 
L 571.886733 304.267428 
L 574.911745 304.80847 
L 577.936756 305.321102 
L 580.961768 305.806815 
L 583.98678 306.267023 
L 587.011792 306.703066 
L 590.036804 307.116211 
L 593.061816 307.507663 
L 596.086828 307.878559 
L 599.111839 308.229978 
L 602.136851 308.562945 
L 605.161863 308.878428 
L 608.186875 309.177344 
L 611.211887 309.460564 
L 614.236899 309.728912 
L 617.26191 309.983169 
L 620.286922 310.224075 
L 623.311934 310.452331 
L 626.336946 310.668601 
L 629.361958 310.873514 
L 632.38697 311.067668 
L 635.411982 311.251626 
L 638.436993 311.425925 
L 641.462005 311.591071 
L 644.487017 311.747545 
L 647.512029 311.895803 
L 650.537041 312.036275 
L 653.562053 312.169372 
L 656.587065 312.295479 
L 659.612076 312.414964 
L 662.637088 312.528176 
L 665.6621 312.635442 
L 668.687112 312.737076 
L 671.712124 312.833373 
L 674.737136 312.924613 
L 677.762148 313.011062 
L 680.787159 313.092972 
L 683.812171 313.170581 
L 686.837183 313.244114 
L 689.862195 313.313786 
L 692.887207 313.3798 
L 695.912219 313.442347 
L 698.937231 313.50161 
L 701.962242 313.557761 
L 701.962242 313.760396 
L 701.962242 313.760396 
L 698.937231 313.715475 
L 695.912219 313.668065 
L 692.887207 313.618027 
L 689.862195 313.565216 
L 686.837183 313.509479 
L 683.812171 313.450652 
L 680.787159 313.388565 
L 677.762148 313.323037 
L 674.737136 313.253878 
L 671.712124 313.180886 
L 668.687112 313.103848 
L 665.6621 313.022541 
L 662.637088 312.936728 
L 659.612076 312.846159 
L 656.587065 312.750571 
L 653.562053 312.649685 
L 650.537041 312.543208 
L 647.512029 312.43083 
L 644.487017 312.312224 
L 641.462005 312.187044 
L 638.436993 312.054927 
L 635.411982 311.915488 
L 632.38697 311.768322 
L 629.361958 311.612999 
L 626.336946 311.449068 
L 623.311934 311.276052 
L 620.286922 311.093448 
L 617.26191 310.900723 
L 614.236899 310.697317 
L 611.211887 310.482639 
L 608.186875 310.256063 
L 605.161863 310.01693 
L 602.136851 309.764544 
L 599.111839 309.49817 
L 596.086828 309.217034 
L 593.061816 308.920318 
L 590.036804 308.607157 
L 587.011792 308.27664 
L 583.98678 307.927806 
L 580.961768 307.55964 
L 577.936756 307.171069 
L 574.911745 306.760964 
L 571.886733 306.32813 
L 568.861721 305.871308 
L 565.836709 305.389169 
L 562.811697 304.88031 
L 559.786685 304.343249 
L 556.761673 303.776424 
L 553.736662 303.178185 
L 550.71165 302.546792 
L 547.686638 301.880406 
L 544.661626 301.177089 
L 541.636614 300.434793 
L 538.611602 299.651359 
L 535.58659 298.824507 
L 532.561579 297.951829 
L 529.536567 297.030788 
L 526.511555 296.058702 
L 523.486543 295.032742 
L 520.461531 293.949922 
L 517.436519 292.807093 
L 514.411507 291.600927 
L 511.386496 290.327914 
L 508.361484 288.98435 
L 505.336472 287.566325 
L 502.31146 286.069713 
L 499.286448 284.490157 
L 496.261436 282.823061 
L 493.236424 281.063573 
L 490.211413 279.206574 
L 487.186401 277.246658 
L 484.161389 275.178123 
L 481.136377 272.994948 
L 478.111365 270.69078 
L 475.086353 268.258914 
L 472.061341 265.692273 
L 469.03633 262.983386 
L 466.011318 260.124371 
L 462.986306 257.106908 
L 459.961294 253.922215 
L 456.936282 250.561024 
L 453.91127 247.013554 
L 450.886258 243.269481 
L 447.861247 239.317909 
L 444.836235 235.147338 
L 441.811223 230.745632 
L 438.786211 226.09998 
L 435.761199 221.196863 
L 432.736187 216.022013 
L 429.711175 210.560369 
L 426.686164 204.796037 
L 423.661152 198.712242 
L 420.63614 192.29128 
L 417.611128 185.514464 
L 414.586116 178.362072 
L 411.561104 170.81329 
L 408.536092 162.84615 
L 405.511081 154.437466 
L 402.486069 145.562767 
z
" style="fill:#1f77b4;fill-opacity:0.2;"/>
   </g>
   <g id="PolyCollection_4">
    <path clip-path="url(#pc0c3e6f99e)" d="M 402.486069 61.058682 
L 402.486069 103.310724 
L 405.511081 114.404098 
L 408.536092 124.914953 
L 411.561104 134.873878 
L 414.586116 144.309855 
L 417.611128 153.250345 
L 420.63614 161.721365 
L 423.661152 169.747569 
L 426.686164 177.352312 
L 429.711175 184.557727 
L 432.736187 191.384782 
L 435.761199 197.853345 
L 438.786211 203.982241 
L 441.811223 209.789305 
L 444.836235 215.291438 
L 447.861247 220.504652 
L 450.886258 225.444117 
L 453.91127 230.124208 
L 456.936282 234.558546 
L 459.961294 238.760034 
L 462.986306 242.7409 
L 466.011318 246.512729 
L 469.03633 250.086498 
L 472.061341 253.472606 
L 475.086353 256.680909 
L 478.111365 259.720741 
L 481.136377 262.600951 
L 484.161389 265.329919 
L 487.186401 267.915588 
L 490.211413 270.365483 
L 493.236424 272.686732 
L 496.261436 274.886091 
L 499.286448 276.969961 
L 502.31146 278.944406 
L 505.336472 280.815172 
L 508.361484 282.587704 
L 511.386496 284.267158 
L 514.411507 285.858424 
L 517.436519 287.366132 
L 520.461531 288.794669 
L 523.486543 290.148193 
L 526.511555 291.430643 
L 529.536567 292.64575 
L 532.561579 293.797052 
L 535.58659 294.887899 
L 538.611602 295.921464 
L 541.636614 296.900757 
L 544.661626 297.828627 
L 547.686638 298.707773 
L 550.71165 299.540755 
L 553.736662 300.329997 
L 556.761673 301.077796 
L 559.786685 301.786327 
L 562.811697 302.457653 
L 565.836709 303.093727 
L 568.861721 303.696401 
L 571.886733 304.267428 
L 574.911745 304.80847 
L 577.936756 305.321102 
L 580.961768 305.806815 
L 583.98678 306.267023 
L 587.011792 306.703066 
L 590.036804 307.116211 
L 593.061816 307.507663 
L 596.086828 307.878559 
L 599.111839 308.229978 
L 602.136851 308.562945 
L 605.161863 308.878428 
L 608.186875 309.177344 
L 611.211887 309.460564 
L 614.236899 309.728912 
L 617.26191 309.983169 
L 620.286922 310.224075 
L 623.311934 310.452331 
L 626.336946 310.668601 
L 629.361958 310.873514 
L 632.38697 311.067668 
L 635.411982 311.251626 
L 638.436993 311.425925 
L 641.462005 311.591071 
L 644.487017 311.747545 
L 647.512029 311.895803 
L 650.537041 312.036275 
L 653.562053 312.169372 
L 656.587065 312.295479 
L 659.612076 312.414964 
L 662.637088 312.528176 
L 665.6621 312.635442 
L 668.687112 312.737076 
L 671.712124 312.833373 
L 674.737136 312.924613 
L 677.762148 313.011062 
L 680.787159 313.092972 
L 683.812171 313.170581 
L 686.837183 313.244114 
L 689.862195 313.313786 
L 692.887207 313.3798 
L 695.912219 313.442347 
L 698.937231 313.50161 
L 701.962242 313.557761 
L 701.962242 313.355125 
L 701.962242 313.355125 
L 698.937231 313.287744 
L 695.912219 313.216629 
L 692.887207 313.141572 
L 689.862195 313.062356 
L 686.837183 312.978749 
L 683.812171 312.890509 
L 680.787159 312.797379 
L 677.762148 312.699087 
L 674.737136 312.595348 
L 671.712124 312.48586 
L 668.687112 312.370303 
L 665.6621 312.248343 
L 662.637088 312.119623 
L 659.612076 311.98377 
L 656.587065 311.840387 
L 653.562053 311.689059 
L 650.537041 311.529343 
L 647.512029 311.360776 
L 644.487017 311.182867 
L 641.462005 310.995098 
L 638.436993 310.796922 
L 635.411982 310.587764 
L 632.38697 310.367014 
L 629.361958 310.13403 
L 626.336946 309.888134 
L 623.311934 309.62861 
L 620.286922 309.354703 
L 617.26191 309.065616 
L 614.236899 308.760507 
L 611.211887 308.43849 
L 608.186875 308.098625 
L 605.161863 307.739926 
L 602.136851 307.361347 
L 599.111839 306.961787 
L 596.086828 306.540083 
L 593.061816 306.095008 
L 590.036804 305.625266 
L 587.011792 305.129491 
L 583.98678 304.606241 
L 580.961768 304.053991 
L 577.936756 303.471135 
L 574.911745 302.855977 
L 571.886733 302.206726 
L 568.861721 301.521494 
L 565.836709 300.798285 
L 562.811697 300.034996 
L 559.786685 299.229405 
L 556.761673 298.379168 
L 553.736662 297.481809 
L 550.71165 296.534719 
L 547.686638 295.53514 
L 544.661626 294.480164 
L 541.636614 293.366721 
L 538.611602 292.19157 
L 535.58659 290.951291 
L 532.561579 289.642275 
L 529.536567 288.260713 
L 526.511555 286.802584 
L 523.486543 285.263644 
L 520.461531 283.639415 
L 517.436519 281.92517 
L 514.411507 280.115921 
L 511.386496 278.206402 
L 508.361484 276.191057 
L 505.336472 274.064019 
L 502.31146 271.8191 
L 499.286448 269.449766 
L 496.261436 266.949122 
L 493.236424 264.309891 
L 490.211413 261.524392 
L 487.186401 258.584519 
L 484.161389 255.481716 
L 481.136377 252.206954 
L 478.111365 248.750702 
L 475.086353 245.102903 
L 472.061341 241.25294 
L 469.03633 237.18961 
L 466.011318 232.901088 
L 462.986306 228.374893 
L 459.961294 223.597853 
L 456.936282 218.556067 
L 453.91127 213.234862 
L 450.886258 207.618752 
L 447.861247 201.691394 
L 444.836235 195.435538 
L 441.811223 188.832979 
L 438.786211 181.864501 
L 435.761199 174.509826 
L 432.736187 166.747551 
L 429.711175 158.555085 
L 426.686164 149.908587 
L 423.661152 140.782895 
L 420.63614 131.151451 
L 417.611128 120.986227 
L 414.586116 110.257639 
L 411.561104 98.934466 
L 408.536092 86.983756 
L 405.511081 74.37073 
L 402.486069 61.058682 
z
" style="fill:#ff7f0e;fill-opacity:0.2;"/>
   </g>
   <g id="matplotlib.axis_3">
    <g id="xtick_8">
     <g id="line2d_23">
      <g>
       <use style="stroke:#000000;stroke-width:0.8;" x="402.486069" xlink:href="#mb27462cd30" y="326.880915"/>
      </g>
     </g>
     <g id="text_19">
      <!-- 0 -->
      <g transform="translate(399.304819 341.479352)scale(0.1 -0.1)">
       <use xlink:href="#DejaVuSans-30"/>
      </g>
     </g>
    </g>
    <g id="xtick_9">
     <g id="line2d_24">
      <g>
       <use style="stroke:#000000;stroke-width:0.8;" x="452.398764" xlink:href="#mb27462cd30" y="326.880915"/>
      </g>
     </g>
     <g id="text_20">
      <!-- 20000 -->
      <g transform="translate(436.492514 341.479352)scale(0.1 -0.1)">
       <use xlink:href="#DejaVuSans-32"/>
       <use x="63.623047" xlink:href="#DejaVuSans-30"/>
       <use x="127.246094" xlink:href="#DejaVuSans-30"/>
       <use x="190.869141" xlink:href="#DejaVuSans-30"/>
       <use x="254.492188" xlink:href="#DejaVuSans-30"/>
      </g>
     </g>
    </g>
    <g id="xtick_10">
     <g id="line2d_25">
      <g>
       <use style="stroke:#000000;stroke-width:0.8;" x="502.31146" xlink:href="#mb27462cd30" y="326.880915"/>
      </g>
     </g>
     <g id="text_21">
      <!-- 40000 -->
      <g transform="translate(486.40521 341.479352)scale(0.1 -0.1)">
       <use xlink:href="#DejaVuSans-34"/>
       <use x="63.623047" xlink:href="#DejaVuSans-30"/>
       <use x="127.246094" xlink:href="#DejaVuSans-30"/>
       <use x="190.869141" xlink:href="#DejaVuSans-30"/>
       <use x="254.492188" xlink:href="#DejaVuSans-30"/>
      </g>
     </g>
    </g>
    <g id="xtick_11">
     <g id="line2d_26">
      <g>
       <use style="stroke:#000000;stroke-width:0.8;" x="552.224156" xlink:href="#mb27462cd30" y="326.880915"/>
      </g>
     </g>
     <g id="text_22">
      <!-- 60000 -->
      <g transform="translate(536.317906 341.479352)scale(0.1 -0.1)">
       <use xlink:href="#DejaVuSans-36"/>
       <use x="63.623047" xlink:href="#DejaVuSans-30"/>
       <use x="127.246094" xlink:href="#DejaVuSans-30"/>
       <use x="190.869141" xlink:href="#DejaVuSans-30"/>
       <use x="254.492188" xlink:href="#DejaVuSans-30"/>
      </g>
     </g>
    </g>
    <g id="xtick_12">
     <g id="line2d_27">
      <g>
       <use style="stroke:#000000;stroke-width:0.8;" x="602.136851" xlink:href="#mb27462cd30" y="326.880915"/>
      </g>
     </g>
     <g id="text_23">
      <!-- 80000 -->
      <g transform="translate(586.230601 341.479352)scale(0.1 -0.1)">
       <use xlink:href="#DejaVuSans-38"/>
       <use x="63.623047" xlink:href="#DejaVuSans-30"/>
       <use x="127.246094" xlink:href="#DejaVuSans-30"/>
       <use x="190.869141" xlink:href="#DejaVuSans-30"/>
       <use x="254.492188" xlink:href="#DejaVuSans-30"/>
      </g>
     </g>
    </g>
    <g id="xtick_13">
     <g id="line2d_28">
      <g>
       <use style="stroke:#000000;stroke-width:0.8;" x="652.049547" xlink:href="#mb27462cd30" y="326.880915"/>
      </g>
     </g>
     <g id="text_24">
      <!-- 100000 -->
      <g transform="translate(632.962047 341.479352)scale(0.1 -0.1)">
       <use xlink:href="#DejaVuSans-31"/>
       <use x="63.623047" xlink:href="#DejaVuSans-30"/>
       <use x="127.246094" xlink:href="#DejaVuSans-30"/>
       <use x="190.869141" xlink:href="#DejaVuSans-30"/>
       <use x="254.492188" xlink:href="#DejaVuSans-30"/>
       <use x="318.115234" xlink:href="#DejaVuSans-30"/>
      </g>
     </g>
    </g>
    <g id="xtick_14">
     <g id="line2d_29">
      <g>
       <use style="stroke:#000000;stroke-width:0.8;" x="701.962242" xlink:href="#mb27462cd30" y="326.880915"/>
      </g>
     </g>
     <g id="text_25">
      <!-- 120000 -->
      <g transform="translate(682.874742 341.479352)scale(0.1 -0.1)">
       <use xlink:href="#DejaVuSans-31"/>
       <use x="63.623047" xlink:href="#DejaVuSans-32"/>
       <use x="127.246094" xlink:href="#DejaVuSans-30"/>
       <use x="190.869141" xlink:href="#DejaVuSans-30"/>
       <use x="254.492188" xlink:href="#DejaVuSans-30"/>
       <use x="318.115234" xlink:href="#DejaVuSans-30"/>
      </g>
     </g>
    </g>
   </g>
   <g id="matplotlib.axis_4">
    <g id="ytick_7">
     <g id="line2d_30">
      <g>
       <use style="stroke:#000000;stroke-width:0.8;" x="387.51226" xlink:href="#m3531090b2a" y="314.570937"/>
      </g>
     </g>
    </g>
    <g id="ytick_8">
     <g id="line2d_31">
      <g>
       <use style="stroke:#000000;stroke-width:0.8;" x="387.51226" xlink:href="#m3531090b2a" y="264.270887"/>
      </g>
     </g>
    </g>
    <g id="ytick_9">
     <g id="line2d_32">
      <g>
       <use style="stroke:#000000;stroke-width:0.8;" x="387.51226" xlink:href="#m3531090b2a" y="213.970836"/>
      </g>
     </g>
    </g>
    <g id="ytick_10">
     <g id="line2d_33">
      <g>
       <use style="stroke:#000000;stroke-width:0.8;" x="387.51226" xlink:href="#m3531090b2a" y="163.670785"/>
      </g>
     </g>
    </g>
    <g id="ytick_11">
     <g id="line2d_34">
      <g>
       <use style="stroke:#000000;stroke-width:0.8;" x="387.51226" xlink:href="#m3531090b2a" y="113.370734"/>
      </g>
     </g>
    </g>
    <g id="ytick_12">
     <g id="line2d_35">
      <g>
       <use style="stroke:#000000;stroke-width:0.8;" x="387.51226" xlink:href="#m3531090b2a" y="63.070684"/>
      </g>
     </g>
    </g>
   </g>
   <g id="line2d_36">
    <path clip-path="url(#pc0c3e6f99e)" d="M 402.486069 145.562767 
L 405.511081 154.437466 
L 408.536092 162.84615 
L 411.561104 170.81329 
L 414.586116 178.362072 
L 417.611128 185.514464 
L 420.63614 192.29128 
L 423.661152 198.712242 
L 426.686164 204.796037 
L 429.711175 210.560369 
L 432.736187 216.022013 
L 435.761199 221.196863 
L 438.786211 226.09998 
L 441.811223 230.745632 
L 444.836235 235.147338 
L 447.861247 239.317909 
L 450.886258 243.269481 
L 453.91127 247.013554 
L 456.936282 250.561024 
L 459.961294 253.922215 
L 462.986306 257.106908 
L 466.011318 260.124371 
L 469.03633 262.983386 
L 472.061341 265.692273 
L 475.086353 268.258914 
L 478.111365 270.69078 
L 481.136377 272.994948 
L 484.161389 275.178123 
L 487.186401 277.246658 
L 490.211413 279.206574 
L 493.236424 281.063573 
L 496.261436 282.823061 
L 499.286448 284.490157 
L 502.31146 286.069713 
L 505.336472 287.566325 
L 508.361484 288.98435 
L 511.386496 290.327914 
L 514.411507 291.600927 
L 517.436519 292.807093 
L 520.461531 293.949922 
L 523.486543 295.032742 
L 526.511555 296.058702 
L 529.536567 297.030788 
L 532.561579 297.951829 
L 535.58659 298.824507 
L 538.611602 299.651359 
L 541.636614 300.434793 
L 544.661626 301.177089 
L 547.686638 301.880406 
L 550.71165 302.546792 
L 553.736662 303.178185 
L 556.761673 303.776424 
L 559.786685 304.343249 
L 562.811697 304.88031 
L 565.836709 305.389169 
L 568.861721 305.871308 
L 571.886733 306.32813 
L 574.911745 306.760964 
L 577.936756 307.171069 
L 580.961768 307.55964 
L 583.98678 307.927806 
L 587.011792 308.27664 
L 590.036804 308.607157 
L 593.061816 308.920318 
L 596.086828 309.217034 
L 599.111839 309.49817 
L 602.136851 309.764544 
L 605.161863 310.01693 
L 608.186875 310.256063 
L 611.211887 310.482639 
L 614.236899 310.697317 
L 617.26191 310.900723 
L 620.286922 311.093448 
L 623.311934 311.276052 
L 626.336946 311.449068 
L 629.361958 311.612999 
L 632.38697 311.768322 
L 635.411982 311.915488 
L 638.436993 312.054927 
L 641.462005 312.187044 
L 644.487017 312.312224 
L 647.512029 312.43083 
L 650.537041 312.543208 
L 653.562053 312.649685 
L 656.587065 312.750571 
L 659.612076 312.846159 
L 662.637088 312.936728 
L 665.6621 313.022541 
L 668.687112 313.103848 
L 671.712124 313.180886 
L 674.737136 313.253878 
L 677.762148 313.323037 
L 680.787159 313.388565 
L 683.812171 313.450652 
L 686.837183 313.509479 
L 689.862195 313.565216 
L 692.887207 313.618027 
L 695.912219 313.668065 
L 698.937231 313.715475 
L 701.962242 313.760396 
" style="fill:none;stroke:#1f77b4;stroke-linecap:square;stroke-width:1.5;"/>
   </g>
   <g id="line2d_37">
    <path clip-path="url(#pc0c3e6f99e)" d="M 402.486069 61.058682 
L 405.511081 74.37073 
L 408.536092 86.983756 
L 411.561104 98.934466 
L 414.586116 110.257639 
L 417.611128 120.986227 
L 420.63614 131.151451 
L 423.661152 140.782895 
L 426.686164 149.908587 
L 429.711175 158.555085 
L 432.736187 166.747551 
L 435.761199 174.509826 
L 438.786211 181.864501 
L 441.811223 188.832979 
L 444.836235 195.435538 
L 447.861247 201.691394 
L 450.886258 207.618752 
L 453.91127 213.234862 
L 456.936282 218.556067 
L 459.961294 223.597853 
L 462.986306 228.374893 
L 466.011318 232.901088 
L 469.03633 237.18961 
L 472.061341 241.25294 
L 475.086353 245.102903 
L 478.111365 248.750702 
L 481.136377 252.206954 
L 484.161389 255.481716 
L 487.186401 258.584519 
L 490.211413 261.524392 
L 493.236424 264.309891 
L 496.261436 266.949122 
L 499.286448 269.449766 
L 502.31146 271.8191 
L 505.336472 274.064019 
L 508.361484 276.191057 
L 511.386496 278.206402 
L 514.411507 280.115921 
L 517.436519 281.92517 
L 520.461531 283.639415 
L 523.486543 285.263644 
L 526.511555 286.802584 
L 529.536567 288.260713 
L 532.561579 289.642275 
L 535.58659 290.951291 
L 538.611602 292.19157 
L 541.636614 293.366721 
L 544.661626 294.480164 
L 547.686638 295.53514 
L 550.71165 296.534719 
L 553.736662 297.481809 
L 556.761673 298.379168 
L 559.786685 299.229405 
L 562.811697 300.034996 
L 565.836709 300.798285 
L 568.861721 301.521494 
L 571.886733 302.206726 
L 574.911745 302.855977 
L 577.936756 303.471135 
L 580.961768 304.053991 
L 583.98678 304.606241 
L 587.011792 305.129491 
L 590.036804 305.625266 
L 593.061816 306.095008 
L 596.086828 306.540083 
L 599.111839 306.961787 
L 602.136851 307.361347 
L 605.161863 307.739926 
L 608.186875 308.098625 
L 611.211887 308.43849 
L 614.236899 308.760507 
L 617.26191 309.065616 
L 620.286922 309.354703 
L 623.311934 309.62861 
L 626.336946 309.888134 
L 629.361958 310.13403 
L 632.38697 310.367014 
L 635.411982 310.587764 
L 638.436993 310.796922 
L 641.462005 310.995098 
L 644.487017 311.182867 
L 647.512029 311.360776 
L 650.537041 311.529343 
L 653.562053 311.689059 
L 656.587065 311.840387 
L 659.612076 311.98377 
L 662.637088 312.119623 
L 665.6621 312.248343 
L 668.687112 312.370303 
L 671.712124 312.48586 
L 674.737136 312.595348 
L 677.762148 312.699087 
L 680.787159 312.797379 
L 683.812171 312.890509 
L 686.837183 312.978749 
L 689.862195 313.062356 
L 692.887207 313.141572 
L 695.912219 313.216629 
L 698.937231 313.287744 
L 701.962242 313.355125 
" style="fill:none;stroke:#ff7f0e;stroke-linecap:square;stroke-width:1.5;"/>
   </g>
   <g id="patch_9">
    <path d="M 387.51226 326.880915 
L 387.51226 48.40048 
" style="fill:none;stroke:#000000;stroke-linecap:square;stroke-linejoin:miter;stroke-width:0.8;"/>
   </g>
   <g id="patch_10">
    <path d="M 716.936051 326.880915 
L 716.936051 48.40048 
" style="fill:none;stroke:#000000;stroke-linecap:square;stroke-linejoin:miter;stroke-width:0.8;"/>
   </g>
   <g id="patch_11">
    <path d="M 387.51226 326.880915 
L 716.936051 326.880915 
" style="fill:none;stroke:#000000;stroke-linecap:square;stroke-linejoin:miter;stroke-width:0.8;"/>
   </g>
   <g id="patch_12">
    <path d="M 387.51226 48.40048 
L 716.936051 48.40048 
" style="fill:none;stroke:#000000;stroke-linecap:square;stroke-linejoin:miter;stroke-width:0.8;"/>
   </g>
   <g id="text_26">
    <!-- Bup effective capacity per provider base, $\widehatK_0$ -->
    <g transform="translate(419.144156 42.40048)scale(0.12 -0.12)">
     <defs>
      <path d="M 3116 1747 
Q 3116 2381 2855 2742 
Q 2594 3103 2138 3103 
Q 1681 3103 1420 2742 
Q 1159 2381 1159 1747 
Q 1159 1113 1420 752 
Q 1681 391 2138 391 
Q 2594 391 2855 752 
Q 3116 1113 3116 1747 
z
M 1159 2969 
Q 1341 3281 1617 3432 
Q 1894 3584 2278 3584 
Q 2916 3584 3314 3078 
Q 3713 2572 3713 1747 
Q 3713 922 3314 415 
Q 2916 -91 2278 -91 
Q 1894 -91 1617 61 
Q 1341 213 1159 525 
L 1159 0 
L 581 0 
L 581 4863 
L 1159 4863 
L 1159 2969 
z
" id="DejaVuSans-62" transform="scale(0.015625)"/>
     </defs>
     <use transform="translate(0 0.46875)" xlink:href="#DejaVuSans-42"/>
     <use transform="translate(68.603516 0.46875)" xlink:href="#DejaVuSans-75"/>
     <use transform="translate(131.982422 0.46875)" xlink:href="#DejaVuSans-70"/>
     <use transform="translate(195.458984 0.46875)" xlink:href="#DejaVuSans-20"/>
     <use transform="translate(227.246094 0.46875)" xlink:href="#DejaVuSans-65"/>
     <use transform="translate(288.769531 0.46875)" xlink:href="#DejaVuSans-66"/>
     <use transform="translate(323.974609 0.46875)" xlink:href="#DejaVuSans-66"/>
     <use transform="translate(359.179688 0.46875)" xlink:href="#DejaVuSans-65"/>
     <use transform="translate(420.703125 0.46875)" xlink:href="#DejaVuSans-63"/>
     <use transform="translate(475.683594 0.46875)" xlink:href="#DejaVuSans-74"/>
     <use transform="translate(514.892578 0.46875)" xlink:href="#DejaVuSans-69"/>
     <use transform="translate(542.675781 0.46875)" xlink:href="#DejaVuSans-76"/>
     <use transform="translate(601.855469 0.46875)" xlink:href="#DejaVuSans-65"/>
     <use transform="translate(663.378906 0.46875)" xlink:href="#DejaVuSans-20"/>
     <use transform="translate(695.166016 0.46875)" xlink:href="#DejaVuSans-63"/>
     <use transform="translate(750.146484 0.46875)" xlink:href="#DejaVuSans-61"/>
     <use transform="translate(811.425781 0.46875)" xlink:href="#DejaVuSans-70"/>
     <use transform="translate(874.902344 0.46875)" xlink:href="#DejaVuSans-61"/>
     <use transform="translate(936.181641 0.46875)" xlink:href="#DejaVuSans-63"/>
     <use transform="translate(991.162109 0.46875)" xlink:href="#DejaVuSans-69"/>
     <use transform="translate(1018.945312 0.46875)" xlink:href="#DejaVuSans-74"/>
     <use transform="translate(1058.154297 0.46875)" xlink:href="#DejaVuSans-79"/>
     <use transform="translate(1117.333984 0.46875)" xlink:href="#DejaVuSans-20"/>
     <use transform="translate(1149.121094 0.46875)" xlink:href="#DejaVuSans-70"/>
     <use transform="translate(1212.597656 0.46875)" xlink:href="#DejaVuSans-65"/>
     <use transform="translate(1274.121094 0.46875)" xlink:href="#DejaVuSans-72"/>
     <use transform="translate(1315.234375 0.46875)" xlink:href="#DejaVuSans-20"/>
     <use transform="translate(1347.021484 0.46875)" xlink:href="#DejaVuSans-70"/>
     <use transform="translate(1410.498047 0.46875)" xlink:href="#DejaVuSans-72"/>
     <use transform="translate(1451.611328 0.46875)" xlink:href="#DejaVuSans-6f"/>
     <use transform="translate(1512.792969 0.46875)" xlink:href="#DejaVuSans-76"/>
     <use transform="translate(1571.972656 0.46875)" xlink:href="#DejaVuSans-69"/>
     <use transform="translate(1599.755859 0.46875)" xlink:href="#DejaVuSans-64"/>
     <use transform="translate(1663.232422 0.46875)" xlink:href="#DejaVuSans-65"/>
     <use transform="translate(1724.755859 0.46875)" xlink:href="#DejaVuSans-72"/>
     <use transform="translate(1765.869141 0.46875)" xlink:href="#DejaVuSans-20"/>
     <use transform="translate(1797.65625 0.46875)" xlink:href="#DejaVuSans-62"/>
     <use transform="translate(1861.132812 0.46875)" xlink:href="#DejaVuSans-61"/>
     <use transform="translate(1922.412109 0.46875)" xlink:href="#DejaVuSans-73"/>
     <use transform="translate(1974.511719 0.46875)" xlink:href="#DejaVuSans-65"/>
     <use transform="translate(2036.035156 0.46875)" xlink:href="#DejaVuSans-2c"/>
     <use transform="translate(2067.822266 0.46875)" xlink:href="#DejaVuSans-20"/>
     <use transform="translate(2189.648438 45.828125)scale(0.710182)" xlink:href="#STIXSizeTwoSym-Regular-302"/>
     <use transform="translate(2099.609375 0.46875)" xlink:href="#DejaVuSans-Oblique-4b"/>
     <use transform="translate(2170.097656 -15.9375)scale(0.7)" xlink:href="#DejaVuSans-30"/>
    </g>
   </g>
   <g id="legend_2">
    <g id="patch_13">
     <path d="M 653.584489 100.434855 
L 709.936051 100.434855 
Q 711.936051 100.434855 711.936051 98.434855 
L 711.936051 55.40048 
Q 711.936051 53.40048 709.936051 53.40048 
L 653.584489 53.40048 
Q 651.584489 53.40048 651.584489 55.40048 
L 651.584489 98.434855 
Q 651.584489 100.434855 653.584489 100.434855 
z
" style="fill:#ffffff;opacity:0.8;stroke:#cccccc;stroke-linejoin:miter;"/>
    </g>
    <g id="line2d_38">
     <path d="M 655.584489 61.498917 
L 675.584489 61.498917 
" style="fill:none;stroke:#000000;stroke-linecap:square;stroke-width:3;"/>
    </g>
    <g id="line2d_39"/>
    <g id="text_27">
     <!-- Base -->
     <g transform="translate(683.584489 64.998917)scale(0.1 -0.1)">
      <use xlink:href="#DejaVuSans-42"/>
      <use x="68.603516" xlink:href="#DejaVuSans-61"/>
      <use x="129.882812" xlink:href="#DejaVuSans-73"/>
      <use x="181.982422" xlink:href="#DejaVuSans-65"/>
     </g>
    </g>
    <g id="line2d_40">
     <path d="M 655.584489 76.177042 
L 675.584489 76.177042 
" style="fill:none;stroke:#1f77b4;stroke-linecap:square;stroke-width:1.5;"/>
    </g>
    <g id="line2d_41"/>
    <g id="text_28">
     <!-- Low -->
     <g transform="translate(683.584489 79.677042)scale(0.1 -0.1)">
      <use xlink:href="#DejaVuSans-4c"/>
      <use x="53.962891" xlink:href="#DejaVuSans-6f"/>
      <use x="115.144531" xlink:href="#DejaVuSans-77"/>
     </g>
    </g>
    <g id="line2d_42">
     <path d="M 655.584489 90.855167 
L 675.584489 90.855167 
" style="fill:none;stroke:#ff7f0e;stroke-linecap:square;stroke-width:1.5;"/>
    </g>
    <g id="line2d_43"/>
    <g id="text_29">
     <!-- High -->
     <g transform="translate(683.584489 94.355167)scale(0.1 -0.1)">
      <use xlink:href="#DejaVuSans-48"/>
      <use x="75.195312" xlink:href="#DejaVuSans-69"/>
      <use x="102.978516" xlink:href="#DejaVuSans-67"/>
      <use x="166.455078" xlink:href="#DejaVuSans-68"/>
     </g>
    </g>
   </g>
   <g id="line2d_44">
    <path clip-path="url(#pc0c3e6f99e)" d="M 402.486069 103.310724 
L 405.511081 114.404098 
L 408.536092 124.914953 
L 411.561104 134.873878 
L 414.586116 144.309855 
L 417.611128 153.250345 
L 420.63614 161.721365 
L 423.661152 169.747569 
L 426.686164 177.352312 
L 429.711175 184.557727 
L 432.736187 191.384782 
L 435.761199 197.853345 
L 438.786211 203.982241 
L 441.811223 209.789305 
L 444.836235 215.291438 
L 447.861247 220.504652 
L 450.886258 225.444117 
L 453.91127 230.124208 
L 456.936282 234.558546 
L 459.961294 238.760034 
L 462.986306 242.7409 
L 466.011318 246.512729 
L 469.03633 250.086498 
L 472.061341 253.472606 
L 475.086353 256.680909 
L 478.111365 259.720741 
L 481.136377 262.600951 
L 484.161389 265.329919 
L 487.186401 267.915588 
L 490.211413 270.365483 
L 493.236424 272.686732 
L 496.261436 274.886091 
L 499.286448 276.969961 
L 502.31146 278.944406 
L 505.336472 280.815172 
L 508.361484 282.587704 
L 511.386496 284.267158 
L 514.411507 285.858424 
L 517.436519 287.366132 
L 520.461531 288.794669 
L 523.486543 290.148193 
L 526.511555 291.430643 
L 529.536567 292.64575 
L 532.561579 293.797052 
L 535.58659 294.887899 
L 538.611602 295.921464 
L 541.636614 296.900757 
L 544.661626 297.828627 
L 547.686638 298.707773 
L 550.71165 299.540755 
L 553.736662 300.329997 
L 556.761673 301.077796 
L 559.786685 301.786327 
L 562.811697 302.457653 
L 565.836709 303.093727 
L 568.861721 303.696401 
L 571.886733 304.267428 
L 574.911745 304.80847 
L 577.936756 305.321102 
L 580.961768 305.806815 
L 583.98678 306.267023 
L 587.011792 306.703066 
L 590.036804 307.116211 
L 593.061816 307.507663 
L 596.086828 307.878559 
L 599.111839 308.229978 
L 602.136851 308.562945 
L 605.161863 308.878428 
L 608.186875 309.177344 
L 611.211887 309.460564 
L 614.236899 309.728912 
L 617.26191 309.983169 
L 620.286922 310.224075 
L 623.311934 310.452331 
L 626.336946 310.668601 
L 629.361958 310.873514 
L 632.38697 311.067668 
L 635.411982 311.251626 
L 638.436993 311.425925 
L 641.462005 311.591071 
L 644.487017 311.747545 
L 647.512029 311.895803 
L 650.537041 312.036275 
L 653.562053 312.169372 
L 656.587065 312.295479 
L 659.612076 312.414964 
L 662.637088 312.528176 
L 665.6621 312.635442 
L 668.687112 312.737076 
L 671.712124 312.833373 
L 674.737136 312.924613 
L 677.762148 313.011062 
L 680.787159 313.092972 
L 683.812171 313.170581 
L 686.837183 313.244114 
L 689.862195 313.313786 
L 692.887207 313.3798 
L 695.912219 313.442347 
L 698.937231 313.50161 
L 701.962242 313.557761 
" style="fill:none;stroke:#000000;stroke-linecap:square;stroke-width:3;"/>
   </g>
  </g>
  <g id="text_30">
   <!-- Buprenorphine waivered providers, $B$ -->
   <g transform="translate(252.11976 358.67952)scale(0.12 -0.12)">
    <use transform="translate(0 0.015625)" xlink:href="#DejaVuSans-42"/>
    <use transform="translate(68.603516 0.015625)" xlink:href="#DejaVuSans-75"/>
    <use transform="translate(131.982422 0.015625)" xlink:href="#DejaVuSans-70"/>
    <use transform="translate(195.458984 0.015625)" xlink:href="#DejaVuSans-72"/>
    <use transform="translate(236.572266 0.015625)" xlink:href="#DejaVuSans-65"/>
    <use transform="translate(298.095703 0.015625)" xlink:href="#DejaVuSans-6e"/>
    <use transform="translate(361.474609 0.015625)" xlink:href="#DejaVuSans-6f"/>
    <use transform="translate(422.65625 0.015625)" xlink:href="#DejaVuSans-72"/>
    <use transform="translate(463.769531 0.015625)" xlink:href="#DejaVuSans-70"/>
    <use transform="translate(527.246094 0.015625)" xlink:href="#DejaVuSans-68"/>
    <use transform="translate(590.625 0.015625)" xlink:href="#DejaVuSans-69"/>
    <use transform="translate(618.408203 0.015625)" xlink:href="#DejaVuSans-6e"/>
    <use transform="translate(681.787109 0.015625)" xlink:href="#DejaVuSans-65"/>
    <use transform="translate(743.310547 0.015625)" xlink:href="#DejaVuSans-20"/>
    <use transform="translate(775.097656 0.015625)" xlink:href="#DejaVuSans-77"/>
    <use transform="translate(856.884766 0.015625)" xlink:href="#DejaVuSans-61"/>
    <use transform="translate(918.164062 0.015625)" xlink:href="#DejaVuSans-69"/>
    <use transform="translate(945.947266 0.015625)" xlink:href="#DejaVuSans-76"/>
    <use transform="translate(1005.126953 0.015625)" xlink:href="#DejaVuSans-65"/>
    <use transform="translate(1066.650391 0.015625)" xlink:href="#DejaVuSans-72"/>
    <use transform="translate(1107.763672 0.015625)" xlink:href="#DejaVuSans-65"/>
    <use transform="translate(1169.287109 0.015625)" xlink:href="#DejaVuSans-64"/>
    <use transform="translate(1232.763672 0.015625)" xlink:href="#DejaVuSans-20"/>
    <use transform="translate(1264.550781 0.015625)" xlink:href="#DejaVuSans-70"/>
    <use transform="translate(1328.027344 0.015625)" xlink:href="#DejaVuSans-72"/>
    <use transform="translate(1369.140625 0.015625)" xlink:href="#DejaVuSans-6f"/>
    <use transform="translate(1430.322266 0.015625)" xlink:href="#DejaVuSans-76"/>
    <use transform="translate(1489.501953 0.015625)" xlink:href="#DejaVuSans-69"/>
    <use transform="translate(1517.285156 0.015625)" xlink:href="#DejaVuSans-64"/>
    <use transform="translate(1580.761719 0.015625)" xlink:href="#DejaVuSans-65"/>
    <use transform="translate(1642.285156 0.015625)" xlink:href="#DejaVuSans-72"/>
    <use transform="translate(1683.398438 0.015625)" xlink:href="#DejaVuSans-73"/>
    <use transform="translate(1735.498047 0.015625)" xlink:href="#DejaVuSans-2c"/>
    <use transform="translate(1767.285156 0.015625)" xlink:href="#DejaVuSans-20"/>
    <use transform="translate(1799.072266 0.015625)" xlink:href="#DejaVuSans-Oblique-42"/>
   </g>
  </g>
  <g id="text_31">
   <!-- Effect of parameters on marginal effective capacity per new Bup provider, $\widehatK$ -->
   <g transform="translate(96.02976 21.34)scale(0.14 -0.14)">
    <defs>
     <path d="M 628 4666 
L 3578 4666 
L 3578 4134 
L 1259 4134 
L 1259 2753 
L 3481 2753 
L 3481 2222 
L 1259 2222 
L 1259 531 
L 3634 531 
L 3634 0 
L 628 0 
L 628 4666 
z
" id="DejaVuSans-45" transform="scale(0.015625)"/>
     <path d="M 3328 2828 
Q 3544 3216 3844 3400 
Q 4144 3584 4550 3584 
Q 5097 3584 5394 3201 
Q 5691 2819 5691 2113 
L 5691 0 
L 5113 0 
L 5113 2094 
Q 5113 2597 4934 2840 
Q 4756 3084 4391 3084 
Q 3944 3084 3684 2787 
Q 3425 2491 3425 1978 
L 3425 0 
L 2847 0 
L 2847 2094 
Q 2847 2600 2669 2842 
Q 2491 3084 2119 3084 
Q 1678 3084 1418 2786 
Q 1159 2488 1159 1978 
L 1159 0 
L 581 0 
L 581 3500 
L 1159 3500 
L 1159 2956 
Q 1356 3278 1631 3431 
Q 1906 3584 2284 3584 
Q 2666 3584 2933 3390 
Q 3200 3197 3328 2828 
z
" id="DejaVuSans-6d" transform="scale(0.015625)"/>
    </defs>
    <use transform="translate(0 0.46875)" xlink:href="#DejaVuSans-45"/>
    <use transform="translate(63.183594 0.46875)" xlink:href="#DejaVuSans-66"/>
    <use transform="translate(98.388672 0.46875)" xlink:href="#DejaVuSans-66"/>
    <use transform="translate(133.59375 0.46875)" xlink:href="#DejaVuSans-65"/>
    <use transform="translate(195.117188 0.46875)" xlink:href="#DejaVuSans-63"/>
    <use transform="translate(250.097656 0.46875)" xlink:href="#DejaVuSans-74"/>
    <use transform="translate(289.306641 0.46875)" xlink:href="#DejaVuSans-20"/>
    <use transform="translate(321.09375 0.46875)" xlink:href="#DejaVuSans-6f"/>
    <use transform="translate(382.275391 0.46875)" xlink:href="#DejaVuSans-66"/>
    <use transform="translate(417.480469 0.46875)" xlink:href="#DejaVuSans-20"/>
    <use transform="translate(449.267578 0.46875)" xlink:href="#DejaVuSans-70"/>
    <use transform="translate(512.744141 0.46875)" xlink:href="#DejaVuSans-61"/>
    <use transform="translate(574.023438 0.46875)" xlink:href="#DejaVuSans-72"/>
    <use transform="translate(615.136719 0.46875)" xlink:href="#DejaVuSans-61"/>
    <use transform="translate(676.416016 0.46875)" xlink:href="#DejaVuSans-6d"/>
    <use transform="translate(773.828125 0.46875)" xlink:href="#DejaVuSans-65"/>
    <use transform="translate(835.351562 0.46875)" xlink:href="#DejaVuSans-74"/>
    <use transform="translate(874.560547 0.46875)" xlink:href="#DejaVuSans-65"/>
    <use transform="translate(936.083984 0.46875)" xlink:href="#DejaVuSans-72"/>
    <use transform="translate(977.197266 0.46875)" xlink:href="#DejaVuSans-73"/>
    <use transform="translate(1029.296875 0.46875)" xlink:href="#DejaVuSans-20"/>
    <use transform="translate(1061.083984 0.46875)" xlink:href="#DejaVuSans-6f"/>
    <use transform="translate(1122.265625 0.46875)" xlink:href="#DejaVuSans-6e"/>
    <use transform="translate(1185.644531 0.46875)" xlink:href="#DejaVuSans-20"/>
    <use transform="translate(1217.431641 0.46875)" xlink:href="#DejaVuSans-6d"/>
    <use transform="translate(1314.84375 0.46875)" xlink:href="#DejaVuSans-61"/>
    <use transform="translate(1376.123047 0.46875)" xlink:href="#DejaVuSans-72"/>
    <use transform="translate(1417.236328 0.46875)" xlink:href="#DejaVuSans-67"/>
    <use transform="translate(1480.712891 0.46875)" xlink:href="#DejaVuSans-69"/>
    <use transform="translate(1508.496094 0.46875)" xlink:href="#DejaVuSans-6e"/>
    <use transform="translate(1571.875 0.46875)" xlink:href="#DejaVuSans-61"/>
    <use transform="translate(1633.154297 0.46875)" xlink:href="#DejaVuSans-6c"/>
    <use transform="translate(1660.9375 0.46875)" xlink:href="#DejaVuSans-20"/>
    <use transform="translate(1692.724609 0.46875)" xlink:href="#DejaVuSans-65"/>
    <use transform="translate(1754.248047 0.46875)" xlink:href="#DejaVuSans-66"/>
    <use transform="translate(1789.453125 0.46875)" xlink:href="#DejaVuSans-66"/>
    <use transform="translate(1824.658203 0.46875)" xlink:href="#DejaVuSans-65"/>
    <use transform="translate(1886.181641 0.46875)" xlink:href="#DejaVuSans-63"/>
    <use transform="translate(1941.162109 0.46875)" xlink:href="#DejaVuSans-74"/>
    <use transform="translate(1980.371094 0.46875)" xlink:href="#DejaVuSans-69"/>
    <use transform="translate(2008.154297 0.46875)" xlink:href="#DejaVuSans-76"/>
    <use transform="translate(2067.333984 0.46875)" xlink:href="#DejaVuSans-65"/>
    <use transform="translate(2128.857422 0.46875)" xlink:href="#DejaVuSans-20"/>
    <use transform="translate(2160.644531 0.46875)" xlink:href="#DejaVuSans-63"/>
    <use transform="translate(2215.625 0.46875)" xlink:href="#DejaVuSans-61"/>
    <use transform="translate(2276.904297 0.46875)" xlink:href="#DejaVuSans-70"/>
    <use transform="translate(2340.380859 0.46875)" xlink:href="#DejaVuSans-61"/>
    <use transform="translate(2401.660156 0.46875)" xlink:href="#DejaVuSans-63"/>
    <use transform="translate(2456.640625 0.46875)" xlink:href="#DejaVuSans-69"/>
    <use transform="translate(2484.423828 0.46875)" xlink:href="#DejaVuSans-74"/>
    <use transform="translate(2523.632812 0.46875)" xlink:href="#DejaVuSans-79"/>
    <use transform="translate(2582.8125 0.46875)" xlink:href="#DejaVuSans-20"/>
    <use transform="translate(2614.599609 0.46875)" xlink:href="#DejaVuSans-70"/>
    <use transform="translate(2678.076172 0.46875)" xlink:href="#DejaVuSans-65"/>
    <use transform="translate(2739.599609 0.46875)" xlink:href="#DejaVuSans-72"/>
    <use transform="translate(2780.712891 0.46875)" xlink:href="#DejaVuSans-20"/>
    <use transform="translate(2812.5 0.46875)" xlink:href="#DejaVuSans-6e"/>
    <use transform="translate(2875.878906 0.46875)" xlink:href="#DejaVuSans-65"/>
    <use transform="translate(2937.402344 0.46875)" xlink:href="#DejaVuSans-77"/>
    <use transform="translate(3019.189453 0.46875)" xlink:href="#DejaVuSans-20"/>
    <use transform="translate(3050.976562 0.46875)" xlink:href="#DejaVuSans-42"/>
    <use transform="translate(3119.580078 0.46875)" xlink:href="#DejaVuSans-75"/>
    <use transform="translate(3182.958984 0.46875)" xlink:href="#DejaVuSans-70"/>
    <use transform="translate(3246.435547 0.46875)" xlink:href="#DejaVuSans-20"/>
    <use transform="translate(3278.222656 0.46875)" xlink:href="#DejaVuSans-70"/>
    <use transform="translate(3341.699219 0.46875)" xlink:href="#DejaVuSans-72"/>
    <use transform="translate(3382.8125 0.46875)" xlink:href="#DejaVuSans-6f"/>
    <use transform="translate(3443.994141 0.46875)" xlink:href="#DejaVuSans-76"/>
    <use transform="translate(3503.173828 0.46875)" xlink:href="#DejaVuSans-69"/>
    <use transform="translate(3530.957031 0.46875)" xlink:href="#DejaVuSans-64"/>
    <use transform="translate(3594.433594 0.46875)" xlink:href="#DejaVuSans-65"/>
    <use transform="translate(3655.957031 0.46875)" xlink:href="#DejaVuSans-72"/>
    <use transform="translate(3697.070312 0.46875)" xlink:href="#DejaVuSans-2c"/>
    <use transform="translate(3728.857422 0.46875)" xlink:href="#DejaVuSans-20"/>
    <use transform="translate(3850.683594 45.828125)scale(0.710182)" xlink:href="#STIXSizeTwoSym-Regular-302"/>
    <use transform="translate(3760.644531 0.46875)" xlink:href="#DejaVuSans-Oblique-4b"/>
   </g>
  </g>
 </g>
 <defs>
  <clipPath id="p200e8405ef">
   <rect height="278.480435" width="329.423791" x="43.125" y="48.40048"/>
  </clipPath>
  <clipPath id="pc0c3e6f99e">
   <rect height="278.480435" width="329.423791" x="387.51226" y="48.40048"/>
  </clipPath>
 </defs>
</svg>
