<?xml version="1.0" encoding="utf-8" standalone="no"?>
<!DOCTYPE svg PUBLIC "-//W3C//DTD SVG 1.1//EN"
  "http://www.w3.org/Graphics/SVG/1.1/DTD/svg11.dtd">
<svg height="440.39952pt" version="1.1" viewBox="0 0 584.39952 440.39952" width="584.39952pt" xmlns="http://www.w3.org/2000/svg" xmlns:xlink="http://www.w3.org/1999/xlink">
 <metadata>
  <rdf:RDF xmlns:cc="http://creativecommons.org/ns#" xmlns:dc="http://purl.org/dc/elements/1.1/" xmlns:rdf="http://www.w3.org/1999/02/22-rdf-syntax-ns#">
   <cc:Work>
    <dc:type rdf:resource="http://purl.org/dc/dcmitype/StillImage"/>
    <dc:date>2022-02-15T13:14:09.686214</dc:date>
    <dc:format>image/svg+xml</dc:format>
    <dc:creator>
     <cc:Agent>
      <dc:title>Matplotlib v3.4.0rc1, https://matplotlib.org/</dc:title>
     </cc:Agent>
    </dc:creator>
   </cc:Work>
  </rdf:RDF>
 </metadata>
 <defs>
  <style type="text/css">*{stroke-linecap:butt;stroke-linejoin:round;}</style>
 </defs>
 <g id="figure_1">
  <g id="patch_1">
   <path d="M 0 440.39952 
L 584.39952 440.39952 
L 584.39952 0 
L 0 0 
z
" style="fill:none;"/>
  </g>
  <g id="axes_1">
   <g id="patch_2">
    <path d="M 40.625 402.821395 
L 577.19952 402.821395 
L 577.19952 26.78048 
L 40.625 26.78048 
z
" style="fill:#ffffff;"/>
   </g>
   <g id="PathCollection_1">
    <defs>
     <path d="M -3 3 
L 3 -3 
M -3 -3 
L 3 3 
" id="m56c3d70dc7" style="stroke:#ff0000;stroke-width:1.5;"/>
    </defs>
    <g clip-path="url(#p800600ea1d)">
     <use style="fill:#ff0000;stroke:#ff0000;stroke-width:1.5;" x="65.014751" xlink:href="#m56c3d70dc7" y="382.94367"/>
     <use style="fill:#ff0000;stroke:#ff0000;stroke-width:1.5;" x="65.014751" xlink:href="#m56c3d70dc7" y="382.94367"/>
     <use style="fill:#ff0000;stroke:#ff0000;stroke-width:1.5;" x="65.014751" xlink:href="#m56c3d70dc7" y="382.94367"/>
     <use style="fill:#ff0000;stroke:#ff0000;stroke-width:1.5;" x="65.014751" xlink:href="#m56c3d70dc7" y="382.94367"/>
     <use style="fill:#ff0000;stroke:#ff0000;stroke-width:1.5;" x="74.814863" xlink:href="#m56c3d70dc7" y="338.107056"/>
     <use style="fill:#ff0000;stroke:#ff0000;stroke-width:1.5;" x="81.871151" xlink:href="#m56c3d70dc7" y="313.542096"/>
     <use style="fill:#ff0000;stroke:#ff0000;stroke-width:1.5;" x="93.405567" xlink:href="#m56c3d70dc7" y="310.914863"/>
     <use style="fill:#ff0000;stroke:#ff0000;stroke-width:1.5;" x="109.306806" xlink:href="#m56c3d70dc7" y="307.763493"/>
     <use style="fill:#ff0000;stroke:#ff0000;stroke-width:1.5;" x="120.082787" xlink:href="#m56c3d70dc7" y="273.839334"/>
     <use style="fill:#ff0000;stroke:#ff0000;stroke-width:1.5;" x="139.384297" xlink:href="#m56c3d70dc7" y="258.730314"/>
     <use style="fill:#ff0000;stroke:#ff0000;stroke-width:1.5;" x="146.902376" xlink:href="#m56c3d70dc7" y="239.933561"/>
     <use style="fill:#ff0000;stroke:#ff0000;stroke-width:1.5;" x="158.322898" xlink:href="#m56c3d70dc7" y="232.845913"/>
     <use style="fill:#ff0000;stroke:#ff0000;stroke-width:1.5;" x="169.321492" xlink:href="#m56c3d70dc7" y="229.573062"/>
     <use style="fill:#ff0000;stroke:#ff0000;stroke-width:1.5;" x="179.934397" xlink:href="#m56c3d70dc7" y="228.755812"/>
     <use style="fill:#ff0000;stroke:#ff0000;stroke-width:1.5;" x="187.342723" xlink:href="#m56c3d70dc7" y="220.696898"/>
     <use style="fill:#ff0000;stroke:#ff0000;stroke-width:1.5;" x="198.261073" xlink:href="#m56c3d70dc7" y="210.076497"/>
     <use style="fill:#ff0000;stroke:#ff0000;stroke-width:1.5;" x="214.788732" xlink:href="#m56c3d70dc7" y="219.468616"/>
     <use style="fill:#ff0000;stroke:#ff0000;stroke-width:1.5;" x="231.31639" xlink:href="#m56c3d70dc7" y="219.575465"/>
     <use style="fill:#ff0000;stroke:#ff0000;stroke-width:1.5;" x="282.641436" xlink:href="#m56c3d70dc7" y="246.323321"/>
     <use style="fill:#ff0000;stroke:#ff0000;stroke-width:1.5;" x="362.313294" xlink:href="#m56c3d70dc7" y="270.475998"/>
     <use style="fill:#ff0000;stroke:#ff0000;stroke-width:1.5;" x="410.840157" xlink:href="#m56c3d70dc7" y="274.801937"/>
     <use style="fill:#ff0000;stroke:#ff0000;stroke-width:1.5;" x="552.809769" xlink:href="#m56c3d70dc7" y="299.674256"/>
    </g>
   </g>
   <g id="matplotlib.axis_1">
    <g id="xtick_1">
     <g id="line2d_1">
      <defs>
       <path d="M 0 0 
L 0 3.5 
" id="m02a6b109d5" style="stroke:#000000;stroke-width:0.8;"/>
      </defs>
      <g>
       <use style="stroke:#000000;stroke-width:0.8;" x="65.014751" xlink:href="#m02a6b109d5" y="402.821395"/>
      </g>
     </g>
     <g id="text_1">
      <!-- 0 -->
      <g transform="translate(61.833501 417.419832)scale(0.1 -0.1)">
       <defs>
        <path d="M 2034 4250 
Q 1547 4250 1301 3770 
Q 1056 3291 1056 2328 
Q 1056 1369 1301 889 
Q 1547 409 2034 409 
Q 2525 409 2770 889 
Q 3016 1369 3016 2328 
Q 3016 3291 2770 3770 
Q 2525 4250 2034 4250 
z
M 2034 4750 
Q 2819 4750 3233 4129 
Q 3647 3509 3647 2328 
Q 3647 1150 3233 529 
Q 2819 -91 2034 -91 
Q 1250 -91 836 529 
Q 422 1150 422 2328 
Q 422 3509 836 4129 
Q 1250 4750 2034 4750 
z
" id="DejaVuSans-30" transform="scale(0.015625)"/>
       </defs>
       <use xlink:href="#DejaVuSans-30"/>
      </g>
     </g>
    </g>
    <g id="xtick_2">
     <g id="line2d_2">
      <g>
       <use style="stroke:#000000;stroke-width:0.8;" x="168.555292" xlink:href="#m02a6b109d5" y="402.821395"/>
      </g>
     </g>
     <g id="text_2">
      <!-- 20000 -->
      <g transform="translate(152.649042 417.419832)scale(0.1 -0.1)">
       <defs>
        <path d="M 1228 531 
L 3431 531 
L 3431 0 
L 469 0 
L 469 531 
Q 828 903 1448 1529 
Q 2069 2156 2228 2338 
Q 2531 2678 2651 2914 
Q 2772 3150 2772 3378 
Q 2772 3750 2511 3984 
Q 2250 4219 1831 4219 
Q 1534 4219 1204 4116 
Q 875 4013 500 3803 
L 500 4441 
Q 881 4594 1212 4672 
Q 1544 4750 1819 4750 
Q 2544 4750 2975 4387 
Q 3406 4025 3406 3419 
Q 3406 3131 3298 2873 
Q 3191 2616 2906 2266 
Q 2828 2175 2409 1742 
Q 1991 1309 1228 531 
z
" id="DejaVuSans-32" transform="scale(0.015625)"/>
       </defs>
       <use xlink:href="#DejaVuSans-32"/>
       <use x="63.623047" xlink:href="#DejaVuSans-30"/>
       <use x="127.246094" xlink:href="#DejaVuSans-30"/>
       <use x="190.869141" xlink:href="#DejaVuSans-30"/>
       <use x="254.492188" xlink:href="#DejaVuSans-30"/>
      </g>
     </g>
    </g>
    <g id="xtick_3">
     <g id="line2d_3">
      <g>
       <use style="stroke:#000000;stroke-width:0.8;" x="272.095832" xlink:href="#m02a6b109d5" y="402.821395"/>
      </g>
     </g>
     <g id="text_3">
      <!-- 40000 -->
      <g transform="translate(256.189582 417.419832)scale(0.1 -0.1)">
       <defs>
        <path d="M 2419 4116 
L 825 1625 
L 2419 1625 
L 2419 4116 
z
M 2253 4666 
L 3047 4666 
L 3047 1625 
L 3713 1625 
L 3713 1100 
L 3047 1100 
L 3047 0 
L 2419 0 
L 2419 1100 
L 313 1100 
L 313 1709 
L 2253 4666 
z
" id="DejaVuSans-34" transform="scale(0.015625)"/>
       </defs>
       <use xlink:href="#DejaVuSans-34"/>
       <use x="63.623047" xlink:href="#DejaVuSans-30"/>
       <use x="127.246094" xlink:href="#DejaVuSans-30"/>
       <use x="190.869141" xlink:href="#DejaVuSans-30"/>
       <use x="254.492188" xlink:href="#DejaVuSans-30"/>
      </g>
     </g>
    </g>
    <g id="xtick_4">
     <g id="line2d_4">
      <g>
       <use style="stroke:#000000;stroke-width:0.8;" x="375.636373" xlink:href="#m02a6b109d5" y="402.821395"/>
      </g>
     </g>
     <g id="text_4">
      <!-- 60000 -->
      <g transform="translate(359.730123 417.419832)scale(0.1 -0.1)">
       <defs>
        <path d="M 2113 2584 
Q 1688 2584 1439 2293 
Q 1191 2003 1191 1497 
Q 1191 994 1439 701 
Q 1688 409 2113 409 
Q 2538 409 2786 701 
Q 3034 994 3034 1497 
Q 3034 2003 2786 2293 
Q 2538 2584 2113 2584 
z
M 3366 4563 
L 3366 3988 
Q 3128 4100 2886 4159 
Q 2644 4219 2406 4219 
Q 1781 4219 1451 3797 
Q 1122 3375 1075 2522 
Q 1259 2794 1537 2939 
Q 1816 3084 2150 3084 
Q 2853 3084 3261 2657 
Q 3669 2231 3669 1497 
Q 3669 778 3244 343 
Q 2819 -91 2113 -91 
Q 1303 -91 875 529 
Q 447 1150 447 2328 
Q 447 3434 972 4092 
Q 1497 4750 2381 4750 
Q 2619 4750 2861 4703 
Q 3103 4656 3366 4563 
z
" id="DejaVuSans-36" transform="scale(0.015625)"/>
       </defs>
       <use xlink:href="#DejaVuSans-36"/>
       <use x="63.623047" xlink:href="#DejaVuSans-30"/>
       <use x="127.246094" xlink:href="#DejaVuSans-30"/>
       <use x="190.869141" xlink:href="#DejaVuSans-30"/>
       <use x="254.492188" xlink:href="#DejaVuSans-30"/>
      </g>
     </g>
    </g>
    <g id="xtick_5">
     <g id="line2d_5">
      <g>
       <use style="stroke:#000000;stroke-width:0.8;" x="479.176914" xlink:href="#m02a6b109d5" y="402.821395"/>
      </g>
     </g>
     <g id="text_5">
      <!-- 80000 -->
      <g transform="translate(463.270664 417.419832)scale(0.1 -0.1)">
       <defs>
        <path d="M 2034 2216 
Q 1584 2216 1326 1975 
Q 1069 1734 1069 1313 
Q 1069 891 1326 650 
Q 1584 409 2034 409 
Q 2484 409 2743 651 
Q 3003 894 3003 1313 
Q 3003 1734 2745 1975 
Q 2488 2216 2034 2216 
z
M 1403 2484 
Q 997 2584 770 2862 
Q 544 3141 544 3541 
Q 544 4100 942 4425 
Q 1341 4750 2034 4750 
Q 2731 4750 3128 4425 
Q 3525 4100 3525 3541 
Q 3525 3141 3298 2862 
Q 3072 2584 2669 2484 
Q 3125 2378 3379 2068 
Q 3634 1759 3634 1313 
Q 3634 634 3220 271 
Q 2806 -91 2034 -91 
Q 1263 -91 848 271 
Q 434 634 434 1313 
Q 434 1759 690 2068 
Q 947 2378 1403 2484 
z
M 1172 3481 
Q 1172 3119 1398 2916 
Q 1625 2713 2034 2713 
Q 2441 2713 2670 2916 
Q 2900 3119 2900 3481 
Q 2900 3844 2670 4047 
Q 2441 4250 2034 4250 
Q 1625 4250 1398 4047 
Q 1172 3844 1172 3481 
z
" id="DejaVuSans-38" transform="scale(0.015625)"/>
       </defs>
       <use xlink:href="#DejaVuSans-38"/>
       <use x="63.623047" xlink:href="#DejaVuSans-30"/>
       <use x="127.246094" xlink:href="#DejaVuSans-30"/>
       <use x="190.869141" xlink:href="#DejaVuSans-30"/>
       <use x="254.492188" xlink:href="#DejaVuSans-30"/>
      </g>
     </g>
    </g>
    <g id="text_6">
     <!-- Buprenorphine waivered providers, $B$ -->
     <g transform="translate(215.51226 431.09952)scale(0.1 -0.1)">
      <defs>
       <path d="M 1259 2228 
L 1259 519 
L 2272 519 
Q 2781 519 3026 730 
Q 3272 941 3272 1375 
Q 3272 1813 3026 2020 
Q 2781 2228 2272 2228 
L 1259 2228 
z
M 1259 4147 
L 1259 2741 
L 2194 2741 
Q 2656 2741 2882 2914 
Q 3109 3088 3109 3444 
Q 3109 3797 2882 3972 
Q 2656 4147 2194 4147 
L 1259 4147 
z
M 628 4666 
L 2241 4666 
Q 2963 4666 3353 4366 
Q 3744 4066 3744 3513 
Q 3744 3084 3544 2831 
Q 3344 2578 2956 2516 
Q 3422 2416 3680 2098 
Q 3938 1781 3938 1306 
Q 3938 681 3513 340 
Q 3088 0 2303 0 
L 628 0 
L 628 4666 
z
" id="DejaVuSans-42" transform="scale(0.015625)"/>
       <path d="M 544 1381 
L 544 3500 
L 1119 3500 
L 1119 1403 
Q 1119 906 1312 657 
Q 1506 409 1894 409 
Q 2359 409 2629 706 
Q 2900 1003 2900 1516 
L 2900 3500 
L 3475 3500 
L 3475 0 
L 2900 0 
L 2900 538 
Q 2691 219 2414 64 
Q 2138 -91 1772 -91 
Q 1169 -91 856 284 
Q 544 659 544 1381 
z
M 1991 3584 
L 1991 3584 
z
" id="DejaVuSans-75" transform="scale(0.015625)"/>
       <path d="M 1159 525 
L 1159 -1331 
L 581 -1331 
L 581 3500 
L 1159 3500 
L 1159 2969 
Q 1341 3281 1617 3432 
Q 1894 3584 2278 3584 
Q 2916 3584 3314 3078 
Q 3713 2572 3713 1747 
Q 3713 922 3314 415 
Q 2916 -91 2278 -91 
Q 1894 -91 1617 61 
Q 1341 213 1159 525 
z
M 3116 1747 
Q 3116 2381 2855 2742 
Q 2594 3103 2138 3103 
Q 1681 3103 1420 2742 
Q 1159 2381 1159 1747 
Q 1159 1113 1420 752 
Q 1681 391 2138 391 
Q 2594 391 2855 752 
Q 3116 1113 3116 1747 
z
" id="DejaVuSans-70" transform="scale(0.015625)"/>
       <path d="M 2631 2963 
Q 2534 3019 2420 3045 
Q 2306 3072 2169 3072 
Q 1681 3072 1420 2755 
Q 1159 2438 1159 1844 
L 1159 0 
L 581 0 
L 581 3500 
L 1159 3500 
L 1159 2956 
Q 1341 3275 1631 3429 
Q 1922 3584 2338 3584 
Q 2397 3584 2469 3576 
Q 2541 3569 2628 3553 
L 2631 2963 
z
" id="DejaVuSans-72" transform="scale(0.015625)"/>
       <path d="M 3597 1894 
L 3597 1613 
L 953 1613 
Q 991 1019 1311 708 
Q 1631 397 2203 397 
Q 2534 397 2845 478 
Q 3156 559 3463 722 
L 3463 178 
Q 3153 47 2828 -22 
Q 2503 -91 2169 -91 
Q 1331 -91 842 396 
Q 353 884 353 1716 
Q 353 2575 817 3079 
Q 1281 3584 2069 3584 
Q 2775 3584 3186 3129 
Q 3597 2675 3597 1894 
z
M 3022 2063 
Q 3016 2534 2758 2815 
Q 2500 3097 2075 3097 
Q 1594 3097 1305 2825 
Q 1016 2553 972 2059 
L 3022 2063 
z
" id="DejaVuSans-65" transform="scale(0.015625)"/>
       <path d="M 3513 2113 
L 3513 0 
L 2938 0 
L 2938 2094 
Q 2938 2591 2744 2837 
Q 2550 3084 2163 3084 
Q 1697 3084 1428 2787 
Q 1159 2491 1159 1978 
L 1159 0 
L 581 0 
L 581 3500 
L 1159 3500 
L 1159 2956 
Q 1366 3272 1645 3428 
Q 1925 3584 2291 3584 
Q 2894 3584 3203 3211 
Q 3513 2838 3513 2113 
z
" id="DejaVuSans-6e" transform="scale(0.015625)"/>
       <path d="M 1959 3097 
Q 1497 3097 1228 2736 
Q 959 2375 959 1747 
Q 959 1119 1226 758 
Q 1494 397 1959 397 
Q 2419 397 2687 759 
Q 2956 1122 2956 1747 
Q 2956 2369 2687 2733 
Q 2419 3097 1959 3097 
z
M 1959 3584 
Q 2709 3584 3137 3096 
Q 3566 2609 3566 1747 
Q 3566 888 3137 398 
Q 2709 -91 1959 -91 
Q 1206 -91 779 398 
Q 353 888 353 1747 
Q 353 2609 779 3096 
Q 1206 3584 1959 3584 
z
" id="DejaVuSans-6f" transform="scale(0.015625)"/>
       <path d="M 3513 2113 
L 3513 0 
L 2938 0 
L 2938 2094 
Q 2938 2591 2744 2837 
Q 2550 3084 2163 3084 
Q 1697 3084 1428 2787 
Q 1159 2491 1159 1978 
L 1159 0 
L 581 0 
L 581 4863 
L 1159 4863 
L 1159 2956 
Q 1366 3272 1645 3428 
Q 1925 3584 2291 3584 
Q 2894 3584 3203 3211 
Q 3513 2838 3513 2113 
z
" id="DejaVuSans-68" transform="scale(0.015625)"/>
       <path d="M 603 3500 
L 1178 3500 
L 1178 0 
L 603 0 
L 603 3500 
z
M 603 4863 
L 1178 4863 
L 1178 4134 
L 603 4134 
L 603 4863 
z
" id="DejaVuSans-69" transform="scale(0.015625)"/>
       <path id="DejaVuSans-20" transform="scale(0.015625)"/>
       <path d="M 269 3500 
L 844 3500 
L 1563 769 
L 2278 3500 
L 2956 3500 
L 3675 769 
L 4391 3500 
L 4966 3500 
L 4050 0 
L 3372 0 
L 2619 2869 
L 1863 0 
L 1184 0 
L 269 3500 
z
" id="DejaVuSans-77" transform="scale(0.015625)"/>
       <path d="M 2194 1759 
Q 1497 1759 1228 1600 
Q 959 1441 959 1056 
Q 959 750 1161 570 
Q 1363 391 1709 391 
Q 2188 391 2477 730 
Q 2766 1069 2766 1631 
L 2766 1759 
L 2194 1759 
z
M 3341 1997 
L 3341 0 
L 2766 0 
L 2766 531 
Q 2569 213 2275 61 
Q 1981 -91 1556 -91 
Q 1019 -91 701 211 
Q 384 513 384 1019 
Q 384 1609 779 1909 
Q 1175 2209 1959 2209 
L 2766 2209 
L 2766 2266 
Q 2766 2663 2505 2880 
Q 2244 3097 1772 3097 
Q 1472 3097 1187 3025 
Q 903 2953 641 2809 
L 641 3341 
Q 956 3463 1253 3523 
Q 1550 3584 1831 3584 
Q 2591 3584 2966 3190 
Q 3341 2797 3341 1997 
z
" id="DejaVuSans-61" transform="scale(0.015625)"/>
       <path d="M 191 3500 
L 800 3500 
L 1894 563 
L 2988 3500 
L 3597 3500 
L 2284 0 
L 1503 0 
L 191 3500 
z
" id="DejaVuSans-76" transform="scale(0.015625)"/>
       <path d="M 2906 2969 
L 2906 4863 
L 3481 4863 
L 3481 0 
L 2906 0 
L 2906 525 
Q 2725 213 2448 61 
Q 2172 -91 1784 -91 
Q 1150 -91 751 415 
Q 353 922 353 1747 
Q 353 2572 751 3078 
Q 1150 3584 1784 3584 
Q 2172 3584 2448 3432 
Q 2725 3281 2906 2969 
z
M 947 1747 
Q 947 1113 1208 752 
Q 1469 391 1925 391 
Q 2381 391 2643 752 
Q 2906 1113 2906 1747 
Q 2906 2381 2643 2742 
Q 2381 3103 1925 3103 
Q 1469 3103 1208 2742 
Q 947 2381 947 1747 
z
" id="DejaVuSans-64" transform="scale(0.015625)"/>
       <path d="M 2834 3397 
L 2834 2853 
Q 2591 2978 2328 3040 
Q 2066 3103 1784 3103 
Q 1356 3103 1142 2972 
Q 928 2841 928 2578 
Q 928 2378 1081 2264 
Q 1234 2150 1697 2047 
L 1894 2003 
Q 2506 1872 2764 1633 
Q 3022 1394 3022 966 
Q 3022 478 2636 193 
Q 2250 -91 1575 -91 
Q 1294 -91 989 -36 
Q 684 19 347 128 
L 347 722 
Q 666 556 975 473 
Q 1284 391 1588 391 
Q 1994 391 2212 530 
Q 2431 669 2431 922 
Q 2431 1156 2273 1281 
Q 2116 1406 1581 1522 
L 1381 1569 
Q 847 1681 609 1914 
Q 372 2147 372 2553 
Q 372 3047 722 3315 
Q 1072 3584 1716 3584 
Q 2034 3584 2315 3537 
Q 2597 3491 2834 3397 
z
" id="DejaVuSans-73" transform="scale(0.015625)"/>
       <path d="M 750 794 
L 1409 794 
L 1409 256 
L 897 -744 
L 494 -744 
L 750 256 
L 750 794 
z
" id="DejaVuSans-2c" transform="scale(0.015625)"/>
       <path d="M 1081 4666 
L 2694 4666 
Q 3350 4666 3675 4422 
Q 4000 4178 4000 3688 
Q 4000 3238 3720 2911 
Q 3441 2584 2988 2516 
Q 3375 2428 3569 2181 
Q 3763 1934 3763 1522 
Q 3763 819 3242 409 
Q 2722 0 1819 0 
L 172 0 
L 1081 4666 
z
M 1234 2228 
L 903 519 
L 1919 519 
Q 2491 519 2800 781 
Q 3109 1044 3109 1522 
Q 3109 1891 2904 2059 
Q 2700 2228 2247 2228 
L 1234 2228 
z
M 1606 4147 
L 1331 2741 
L 2272 2741 
Q 2775 2741 3058 2959 
Q 3341 3178 3341 3566 
Q 3341 3869 3150 4008 
Q 2959 4147 2541 4147 
L 1606 4147 
z
" id="DejaVuSans-Oblique-42" transform="scale(0.015625)"/>
      </defs>
      <use transform="translate(0 0.015625)" xlink:href="#DejaVuSans-42"/>
      <use transform="translate(68.603516 0.015625)" xlink:href="#DejaVuSans-75"/>
      <use transform="translate(131.982422 0.015625)" xlink:href="#DejaVuSans-70"/>
      <use transform="translate(195.458984 0.015625)" xlink:href="#DejaVuSans-72"/>
      <use transform="translate(236.572266 0.015625)" xlink:href="#DejaVuSans-65"/>
      <use transform="translate(298.095703 0.015625)" xlink:href="#DejaVuSans-6e"/>
      <use transform="translate(361.474609 0.015625)" xlink:href="#DejaVuSans-6f"/>
      <use transform="translate(422.65625 0.015625)" xlink:href="#DejaVuSans-72"/>
      <use transform="translate(463.769531 0.015625)" xlink:href="#DejaVuSans-70"/>
      <use transform="translate(527.246094 0.015625)" xlink:href="#DejaVuSans-68"/>
      <use transform="translate(590.625 0.015625)" xlink:href="#DejaVuSans-69"/>
      <use transform="translate(618.408203 0.015625)" xlink:href="#DejaVuSans-6e"/>
      <use transform="translate(681.787109 0.015625)" xlink:href="#DejaVuSans-65"/>
      <use transform="translate(743.310547 0.015625)" xlink:href="#DejaVuSans-20"/>
      <use transform="translate(775.097656 0.015625)" xlink:href="#DejaVuSans-77"/>
      <use transform="translate(856.884766 0.015625)" xlink:href="#DejaVuSans-61"/>
      <use transform="translate(918.164062 0.015625)" xlink:href="#DejaVuSans-69"/>
      <use transform="translate(945.947266 0.015625)" xlink:href="#DejaVuSans-76"/>
      <use transform="translate(1005.126953 0.015625)" xlink:href="#DejaVuSans-65"/>
      <use transform="translate(1066.650391 0.015625)" xlink:href="#DejaVuSans-72"/>
      <use transform="translate(1107.763672 0.015625)" xlink:href="#DejaVuSans-65"/>
      <use transform="translate(1169.287109 0.015625)" xlink:href="#DejaVuSans-64"/>
      <use transform="translate(1232.763672 0.015625)" xlink:href="#DejaVuSans-20"/>
      <use transform="translate(1264.550781 0.015625)" xlink:href="#DejaVuSans-70"/>
      <use transform="translate(1328.027344 0.015625)" xlink:href="#DejaVuSans-72"/>
      <use transform="translate(1369.140625 0.015625)" xlink:href="#DejaVuSans-6f"/>
      <use transform="translate(1430.322266 0.015625)" xlink:href="#DejaVuSans-76"/>
      <use transform="translate(1489.501953 0.015625)" xlink:href="#DejaVuSans-69"/>
      <use transform="translate(1517.285156 0.015625)" xlink:href="#DejaVuSans-64"/>
      <use transform="translate(1580.761719 0.015625)" xlink:href="#DejaVuSans-65"/>
      <use transform="translate(1642.285156 0.015625)" xlink:href="#DejaVuSans-72"/>
      <use transform="translate(1683.398438 0.015625)" xlink:href="#DejaVuSans-73"/>
      <use transform="translate(1735.498047 0.015625)" xlink:href="#DejaVuSans-2c"/>
      <use transform="translate(1767.285156 0.015625)" xlink:href="#DejaVuSans-20"/>
      <use transform="translate(1799.072266 0.015625)" xlink:href="#DejaVuSans-Oblique-42"/>
     </g>
    </g>
   </g>
   <g id="matplotlib.axis_2">
    <g id="ytick_1">
     <g id="line2d_6">
      <defs>
       <path d="M 0 0 
L -3.5 0 
" id="mb7dfb02361" style="stroke:#000000;stroke-width:0.8;"/>
      </defs>
      <g>
       <use style="stroke:#000000;stroke-width:0.8;" x="40.625" xlink:href="#mb7dfb02361" y="382.94367"/>
      </g>
     </g>
     <g id="text_7">
      <!-- 0 -->
      <g transform="translate(27.2625 386.742889)scale(0.1 -0.1)">
       <use xlink:href="#DejaVuSans-30"/>
      </g>
     </g>
    </g>
    <g id="ytick_2">
     <g id="line2d_7">
      <g>
       <use style="stroke:#000000;stroke-width:0.8;" x="40.625" xlink:href="#mb7dfb02361" y="334.813509"/>
      </g>
     </g>
     <g id="text_8">
      <!-- 5 -->
      <g transform="translate(27.2625 338.612728)scale(0.1 -0.1)">
       <defs>
        <path d="M 691 4666 
L 3169 4666 
L 3169 4134 
L 1269 4134 
L 1269 2991 
Q 1406 3038 1543 3061 
Q 1681 3084 1819 3084 
Q 2600 3084 3056 2656 
Q 3513 2228 3513 1497 
Q 3513 744 3044 326 
Q 2575 -91 1722 -91 
Q 1428 -91 1123 -41 
Q 819 9 494 109 
L 494 744 
Q 775 591 1075 516 
Q 1375 441 1709 441 
Q 2250 441 2565 725 
Q 2881 1009 2881 1497 
Q 2881 1984 2565 2268 
Q 2250 2553 1709 2553 
Q 1456 2553 1204 2497 
Q 953 2441 691 2322 
L 691 4666 
z
" id="DejaVuSans-35" transform="scale(0.015625)"/>
       </defs>
       <use xlink:href="#DejaVuSans-35"/>
      </g>
     </g>
    </g>
    <g id="ytick_3">
     <g id="line2d_8">
      <g>
       <use style="stroke:#000000;stroke-width:0.8;" x="40.625" xlink:href="#mb7dfb02361" y="286.683348"/>
      </g>
     </g>
     <g id="text_9">
      <!-- 10 -->
      <g transform="translate(20.9 290.482567)scale(0.1 -0.1)">
       <defs>
        <path d="M 794 531 
L 1825 531 
L 1825 4091 
L 703 3866 
L 703 4441 
L 1819 4666 
L 2450 4666 
L 2450 531 
L 3481 531 
L 3481 0 
L 794 0 
L 794 531 
z
" id="DejaVuSans-31" transform="scale(0.015625)"/>
       </defs>
       <use xlink:href="#DejaVuSans-31"/>
       <use x="63.623047" xlink:href="#DejaVuSans-30"/>
      </g>
     </g>
    </g>
    <g id="ytick_4">
     <g id="line2d_9">
      <g>
       <use style="stroke:#000000;stroke-width:0.8;" x="40.625" xlink:href="#mb7dfb02361" y="238.553188"/>
      </g>
     </g>
     <g id="text_10">
      <!-- 15 -->
      <g transform="translate(20.9 242.352406)scale(0.1 -0.1)">
       <use xlink:href="#DejaVuSans-31"/>
       <use x="63.623047" xlink:href="#DejaVuSans-35"/>
      </g>
     </g>
    </g>
    <g id="ytick_5">
     <g id="line2d_10">
      <g>
       <use style="stroke:#000000;stroke-width:0.8;" x="40.625" xlink:href="#mb7dfb02361" y="190.423027"/>
      </g>
     </g>
     <g id="text_11">
      <!-- 20 -->
      <g transform="translate(20.9 194.222246)scale(0.1 -0.1)">
       <use xlink:href="#DejaVuSans-32"/>
       <use x="63.623047" xlink:href="#DejaVuSans-30"/>
      </g>
     </g>
    </g>
    <g id="ytick_6">
     <g id="line2d_11">
      <g>
       <use style="stroke:#000000;stroke-width:0.8;" x="40.625" xlink:href="#mb7dfb02361" y="142.292866"/>
      </g>
     </g>
     <g id="text_12">
      <!-- 25 -->
      <g transform="translate(20.9 146.092085)scale(0.1 -0.1)">
       <use xlink:href="#DejaVuSans-32"/>
       <use x="63.623047" xlink:href="#DejaVuSans-35"/>
      </g>
     </g>
    </g>
    <g id="ytick_7">
     <g id="line2d_12">
      <g>
       <use style="stroke:#000000;stroke-width:0.8;" x="40.625" xlink:href="#mb7dfb02361" y="94.162705"/>
      </g>
     </g>
     <g id="text_13">
      <!-- 30 -->
      <g transform="translate(20.9 97.961924)scale(0.1 -0.1)">
       <defs>
        <path d="M 2597 2516 
Q 3050 2419 3304 2112 
Q 3559 1806 3559 1356 
Q 3559 666 3084 287 
Q 2609 -91 1734 -91 
Q 1441 -91 1130 -33 
Q 819 25 488 141 
L 488 750 
Q 750 597 1062 519 
Q 1375 441 1716 441 
Q 2309 441 2620 675 
Q 2931 909 2931 1356 
Q 2931 1769 2642 2001 
Q 2353 2234 1838 2234 
L 1294 2234 
L 1294 2753 
L 1863 2753 
Q 2328 2753 2575 2939 
Q 2822 3125 2822 3475 
Q 2822 3834 2567 4026 
Q 2313 4219 1838 4219 
Q 1578 4219 1281 4162 
Q 984 4106 628 3988 
L 628 4550 
Q 988 4650 1302 4700 
Q 1616 4750 1894 4750 
Q 2613 4750 3031 4423 
Q 3450 4097 3450 3541 
Q 3450 3153 3228 2886 
Q 3006 2619 2597 2516 
z
" id="DejaVuSans-33" transform="scale(0.015625)"/>
       </defs>
       <use xlink:href="#DejaVuSans-33"/>
       <use x="63.623047" xlink:href="#DejaVuSans-30"/>
      </g>
     </g>
    </g>
    <g id="ytick_8">
     <g id="line2d_13">
      <g>
       <use style="stroke:#000000;stroke-width:0.8;" x="40.625" xlink:href="#mb7dfb02361" y="46.032544"/>
      </g>
     </g>
     <g id="text_14">
      <!-- 35 -->
      <g transform="translate(20.9 49.831763)scale(0.1 -0.1)">
       <use xlink:href="#DejaVuSans-33"/>
       <use x="63.623047" xlink:href="#DejaVuSans-35"/>
      </g>
     </g>
    </g>
    <g id="text_15">
     <!-- Patients per provider, $K_B/B$ -->
     <g transform="translate(14.8 281.600937)rotate(-90)scale(0.1 -0.1)">
      <defs>
       <path d="M 1259 4147 
L 1259 2394 
L 2053 2394 
Q 2494 2394 2734 2622 
Q 2975 2850 2975 3272 
Q 2975 3691 2734 3919 
Q 2494 4147 2053 4147 
L 1259 4147 
z
M 628 4666 
L 2053 4666 
Q 2838 4666 3239 4311 
Q 3641 3956 3641 3272 
Q 3641 2581 3239 2228 
Q 2838 1875 2053 1875 
L 1259 1875 
L 1259 0 
L 628 0 
L 628 4666 
z
" id="DejaVuSans-50" transform="scale(0.015625)"/>
       <path d="M 1172 4494 
L 1172 3500 
L 2356 3500 
L 2356 3053 
L 1172 3053 
L 1172 1153 
Q 1172 725 1289 603 
Q 1406 481 1766 481 
L 2356 481 
L 2356 0 
L 1766 0 
Q 1100 0 847 248 
Q 594 497 594 1153 
L 594 3053 
L 172 3053 
L 172 3500 
L 594 3500 
L 594 4494 
L 1172 4494 
z
" id="DejaVuSans-74" transform="scale(0.015625)"/>
       <path d="M 1081 4666 
L 1716 4666 
L 1331 2700 
L 3781 4666 
L 4622 4666 
L 1850 2438 
L 3878 0 
L 3109 0 
L 1247 2272 
L 806 0 
L 172 0 
L 1081 4666 
z
" id="DejaVuSans-Oblique-4b" transform="scale(0.015625)"/>
       <path d="M 1625 4666 
L 2156 4666 
L 531 -594 
L 0 -594 
L 1625 4666 
z
" id="DejaVuSans-2f" transform="scale(0.015625)"/>
      </defs>
      <use transform="translate(0 0.015625)" xlink:href="#DejaVuSans-50"/>
      <use transform="translate(60.302734 0.015625)" xlink:href="#DejaVuSans-61"/>
      <use transform="translate(121.582031 0.015625)" xlink:href="#DejaVuSans-74"/>
      <use transform="translate(160.791016 0.015625)" xlink:href="#DejaVuSans-69"/>
      <use transform="translate(188.574219 0.015625)" xlink:href="#DejaVuSans-65"/>
      <use transform="translate(250.097656 0.015625)" xlink:href="#DejaVuSans-6e"/>
      <use transform="translate(313.476562 0.015625)" xlink:href="#DejaVuSans-74"/>
      <use transform="translate(352.685547 0.015625)" xlink:href="#DejaVuSans-73"/>
      <use transform="translate(404.785156 0.015625)" xlink:href="#DejaVuSans-20"/>
      <use transform="translate(436.572266 0.015625)" xlink:href="#DejaVuSans-70"/>
      <use transform="translate(500.048828 0.015625)" xlink:href="#DejaVuSans-65"/>
      <use transform="translate(561.572266 0.015625)" xlink:href="#DejaVuSans-72"/>
      <use transform="translate(602.685547 0.015625)" xlink:href="#DejaVuSans-20"/>
      <use transform="translate(634.472656 0.015625)" xlink:href="#DejaVuSans-70"/>
      <use transform="translate(697.949219 0.015625)" xlink:href="#DejaVuSans-72"/>
      <use transform="translate(739.0625 0.015625)" xlink:href="#DejaVuSans-6f"/>
      <use transform="translate(800.244141 0.015625)" xlink:href="#DejaVuSans-76"/>
      <use transform="translate(859.423828 0.015625)" xlink:href="#DejaVuSans-69"/>
      <use transform="translate(887.207031 0.015625)" xlink:href="#DejaVuSans-64"/>
      <use transform="translate(950.683594 0.015625)" xlink:href="#DejaVuSans-65"/>
      <use transform="translate(1012.207031 0.015625)" xlink:href="#DejaVuSans-72"/>
      <use transform="translate(1053.320312 0.015625)" xlink:href="#DejaVuSans-2c"/>
      <use transform="translate(1085.107422 0.015625)" xlink:href="#DejaVuSans-20"/>
      <use transform="translate(1116.894531 0.015625)" xlink:href="#DejaVuSans-Oblique-4b"/>
      <use transform="translate(1182.470703 -16.390625)scale(0.7)" xlink:href="#DejaVuSans-Oblique-42"/>
      <use transform="translate(1233.227539 0.015625)" xlink:href="#DejaVuSans-2f"/>
      <use transform="translate(1266.918945 0.015625)" xlink:href="#DejaVuSans-Oblique-42"/>
     </g>
    </g>
   </g>
   <g id="line2d_14">
    <path clip-path="url(#p800600ea1d)" d="M 77.140096 -1 
L 80.702712 4.724424 
L 84.624702 10.887808 
L 88.546692 16.916141 
L 92.468682 22.812762 
L 96.390672 28.580923 
L 100.312663 34.223792 
L 104.234653 39.74445 
L 108.156643 45.1459 
L 112.078633 50.431065 
L 116.000623 55.602789 
L 119.922613 60.663846 
L 123.844604 65.616932 
L 127.766594 70.464677 
L 131.688584 75.209639 
L 135.610574 79.85431 
L 139.532564 84.40112 
L 143.454554 88.85243 
L 147.376545 93.210545 
L 151.298535 97.477707 
L 155.220525 101.6561 
L 159.142515 105.747853 
L 163.064505 109.755039 
L 166.986496 113.679677 
L 170.908486 117.523733 
L 174.830476 121.289126 
L 178.752466 124.977721 
L 182.674456 128.591338 
L 186.596446 132.131749 
L 190.518437 135.600682 
L 194.440427 138.999819 
L 198.362417 142.330799 
L 202.284407 145.595222 
L 206.206397 148.794642 
L 210.128387 151.930579 
L 214.050378 155.004511 
L 217.972368 158.017879 
L 221.894358 160.972088 
L 225.816348 163.868507 
L 229.738338 166.708471 
L 233.660329 169.49328 
L 237.582319 172.224202 
L 241.504309 174.902474 
L 245.426299 177.529301 
L 249.348289 180.105857 
L 253.270279 182.633287 
L 257.19227 185.11271 
L 261.11426 187.545212 
L 265.03625 189.931856 
L 268.95824 192.273678 
L 272.88023 194.571685 
L 276.80222 196.826864 
L 280.724211 199.040173 
L 284.646201 201.21255 
L 288.568191 203.344906 
L 292.490181 205.438133 
L 296.412171 207.493099 
L 300.334162 209.510651 
L 304.256152 211.491616 
L 308.178142 213.4368 
L 312.100132 215.34699 
L 316.022122 217.222952 
L 319.944112 219.065436 
L 323.866103 220.87517 
L 327.788093 222.652869 
L 331.710083 224.399227 
L 335.632073 226.114922 
L 339.554063 227.800617 
L 343.476053 229.456958 
L 347.398044 231.084574 
L 351.320034 232.684082 
L 355.242024 234.256082 
L 359.164014 235.801159 
L 363.086004 237.319887 
L 367.007995 238.812823 
L 370.929985 240.280512 
L 374.851975 241.723487 
L 378.773965 243.142267 
L 382.695955 244.537359 
L 386.617945 245.909258 
L 390.539936 247.258449 
L 394.461926 248.585402 
L 398.383916 249.890579 
L 402.305906 251.17443 
L 406.227896 252.437395 
L 410.149886 253.679903 
L 414.071877 254.902373 
L 417.993867 256.105214 
L 421.915857 257.288827 
L 425.837847 258.453602 
L 429.759837 259.599921 
L 433.681828 260.728157 
L 437.603818 261.838673 
L 441.525808 262.931827 
L 445.447798 264.007964 
L 449.369788 265.067426 
L 453.291778 266.110543 
" style="fill:none;stroke:#1f77b4;stroke-linecap:square;stroke-width:1.5;"/>
   </g>
   <g id="line2d_15">
    <path clip-path="url(#p800600ea1d)" d="M 65.014751 382.94367 
L 65.014751 382.94367 
L 65.014751 382.94367 
L 65.014751 382.94367 
L 65.014751 382.94367 
L 65.014751 382.94367 
L 65.014751 382.94367 
L 65.014751 382.94367 
L 65.014751 382.94367 
L 65.014751 382.94367 
L 65.014751 382.94367 
L 65.014751 382.94367 
L 65.014751 382.94367 
L 67.464779 359.600831 
L 69.914807 355.13724 
L 72.364835 350.491524 
L 74.814863 345.701996 
L 76.578935 340.68125 
L 78.343007 335.554425 
L 80.107079 330.349437 
L 81.871151 325.091506 
L 84.754755 320.09829 
L 87.638359 315.141654 
L 90.521963 310.239116 
L 93.405567 305.406174 
L 97.380877 301.024115 
L 101.356186 296.772778 
L 105.331496 292.659863 
L 109.306806 288.691724 
L 112.000801 284.368288 
L 114.694797 280.162674 
L 117.388792 276.080274 
L 120.082787 272.1259 
L 124.908165 269.258305 
L 129.733542 266.566866 
L 134.55892 264.047734 
L 139.384297 261.696094 
L 141.263817 258.11136 
L 143.143337 254.640213 
L 145.022856 251.283615 
L 146.902376 248.041568 
L 149.757506 245.423287 
L 152.612637 242.936883 
L 155.467767 240.579467 
L 158.322898 238.349116 
L 161.072546 236.186146 
L 163.822195 234.143502 
L 166.571843 232.219258 
L 169.321492 230.41149 
L 171.974718 228.661477 
L 174.627944 227.021201 
L 177.281171 225.486812 
L 179.934397 224.055421 
L 181.786478 222.264016 
L 183.63856 220.565021 
L 185.490641 218.955549 
L 187.342723 217.435598 
L 190.07231 216.5192 
L 192.801898 215.690399 
L 195.531485 214.944381 
L 198.261073 214.280185 
L 202.392987 214.516023 
L 206.524902 214.81828 
L 210.656817 215.183107 
L 214.788732 215.606652 
L 218.920646 216.086029 
L 223.052561 216.617386 
L 227.184476 217.196873 
L 231.31639 217.822565 
L 244.147652 223.088967 
L 256.978913 228.103167 
L 269.810175 232.876716 
L 282.641436 237.423091 
L 302.559401 244.672456 
L 322.477365 251.336558 
L 342.395329 257.471229 
L 362.313294 263.128448 
L 374.44501 266.040323 
L 386.576725 268.835722 
L 398.708441 271.51946 
L 410.840157 274.098274 
L 446.33256 282.214944 
L 481.824963 289.291618 
L 517.317366 295.495692 
L 552.809769 300.964145 
" style="fill:none;stroke:#ff7f0e;stroke-linecap:square;stroke-width:1.5;"/>
   </g>
   <g id="patch_3">
    <path d="M 40.625 402.821395 
L 40.625 26.78048 
" style="fill:none;stroke:#000000;stroke-linecap:square;stroke-linejoin:miter;stroke-width:0.8;"/>
   </g>
   <g id="patch_4">
    <path d="M 577.19952 402.821395 
L 577.19952 26.78048 
" style="fill:none;stroke:#000000;stroke-linecap:square;stroke-linejoin:miter;stroke-width:0.8;"/>
   </g>
   <g id="patch_5">
    <path d="M 40.625 402.821395 
L 577.19952 402.821395 
" style="fill:none;stroke:#000000;stroke-linecap:square;stroke-linejoin:miter;stroke-width:0.8;"/>
   </g>
   <g id="patch_6">
    <path d="M 40.625 26.78048 
L 577.19952 26.78048 
" style="fill:none;stroke:#000000;stroke-linecap:square;stroke-linejoin:miter;stroke-width:0.8;"/>
   </g>
   <g id="text_16">
    <!-- 2002 -->
    <g transform="translate(55.014751 377.94367)scale(0.08 -0.08)">
     <use xlink:href="#DejaVuSans-32"/>
     <use x="63.623047" xlink:href="#DejaVuSans-30"/>
     <use x="127.246094" xlink:href="#DejaVuSans-30"/>
     <use x="190.869141" xlink:href="#DejaVuSans-32"/>
    </g>
   </g>
   <g id="text_17">
    <!-- 2003 -->
    <g transform="translate(64.814863 333.107056)scale(0.08 -0.08)">
     <use xlink:href="#DejaVuSans-32"/>
     <use x="63.623047" xlink:href="#DejaVuSans-30"/>
     <use x="127.246094" xlink:href="#DejaVuSans-30"/>
     <use x="190.869141" xlink:href="#DejaVuSans-33"/>
    </g>
   </g>
   <g id="text_18">
    <!-- 2004 -->
    <g transform="translate(71.871151 308.542096)scale(0.08 -0.08)">
     <use xlink:href="#DejaVuSans-32"/>
     <use x="63.623047" xlink:href="#DejaVuSans-30"/>
     <use x="127.246094" xlink:href="#DejaVuSans-30"/>
     <use x="190.869141" xlink:href="#DejaVuSans-34"/>
    </g>
   </g>
   <g id="text_19">
    <!-- 2005 -->
    <g transform="translate(83.405567 305.914863)scale(0.08 -0.08)">
     <use xlink:href="#DejaVuSans-32"/>
     <use x="63.623047" xlink:href="#DejaVuSans-30"/>
     <use x="127.246094" xlink:href="#DejaVuSans-30"/>
     <use x="190.869141" xlink:href="#DejaVuSans-35"/>
    </g>
   </g>
   <g id="text_20">
    <!-- 2006 -->
    <g transform="translate(99.306806 302.763493)scale(0.08 -0.08)">
     <use xlink:href="#DejaVuSans-32"/>
     <use x="63.623047" xlink:href="#DejaVuSans-30"/>
     <use x="127.246094" xlink:href="#DejaVuSans-30"/>
     <use x="190.869141" xlink:href="#DejaVuSans-36"/>
    </g>
   </g>
   <g id="text_21">
    <!-- 2007 -->
    <g transform="translate(110.082787 268.839334)scale(0.08 -0.08)">
     <defs>
      <path d="M 525 4666 
L 3525 4666 
L 3525 4397 
L 1831 0 
L 1172 0 
L 2766 4134 
L 525 4134 
L 525 4666 
z
" id="DejaVuSans-37" transform="scale(0.015625)"/>
     </defs>
     <use xlink:href="#DejaVuSans-32"/>
     <use x="63.623047" xlink:href="#DejaVuSans-30"/>
     <use x="127.246094" xlink:href="#DejaVuSans-30"/>
     <use x="190.869141" xlink:href="#DejaVuSans-37"/>
    </g>
   </g>
   <g id="text_22">
    <!-- 2008 -->
    <g transform="translate(129.384297 253.730314)scale(0.08 -0.08)">
     <use xlink:href="#DejaVuSans-32"/>
     <use x="63.623047" xlink:href="#DejaVuSans-30"/>
     <use x="127.246094" xlink:href="#DejaVuSans-30"/>
     <use x="190.869141" xlink:href="#DejaVuSans-38"/>
    </g>
   </g>
   <g id="text_23">
    <!-- 2009 -->
    <g transform="translate(136.902376 234.933561)scale(0.08 -0.08)">
     <defs>
      <path d="M 703 97 
L 703 672 
Q 941 559 1184 500 
Q 1428 441 1663 441 
Q 2288 441 2617 861 
Q 2947 1281 2994 2138 
Q 2813 1869 2534 1725 
Q 2256 1581 1919 1581 
Q 1219 1581 811 2004 
Q 403 2428 403 3163 
Q 403 3881 828 4315 
Q 1253 4750 1959 4750 
Q 2769 4750 3195 4129 
Q 3622 3509 3622 2328 
Q 3622 1225 3098 567 
Q 2575 -91 1691 -91 
Q 1453 -91 1209 -44 
Q 966 3 703 97 
z
M 1959 2075 
Q 2384 2075 2632 2365 
Q 2881 2656 2881 3163 
Q 2881 3666 2632 3958 
Q 2384 4250 1959 4250 
Q 1534 4250 1286 3958 
Q 1038 3666 1038 3163 
Q 1038 2656 1286 2365 
Q 1534 2075 1959 2075 
z
" id="DejaVuSans-39" transform="scale(0.015625)"/>
     </defs>
     <use xlink:href="#DejaVuSans-32"/>
     <use x="63.623047" xlink:href="#DejaVuSans-30"/>
     <use x="127.246094" xlink:href="#DejaVuSans-30"/>
     <use x="190.869141" xlink:href="#DejaVuSans-39"/>
    </g>
   </g>
   <g id="text_24">
    <!-- 2010 -->
    <g transform="translate(148.322898 227.845913)scale(0.08 -0.08)">
     <use xlink:href="#DejaVuSans-32"/>
     <use x="63.623047" xlink:href="#DejaVuSans-30"/>
     <use x="127.246094" xlink:href="#DejaVuSans-31"/>
     <use x="190.869141" xlink:href="#DejaVuSans-30"/>
    </g>
   </g>
   <g id="text_25">
    <!-- 2011 -->
    <g transform="translate(159.321492 224.573062)scale(0.08 -0.08)">
     <use xlink:href="#DejaVuSans-32"/>
     <use x="63.623047" xlink:href="#DejaVuSans-30"/>
     <use x="127.246094" xlink:href="#DejaVuSans-31"/>
     <use x="190.869141" xlink:href="#DejaVuSans-31"/>
    </g>
   </g>
   <g id="text_26">
    <!-- 2012 -->
    <g transform="translate(169.934397 223.755812)scale(0.08 -0.08)">
     <use xlink:href="#DejaVuSans-32"/>
     <use x="63.623047" xlink:href="#DejaVuSans-30"/>
     <use x="127.246094" xlink:href="#DejaVuSans-31"/>
     <use x="190.869141" xlink:href="#DejaVuSans-32"/>
    </g>
   </g>
   <g id="text_27">
    <!-- 2013 -->
    <g transform="translate(177.342723 215.696898)scale(0.08 -0.08)">
     <use xlink:href="#DejaVuSans-32"/>
     <use x="63.623047" xlink:href="#DejaVuSans-30"/>
     <use x="127.246094" xlink:href="#DejaVuSans-31"/>
     <use x="190.869141" xlink:href="#DejaVuSans-33"/>
    </g>
   </g>
   <g id="text_28">
    <!-- 2014 -->
    <g transform="translate(188.261073 205.076497)scale(0.08 -0.08)">
     <use xlink:href="#DejaVuSans-32"/>
     <use x="63.623047" xlink:href="#DejaVuSans-30"/>
     <use x="127.246094" xlink:href="#DejaVuSans-31"/>
     <use x="190.869141" xlink:href="#DejaVuSans-34"/>
    </g>
   </g>
   <g id="text_29">
    <!-- 2015 -->
    <g transform="translate(204.788732 214.468616)scale(0.08 -0.08)">
     <use xlink:href="#DejaVuSans-32"/>
     <use x="63.623047" xlink:href="#DejaVuSans-30"/>
     <use x="127.246094" xlink:href="#DejaVuSans-31"/>
     <use x="190.869141" xlink:href="#DejaVuSans-35"/>
    </g>
   </g>
   <g id="text_30">
    <!-- 2016 -->
    <g transform="translate(221.31639 214.575465)scale(0.08 -0.08)">
     <use xlink:href="#DejaVuSans-32"/>
     <use x="63.623047" xlink:href="#DejaVuSans-30"/>
     <use x="127.246094" xlink:href="#DejaVuSans-31"/>
     <use x="190.869141" xlink:href="#DejaVuSans-36"/>
    </g>
   </g>
   <g id="text_31">
    <!-- 2017 -->
    <g transform="translate(272.641436 241.323321)scale(0.08 -0.08)">
     <use xlink:href="#DejaVuSans-32"/>
     <use x="63.623047" xlink:href="#DejaVuSans-30"/>
     <use x="127.246094" xlink:href="#DejaVuSans-31"/>
     <use x="190.869141" xlink:href="#DejaVuSans-37"/>
    </g>
   </g>
   <g id="text_32">
    <!-- 2018 -->
    <g transform="translate(352.313294 265.475998)scale(0.08 -0.08)">
     <use xlink:href="#DejaVuSans-32"/>
     <use x="63.623047" xlink:href="#DejaVuSans-30"/>
     <use x="127.246094" xlink:href="#DejaVuSans-31"/>
     <use x="190.869141" xlink:href="#DejaVuSans-38"/>
    </g>
   </g>
   <g id="text_33">
    <!-- 2019 -->
    <g transform="translate(400.840157 269.801937)scale(0.08 -0.08)">
     <use xlink:href="#DejaVuSans-32"/>
     <use x="63.623047" xlink:href="#DejaVuSans-30"/>
     <use x="127.246094" xlink:href="#DejaVuSans-31"/>
     <use x="190.869141" xlink:href="#DejaVuSans-39"/>
    </g>
   </g>
   <g id="text_34">
    <!-- 2020 -->
    <g transform="translate(542.809769 294.674256)scale(0.08 -0.08)">
     <use xlink:href="#DejaVuSans-32"/>
     <use x="63.623047" xlink:href="#DejaVuSans-30"/>
     <use x="127.246094" xlink:href="#DejaVuSans-32"/>
     <use x="190.869141" xlink:href="#DejaVuSans-30"/>
    </g>
   </g>
   <g id="legend_1">
    <g id="patch_7">
     <path d="M 302.407332 78.814855 
L 570.19952 78.814855 
Q 572.19952 78.814855 572.19952 76.814855 
L 572.19952 33.78048 
Q 572.19952 31.78048 570.19952 31.78048 
L 302.407332 31.78048 
Q 300.407332 31.78048 300.407332 33.78048 
L 300.407332 76.814855 
Q 300.407332 78.814855 302.407332 78.814855 
z
" style="fill:#ffffff;opacity:0.8;stroke:#cccccc;stroke-linejoin:miter;"/>
    </g>
    <g id="line2d_16">
     <path d="M 304.407332 39.878917 
L 324.407332 39.878917 
" style="fill:none;stroke:#1f77b4;stroke-linecap:square;stroke-width:1.5;"/>
    </g>
    <g id="line2d_17"/>
    <g id="text_35">
     <!-- Avg. effective capacity per provider (indicated) -->
     <g transform="translate(332.407332 43.378917)scale(0.1 -0.1)">
      <defs>
       <path d="M 2188 4044 
L 1331 1722 
L 3047 1722 
L 2188 4044 
z
M 1831 4666 
L 2547 4666 
L 4325 0 
L 3669 0 
L 3244 1197 
L 1141 1197 
L 716 0 
L 50 0 
L 1831 4666 
z
" id="DejaVuSans-41" transform="scale(0.015625)"/>
       <path d="M 2906 1791 
Q 2906 2416 2648 2759 
Q 2391 3103 1925 3103 
Q 1463 3103 1205 2759 
Q 947 2416 947 1791 
Q 947 1169 1205 825 
Q 1463 481 1925 481 
Q 2391 481 2648 825 
Q 2906 1169 2906 1791 
z
M 3481 434 
Q 3481 -459 3084 -895 
Q 2688 -1331 1869 -1331 
Q 1566 -1331 1297 -1286 
Q 1028 -1241 775 -1147 
L 775 -588 
Q 1028 -725 1275 -790 
Q 1522 -856 1778 -856 
Q 2344 -856 2625 -561 
Q 2906 -266 2906 331 
L 2906 616 
Q 2728 306 2450 153 
Q 2172 0 1784 0 
Q 1141 0 747 490 
Q 353 981 353 1791 
Q 353 2603 747 3093 
Q 1141 3584 1784 3584 
Q 2172 3584 2450 3431 
Q 2728 3278 2906 2969 
L 2906 3500 
L 3481 3500 
L 3481 434 
z
" id="DejaVuSans-67" transform="scale(0.015625)"/>
       <path d="M 684 794 
L 1344 794 
L 1344 0 
L 684 0 
L 684 794 
z
" id="DejaVuSans-2e" transform="scale(0.015625)"/>
       <path d="M 2375 4863 
L 2375 4384 
L 1825 4384 
Q 1516 4384 1395 4259 
Q 1275 4134 1275 3809 
L 1275 3500 
L 2222 3500 
L 2222 3053 
L 1275 3053 
L 1275 0 
L 697 0 
L 697 3053 
L 147 3053 
L 147 3500 
L 697 3500 
L 697 3744 
Q 697 4328 969 4595 
Q 1241 4863 1831 4863 
L 2375 4863 
z
" id="DejaVuSans-66" transform="scale(0.015625)"/>
       <path d="M 3122 3366 
L 3122 2828 
Q 2878 2963 2633 3030 
Q 2388 3097 2138 3097 
Q 1578 3097 1268 2742 
Q 959 2388 959 1747 
Q 959 1106 1268 751 
Q 1578 397 2138 397 
Q 2388 397 2633 464 
Q 2878 531 3122 666 
L 3122 134 
Q 2881 22 2623 -34 
Q 2366 -91 2075 -91 
Q 1284 -91 818 406 
Q 353 903 353 1747 
Q 353 2603 823 3093 
Q 1294 3584 2113 3584 
Q 2378 3584 2631 3529 
Q 2884 3475 3122 3366 
z
" id="DejaVuSans-63" transform="scale(0.015625)"/>
       <path d="M 2059 -325 
Q 1816 -950 1584 -1140 
Q 1353 -1331 966 -1331 
L 506 -1331 
L 506 -850 
L 844 -850 
Q 1081 -850 1212 -737 
Q 1344 -625 1503 -206 
L 1606 56 
L 191 3500 
L 800 3500 
L 1894 763 
L 2988 3500 
L 3597 3500 
L 2059 -325 
z
" id="DejaVuSans-79" transform="scale(0.015625)"/>
       <path d="M 1984 4856 
Q 1566 4138 1362 3434 
Q 1159 2731 1159 2009 
Q 1159 1288 1364 580 
Q 1569 -128 1984 -844 
L 1484 -844 
Q 1016 -109 783 600 
Q 550 1309 550 2009 
Q 550 2706 781 3412 
Q 1013 4119 1484 4856 
L 1984 4856 
z
" id="DejaVuSans-28" transform="scale(0.015625)"/>
       <path d="M 513 4856 
L 1013 4856 
Q 1481 4119 1714 3412 
Q 1947 2706 1947 2009 
Q 1947 1309 1714 600 
Q 1481 -109 1013 -844 
L 513 -844 
Q 928 -128 1133 580 
Q 1338 1288 1338 2009 
Q 1338 2731 1133 3434 
Q 928 4138 513 4856 
z
" id="DejaVuSans-29" transform="scale(0.015625)"/>
      </defs>
      <use xlink:href="#DejaVuSans-41"/>
      <use x="62.533203" xlink:href="#DejaVuSans-76"/>
      <use x="121.712891" xlink:href="#DejaVuSans-67"/>
      <use x="185.189453" xlink:href="#DejaVuSans-2e"/>
      <use x="216.976562" xlink:href="#DejaVuSans-20"/>
      <use x="248.763672" xlink:href="#DejaVuSans-65"/>
      <use x="310.287109" xlink:href="#DejaVuSans-66"/>
      <use x="345.492188" xlink:href="#DejaVuSans-66"/>
      <use x="380.697266" xlink:href="#DejaVuSans-65"/>
      <use x="442.220703" xlink:href="#DejaVuSans-63"/>
      <use x="497.201172" xlink:href="#DejaVuSans-74"/>
      <use x="536.410156" xlink:href="#DejaVuSans-69"/>
      <use x="564.193359" xlink:href="#DejaVuSans-76"/>
      <use x="623.373047" xlink:href="#DejaVuSans-65"/>
      <use x="684.896484" xlink:href="#DejaVuSans-20"/>
      <use x="716.683594" xlink:href="#DejaVuSans-63"/>
      <use x="771.664062" xlink:href="#DejaVuSans-61"/>
      <use x="832.943359" xlink:href="#DejaVuSans-70"/>
      <use x="896.419922" xlink:href="#DejaVuSans-61"/>
      <use x="957.699219" xlink:href="#DejaVuSans-63"/>
      <use x="1012.679688" xlink:href="#DejaVuSans-69"/>
      <use x="1040.462891" xlink:href="#DejaVuSans-74"/>
      <use x="1079.671875" xlink:href="#DejaVuSans-79"/>
      <use x="1138.851562" xlink:href="#DejaVuSans-20"/>
      <use x="1170.638672" xlink:href="#DejaVuSans-70"/>
      <use x="1234.115234" xlink:href="#DejaVuSans-65"/>
      <use x="1295.638672" xlink:href="#DejaVuSans-72"/>
      <use x="1336.751953" xlink:href="#DejaVuSans-20"/>
      <use x="1368.539062" xlink:href="#DejaVuSans-70"/>
      <use x="1432.015625" xlink:href="#DejaVuSans-72"/>
      <use x="1470.878906" xlink:href="#DejaVuSans-6f"/>
      <use x="1532.060547" xlink:href="#DejaVuSans-76"/>
      <use x="1591.240234" xlink:href="#DejaVuSans-69"/>
      <use x="1619.023438" xlink:href="#DejaVuSans-64"/>
      <use x="1682.5" xlink:href="#DejaVuSans-65"/>
      <use x="1744.023438" xlink:href="#DejaVuSans-72"/>
      <use x="1785.136719" xlink:href="#DejaVuSans-20"/>
      <use x="1816.923828" xlink:href="#DejaVuSans-28"/>
      <use x="1855.9375" xlink:href="#DejaVuSans-69"/>
      <use x="1883.720703" xlink:href="#DejaVuSans-6e"/>
      <use x="1947.099609" xlink:href="#DejaVuSans-64"/>
      <use x="2010.576172" xlink:href="#DejaVuSans-69"/>
      <use x="2038.359375" xlink:href="#DejaVuSans-63"/>
      <use x="2093.339844" xlink:href="#DejaVuSans-61"/>
      <use x="2154.619141" xlink:href="#DejaVuSans-74"/>
      <use x="2193.828125" xlink:href="#DejaVuSans-65"/>
      <use x="2255.351562" xlink:href="#DejaVuSans-64"/>
      <use x="2318.828125" xlink:href="#DejaVuSans-29"/>
     </g>
    </g>
    <g id="line2d_18">
     <path d="M 304.407332 54.557042 
L 324.407332 54.557042 
" style="fill:none;stroke:#ff7f0e;stroke-linecap:square;stroke-width:1.5;"/>
    </g>
    <g id="line2d_19"/>
    <g id="text_36">
     <!-- Avg. effective capacity per provider (net) -->
     <g transform="translate(332.407332 58.057042)scale(0.1 -0.1)">
      <use xlink:href="#DejaVuSans-41"/>
      <use x="62.533203" xlink:href="#DejaVuSans-76"/>
      <use x="121.712891" xlink:href="#DejaVuSans-67"/>
      <use x="185.189453" xlink:href="#DejaVuSans-2e"/>
      <use x="216.976562" xlink:href="#DejaVuSans-20"/>
      <use x="248.763672" xlink:href="#DejaVuSans-65"/>
      <use x="310.287109" xlink:href="#DejaVuSans-66"/>
      <use x="345.492188" xlink:href="#DejaVuSans-66"/>
      <use x="380.697266" xlink:href="#DejaVuSans-65"/>
      <use x="442.220703" xlink:href="#DejaVuSans-63"/>
      <use x="497.201172" xlink:href="#DejaVuSans-74"/>
      <use x="536.410156" xlink:href="#DejaVuSans-69"/>
      <use x="564.193359" xlink:href="#DejaVuSans-76"/>
      <use x="623.373047" xlink:href="#DejaVuSans-65"/>
      <use x="684.896484" xlink:href="#DejaVuSans-20"/>
      <use x="716.683594" xlink:href="#DejaVuSans-63"/>
      <use x="771.664062" xlink:href="#DejaVuSans-61"/>
      <use x="832.943359" xlink:href="#DejaVuSans-70"/>
      <use x="896.419922" xlink:href="#DejaVuSans-61"/>
      <use x="957.699219" xlink:href="#DejaVuSans-63"/>
      <use x="1012.679688" xlink:href="#DejaVuSans-69"/>
      <use x="1040.462891" xlink:href="#DejaVuSans-74"/>
      <use x="1079.671875" xlink:href="#DejaVuSans-79"/>
      <use x="1138.851562" xlink:href="#DejaVuSans-20"/>
      <use x="1170.638672" xlink:href="#DejaVuSans-70"/>
      <use x="1234.115234" xlink:href="#DejaVuSans-65"/>
      <use x="1295.638672" xlink:href="#DejaVuSans-72"/>
      <use x="1336.751953" xlink:href="#DejaVuSans-20"/>
      <use x="1368.539062" xlink:href="#DejaVuSans-70"/>
      <use x="1432.015625" xlink:href="#DejaVuSans-72"/>
      <use x="1470.878906" xlink:href="#DejaVuSans-6f"/>
      <use x="1532.060547" xlink:href="#DejaVuSans-76"/>
      <use x="1591.240234" xlink:href="#DejaVuSans-69"/>
      <use x="1619.023438" xlink:href="#DejaVuSans-64"/>
      <use x="1682.5" xlink:href="#DejaVuSans-65"/>
      <use x="1744.023438" xlink:href="#DejaVuSans-72"/>
      <use x="1785.136719" xlink:href="#DejaVuSans-20"/>
      <use x="1816.923828" xlink:href="#DejaVuSans-28"/>
      <use x="1855.9375" xlink:href="#DejaVuSans-6e"/>
      <use x="1919.316406" xlink:href="#DejaVuSans-65"/>
      <use x="1980.839844" xlink:href="#DejaVuSans-74"/>
      <use x="2020.048828" xlink:href="#DejaVuSans-29"/>
     </g>
    </g>
    <g id="PathCollection_2">
     <g>
      <use style="fill:#ff0000;stroke:#ff0000;stroke-width:1.5;" x="314.407332" xlink:href="#m56c3d70dc7" y="70.110167"/>
     </g>
    </g>
    <g id="text_37">
     <!-- Patients per provider (data) -->
     <g transform="translate(332.407332 72.735167)scale(0.1 -0.1)">
      <use xlink:href="#DejaVuSans-50"/>
      <use x="55.802734" xlink:href="#DejaVuSans-61"/>
      <use x="117.082031" xlink:href="#DejaVuSans-74"/>
      <use x="156.291016" xlink:href="#DejaVuSans-69"/>
      <use x="184.074219" xlink:href="#DejaVuSans-65"/>
      <use x="245.597656" xlink:href="#DejaVuSans-6e"/>
      <use x="308.976562" xlink:href="#DejaVuSans-74"/>
      <use x="348.185547" xlink:href="#DejaVuSans-73"/>
      <use x="400.285156" xlink:href="#DejaVuSans-20"/>
      <use x="432.072266" xlink:href="#DejaVuSans-70"/>
      <use x="495.548828" xlink:href="#DejaVuSans-65"/>
      <use x="557.072266" xlink:href="#DejaVuSans-72"/>
      <use x="598.185547" xlink:href="#DejaVuSans-20"/>
      <use x="629.972656" xlink:href="#DejaVuSans-70"/>
      <use x="693.449219" xlink:href="#DejaVuSans-72"/>
      <use x="732.3125" xlink:href="#DejaVuSans-6f"/>
      <use x="793.494141" xlink:href="#DejaVuSans-76"/>
      <use x="852.673828" xlink:href="#DejaVuSans-69"/>
      <use x="880.457031" xlink:href="#DejaVuSans-64"/>
      <use x="943.933594" xlink:href="#DejaVuSans-65"/>
      <use x="1005.457031" xlink:href="#DejaVuSans-72"/>
      <use x="1046.570312" xlink:href="#DejaVuSans-20"/>
      <use x="1078.357422" xlink:href="#DejaVuSans-28"/>
      <use x="1117.371094" xlink:href="#DejaVuSans-64"/>
      <use x="1180.847656" xlink:href="#DejaVuSans-61"/>
      <use x="1242.126953" xlink:href="#DejaVuSans-74"/>
      <use x="1281.335938" xlink:href="#DejaVuSans-61"/>
      <use x="1342.615234" xlink:href="#DejaVuSans-29"/>
     </g>
    </g>
   </g>
  </g>
  <g id="text_38">
   <!-- Calculated vs. observed avg. patients or capacity per provider, $K_B/B$ -->
   <g transform="translate(53.70976 17.84)scale(0.14 -0.14)">
    <defs>
     <path d="M 4122 4306 
L 4122 3641 
Q 3803 3938 3442 4084 
Q 3081 4231 2675 4231 
Q 1875 4231 1450 3742 
Q 1025 3253 1025 2328 
Q 1025 1406 1450 917 
Q 1875 428 2675 428 
Q 3081 428 3442 575 
Q 3803 722 4122 1019 
L 4122 359 
Q 3791 134 3420 21 
Q 3050 -91 2638 -91 
Q 1578 -91 968 557 
Q 359 1206 359 2328 
Q 359 3453 968 4101 
Q 1578 4750 2638 4750 
Q 3056 4750 3426 4639 
Q 3797 4528 4122 4306 
z
" id="DejaVuSans-43" transform="scale(0.015625)"/>
     <path d="M 603 4863 
L 1178 4863 
L 1178 0 
L 603 0 
L 603 4863 
z
" id="DejaVuSans-6c" transform="scale(0.015625)"/>
     <path d="M 3116 1747 
Q 3116 2381 2855 2742 
Q 2594 3103 2138 3103 
Q 1681 3103 1420 2742 
Q 1159 2381 1159 1747 
Q 1159 1113 1420 752 
Q 1681 391 2138 391 
Q 2594 391 2855 752 
Q 3116 1113 3116 1747 
z
M 1159 2969 
Q 1341 3281 1617 3432 
Q 1894 3584 2278 3584 
Q 2916 3584 3314 3078 
Q 3713 2572 3713 1747 
Q 3713 922 3314 415 
Q 2916 -91 2278 -91 
Q 1894 -91 1617 61 
Q 1341 213 1159 525 
L 1159 0 
L 581 0 
L 581 4863 
L 1159 4863 
L 1159 2969 
z
" id="DejaVuSans-62" transform="scale(0.015625)"/>
    </defs>
    <use transform="translate(0 0.015625)" xlink:href="#DejaVuSans-43"/>
    <use transform="translate(69.824219 0.015625)" xlink:href="#DejaVuSans-61"/>
    <use transform="translate(131.103516 0.015625)" xlink:href="#DejaVuSans-6c"/>
    <use transform="translate(158.886719 0.015625)" xlink:href="#DejaVuSans-63"/>
    <use transform="translate(213.867188 0.015625)" xlink:href="#DejaVuSans-75"/>
    <use transform="translate(277.246094 0.015625)" xlink:href="#DejaVuSans-6c"/>
    <use transform="translate(305.029297 0.015625)" xlink:href="#DejaVuSans-61"/>
    <use transform="translate(366.308594 0.015625)" xlink:href="#DejaVuSans-74"/>
    <use transform="translate(405.517578 0.015625)" xlink:href="#DejaVuSans-65"/>
    <use transform="translate(467.041016 0.015625)" xlink:href="#DejaVuSans-64"/>
    <use transform="translate(530.517578 0.015625)" xlink:href="#DejaVuSans-20"/>
    <use transform="translate(562.304688 0.015625)" xlink:href="#DejaVuSans-76"/>
    <use transform="translate(621.484375 0.015625)" xlink:href="#DejaVuSans-73"/>
    <use transform="translate(673.583984 0.015625)" xlink:href="#DejaVuSans-2e"/>
    <use transform="translate(705.371094 0.015625)" xlink:href="#DejaVuSans-20"/>
    <use transform="translate(737.158203 0.015625)" xlink:href="#DejaVuSans-6f"/>
    <use transform="translate(798.339844 0.015625)" xlink:href="#DejaVuSans-62"/>
    <use transform="translate(861.816406 0.015625)" xlink:href="#DejaVuSans-73"/>
    <use transform="translate(913.916016 0.015625)" xlink:href="#DejaVuSans-65"/>
    <use transform="translate(975.439453 0.015625)" xlink:href="#DejaVuSans-72"/>
    <use transform="translate(1016.552734 0.015625)" xlink:href="#DejaVuSans-76"/>
    <use transform="translate(1075.732422 0.015625)" xlink:href="#DejaVuSans-65"/>
    <use transform="translate(1137.255859 0.015625)" xlink:href="#DejaVuSans-64"/>
    <use transform="translate(1200.732422 0.015625)" xlink:href="#DejaVuSans-20"/>
    <use transform="translate(1232.519531 0.015625)" xlink:href="#DejaVuSans-61"/>
    <use transform="translate(1293.798828 0.015625)" xlink:href="#DejaVuSans-76"/>
    <use transform="translate(1352.978516 0.015625)" xlink:href="#DejaVuSans-67"/>
    <use transform="translate(1416.455078 0.015625)" xlink:href="#DejaVuSans-2e"/>
    <use transform="translate(1448.242188 0.015625)" xlink:href="#DejaVuSans-20"/>
    <use transform="translate(1480.029297 0.015625)" xlink:href="#DejaVuSans-70"/>
    <use transform="translate(1543.505859 0.015625)" xlink:href="#DejaVuSans-61"/>
    <use transform="translate(1604.785156 0.015625)" xlink:href="#DejaVuSans-74"/>
    <use transform="translate(1643.994141 0.015625)" xlink:href="#DejaVuSans-69"/>
    <use transform="translate(1671.777344 0.015625)" xlink:href="#DejaVuSans-65"/>
    <use transform="translate(1733.300781 0.015625)" xlink:href="#DejaVuSans-6e"/>
    <use transform="translate(1796.679688 0.015625)" xlink:href="#DejaVuSans-74"/>
    <use transform="translate(1835.888672 0.015625)" xlink:href="#DejaVuSans-73"/>
    <use transform="translate(1887.988281 0.015625)" xlink:href="#DejaVuSans-20"/>
    <use transform="translate(1919.775391 0.015625)" xlink:href="#DejaVuSans-6f"/>
    <use transform="translate(1980.957031 0.015625)" xlink:href="#DejaVuSans-72"/>
    <use transform="translate(2022.070312 0.015625)" xlink:href="#DejaVuSans-20"/>
    <use transform="translate(2053.857422 0.015625)" xlink:href="#DejaVuSans-63"/>
    <use transform="translate(2108.837891 0.015625)" xlink:href="#DejaVuSans-61"/>
    <use transform="translate(2170.117188 0.015625)" xlink:href="#DejaVuSans-70"/>
    <use transform="translate(2233.59375 0.015625)" xlink:href="#DejaVuSans-61"/>
    <use transform="translate(2294.873047 0.015625)" xlink:href="#DejaVuSans-63"/>
    <use transform="translate(2349.853516 0.015625)" xlink:href="#DejaVuSans-69"/>
    <use transform="translate(2377.636719 0.015625)" xlink:href="#DejaVuSans-74"/>
    <use transform="translate(2416.845703 0.015625)" xlink:href="#DejaVuSans-79"/>
    <use transform="translate(2476.025391 0.015625)" xlink:href="#DejaVuSans-20"/>
    <use transform="translate(2507.8125 0.015625)" xlink:href="#DejaVuSans-70"/>
    <use transform="translate(2571.289062 0.015625)" xlink:href="#DejaVuSans-65"/>
    <use transform="translate(2632.8125 0.015625)" xlink:href="#DejaVuSans-72"/>
    <use transform="translate(2673.925781 0.015625)" xlink:href="#DejaVuSans-20"/>
    <use transform="translate(2705.712891 0.015625)" xlink:href="#DejaVuSans-70"/>
    <use transform="translate(2769.189453 0.015625)" xlink:href="#DejaVuSans-72"/>
    <use transform="translate(2810.302734 0.015625)" xlink:href="#DejaVuSans-6f"/>
    <use transform="translate(2871.484375 0.015625)" xlink:href="#DejaVuSans-76"/>
    <use transform="translate(2930.664062 0.015625)" xlink:href="#DejaVuSans-69"/>
    <use transform="translate(2958.447266 0.015625)" xlink:href="#DejaVuSans-64"/>
    <use transform="translate(3021.923828 0.015625)" xlink:href="#DejaVuSans-65"/>
    <use transform="translate(3083.447266 0.015625)" xlink:href="#DejaVuSans-72"/>
    <use transform="translate(3124.560547 0.015625)" xlink:href="#DejaVuSans-2c"/>
    <use transform="translate(3156.347656 0.015625)" xlink:href="#DejaVuSans-20"/>
    <use transform="translate(3188.134766 0.015625)" xlink:href="#DejaVuSans-Oblique-4b"/>
    <use transform="translate(3253.710938 -16.390625)scale(0.7)" xlink:href="#DejaVuSans-Oblique-42"/>
    <use transform="translate(3304.467773 0.015625)" xlink:href="#DejaVuSans-2f"/>
    <use transform="translate(3338.15918 0.015625)" xlink:href="#DejaVuSans-Oblique-42"/>
   </g>
  </g>
 </g>
 <defs>
  <clipPath id="p800600ea1d">
   <rect height="376.040915" width="536.57452" x="40.625" y="26.78048"/>
  </clipPath>
 </defs>
</svg>
