<?xml version="1.0" encoding="utf-8" standalone="no"?>
<!DOCTYPE svg PUBLIC "-//W3C//DTD SVG 1.1//EN"
  "http://www.w3.org/Graphics/SVG/1.1/DTD/svg11.dtd">
<svg height="440.39952pt" version="1.1" viewBox="0 0 584.39952 440.39952" width="584.39952pt" xmlns="http://www.w3.org/2000/svg" xmlns:xlink="http://www.w3.org/1999/xlink">
 <metadata>
  <rdf:RDF xmlns:cc="http://creativecommons.org/ns#" xmlns:dc="http://purl.org/dc/elements/1.1/" xmlns:rdf="http://www.w3.org/1999/02/22-rdf-syntax-ns#">
   <cc:Work>
    <dc:type rdf:resource="http://purl.org/dc/dcmitype/StillImage"/>
    <dc:date>2022-02-15T13:12:24.238399</dc:date>
    <dc:format>image/svg+xml</dc:format>
    <dc:creator>
     <cc:Agent>
      <dc:title>Matplotlib v3.4.0rc1, https://matplotlib.org/</dc:title>
     </cc:Agent>
    </dc:creator>
   </cc:Work>
  </rdf:RDF>
 </metadata>
 <defs>
  <style type="text/css">*{stroke-linecap:butt;stroke-linejoin:round;}</style>
 </defs>
 <g id="figure_1">
  <g id="patch_1">
   <path d="M 0 440.39952 
L 584.39952 440.39952 
L 584.39952 0 
L 0 0 
z
" style="fill:none;"/>
  </g>
  <g id="axes_1">
   <g id="patch_2">
    <path d="M 59.690625 405.83952 
L 577.19952 405.83952 
L 577.19952 26.749855 
L 59.690625 26.749855 
z
" style="fill:#ffffff;"/>
   </g>
   <g id="PolyCollection_1">
    <defs>
     <path d="M 83.213757 -65.864762 
L 83.213757 -65.86288 
L 88.814502 -68.408249 
L 94.415248 -70.200142 
L 100.015993 -71.654562 
L 105.616739 -73.041064 
L 111.217485 -74.376626 
L 116.81823 -75.707944 
L 122.418976 -77.056241 
L 128.019722 -78.425232 
L 133.620467 -79.777244 
L 139.221213 -81.137214 
L 144.821958 -82.505144 
L 150.422704 -83.880503 
L 156.02345 -85.402312 
L 161.624195 -86.94959 
L 167.224941 -88.496869 
L 172.825686 -90.043617 
L 178.426432 -91.544201 
L 184.027178 -93.032581 
L 189.627923 -94.521492 
L 195.228669 -96.009872 
L 200.829415 -97.480211 
L 206.43016 -98.969121 
L 212.030906 -100.458032 
L 217.631651 -101.94482 
L 223.232397 -103.503772 
L 228.833143 -105.007009 
L 234.433888 -106.496451 
L 240.034634 -107.971035 
L 245.635379 -109.864275 
L 251.236125 -111.832333 
L 256.836871 -113.838595 
L 262.437616 -115.880939 
L 268.038362 -117.299277 
L 273.639108 -118.705412 
L 279.239853 -120.121628 
L 284.840599 -121.548456 
L 290.441344 -123.158878 
L 296.04209 -124.762402 
L 301.642836 -126.342048 
L 307.243581 -127.897286 
L 312.844327 -129.431829 
L 318.445072 -130.929761 
L 324.045818 -132.405406 
L 329.646564 -133.859826 
L 335.247309 -135.203348 
L 340.848055 -136.516094 
L 346.448801 -137.787452 
L 352.049546 -139.081626 
L 357.650292 -140.092981 
L 363.251037 -140.919152 
L 368.851783 -141.600464 
L 374.452529 -142.158142 
L 380.053274 -143.246437 
L 385.65402 -144.233384 
L 391.254766 -145.133841 
L 396.855511 -145.954705 
L 402.456257 -147.678148 
L 408.057002 -149.384081 
L 413.657748 -151.079401 
L 419.258494 -152.765701 
L 424.859239 -156.937941 
L 430.459985 -161.254508 
L 436.06073 -165.748302 
L 441.661476 -170.432586 
L 447.262222 -179.296539 
L 452.862967 -188.680497 
L 458.463713 -198.530866 
L 464.064459 -208.826954 
L 469.665204 -222.191068 
L 475.26595 -235.692611 
L 480.866695 -249.536933 
L 486.467441 -263.657176 
L 492.068187 -270.679358 
L 497.668932 -277.56358 
L 503.269678 -284.289147 
L 508.870423 -290.832713 
L 514.471169 -295.935654 
L 520.071915 -300.878349 
L 525.67266 -305.584389 
L 531.273406 -310.052713 
L 536.874152 -318.762257 
L 542.474897 -328.029478 
L 548.075643 -337.407068 
L 553.676388 -346.873271 
L 553.676388 -396.418317 
L 553.676388 -396.418317 
L 548.075643 -383.198504 
L 542.474897 -370.222632 
L 536.874152 -357.513411 
L 531.273406 -345.582838 
L 525.67266 -338.348437 
L 520.071915 -330.93623 
L 514.471169 -323.352822 
L 508.870423 -315.68861 
L 503.269678 -305.8851 
L 497.668932 -296.063572 
L 492.068187 -286.255641 
L 486.467441 -276.489538 
L 480.866695 -260.181289 
L 475.26595 -244.367082 
L 469.665204 -229.11279 
L 464.064459 -214.198965 
L 458.463713 -202.870389 
L 452.862967 -192.11225 
L 447.262222 -181.9398 
L 441.661476 -172.401501 
L 436.06073 -167.419339 
L 430.459985 -162.656846 
L 424.859239 -158.099175 
L 419.258494 -153.711568 
L 413.657748 -151.915379 
L 408.057002 -150.116151 
L 402.456257 -148.312276 
L 396.855511 -146.496774 
L 391.254766 -145.597003 
L 385.65402 -144.620305 
L 380.053274 -143.559811 
L 374.452529 -142.400635 
L 368.851783 -141.823724 
L 363.251037 -141.122855 
L 357.650292 -140.276492 
L 352.049546 -139.243628 
L 346.448801 -137.943727 
L 340.848055 -136.668291 
L 335.247309 -135.351848 
L 329.646564 -134.005064 
L 324.045818 -132.542717 
L 318.445072 -131.059258 
L 312.844327 -129.553619 
L 307.243581 -128.011441 
L 301.642836 -126.451626 
L 296.04209 -124.867561 
L 290.441344 -123.259772 
L 284.840599 -121.645249 
L 279.239853 -120.211899 
L 273.639108 -118.789303 
L 268.038362 -117.376914 
L 262.437616 -115.952397 
L 256.836871 -113.906949 
L 251.236125 -111.897708 
L 245.635379 -109.926792 
L 240.034634 -108.030866 
L 234.433888 -106.550036 
L 228.833143 -105.054375 
L 223.232397 -103.54495 
L 217.631651 -101.979808 
L 212.030906 -100.49145 
L 206.43016 -99.00104 
L 200.829415 -97.510695 
L 195.228669 -96.039006 
L 189.627923 -94.548303 
L 184.027178 -93.057111 
L 178.426432 -91.566489 
L 172.825686 -90.063692 
L 167.224941 -88.514693 
L 161.624195 -86.965194 
L 156.02345 -85.41573 
L 150.422704 -83.891786 
L 144.821958 -82.515831 
L 139.221213 -81.147318 
L 133.620467 -79.786776 
L 128.019722 -78.434204 
L 122.418976 -77.064586 
L 116.81823 -75.715665 
L 111.217485 -74.383727 
L 105.616739 -73.047542 
L 100.015993 -71.659878 
L 94.415248 -70.20432 
L 88.814502 -68.411281 
L 83.213757 -65.864762 
z
" id="mf5645fcc3c" style="stroke:#008000;stroke-opacity:0.2;"/>
    </defs>
    <g clip-path="url(#p5283426744)">
     <use style="fill:#008000;fill-opacity:0.2;stroke:#008000;stroke-opacity:0.2;" x="0" xlink:href="#mf5645fcc3c" y="440.39952"/>
    </g>
   </g>
   <g id="PolyCollection_2">
    <defs>
     <path d="M 83.213757 -65.86288 
L 83.213757 -65.86288 
L 88.814502 -68.408249 
L 94.415248 -70.200142 
L 100.015993 -71.654562 
L 105.616739 -73.041064 
L 111.217485 -74.376626 
L 116.81823 -75.707944 
L 122.418976 -77.056241 
L 128.019722 -78.425232 
L 133.620467 -79.777244 
L 139.221213 -81.137214 
L 144.821958 -82.505144 
L 150.422704 -83.880503 
L 156.02345 -85.402312 
L 161.624195 -86.94959 
L 167.224941 -88.496869 
L 172.825686 -90.043617 
L 178.426432 -91.544201 
L 184.027178 -93.032581 
L 189.627923 -94.521492 
L 195.228669 -96.009872 
L 200.829415 -97.480211 
L 206.43016 -98.969121 
L 212.030906 -100.458032 
L 217.631651 -101.94482 
L 223.232397 -103.503772 
L 228.833143 -105.007009 
L 234.433888 -106.496451 
L 240.034634 -107.971035 
L 245.635379 -109.864275 
L 251.236125 -111.832333 
L 256.836871 -113.838595 
L 262.437616 -115.880939 
L 268.038362 -117.299277 
L 273.639108 -118.705412 
L 279.239853 -120.121628 
L 284.840599 -121.548456 
L 290.441344 -123.158878 
L 296.04209 -124.762402 
L 301.642836 -126.342048 
L 307.243581 -127.897286 
L 312.844327 -129.431829 
L 318.445072 -130.929761 
L 324.045818 -132.405406 
L 329.646564 -133.859826 
L 335.247309 -135.203348 
L 340.848055 -136.516094 
L 346.448801 -137.787452 
L 352.049546 -139.081626 
L 357.650292 -140.092981 
L 363.251037 -140.919152 
L 368.851783 -141.600464 
L 374.452529 -142.158142 
L 380.053274 -143.246437 
L 385.65402 -144.233384 
L 391.254766 -145.133841 
L 396.855511 -145.954705 
L 402.456257 -147.678148 
L 408.057002 -149.384081 
L 413.657748 -151.079401 
L 419.258494 -152.765701 
L 424.859239 -156.937941 
L 430.459985 -161.254508 
L 436.06073 -165.748302 
L 441.661476 -170.432586 
L 447.262222 -179.296539 
L 452.862967 -188.680497 
L 458.463713 -198.530866 
L 464.064459 -208.826954 
L 469.665204 -222.191068 
L 475.26595 -235.692611 
L 480.866695 -249.536933 
L 486.467441 -263.657176 
L 492.068187 -270.679358 
L 497.668932 -277.56358 
L 503.269678 -284.289147 
L 508.870423 -290.832713 
L 514.471169 -295.935654 
L 520.071915 -300.878349 
L 525.67266 -305.584389 
L 531.273406 -310.052713 
L 536.874152 -318.762257 
L 542.474897 -328.029478 
L 548.075643 -337.407068 
L 553.676388 -346.873271 
L 553.676388 -119.737992 
L 553.676388 -119.737992 
L 548.075643 -120.723878 
L 542.474897 -121.737886 
L 536.874152 -122.791161 
L 531.273406 -123.974967 
L 525.67266 -125.478204 
L 520.071915 -126.95491 
L 514.471169 -128.403494 
L 508.870423 -129.84571 
L 503.269678 -131.648746 
L 497.668932 -133.420476 
L 492.068187 -135.159307 
L 486.467441 -136.857811 
L 480.866695 -138.323374 
L 475.26595 -139.73057 
L 469.665204 -141.071439 
L 464.064459 -142.214387 
L 458.463713 -142.766229 
L 452.862967 -143.279866 
L 447.262222 -143.752115 
L 441.661476 -144.2042 
L 436.06073 -144.388324 
L 430.459985 -144.535305 
L 424.859239 -144.644081 
L 419.258494 -144.696612 
L 413.657748 -144.67751 
L 408.057002 -144.60004 
L 402.456257 -144.459957 
L 396.855511 -144.249833 
L 391.254766 -143.881585 
L 385.65402 -143.419948 
L 380.053274 -142.858556 
L 374.452529 -142.18202 
L 368.851783 -141.290583 
L 363.251037 -140.291432 
L 357.650292 -139.168647 
L 352.049546 -137.896228 
L 346.448801 -136.601523 
L 340.848055 -135.317961 
L 335.247309 -133.991419 
L 329.646564 -132.631448 
L 324.045818 -131.211518 
L 318.445072 -129.770894 
L 312.844327 -128.307453 
L 307.243581 -126.807399 
L 301.642836 -125.278161 
L 296.04209 -123.722924 
L 290.441344 -122.143278 
L 284.840599 -120.554611 
L 279.239853 -118.914475 
L 273.639108 -117.288665 
L 268.038362 -115.676651 
L 262.437616 -114.054556 
L 256.836871 -112.487644 
L 251.236125 -110.94355 
L 245.635379 -109.425986 
L 240.034634 -107.971035 
L 234.433888 -106.496451 
L 228.833143 -105.007009 
L 223.232397 -103.503772 
L 217.631651 -101.94482 
L 212.030906 -100.458032 
L 206.43016 -98.969121 
L 200.829415 -97.480211 
L 195.228669 -96.009872 
L 189.627923 -94.521492 
L 184.027178 -93.032581 
L 178.426432 -91.544201 
L 172.825686 -90.043617 
L 167.224941 -88.496869 
L 161.624195 -86.94959 
L 156.02345 -85.402312 
L 150.422704 -83.880503 
L 144.821958 -82.505144 
L 139.221213 -81.137214 
L 133.620467 -79.777244 
L 128.019722 -78.425232 
L 122.418976 -77.056241 
L 116.81823 -75.707944 
L 111.217485 -74.376626 
L 105.616739 -73.041064 
L 100.015993 -71.654562 
L 94.415248 -70.200142 
L 88.814502 -68.408249 
L 83.213757 -65.86288 
z
" id="ma5091d3a91" style="stroke:#ff0000;stroke-opacity:0.2;"/>
    </defs>
    <g clip-path="url(#p5283426744)">
     <use style="fill:#ff0000;fill-opacity:0.2;stroke:#ff0000;stroke-opacity:0.2;" x="0" xlink:href="#ma5091d3a91" y="440.39952"/>
    </g>
   </g>
   <g id="matplotlib.axis_1">
    <g id="xtick_1">
     <g id="line2d_1">
      <defs>
       <path d="M 0 0 
L 0 3.5 
" id="m31f3798c20" style="stroke:#000000;stroke-width:0.8;"/>
      </defs>
      <g>
       <use style="stroke:#000000;stroke-width:0.8;" x="83.213757" xlink:href="#m31f3798c20" y="405.83952"/>
      </g>
     </g>
     <g id="text_1">
      <!-- 1999 -->
      <g transform="translate(85.421257 433.19952)rotate(-90)scale(0.08 -0.08)">
       <defs>
        <path d="M 794 531 
L 1825 531 
L 1825 4091 
L 703 3866 
L 703 4441 
L 1819 4666 
L 2450 4666 
L 2450 531 
L 3481 531 
L 3481 0 
L 794 0 
L 794 531 
z
" id="DejaVuSans-31" transform="scale(0.015625)"/>
        <path d="M 703 97 
L 703 672 
Q 941 559 1184 500 
Q 1428 441 1663 441 
Q 2288 441 2617 861 
Q 2947 1281 2994 2138 
Q 2813 1869 2534 1725 
Q 2256 1581 1919 1581 
Q 1219 1581 811 2004 
Q 403 2428 403 3163 
Q 403 3881 828 4315 
Q 1253 4750 1959 4750 
Q 2769 4750 3195 4129 
Q 3622 3509 3622 2328 
Q 3622 1225 3098 567 
Q 2575 -91 1691 -91 
Q 1453 -91 1209 -44 
Q 966 3 703 97 
z
M 1959 2075 
Q 2384 2075 2632 2365 
Q 2881 2656 2881 3163 
Q 2881 3666 2632 3958 
Q 2384 4250 1959 4250 
Q 1534 4250 1286 3958 
Q 1038 3666 1038 3163 
Q 1038 2656 1286 2365 
Q 1534 2075 1959 2075 
z
" id="DejaVuSans-39" transform="scale(0.015625)"/>
       </defs>
       <use xlink:href="#DejaVuSans-31"/>
       <use x="63.623047" xlink:href="#DejaVuSans-39"/>
       <use x="127.246094" xlink:href="#DejaVuSans-39"/>
       <use x="190.869141" xlink:href="#DejaVuSans-39"/>
      </g>
     </g>
    </g>
    <g id="xtick_2">
     <g id="line2d_2">
      <g>
       <use style="stroke:#000000;stroke-width:0.8;" x="128.019722" xlink:href="#m31f3798c20" y="405.83952"/>
      </g>
     </g>
     <g id="text_2">
      <!-- 2001 -->
      <g transform="translate(130.227222 433.19952)rotate(-90)scale(0.08 -0.08)">
       <defs>
        <path d="M 1228 531 
L 3431 531 
L 3431 0 
L 469 0 
L 469 531 
Q 828 903 1448 1529 
Q 2069 2156 2228 2338 
Q 2531 2678 2651 2914 
Q 2772 3150 2772 3378 
Q 2772 3750 2511 3984 
Q 2250 4219 1831 4219 
Q 1534 4219 1204 4116 
Q 875 4013 500 3803 
L 500 4441 
Q 881 4594 1212 4672 
Q 1544 4750 1819 4750 
Q 2544 4750 2975 4387 
Q 3406 4025 3406 3419 
Q 3406 3131 3298 2873 
Q 3191 2616 2906 2266 
Q 2828 2175 2409 1742 
Q 1991 1309 1228 531 
z
" id="DejaVuSans-32" transform="scale(0.015625)"/>
        <path d="M 2034 4250 
Q 1547 4250 1301 3770 
Q 1056 3291 1056 2328 
Q 1056 1369 1301 889 
Q 1547 409 2034 409 
Q 2525 409 2770 889 
Q 3016 1369 3016 2328 
Q 3016 3291 2770 3770 
Q 2525 4250 2034 4250 
z
M 2034 4750 
Q 2819 4750 3233 4129 
Q 3647 3509 3647 2328 
Q 3647 1150 3233 529 
Q 2819 -91 2034 -91 
Q 1250 -91 836 529 
Q 422 1150 422 2328 
Q 422 3509 836 4129 
Q 1250 4750 2034 4750 
z
" id="DejaVuSans-30" transform="scale(0.015625)"/>
       </defs>
       <use xlink:href="#DejaVuSans-32"/>
       <use x="63.623047" xlink:href="#DejaVuSans-30"/>
       <use x="127.246094" xlink:href="#DejaVuSans-30"/>
       <use x="190.869141" xlink:href="#DejaVuSans-31"/>
      </g>
     </g>
    </g>
    <g id="xtick_3">
     <g id="line2d_3">
      <g>
       <use style="stroke:#000000;stroke-width:0.8;" x="172.825686" xlink:href="#m31f3798c20" y="405.83952"/>
      </g>
     </g>
     <g id="text_3">
      <!-- 2003 -->
      <g transform="translate(175.033186 433.19952)rotate(-90)scale(0.08 -0.08)">
       <defs>
        <path d="M 2597 2516 
Q 3050 2419 3304 2112 
Q 3559 1806 3559 1356 
Q 3559 666 3084 287 
Q 2609 -91 1734 -91 
Q 1441 -91 1130 -33 
Q 819 25 488 141 
L 488 750 
Q 750 597 1062 519 
Q 1375 441 1716 441 
Q 2309 441 2620 675 
Q 2931 909 2931 1356 
Q 2931 1769 2642 2001 
Q 2353 2234 1838 2234 
L 1294 2234 
L 1294 2753 
L 1863 2753 
Q 2328 2753 2575 2939 
Q 2822 3125 2822 3475 
Q 2822 3834 2567 4026 
Q 2313 4219 1838 4219 
Q 1578 4219 1281 4162 
Q 984 4106 628 3988 
L 628 4550 
Q 988 4650 1302 4700 
Q 1616 4750 1894 4750 
Q 2613 4750 3031 4423 
Q 3450 4097 3450 3541 
Q 3450 3153 3228 2886 
Q 3006 2619 2597 2516 
z
" id="DejaVuSans-33" transform="scale(0.015625)"/>
       </defs>
       <use xlink:href="#DejaVuSans-32"/>
       <use x="63.623047" xlink:href="#DejaVuSans-30"/>
       <use x="127.246094" xlink:href="#DejaVuSans-30"/>
       <use x="190.869141" xlink:href="#DejaVuSans-33"/>
      </g>
     </g>
    </g>
    <g id="xtick_4">
     <g id="line2d_4">
      <g>
       <use style="stroke:#000000;stroke-width:0.8;" x="217.631651" xlink:href="#m31f3798c20" y="405.83952"/>
      </g>
     </g>
     <g id="text_4">
      <!-- 2005 -->
      <g transform="translate(219.839151 433.19952)rotate(-90)scale(0.08 -0.08)">
       <defs>
        <path d="M 691 4666 
L 3169 4666 
L 3169 4134 
L 1269 4134 
L 1269 2991 
Q 1406 3038 1543 3061 
Q 1681 3084 1819 3084 
Q 2600 3084 3056 2656 
Q 3513 2228 3513 1497 
Q 3513 744 3044 326 
Q 2575 -91 1722 -91 
Q 1428 -91 1123 -41 
Q 819 9 494 109 
L 494 744 
Q 775 591 1075 516 
Q 1375 441 1709 441 
Q 2250 441 2565 725 
Q 2881 1009 2881 1497 
Q 2881 1984 2565 2268 
Q 2250 2553 1709 2553 
Q 1456 2553 1204 2497 
Q 953 2441 691 2322 
L 691 4666 
z
" id="DejaVuSans-35" transform="scale(0.015625)"/>
       </defs>
       <use xlink:href="#DejaVuSans-32"/>
       <use x="63.623047" xlink:href="#DejaVuSans-30"/>
       <use x="127.246094" xlink:href="#DejaVuSans-30"/>
       <use x="190.869141" xlink:href="#DejaVuSans-35"/>
      </g>
     </g>
    </g>
    <g id="xtick_5">
     <g id="line2d_5">
      <g>
       <use style="stroke:#000000;stroke-width:0.8;" x="262.437616" xlink:href="#m31f3798c20" y="405.83952"/>
      </g>
     </g>
     <g id="text_5">
      <!-- 2007 -->
      <g transform="translate(264.645116 433.19952)rotate(-90)scale(0.08 -0.08)">
       <defs>
        <path d="M 525 4666 
L 3525 4666 
L 3525 4397 
L 1831 0 
L 1172 0 
L 2766 4134 
L 525 4134 
L 525 4666 
z
" id="DejaVuSans-37" transform="scale(0.015625)"/>
       </defs>
       <use xlink:href="#DejaVuSans-32"/>
       <use x="63.623047" xlink:href="#DejaVuSans-30"/>
       <use x="127.246094" xlink:href="#DejaVuSans-30"/>
       <use x="190.869141" xlink:href="#DejaVuSans-37"/>
      </g>
     </g>
    </g>
    <g id="xtick_6">
     <g id="line2d_6">
      <g>
       <use style="stroke:#000000;stroke-width:0.8;" x="307.243581" xlink:href="#m31f3798c20" y="405.83952"/>
      </g>
     </g>
     <g id="text_6">
      <!-- 2009 -->
      <g transform="translate(309.451081 433.19952)rotate(-90)scale(0.08 -0.08)">
       <use xlink:href="#DejaVuSans-32"/>
       <use x="63.623047" xlink:href="#DejaVuSans-30"/>
       <use x="127.246094" xlink:href="#DejaVuSans-30"/>
       <use x="190.869141" xlink:href="#DejaVuSans-39"/>
      </g>
     </g>
    </g>
    <g id="xtick_7">
     <g id="line2d_7">
      <g>
       <use style="stroke:#000000;stroke-width:0.8;" x="352.049546" xlink:href="#m31f3798c20" y="405.83952"/>
      </g>
     </g>
     <g id="text_7">
      <!-- 2011 -->
      <g transform="translate(354.257046 433.19952)rotate(-90)scale(0.08 -0.08)">
       <use xlink:href="#DejaVuSans-32"/>
       <use x="63.623047" xlink:href="#DejaVuSans-30"/>
       <use x="127.246094" xlink:href="#DejaVuSans-31"/>
       <use x="190.869141" xlink:href="#DejaVuSans-31"/>
      </g>
     </g>
    </g>
    <g id="xtick_8">
     <g id="line2d_8">
      <g>
       <use style="stroke:#000000;stroke-width:0.8;" x="396.855511" xlink:href="#m31f3798c20" y="405.83952"/>
      </g>
     </g>
     <g id="text_8">
      <!-- 2013 -->
      <g transform="translate(399.063011 433.19952)rotate(-90)scale(0.08 -0.08)">
       <use xlink:href="#DejaVuSans-32"/>
       <use x="63.623047" xlink:href="#DejaVuSans-30"/>
       <use x="127.246094" xlink:href="#DejaVuSans-31"/>
       <use x="190.869141" xlink:href="#DejaVuSans-33"/>
      </g>
     </g>
    </g>
    <g id="xtick_9">
     <g id="line2d_9">
      <g>
       <use style="stroke:#000000;stroke-width:0.8;" x="441.661476" xlink:href="#m31f3798c20" y="405.83952"/>
      </g>
     </g>
     <g id="text_9">
      <!-- 2015 -->
      <g transform="translate(443.868976 433.19952)rotate(-90)scale(0.08 -0.08)">
       <use xlink:href="#DejaVuSans-32"/>
       <use x="63.623047" xlink:href="#DejaVuSans-30"/>
       <use x="127.246094" xlink:href="#DejaVuSans-31"/>
       <use x="190.869141" xlink:href="#DejaVuSans-35"/>
      </g>
     </g>
    </g>
    <g id="xtick_10">
     <g id="line2d_10">
      <g>
       <use style="stroke:#000000;stroke-width:0.8;" x="486.467441" xlink:href="#m31f3798c20" y="405.83952"/>
      </g>
     </g>
     <g id="text_10">
      <!-- 2017 -->
      <g transform="translate(488.674941 433.19952)rotate(-90)scale(0.08 -0.08)">
       <use xlink:href="#DejaVuSans-32"/>
       <use x="63.623047" xlink:href="#DejaVuSans-30"/>
       <use x="127.246094" xlink:href="#DejaVuSans-31"/>
       <use x="190.869141" xlink:href="#DejaVuSans-37"/>
      </g>
     </g>
    </g>
    <g id="xtick_11">
     <g id="line2d_11">
      <g>
       <use style="stroke:#000000;stroke-width:0.8;" x="531.273406" xlink:href="#m31f3798c20" y="405.83952"/>
      </g>
     </g>
     <g id="text_11">
      <!-- 2019 -->
      <g transform="translate(533.480906 433.19952)rotate(-90)scale(0.08 -0.08)">
       <use xlink:href="#DejaVuSans-32"/>
       <use x="63.623047" xlink:href="#DejaVuSans-30"/>
       <use x="127.246094" xlink:href="#DejaVuSans-31"/>
       <use x="190.869141" xlink:href="#DejaVuSans-39"/>
      </g>
     </g>
    </g>
    <g id="xtick_12">
     <g id="line2d_12">
      <g>
       <use style="stroke:#000000;stroke-width:0.8;" x="576.079371" xlink:href="#m31f3798c20" y="405.83952"/>
      </g>
     </g>
    </g>
   </g>
   <g id="matplotlib.axis_2">
    <g id="ytick_1">
     <g id="line2d_13">
      <defs>
       <path d="M 0 0 
L -3.5 0 
" id="me55a709bd6" style="stroke:#000000;stroke-width:0.8;"/>
      </defs>
      <g>
       <use style="stroke:#000000;stroke-width:0.8;" x="59.690625" xlink:href="#me55a709bd6" y="372.524541"/>
      </g>
     </g>
     <g id="text_12">
      <!-- 10000 -->
      <g transform="translate(20.878125 376.32376)scale(0.1 -0.1)">
       <use xlink:href="#DejaVuSans-31"/>
       <use x="63.623047" xlink:href="#DejaVuSans-30"/>
       <use x="127.246094" xlink:href="#DejaVuSans-30"/>
       <use x="190.869141" xlink:href="#DejaVuSans-30"/>
       <use x="254.492188" xlink:href="#DejaVuSans-30"/>
      </g>
     </g>
    </g>
    <g id="ytick_2">
     <g id="line2d_14">
      <g>
       <use style="stroke:#000000;stroke-width:0.8;" x="59.690625" xlink:href="#me55a709bd6" y="319.462865"/>
      </g>
     </g>
     <g id="text_13">
      <!-- 20000 -->
      <g transform="translate(20.878125 323.262084)scale(0.1 -0.1)">
       <use xlink:href="#DejaVuSans-32"/>
       <use x="63.623047" xlink:href="#DejaVuSans-30"/>
       <use x="127.246094" xlink:href="#DejaVuSans-30"/>
       <use x="190.869141" xlink:href="#DejaVuSans-30"/>
       <use x="254.492188" xlink:href="#DejaVuSans-30"/>
      </g>
     </g>
    </g>
    <g id="ytick_3">
     <g id="line2d_15">
      <g>
       <use style="stroke:#000000;stroke-width:0.8;" x="59.690625" xlink:href="#me55a709bd6" y="266.401189"/>
      </g>
     </g>
     <g id="text_14">
      <!-- 30000 -->
      <g transform="translate(20.878125 270.200408)scale(0.1 -0.1)">
       <use xlink:href="#DejaVuSans-33"/>
       <use x="63.623047" xlink:href="#DejaVuSans-30"/>
       <use x="127.246094" xlink:href="#DejaVuSans-30"/>
       <use x="190.869141" xlink:href="#DejaVuSans-30"/>
       <use x="254.492188" xlink:href="#DejaVuSans-30"/>
      </g>
     </g>
    </g>
    <g id="ytick_4">
     <g id="line2d_16">
      <g>
       <use style="stroke:#000000;stroke-width:0.8;" x="59.690625" xlink:href="#me55a709bd6" y="213.339513"/>
      </g>
     </g>
     <g id="text_15">
      <!-- 40000 -->
      <g transform="translate(20.878125 217.138732)scale(0.1 -0.1)">
       <defs>
        <path d="M 2419 4116 
L 825 1625 
L 2419 1625 
L 2419 4116 
z
M 2253 4666 
L 3047 4666 
L 3047 1625 
L 3713 1625 
L 3713 1100 
L 3047 1100 
L 3047 0 
L 2419 0 
L 2419 1100 
L 313 1100 
L 313 1709 
L 2253 4666 
z
" id="DejaVuSans-34" transform="scale(0.015625)"/>
       </defs>
       <use xlink:href="#DejaVuSans-34"/>
       <use x="63.623047" xlink:href="#DejaVuSans-30"/>
       <use x="127.246094" xlink:href="#DejaVuSans-30"/>
       <use x="190.869141" xlink:href="#DejaVuSans-30"/>
       <use x="254.492188" xlink:href="#DejaVuSans-30"/>
      </g>
     </g>
    </g>
    <g id="ytick_5">
     <g id="line2d_17">
      <g>
       <use style="stroke:#000000;stroke-width:0.8;" x="59.690625" xlink:href="#me55a709bd6" y="160.277837"/>
      </g>
     </g>
     <g id="text_16">
      <!-- 50000 -->
      <g transform="translate(20.878125 164.077056)scale(0.1 -0.1)">
       <use xlink:href="#DejaVuSans-35"/>
       <use x="63.623047" xlink:href="#DejaVuSans-30"/>
       <use x="127.246094" xlink:href="#DejaVuSans-30"/>
       <use x="190.869141" xlink:href="#DejaVuSans-30"/>
       <use x="254.492188" xlink:href="#DejaVuSans-30"/>
      </g>
     </g>
    </g>
    <g id="ytick_6">
     <g id="line2d_18">
      <g>
       <use style="stroke:#000000;stroke-width:0.8;" x="59.690625" xlink:href="#me55a709bd6" y="107.216161"/>
      </g>
     </g>
     <g id="text_17">
      <!-- 60000 -->
      <g transform="translate(20.878125 111.01538)scale(0.1 -0.1)">
       <defs>
        <path d="M 2113 2584 
Q 1688 2584 1439 2293 
Q 1191 2003 1191 1497 
Q 1191 994 1439 701 
Q 1688 409 2113 409 
Q 2538 409 2786 701 
Q 3034 994 3034 1497 
Q 3034 2003 2786 2293 
Q 2538 2584 2113 2584 
z
M 3366 4563 
L 3366 3988 
Q 3128 4100 2886 4159 
Q 2644 4219 2406 4219 
Q 1781 4219 1451 3797 
Q 1122 3375 1075 2522 
Q 1259 2794 1537 2939 
Q 1816 3084 2150 3084 
Q 2853 3084 3261 2657 
Q 3669 2231 3669 1497 
Q 3669 778 3244 343 
Q 2819 -91 2113 -91 
Q 1303 -91 875 529 
Q 447 1150 447 2328 
Q 447 3434 972 4092 
Q 1497 4750 2381 4750 
Q 2619 4750 2861 4703 
Q 3103 4656 3366 4563 
z
" id="DejaVuSans-36" transform="scale(0.015625)"/>
       </defs>
       <use xlink:href="#DejaVuSans-36"/>
       <use x="63.623047" xlink:href="#DejaVuSans-30"/>
       <use x="127.246094" xlink:href="#DejaVuSans-30"/>
       <use x="190.869141" xlink:href="#DejaVuSans-30"/>
       <use x="254.492188" xlink:href="#DejaVuSans-30"/>
      </g>
     </g>
    </g>
    <g id="ytick_7">
     <g id="line2d_19">
      <g>
       <use style="stroke:#000000;stroke-width:0.8;" x="59.690625" xlink:href="#me55a709bd6" y="54.154485"/>
      </g>
     </g>
     <g id="text_18">
      <!-- 70000 -->
      <g transform="translate(20.878125 57.953704)scale(0.1 -0.1)">
       <use xlink:href="#DejaVuSans-37"/>
       <use x="63.623047" xlink:href="#DejaVuSans-30"/>
       <use x="127.246094" xlink:href="#DejaVuSans-30"/>
       <use x="190.869141" xlink:href="#DejaVuSans-30"/>
       <use x="254.492188" xlink:href="#DejaVuSans-30"/>
      </g>
     </g>
    </g>
    <g id="text_19">
     <!-- Overdose deaths (people/year) -->
     <g transform="translate(14.798438 294.067344)rotate(-90)scale(0.1 -0.1)">
      <defs>
       <path d="M 2522 4238 
Q 1834 4238 1429 3725 
Q 1025 3213 1025 2328 
Q 1025 1447 1429 934 
Q 1834 422 2522 422 
Q 3209 422 3611 934 
Q 4013 1447 4013 2328 
Q 4013 3213 3611 3725 
Q 3209 4238 2522 4238 
z
M 2522 4750 
Q 3503 4750 4090 4092 
Q 4678 3434 4678 2328 
Q 4678 1225 4090 567 
Q 3503 -91 2522 -91 
Q 1538 -91 948 565 
Q 359 1222 359 2328 
Q 359 3434 948 4092 
Q 1538 4750 2522 4750 
z
" id="DejaVuSans-4f" transform="scale(0.015625)"/>
       <path d="M 191 3500 
L 800 3500 
L 1894 563 
L 2988 3500 
L 3597 3500 
L 2284 0 
L 1503 0 
L 191 3500 
z
" id="DejaVuSans-76" transform="scale(0.015625)"/>
       <path d="M 3597 1894 
L 3597 1613 
L 953 1613 
Q 991 1019 1311 708 
Q 1631 397 2203 397 
Q 2534 397 2845 478 
Q 3156 559 3463 722 
L 3463 178 
Q 3153 47 2828 -22 
Q 2503 -91 2169 -91 
Q 1331 -91 842 396 
Q 353 884 353 1716 
Q 353 2575 817 3079 
Q 1281 3584 2069 3584 
Q 2775 3584 3186 3129 
Q 3597 2675 3597 1894 
z
M 3022 2063 
Q 3016 2534 2758 2815 
Q 2500 3097 2075 3097 
Q 1594 3097 1305 2825 
Q 1016 2553 972 2059 
L 3022 2063 
z
" id="DejaVuSans-65" transform="scale(0.015625)"/>
       <path d="M 2631 2963 
Q 2534 3019 2420 3045 
Q 2306 3072 2169 3072 
Q 1681 3072 1420 2755 
Q 1159 2438 1159 1844 
L 1159 0 
L 581 0 
L 581 3500 
L 1159 3500 
L 1159 2956 
Q 1341 3275 1631 3429 
Q 1922 3584 2338 3584 
Q 2397 3584 2469 3576 
Q 2541 3569 2628 3553 
L 2631 2963 
z
" id="DejaVuSans-72" transform="scale(0.015625)"/>
       <path d="M 2906 2969 
L 2906 4863 
L 3481 4863 
L 3481 0 
L 2906 0 
L 2906 525 
Q 2725 213 2448 61 
Q 2172 -91 1784 -91 
Q 1150 -91 751 415 
Q 353 922 353 1747 
Q 353 2572 751 3078 
Q 1150 3584 1784 3584 
Q 2172 3584 2448 3432 
Q 2725 3281 2906 2969 
z
M 947 1747 
Q 947 1113 1208 752 
Q 1469 391 1925 391 
Q 2381 391 2643 752 
Q 2906 1113 2906 1747 
Q 2906 2381 2643 2742 
Q 2381 3103 1925 3103 
Q 1469 3103 1208 2742 
Q 947 2381 947 1747 
z
" id="DejaVuSans-64" transform="scale(0.015625)"/>
       <path d="M 1959 3097 
Q 1497 3097 1228 2736 
Q 959 2375 959 1747 
Q 959 1119 1226 758 
Q 1494 397 1959 397 
Q 2419 397 2687 759 
Q 2956 1122 2956 1747 
Q 2956 2369 2687 2733 
Q 2419 3097 1959 3097 
z
M 1959 3584 
Q 2709 3584 3137 3096 
Q 3566 2609 3566 1747 
Q 3566 888 3137 398 
Q 2709 -91 1959 -91 
Q 1206 -91 779 398 
Q 353 888 353 1747 
Q 353 2609 779 3096 
Q 1206 3584 1959 3584 
z
" id="DejaVuSans-6f" transform="scale(0.015625)"/>
       <path d="M 2834 3397 
L 2834 2853 
Q 2591 2978 2328 3040 
Q 2066 3103 1784 3103 
Q 1356 3103 1142 2972 
Q 928 2841 928 2578 
Q 928 2378 1081 2264 
Q 1234 2150 1697 2047 
L 1894 2003 
Q 2506 1872 2764 1633 
Q 3022 1394 3022 966 
Q 3022 478 2636 193 
Q 2250 -91 1575 -91 
Q 1294 -91 989 -36 
Q 684 19 347 128 
L 347 722 
Q 666 556 975 473 
Q 1284 391 1588 391 
Q 1994 391 2212 530 
Q 2431 669 2431 922 
Q 2431 1156 2273 1281 
Q 2116 1406 1581 1522 
L 1381 1569 
Q 847 1681 609 1914 
Q 372 2147 372 2553 
Q 372 3047 722 3315 
Q 1072 3584 1716 3584 
Q 2034 3584 2315 3537 
Q 2597 3491 2834 3397 
z
" id="DejaVuSans-73" transform="scale(0.015625)"/>
       <path id="DejaVuSans-20" transform="scale(0.015625)"/>
       <path d="M 2194 1759 
Q 1497 1759 1228 1600 
Q 959 1441 959 1056 
Q 959 750 1161 570 
Q 1363 391 1709 391 
Q 2188 391 2477 730 
Q 2766 1069 2766 1631 
L 2766 1759 
L 2194 1759 
z
M 3341 1997 
L 3341 0 
L 2766 0 
L 2766 531 
Q 2569 213 2275 61 
Q 1981 -91 1556 -91 
Q 1019 -91 701 211 
Q 384 513 384 1019 
Q 384 1609 779 1909 
Q 1175 2209 1959 2209 
L 2766 2209 
L 2766 2266 
Q 2766 2663 2505 2880 
Q 2244 3097 1772 3097 
Q 1472 3097 1187 3025 
Q 903 2953 641 2809 
L 641 3341 
Q 956 3463 1253 3523 
Q 1550 3584 1831 3584 
Q 2591 3584 2966 3190 
Q 3341 2797 3341 1997 
z
" id="DejaVuSans-61" transform="scale(0.015625)"/>
       <path d="M 1172 4494 
L 1172 3500 
L 2356 3500 
L 2356 3053 
L 1172 3053 
L 1172 1153 
Q 1172 725 1289 603 
Q 1406 481 1766 481 
L 2356 481 
L 2356 0 
L 1766 0 
Q 1100 0 847 248 
Q 594 497 594 1153 
L 594 3053 
L 172 3053 
L 172 3500 
L 594 3500 
L 594 4494 
L 1172 4494 
z
" id="DejaVuSans-74" transform="scale(0.015625)"/>
       <path d="M 3513 2113 
L 3513 0 
L 2938 0 
L 2938 2094 
Q 2938 2591 2744 2837 
Q 2550 3084 2163 3084 
Q 1697 3084 1428 2787 
Q 1159 2491 1159 1978 
L 1159 0 
L 581 0 
L 581 4863 
L 1159 4863 
L 1159 2956 
Q 1366 3272 1645 3428 
Q 1925 3584 2291 3584 
Q 2894 3584 3203 3211 
Q 3513 2838 3513 2113 
z
" id="DejaVuSans-68" transform="scale(0.015625)"/>
       <path d="M 1984 4856 
Q 1566 4138 1362 3434 
Q 1159 2731 1159 2009 
Q 1159 1288 1364 580 
Q 1569 -128 1984 -844 
L 1484 -844 
Q 1016 -109 783 600 
Q 550 1309 550 2009 
Q 550 2706 781 3412 
Q 1013 4119 1484 4856 
L 1984 4856 
z
" id="DejaVuSans-28" transform="scale(0.015625)"/>
       <path d="M 1159 525 
L 1159 -1331 
L 581 -1331 
L 581 3500 
L 1159 3500 
L 1159 2969 
Q 1341 3281 1617 3432 
Q 1894 3584 2278 3584 
Q 2916 3584 3314 3078 
Q 3713 2572 3713 1747 
Q 3713 922 3314 415 
Q 2916 -91 2278 -91 
Q 1894 -91 1617 61 
Q 1341 213 1159 525 
z
M 3116 1747 
Q 3116 2381 2855 2742 
Q 2594 3103 2138 3103 
Q 1681 3103 1420 2742 
Q 1159 2381 1159 1747 
Q 1159 1113 1420 752 
Q 1681 391 2138 391 
Q 2594 391 2855 752 
Q 3116 1113 3116 1747 
z
" id="DejaVuSans-70" transform="scale(0.015625)"/>
       <path d="M 603 4863 
L 1178 4863 
L 1178 0 
L 603 0 
L 603 4863 
z
" id="DejaVuSans-6c" transform="scale(0.015625)"/>
       <path d="M 1625 4666 
L 2156 4666 
L 531 -594 
L 0 -594 
L 1625 4666 
z
" id="DejaVuSans-2f" transform="scale(0.015625)"/>
       <path d="M 2059 -325 
Q 1816 -950 1584 -1140 
Q 1353 -1331 966 -1331 
L 506 -1331 
L 506 -850 
L 844 -850 
Q 1081 -850 1212 -737 
Q 1344 -625 1503 -206 
L 1606 56 
L 191 3500 
L 800 3500 
L 1894 763 
L 2988 3500 
L 3597 3500 
L 2059 -325 
z
" id="DejaVuSans-79" transform="scale(0.015625)"/>
       <path d="M 513 4856 
L 1013 4856 
Q 1481 4119 1714 3412 
Q 1947 2706 1947 2009 
Q 1947 1309 1714 600 
Q 1481 -109 1013 -844 
L 513 -844 
Q 928 -128 1133 580 
Q 1338 1288 1338 2009 
Q 1338 2731 1133 3434 
Q 928 4138 513 4856 
z
" id="DejaVuSans-29" transform="scale(0.015625)"/>
      </defs>
      <use xlink:href="#DejaVuSans-4f"/>
      <use x="78.710938" xlink:href="#DejaVuSans-76"/>
      <use x="137.890625" xlink:href="#DejaVuSans-65"/>
      <use x="199.414062" xlink:href="#DejaVuSans-72"/>
      <use x="238.777344" xlink:href="#DejaVuSans-64"/>
      <use x="302.253906" xlink:href="#DejaVuSans-6f"/>
      <use x="363.435547" xlink:href="#DejaVuSans-73"/>
      <use x="415.535156" xlink:href="#DejaVuSans-65"/>
      <use x="477.058594" xlink:href="#DejaVuSans-20"/>
      <use x="508.845703" xlink:href="#DejaVuSans-64"/>
      <use x="572.322266" xlink:href="#DejaVuSans-65"/>
      <use x="633.845703" xlink:href="#DejaVuSans-61"/>
      <use x="695.125" xlink:href="#DejaVuSans-74"/>
      <use x="734.333984" xlink:href="#DejaVuSans-68"/>
      <use x="797.712891" xlink:href="#DejaVuSans-73"/>
      <use x="849.8125" xlink:href="#DejaVuSans-20"/>
      <use x="881.599609" xlink:href="#DejaVuSans-28"/>
      <use x="920.613281" xlink:href="#DejaVuSans-70"/>
      <use x="984.089844" xlink:href="#DejaVuSans-65"/>
      <use x="1045.613281" xlink:href="#DejaVuSans-6f"/>
      <use x="1106.794922" xlink:href="#DejaVuSans-70"/>
      <use x="1170.271484" xlink:href="#DejaVuSans-6c"/>
      <use x="1198.054688" xlink:href="#DejaVuSans-65"/>
      <use x="1259.578125" xlink:href="#DejaVuSans-2f"/>
      <use x="1293.269531" xlink:href="#DejaVuSans-79"/>
      <use x="1352.449219" xlink:href="#DejaVuSans-65"/>
      <use x="1413.972656" xlink:href="#DejaVuSans-61"/>
      <use x="1475.251953" xlink:href="#DejaVuSans-72"/>
      <use x="1516.365234" xlink:href="#DejaVuSans-29"/>
     </g>
    </g>
   </g>
   <g id="line2d_20">
    <path clip-path="url(#p5283426744)" d="M 83.213757 382.802588 
L 88.814502 382.331665 
L 94.415248 381.860743 
L 100.015993 381.38982 
L 105.616739 380.918898 
L 111.217485 379.480927 
L 116.81823 378.042955 
L 122.418976 376.604984 
L 128.019722 375.167012 
L 133.620467 371.951475 
L 139.221213 368.735937 
L 144.821958 365.5204 
L 150.422704 362.304862 
L 156.02345 360.923932 
L 161.624195 359.543002 
L 167.224941 358.162072 
L 172.825686 356.781142 
L 178.426432 355.693377 
L 184.027178 354.605613 
L 189.627923 353.517849 
L 195.228669 352.430084 
L 200.829415 350.875377 
L 206.43016 349.32067 
L 212.030906 347.765963 
L 217.631651 346.211256 
L 223.232397 342.722451 
L 228.833143 339.233645 
L 234.433888 335.74484 
L 240.034634 332.256035 
L 245.635379 330.963983 
L 251.236125 329.671931 
L 256.836871 328.37988 
L 262.437616 327.087828 
L 268.038362 325.649856 
L 273.639108 324.211885 
L 279.239853 322.773913 
L 284.840599 321.335942 
L 290.441344 320.240218 
L 296.04209 319.144495 
L 301.642836 318.048771 
L 307.243581 316.953048 
L 312.844327 316.080183 
L 318.445072 315.207318 
L 324.045818 314.334454 
L 329.646564 313.461589 
L 335.247309 311.185243 
L 340.848055 308.908898 
L 346.448801 306.632552 
L 352.049546 304.356206 
L 357.650292 303.853446 
L 363.251037 303.350687 
L 368.851783 302.847928 
L 374.452529 302.345168 
L 380.053274 299.839331 
L 385.65402 297.333493 
L 391.254766 294.827655 
L 396.855511 292.321818 
L 402.456257 287.540961 
L 408.057002 282.760104 
L 413.657748 277.979247 
L 419.258494 273.19839 
L 424.859239 267.250176 
L 430.459985 261.301962 
L 436.06073 255.353748 
L 441.661476 249.405534 
L 447.262222 237.161552 
L 452.862967 224.917571 
L 458.463713 212.673589 
L 464.064459 200.429607 
L 469.665204 193.20128 
L 475.26595 185.972954 
L 480.866695 178.744627 
L 486.467441 171.5163 
L 492.068187 172.558962 
L 497.668932 173.601624 
L 503.269678 174.644286 
L 508.870423 175.686948 
L 514.471169 171.598546 
L 520.071915 167.510143 
L 525.67266 163.421741 
L 531.273406 159.333339 
L 536.874152 134.284248 
L 542.474897 109.235158 
L 548.075643 84.186067 
L 553.676388 59.136976 
" style="fill:none;stroke:#0000ff;stroke-dasharray:5.55,2.4;stroke-dashoffset:0;stroke-width:1.5;"/>
   </g>
   <g id="line2d_21">
    <path clip-path="url(#p5283426744)" d="M 83.213757 374.534758 
L 88.814502 371.988239 
L 94.415248 370.1952 
L 100.015993 368.739642 
L 105.616739 367.351978 
L 111.217485 366.015793 
L 116.81823 364.683855 
L 122.418976 363.334934 
L 128.019722 361.965316 
L 133.620467 360.612744 
L 139.221213 359.252202 
L 144.821958 357.883689 
L 150.422704 356.507734 
L 156.02345 354.98379 
L 161.624195 353.434326 
L 167.224941 351.884827 
L 172.825686 350.335828 
L 178.426432 348.833031 
L 184.027178 347.342409 
L 189.627923 345.851217 
L 195.228669 344.360514 
L 200.829415 342.888825 
L 206.43016 341.39848 
L 212.030906 339.90807 
L 217.631651 338.419712 
L 223.232397 336.85457 
L 228.833143 335.345145 
L 234.433888 333.849484 
L 240.034634 332.368654 
L 245.635379 330.472728 
L 251.236125 328.501812 
L 256.836871 326.492571 
L 262.437616 324.447123 
L 268.038362 323.022606 
L 273.639108 321.610217 
L 279.239853 320.187621 
L 284.840599 318.754271 
L 290.441344 317.139748 
L 296.04209 315.531959 
L 301.642836 313.947894 
L 307.243581 312.388079 
L 312.844327 310.845901 
L 318.445072 309.340262 
L 324.045818 307.856803 
L 329.646564 306.394456 
L 335.247309 305.047672 
L 340.848055 303.731229 
L 346.448801 302.455793 
L 352.049546 301.155892 
L 357.650292 300.123028 
L 363.251037 299.276665 
L 368.851783 298.575796 
L 374.452529 297.998885 
L 380.053274 296.839709 
L 385.65402 295.779215 
L 391.254766 294.802517 
L 396.855511 293.902746 
L 402.456257 292.087244 
L 408.057002 290.283369 
L 413.657748 288.484141 
L 419.258494 286.687952 
L 424.859239 282.300345 
L 430.459985 277.742674 
L 436.06073 272.980181 
L 441.661476 267.998019 
L 447.262222 258.45972 
L 452.862967 248.28727 
L 458.463713 237.529131 
L 464.064459 226.200555 
L 469.665204 211.28673 
L 475.26595 196.032438 
L 480.866695 180.218231 
L 486.467441 163.909982 
L 492.068187 154.143879 
L 497.668932 144.335948 
L 503.269678 134.51442 
L 508.870423 124.71091 
L 514.471169 117.046698 
L 520.071915 109.46329 
L 525.67266 102.051083 
L 531.273406 94.816682 
L 536.874152 82.886109 
L 542.474897 70.176888 
L 548.075643 57.201016 
L 553.676388 43.981203 
" style="fill:none;stroke:#008000;stroke-linecap:square;stroke-width:3;"/>
   </g>
   <g id="line2d_22">
    <path clip-path="url(#p5283426744)" d="M 83.213757 388.608172 
L 88.814502 388.190138 
L 94.415248 387.772105 
L 100.015993 387.354072 
L 105.616739 386.936039 
L 111.217485 385.749434 
L 116.81823 384.562829 
L 122.418976 383.376224 
L 128.019722 382.189619 
L 133.620467 379.477982 
L 139.221213 376.766344 
L 144.821958 374.054707 
L 150.422704 371.34307 
L 156.02345 370.072402 
L 161.624195 368.801734 
L 167.224941 367.531066 
L 172.825686 366.260398 
L 178.426432 365.475443 
L 184.027178 364.690488 
L 189.627923 363.905534 
L 195.228669 363.120579 
L 200.829415 361.670258 
L 206.43016 360.219936 
L 212.030906 358.769615 
L 217.631651 357.319293 
L 223.232397 355.182393 
L 228.833143 353.045493 
L 234.433888 350.908594 
L 240.034634 348.771694 
L 245.635379 346.687537 
L 251.236125 344.603381 
L 256.836871 342.519224 
L 262.437616 340.435068 
L 268.038362 339.146651 
L 273.639108 337.858234 
L 279.239853 336.569817 
L 284.840599 335.281399 
L 290.441344 335.097275 
L 296.04209 334.913151 
L 301.642836 334.729027 
L 307.243581 334.544903 
L 312.844327 333.688063 
L 318.445072 332.831224 
L 324.045818 331.974384 
L 329.646564 331.117544 
L 335.247309 328.384284 
L 340.848055 325.651024 
L 346.448801 322.917764 
L 352.049546 320.184504 
L 357.650292 319.610788 
L 363.251037 319.037071 
L 368.851783 318.463355 
L 374.452529 317.889639 
L 380.053274 316.030385 
L 385.65402 314.17113 
L 391.254766 312.311875 
L 396.855511 310.452621 
L 402.456257 309.025222 
L 408.057002 307.597823 
L 413.657748 306.170424 
L 419.258494 304.743025 
L 424.859239 304.396798 
L 430.459985 304.05057 
L 436.06073 303.704343 
L 441.661476 303.358116 
L 447.262222 304.513666 
L 452.862967 305.669217 
L 458.463713 306.824768 
L 464.064459 307.980318 
L 469.665204 312.911738 
L 475.26595 317.843157 
L 480.866695 322.774577 
L 486.467441 327.705996 
L 492.068187 332.374084 
L 497.668932 337.042172 
L 503.269678 341.710259 
L 508.870423 346.378347 
L 514.471169 348.963578 
L 520.071915 351.548809 
L 525.67266 354.134041 
L 531.273406 356.719272 
L 536.874152 358.661037 
L 542.474897 360.602803 
L 548.075643 362.544568 
L 553.676388 364.486334 
" style="fill:none;stroke:#ff0000;stroke-dasharray:5.55,2.4;stroke-dashoffset:0;stroke-width:1.5;"/>
   </g>
   <g id="line2d_23">
    <path clip-path="url(#p5283426744)" d="M 83.213757 374.53664 
L 88.814502 371.991271 
L 94.415248 370.199378 
L 100.015993 368.744958 
L 105.616739 367.358456 
L 111.217485 366.022894 
L 116.81823 364.691576 
L 122.418976 363.343279 
L 128.019722 361.974288 
L 133.620467 360.622276 
L 139.221213 359.262306 
L 144.821958 357.894376 
L 150.422704 356.519017 
L 156.02345 354.997208 
L 161.624195 353.44993 
L 167.224941 351.902651 
L 172.825686 350.355903 
L 178.426432 348.855319 
L 184.027178 347.366939 
L 189.627923 345.878028 
L 195.228669 344.389648 
L 200.829415 342.919309 
L 206.43016 341.430399 
L 212.030906 339.941488 
L 217.631651 338.4547 
L 223.232397 336.895748 
L 228.833143 335.392511 
L 234.433888 333.903069 
L 240.034634 332.428485 
L 245.635379 330.973534 
L 251.236125 329.45597 
L 256.836871 327.911876 
L 262.437616 326.344964 
L 268.038362 324.722869 
L 273.639108 323.110855 
L 279.239853 321.485045 
L 284.840599 319.844909 
L 290.441344 318.256242 
L 296.04209 316.676596 
L 301.642836 315.121359 
L 307.243581 313.592121 
L 312.844327 312.092067 
L 318.445072 310.628626 
L 324.045818 309.188002 
L 329.646564 307.768072 
L 335.247309 306.408101 
L 340.848055 305.081559 
L 346.448801 303.797997 
L 352.049546 302.503292 
L 357.650292 301.230873 
L 363.251037 300.108088 
L 368.851783 299.108937 
L 374.452529 298.2175 
L 380.053274 297.540964 
L 385.65402 296.979572 
L 391.254766 296.517935 
L 396.855511 296.149687 
L 402.456257 295.939563 
L 408.057002 295.79948 
L 413.657748 295.72201 
L 419.258494 295.702908 
L 424.859239 295.755439 
L 430.459985 295.864215 
L 436.06073 296.011196 
L 441.661476 296.19532 
L 447.262222 296.647405 
L 452.862967 297.119654 
L 458.463713 297.633291 
L 464.064459 298.185133 
L 469.665204 299.328081 
L 475.26595 300.66895 
L 480.866695 302.076146 
L 486.467441 303.541709 
L 492.068187 305.240213 
L 497.668932 306.979044 
L 503.269678 308.750774 
L 508.870423 310.55381 
L 514.471169 311.996026 
L 520.071915 313.44461 
L 525.67266 314.921316 
L 531.273406 316.424553 
L 536.874152 317.608359 
L 542.474897 318.661634 
L 548.075643 319.675642 
L 553.676388 320.661528 
" style="fill:none;stroke:#ff0000;stroke-linecap:square;stroke-width:3;"/>
   </g>
   <g id="patch_3">
    <path d="M 59.690625 405.83952 
L 59.690625 26.749855 
" style="fill:none;stroke:#000000;stroke-linecap:square;stroke-linejoin:miter;stroke-width:0.8;"/>
   </g>
   <g id="patch_4">
    <path d="M 577.19952 405.83952 
L 577.19952 26.749855 
" style="fill:none;stroke:#000000;stroke-linecap:square;stroke-linejoin:miter;stroke-width:0.8;"/>
   </g>
   <g id="patch_5">
    <path d="M 59.690625 405.83952 
L 577.19952 405.83952 
" style="fill:none;stroke:#000000;stroke-linecap:square;stroke-linejoin:miter;stroke-width:0.8;"/>
   </g>
   <g id="patch_6">
    <path d="M 59.690625 26.749855 
L 577.19952 26.749855 
" style="fill:none;stroke:#000000;stroke-linecap:square;stroke-linejoin:miter;stroke-width:0.8;"/>
   </g>
   <g id="legend_1">
    <g id="patch_7">
     <path d="M 66.690625 108.14048 
L 273.390625 108.14048 
Q 275.390625 108.14048 275.390625 106.14048 
L 275.390625 33.749855 
Q 275.390625 31.749855 273.390625 31.749855 
L 66.690625 31.749855 
Q 64.690625 31.749855 64.690625 33.749855 
L 64.690625 106.14048 
Q 64.690625 108.14048 66.690625 108.14048 
z
" style="fill:#ffffff;opacity:0.8;stroke:#cccccc;stroke-linejoin:miter;"/>
    </g>
    <g id="line2d_24">
     <path d="M 68.690625 39.848292 
L 88.690625 39.848292 
" style="fill:none;stroke:#0000ff;stroke-dasharray:5.55,2.4;stroke-dashoffset:0;stroke-width:1.5;"/>
    </g>
    <g id="line2d_25"/>
    <g id="text_20">
     <!-- Baseline (data) -->
     <g transform="translate(96.690625 43.348292)scale(0.1 -0.1)">
      <defs>
       <path d="M 1259 2228 
L 1259 519 
L 2272 519 
Q 2781 519 3026 730 
Q 3272 941 3272 1375 
Q 3272 1813 3026 2020 
Q 2781 2228 2272 2228 
L 1259 2228 
z
M 1259 4147 
L 1259 2741 
L 2194 2741 
Q 2656 2741 2882 2914 
Q 3109 3088 3109 3444 
Q 3109 3797 2882 3972 
Q 2656 4147 2194 4147 
L 1259 4147 
z
M 628 4666 
L 2241 4666 
Q 2963 4666 3353 4366 
Q 3744 4066 3744 3513 
Q 3744 3084 3544 2831 
Q 3344 2578 2956 2516 
Q 3422 2416 3680 2098 
Q 3938 1781 3938 1306 
Q 3938 681 3513 340 
Q 3088 0 2303 0 
L 628 0 
L 628 4666 
z
" id="DejaVuSans-42" transform="scale(0.015625)"/>
       <path d="M 603 3500 
L 1178 3500 
L 1178 0 
L 603 0 
L 603 3500 
z
M 603 4863 
L 1178 4863 
L 1178 4134 
L 603 4134 
L 603 4863 
z
" id="DejaVuSans-69" transform="scale(0.015625)"/>
       <path d="M 3513 2113 
L 3513 0 
L 2938 0 
L 2938 2094 
Q 2938 2591 2744 2837 
Q 2550 3084 2163 3084 
Q 1697 3084 1428 2787 
Q 1159 2491 1159 1978 
L 1159 0 
L 581 0 
L 581 3500 
L 1159 3500 
L 1159 2956 
Q 1366 3272 1645 3428 
Q 1925 3584 2291 3584 
Q 2894 3584 3203 3211 
Q 3513 2838 3513 2113 
z
" id="DejaVuSans-6e" transform="scale(0.015625)"/>
      </defs>
      <use xlink:href="#DejaVuSans-42"/>
      <use x="68.603516" xlink:href="#DejaVuSans-61"/>
      <use x="129.882812" xlink:href="#DejaVuSans-73"/>
      <use x="181.982422" xlink:href="#DejaVuSans-65"/>
      <use x="243.505859" xlink:href="#DejaVuSans-6c"/>
      <use x="271.289062" xlink:href="#DejaVuSans-69"/>
      <use x="299.072266" xlink:href="#DejaVuSans-6e"/>
      <use x="362.451172" xlink:href="#DejaVuSans-65"/>
      <use x="423.974609" xlink:href="#DejaVuSans-20"/>
      <use x="455.761719" xlink:href="#DejaVuSans-28"/>
      <use x="494.775391" xlink:href="#DejaVuSans-64"/>
      <use x="558.251953" xlink:href="#DejaVuSans-61"/>
      <use x="619.53125" xlink:href="#DejaVuSans-74"/>
      <use x="658.740234" xlink:href="#DejaVuSans-61"/>
      <use x="720.019531" xlink:href="#DejaVuSans-29"/>
     </g>
    </g>
    <g id="line2d_26">
     <path d="M 68.690625 54.526417 
L 88.690625 54.526417 
" style="fill:none;stroke:#0000ff;stroke-linecap:square;stroke-width:3;"/>
    </g>
    <g id="line2d_27"/>
    <g id="text_21">
     <!-- Baseline (simulated) -->
     <g transform="translate(96.690625 58.026417)scale(0.1 -0.1)">
      <defs>
       <path d="M 3328 2828 
Q 3544 3216 3844 3400 
Q 4144 3584 4550 3584 
Q 5097 3584 5394 3201 
Q 5691 2819 5691 2113 
L 5691 0 
L 5113 0 
L 5113 2094 
Q 5113 2597 4934 2840 
Q 4756 3084 4391 3084 
Q 3944 3084 3684 2787 
Q 3425 2491 3425 1978 
L 3425 0 
L 2847 0 
L 2847 2094 
Q 2847 2600 2669 2842 
Q 2491 3084 2119 3084 
Q 1678 3084 1418 2786 
Q 1159 2488 1159 1978 
L 1159 0 
L 581 0 
L 581 3500 
L 1159 3500 
L 1159 2956 
Q 1356 3278 1631 3431 
Q 1906 3584 2284 3584 
Q 2666 3584 2933 3390 
Q 3200 3197 3328 2828 
z
" id="DejaVuSans-6d" transform="scale(0.015625)"/>
       <path d="M 544 1381 
L 544 3500 
L 1119 3500 
L 1119 1403 
Q 1119 906 1312 657 
Q 1506 409 1894 409 
Q 2359 409 2629 706 
Q 2900 1003 2900 1516 
L 2900 3500 
L 3475 3500 
L 3475 0 
L 2900 0 
L 2900 538 
Q 2691 219 2414 64 
Q 2138 -91 1772 -91 
Q 1169 -91 856 284 
Q 544 659 544 1381 
z
M 1991 3584 
L 1991 3584 
z
" id="DejaVuSans-75" transform="scale(0.015625)"/>
      </defs>
      <use xlink:href="#DejaVuSans-42"/>
      <use x="68.603516" xlink:href="#DejaVuSans-61"/>
      <use x="129.882812" xlink:href="#DejaVuSans-73"/>
      <use x="181.982422" xlink:href="#DejaVuSans-65"/>
      <use x="243.505859" xlink:href="#DejaVuSans-6c"/>
      <use x="271.289062" xlink:href="#DejaVuSans-69"/>
      <use x="299.072266" xlink:href="#DejaVuSans-6e"/>
      <use x="362.451172" xlink:href="#DejaVuSans-65"/>
      <use x="423.974609" xlink:href="#DejaVuSans-20"/>
      <use x="455.761719" xlink:href="#DejaVuSans-28"/>
      <use x="494.775391" xlink:href="#DejaVuSans-73"/>
      <use x="546.875" xlink:href="#DejaVuSans-69"/>
      <use x="574.658203" xlink:href="#DejaVuSans-6d"/>
      <use x="672.070312" xlink:href="#DejaVuSans-75"/>
      <use x="735.449219" xlink:href="#DejaVuSans-6c"/>
      <use x="763.232422" xlink:href="#DejaVuSans-61"/>
      <use x="824.511719" xlink:href="#DejaVuSans-74"/>
      <use x="863.720703" xlink:href="#DejaVuSans-65"/>
      <use x="925.244141" xlink:href="#DejaVuSans-64"/>
      <use x="988.720703" xlink:href="#DejaVuSans-29"/>
     </g>
    </g>
    <g id="line2d_28">
     <path d="M 68.690625 69.204542 
L 88.690625 69.204542 
" style="fill:none;stroke:#008000;stroke-linecap:square;stroke-width:3;"/>
    </g>
    <g id="line2d_29"/>
    <g id="text_22">
     <!-- No layperson naloxone (simulated) -->
     <g transform="translate(96.690625 72.704542)scale(0.1 -0.1)">
      <defs>
       <path d="M 628 4666 
L 1478 4666 
L 3547 763 
L 3547 4666 
L 4159 4666 
L 4159 0 
L 3309 0 
L 1241 3903 
L 1241 0 
L 628 0 
L 628 4666 
z
" id="DejaVuSans-4e" transform="scale(0.015625)"/>
       <path d="M 3513 3500 
L 2247 1797 
L 3578 0 
L 2900 0 
L 1881 1375 
L 863 0 
L 184 0 
L 1544 1831 
L 300 3500 
L 978 3500 
L 1906 2253 
L 2834 3500 
L 3513 3500 
z
" id="DejaVuSans-78" transform="scale(0.015625)"/>
      </defs>
      <use xlink:href="#DejaVuSans-4e"/>
      <use x="74.804688" xlink:href="#DejaVuSans-6f"/>
      <use x="135.986328" xlink:href="#DejaVuSans-20"/>
      <use x="167.773438" xlink:href="#DejaVuSans-6c"/>
      <use x="195.556641" xlink:href="#DejaVuSans-61"/>
      <use x="256.835938" xlink:href="#DejaVuSans-79"/>
      <use x="316.015625" xlink:href="#DejaVuSans-70"/>
      <use x="379.492188" xlink:href="#DejaVuSans-65"/>
      <use x="441.015625" xlink:href="#DejaVuSans-72"/>
      <use x="482.128906" xlink:href="#DejaVuSans-73"/>
      <use x="534.228516" xlink:href="#DejaVuSans-6f"/>
      <use x="595.410156" xlink:href="#DejaVuSans-6e"/>
      <use x="658.789062" xlink:href="#DejaVuSans-20"/>
      <use x="690.576172" xlink:href="#DejaVuSans-6e"/>
      <use x="753.955078" xlink:href="#DejaVuSans-61"/>
      <use x="815.234375" xlink:href="#DejaVuSans-6c"/>
      <use x="843.017578" xlink:href="#DejaVuSans-6f"/>
      <use x="901.074219" xlink:href="#DejaVuSans-78"/>
      <use x="957.128906" xlink:href="#DejaVuSans-6f"/>
      <use x="1018.310547" xlink:href="#DejaVuSans-6e"/>
      <use x="1081.689453" xlink:href="#DejaVuSans-65"/>
      <use x="1143.212891" xlink:href="#DejaVuSans-20"/>
      <use x="1175" xlink:href="#DejaVuSans-28"/>
      <use x="1214.013672" xlink:href="#DejaVuSans-73"/>
      <use x="1266.113281" xlink:href="#DejaVuSans-69"/>
      <use x="1293.896484" xlink:href="#DejaVuSans-6d"/>
      <use x="1391.308594" xlink:href="#DejaVuSans-75"/>
      <use x="1454.6875" xlink:href="#DejaVuSans-6c"/>
      <use x="1482.470703" xlink:href="#DejaVuSans-61"/>
      <use x="1543.75" xlink:href="#DejaVuSans-74"/>
      <use x="1582.958984" xlink:href="#DejaVuSans-65"/>
      <use x="1644.482422" xlink:href="#DejaVuSans-64"/>
      <use x="1707.958984" xlink:href="#DejaVuSans-29"/>
     </g>
    </g>
    <g id="line2d_30">
     <path d="M 68.690625 83.882667 
L 88.690625 83.882667 
" style="fill:none;stroke:#ff0000;stroke-dasharray:5.55,2.4;stroke-dashoffset:0;stroke-width:1.5;"/>
    </g>
    <g id="line2d_31"/>
    <g id="text_23">
     <!-- No synthetic opioids (data) -->
     <g transform="translate(96.690625 87.382667)scale(0.1 -0.1)">
      <defs>
       <path d="M 3122 3366 
L 3122 2828 
Q 2878 2963 2633 3030 
Q 2388 3097 2138 3097 
Q 1578 3097 1268 2742 
Q 959 2388 959 1747 
Q 959 1106 1268 751 
Q 1578 397 2138 397 
Q 2388 397 2633 464 
Q 2878 531 3122 666 
L 3122 134 
Q 2881 22 2623 -34 
Q 2366 -91 2075 -91 
Q 1284 -91 818 406 
Q 353 903 353 1747 
Q 353 2603 823 3093 
Q 1294 3584 2113 3584 
Q 2378 3584 2631 3529 
Q 2884 3475 3122 3366 
z
" id="DejaVuSans-63" transform="scale(0.015625)"/>
      </defs>
      <use xlink:href="#DejaVuSans-4e"/>
      <use x="74.804688" xlink:href="#DejaVuSans-6f"/>
      <use x="135.986328" xlink:href="#DejaVuSans-20"/>
      <use x="167.773438" xlink:href="#DejaVuSans-73"/>
      <use x="219.873047" xlink:href="#DejaVuSans-79"/>
      <use x="279.052734" xlink:href="#DejaVuSans-6e"/>
      <use x="342.431641" xlink:href="#DejaVuSans-74"/>
      <use x="381.640625" xlink:href="#DejaVuSans-68"/>
      <use x="445.019531" xlink:href="#DejaVuSans-65"/>
      <use x="506.542969" xlink:href="#DejaVuSans-74"/>
      <use x="545.751953" xlink:href="#DejaVuSans-69"/>
      <use x="573.535156" xlink:href="#DejaVuSans-63"/>
      <use x="628.515625" xlink:href="#DejaVuSans-20"/>
      <use x="660.302734" xlink:href="#DejaVuSans-6f"/>
      <use x="721.484375" xlink:href="#DejaVuSans-70"/>
      <use x="784.960938" xlink:href="#DejaVuSans-69"/>
      <use x="812.744141" xlink:href="#DejaVuSans-6f"/>
      <use x="873.925781" xlink:href="#DejaVuSans-69"/>
      <use x="901.708984" xlink:href="#DejaVuSans-64"/>
      <use x="965.185547" xlink:href="#DejaVuSans-73"/>
      <use x="1017.285156" xlink:href="#DejaVuSans-20"/>
      <use x="1049.072266" xlink:href="#DejaVuSans-28"/>
      <use x="1088.085938" xlink:href="#DejaVuSans-64"/>
      <use x="1151.5625" xlink:href="#DejaVuSans-61"/>
      <use x="1212.841797" xlink:href="#DejaVuSans-74"/>
      <use x="1252.050781" xlink:href="#DejaVuSans-61"/>
      <use x="1313.330078" xlink:href="#DejaVuSans-29"/>
     </g>
    </g>
    <g id="line2d_32">
     <path d="M 68.690625 98.560792 
L 88.690625 98.560792 
" style="fill:none;stroke:#ff0000;stroke-linecap:square;stroke-width:3;"/>
    </g>
    <g id="line2d_33"/>
    <g id="text_24">
     <!-- No IMF (simulated counterfactual) -->
     <g transform="translate(96.690625 102.060792)scale(0.1 -0.1)">
      <defs>
       <path d="M 628 4666 
L 1259 4666 
L 1259 0 
L 628 0 
L 628 4666 
z
" id="DejaVuSans-49" transform="scale(0.015625)"/>
       <path d="M 628 4666 
L 1569 4666 
L 2759 1491 
L 3956 4666 
L 4897 4666 
L 4897 0 
L 4281 0 
L 4281 4097 
L 3078 897 
L 2444 897 
L 1241 4097 
L 1241 0 
L 628 0 
L 628 4666 
z
" id="DejaVuSans-4d" transform="scale(0.015625)"/>
       <path d="M 628 4666 
L 3309 4666 
L 3309 4134 
L 1259 4134 
L 1259 2759 
L 3109 2759 
L 3109 2228 
L 1259 2228 
L 1259 0 
L 628 0 
L 628 4666 
z
" id="DejaVuSans-46" transform="scale(0.015625)"/>
       <path d="M 2375 4863 
L 2375 4384 
L 1825 4384 
Q 1516 4384 1395 4259 
Q 1275 4134 1275 3809 
L 1275 3500 
L 2222 3500 
L 2222 3053 
L 1275 3053 
L 1275 0 
L 697 0 
L 697 3053 
L 147 3053 
L 147 3500 
L 697 3500 
L 697 3744 
Q 697 4328 969 4595 
Q 1241 4863 1831 4863 
L 2375 4863 
z
" id="DejaVuSans-66" transform="scale(0.015625)"/>
      </defs>
      <use xlink:href="#DejaVuSans-4e"/>
      <use x="74.804688" xlink:href="#DejaVuSans-6f"/>
      <use x="135.986328" xlink:href="#DejaVuSans-20"/>
      <use x="167.773438" xlink:href="#DejaVuSans-49"/>
      <use x="197.265625" xlink:href="#DejaVuSans-4d"/>
      <use x="283.544922" xlink:href="#DejaVuSans-46"/>
      <use x="341.064453" xlink:href="#DejaVuSans-20"/>
      <use x="372.851562" xlink:href="#DejaVuSans-28"/>
      <use x="411.865234" xlink:href="#DejaVuSans-73"/>
      <use x="463.964844" xlink:href="#DejaVuSans-69"/>
      <use x="491.748047" xlink:href="#DejaVuSans-6d"/>
      <use x="589.160156" xlink:href="#DejaVuSans-75"/>
      <use x="652.539062" xlink:href="#DejaVuSans-6c"/>
      <use x="680.322266" xlink:href="#DejaVuSans-61"/>
      <use x="741.601562" xlink:href="#DejaVuSans-74"/>
      <use x="780.810547" xlink:href="#DejaVuSans-65"/>
      <use x="842.333984" xlink:href="#DejaVuSans-64"/>
      <use x="905.810547" xlink:href="#DejaVuSans-20"/>
      <use x="937.597656" xlink:href="#DejaVuSans-63"/>
      <use x="992.578125" xlink:href="#DejaVuSans-6f"/>
      <use x="1053.759766" xlink:href="#DejaVuSans-75"/>
      <use x="1117.138672" xlink:href="#DejaVuSans-6e"/>
      <use x="1180.517578" xlink:href="#DejaVuSans-74"/>
      <use x="1219.726562" xlink:href="#DejaVuSans-65"/>
      <use x="1281.25" xlink:href="#DejaVuSans-72"/>
      <use x="1322.363281" xlink:href="#DejaVuSans-66"/>
      <use x="1357.568359" xlink:href="#DejaVuSans-61"/>
      <use x="1418.847656" xlink:href="#DejaVuSans-63"/>
      <use x="1473.828125" xlink:href="#DejaVuSans-74"/>
      <use x="1513.037109" xlink:href="#DejaVuSans-75"/>
      <use x="1576.416016" xlink:href="#DejaVuSans-61"/>
      <use x="1637.695312" xlink:href="#DejaVuSans-6c"/>
      <use x="1665.478516" xlink:href="#DejaVuSans-29"/>
     </g>
    </g>
   </g>
   <g id="line2d_34">
    <path clip-path="url(#p5283426744)" d="M 83.213757 374.53664 
L 88.814502 371.991271 
L 94.415248 370.199378 
L 100.015993 368.744958 
L 105.616739 367.358456 
L 111.217485 366.022894 
L 116.81823 364.691576 
L 122.418976 363.343279 
L 128.019722 361.974288 
L 133.620467 360.622276 
L 139.221213 359.262306 
L 144.821958 357.894376 
L 150.422704 356.519017 
L 156.02345 354.997208 
L 161.624195 353.44993 
L 167.224941 351.902651 
L 172.825686 350.355903 
L 178.426432 348.855319 
L 184.027178 347.366939 
L 189.627923 345.878028 
L 195.228669 344.389648 
L 200.829415 342.919309 
L 206.43016 341.430399 
L 212.030906 339.941488 
L 217.631651 338.4547 
L 223.232397 336.895748 
L 228.833143 335.392511 
L 234.433888 333.903069 
L 240.034634 332.428485 
L 245.635379 330.535245 
L 251.236125 328.567187 
L 256.836871 326.560925 
L 262.437616 324.518581 
L 268.038362 323.100243 
L 273.639108 321.694108 
L 279.239853 320.277892 
L 284.840599 318.851064 
L 290.441344 317.240642 
L 296.04209 315.637118 
L 301.642836 314.057472 
L 307.243581 312.502234 
L 312.844327 310.967691 
L 318.445072 309.469759 
L 324.045818 307.994114 
L 329.646564 306.539694 
L 335.247309 305.196172 
L 340.848055 303.883426 
L 346.448801 302.612068 
L 352.049546 301.317894 
L 357.650292 300.306539 
L 363.251037 299.480368 
L 368.851783 298.799056 
L 374.452529 298.241378 
L 380.053274 297.153083 
L 385.65402 296.166136 
L 391.254766 295.265679 
L 396.855511 294.444815 
L 402.456257 292.721372 
L 408.057002 291.015439 
L 413.657748 289.320119 
L 419.258494 287.633819 
L 424.859239 283.461579 
L 430.459985 279.145012 
L 436.06073 274.651218 
L 441.661476 269.966934 
L 447.262222 261.102981 
L 452.862967 251.719023 
L 458.463713 241.868654 
L 464.064459 231.572566 
L 469.665204 218.208452 
L 475.26595 204.706909 
L 480.866695 190.862587 
L 486.467441 176.742344 
L 492.068187 169.720162 
L 497.668932 162.83594 
L 503.269678 156.110373 
L 508.870423 149.566807 
L 514.471169 144.463866 
L 520.071915 139.521171 
L 525.67266 134.815131 
L 531.273406 130.346807 
L 536.874152 121.637263 
L 542.474897 112.370042 
L 548.075643 102.992452 
L 553.676388 93.526249 
" style="fill:none;stroke:#0000ff;stroke-linecap:square;stroke-width:3;"/>
   </g>
  </g>
  <g id="text_25">
   <!-- Impacts of naloxone and IMF on opioid overdose deaths -->
   <g transform="translate(96.711635 17.837812)scale(0.14 -0.14)">
    <use xlink:href="#DejaVuSans-49"/>
    <use x="29.492188" xlink:href="#DejaVuSans-6d"/>
    <use x="126.904297" xlink:href="#DejaVuSans-70"/>
    <use x="190.380859" xlink:href="#DejaVuSans-61"/>
    <use x="251.660156" xlink:href="#DejaVuSans-63"/>
    <use x="306.640625" xlink:href="#DejaVuSans-74"/>
    <use x="345.849609" xlink:href="#DejaVuSans-73"/>
    <use x="397.949219" xlink:href="#DejaVuSans-20"/>
    <use x="429.736328" xlink:href="#DejaVuSans-6f"/>
    <use x="490.917969" xlink:href="#DejaVuSans-66"/>
    <use x="526.123047" xlink:href="#DejaVuSans-20"/>
    <use x="557.910156" xlink:href="#DejaVuSans-6e"/>
    <use x="621.289062" xlink:href="#DejaVuSans-61"/>
    <use x="682.568359" xlink:href="#DejaVuSans-6c"/>
    <use x="710.351562" xlink:href="#DejaVuSans-6f"/>
    <use x="768.408203" xlink:href="#DejaVuSans-78"/>
    <use x="824.462891" xlink:href="#DejaVuSans-6f"/>
    <use x="885.644531" xlink:href="#DejaVuSans-6e"/>
    <use x="949.023438" xlink:href="#DejaVuSans-65"/>
    <use x="1010.546875" xlink:href="#DejaVuSans-20"/>
    <use x="1042.333984" xlink:href="#DejaVuSans-61"/>
    <use x="1103.613281" xlink:href="#DejaVuSans-6e"/>
    <use x="1166.992188" xlink:href="#DejaVuSans-64"/>
    <use x="1230.46875" xlink:href="#DejaVuSans-20"/>
    <use x="1262.255859" xlink:href="#DejaVuSans-49"/>
    <use x="1291.748047" xlink:href="#DejaVuSans-4d"/>
    <use x="1378.027344" xlink:href="#DejaVuSans-46"/>
    <use x="1435.546875" xlink:href="#DejaVuSans-20"/>
    <use x="1467.333984" xlink:href="#DejaVuSans-6f"/>
    <use x="1528.515625" xlink:href="#DejaVuSans-6e"/>
    <use x="1591.894531" xlink:href="#DejaVuSans-20"/>
    <use x="1623.681641" xlink:href="#DejaVuSans-6f"/>
    <use x="1684.863281" xlink:href="#DejaVuSans-70"/>
    <use x="1748.339844" xlink:href="#DejaVuSans-69"/>
    <use x="1776.123047" xlink:href="#DejaVuSans-6f"/>
    <use x="1837.304688" xlink:href="#DejaVuSans-69"/>
    <use x="1865.087891" xlink:href="#DejaVuSans-64"/>
    <use x="1928.564453" xlink:href="#DejaVuSans-20"/>
    <use x="1960.351562" xlink:href="#DejaVuSans-6f"/>
    <use x="2021.533203" xlink:href="#DejaVuSans-76"/>
    <use x="2080.712891" xlink:href="#DejaVuSans-65"/>
    <use x="2142.236328" xlink:href="#DejaVuSans-72"/>
    <use x="2181.599609" xlink:href="#DejaVuSans-64"/>
    <use x="2245.076172" xlink:href="#DejaVuSans-6f"/>
    <use x="2306.257812" xlink:href="#DejaVuSans-73"/>
    <use x="2358.357422" xlink:href="#DejaVuSans-65"/>
    <use x="2419.880859" xlink:href="#DejaVuSans-20"/>
    <use x="2451.667969" xlink:href="#DejaVuSans-64"/>
    <use x="2515.144531" xlink:href="#DejaVuSans-65"/>
    <use x="2576.667969" xlink:href="#DejaVuSans-61"/>
    <use x="2637.947266" xlink:href="#DejaVuSans-74"/>
    <use x="2677.15625" xlink:href="#DejaVuSans-68"/>
    <use x="2740.535156" xlink:href="#DejaVuSans-73"/>
   </g>
  </g>
 </g>
 <defs>
  <clipPath id="p5283426744">
   <rect height="379.089665" width="517.508895" x="59.690625" y="26.749855"/>
  </clipPath>
 </defs>
</svg>
